<svg version="1.1" xmlns="http://www.w3.org/2000/svg" xmlns:xlink="http://www.w3.org/1999/xlink" width="98.99426" height="73.76857" viewBox="0,0,98.99426,73.76857"><defs><linearGradient x1="219.42926" y1="193.88534" x2="198.07814" y2="201.21886" gradientUnits="userSpaceOnUse" id="color-1"><stop offset="0" stop-color="#355ab1"/><stop offset="1" stop-color="#6e8fe0"/></linearGradient><linearGradient x1="248.40238" y1="147.47424" x2="243.13586" y2="161.29259" gradientUnits="userSpaceOnUse" id="color-2"><stop offset="0" stop-color="#355ab1"/><stop offset="1" stop-color="#6e8fe0"/></linearGradient><linearGradient x1="259.46464" y1="152.24345" x2="238.51026" y2="207.22388" gradientUnits="userSpaceOnUse" id="color-3"><stop offset="0" stop-color="#355ab1"/><stop offset="1" stop-color="#6e8fe0"/></linearGradient><linearGradient x1="244.15847" y1="169.08419" x2="238.52458" y2="183.86647" gradientUnits="userSpaceOnUse" id="color-4"><stop offset="0" stop-color="#355ab1"/><stop offset="1" stop-color="#6e8fe0"/></linearGradient></defs><g transform="translate(-190.41129,-142.86166)"><g data-paper-data="{&quot;isPaintingLayer&quot;:true}" fill-rule="nonzero" stroke-linecap="butt" stroke-linejoin="miter" stroke-miterlimit="10" stroke-dasharray="" stroke-dashoffset="0" style="mix-blend-mode: normal"><path d="M190.41129,216.63023v-73.76857h98.99426v73.76857z" fill="none" stroke="none" stroke-width="0"/><g><path d="M206.87277,198.47812c-4.20488,-8.24451 -15.26923,-9.17706 -10.32712,-12.0102c4.94213,-2.83314 16.95167,-2.29019 21.15657,5.9543c4.20487,8.2445 0.87156,19.38685 -4.07056,22.21998c-4.94213,2.83314 -2.55401,-7.91959 -6.7589,-16.1641z" data-paper-data="{&quot;index&quot;:null}" fill="url(#color-1)" stroke="#213f7d" stroke-width="2.5"/><path d="M249.54218,148.5179c6.40351,4.11916 9.90533,10.08447 7.82153,13.32389c-2.08381,3.23943 -8.96414,2.52629 -15.36765,-1.59287c-6.40351,-4.11916 -9.90533,-10.08447 -7.82153,-13.32389c2.08381,-3.23943 8.96414,-2.52629 15.36765,1.59287z" data-paper-data="{&quot;index&quot;:null}" fill="url(#color-2)" stroke="#213f7d" stroke-width="2.5"/><path d="M213.38611,195.28572c-4.28564,-9.56411 7.68038,-24.23604 26.72685,-32.77067c19.04646,-8.53463 37.96087,-7.7001 42.2465,1.86401c2.19311,4.89429 4.30436,11.55597 -0.904,17.75798c-0.50997,0.60727 -2.24966,3.12056 -9.68546,0.39601c-4.5247,-1.65788 -8.20029,-5.819 -9.89177,-2.41438c-1.29491,2.60644 0.03554,5.21071 2.05927,7.16921c2.73579,2.64761 6.69077,4.24047 6.69077,4.24047c0,0 -11.04134,5.5615 -14.99567,5.6214c-20.86884,0.31604 -37.96087,7.7001 -42.2465,-1.86401z" data-paper-data="{&quot;index&quot;:null}" fill="url(#color-3)" stroke="#213f7d" stroke-width="2.5"/><path d="M240.41714,170.05385c6.20636,-0.89342 11.65146,1.25732 12.16197,4.80381c0.51051,3.54648 -4.10685,7.14573 -10.3132,8.03914c-6.20636,0.89342 -11.65146,-1.25732 -12.16197,-4.80381c-0.51051,-3.54648 4.10685,-7.14573 10.3132,-8.03914z" data-paper-data="{&quot;index&quot;:null}" fill="url(#color-4)" stroke="#213f7d" stroke-width="2.5"/><path d="M276.15849,176.2063c-0.83703,-0.31901 -1.25697,-1.25616 -0.93796,-2.09319c0.31901,-0.83703 1.25616,-1.25697 2.09319,-0.93796c0.83703,0.31901 1.25697,1.25616 0.93796,2.09319c-0.31901,0.83703 -1.25616,1.25697 -2.09319,0.93796z" data-paper-data="{&quot;index&quot;:null}" fill="#000000" stroke="none" stroke-width="0.5"/><path d="M269.56202,174.38652c-0.83703,-0.31901 -1.25696,-1.25616 -0.93795,-2.0932c0.31901,-0.83703 1.25616,-1.25697 2.09319,-0.93796c0.83703,0.31901 1.25697,1.25616 0.93796,2.0932c-0.31901,0.83703 -1.25616,1.25696 -2.09321,0.93795z" data-paper-data="{&quot;index&quot;:null}" fill="#000000" stroke="none" stroke-width="0.5"/></g></g></g></svg>