<svg version="1.1" xmlns="http://www.w3.org/2000/svg" xmlns:xlink="http://www.w3.org/1999/xlink" width="77.35876" height="77.35876" viewBox="0,0,77.35876,77.35876"><defs><linearGradient x1="215.63563" y1="109.51978" x2="215.63563" y2="184.37854" gradientUnits="userSpaceOnUse" id="color-1"><stop offset="0" stop-color="#00ff04"/><stop offset="1" stop-color="#00ab03"/></linearGradient></defs><g transform="translate(-176.95626,-108.26978)"><g data-paper-data="{&quot;isPaintingLayer&quot;:true}" fill-rule="nonzero" stroke-linejoin="miter" stroke-miterlimit="10" stroke-dasharray="" stroke-dashoffset="0" style="mix-blend-mode: normal"><path d="M178.20626,184.37853v-74.85875h74.85876v74.85876z" fill="url(#color-1)" stroke="#000000" stroke-width="2.5" stroke-linecap="butt"/><path d="M204.26193,137.72296l12.63504,-14.22356l6.59325,13.54793l-5.4847,6.0463z" data-paper-data="{&quot;index&quot;:null}" fill="#d2b097" stroke="#4f473c" stroke-width="2.5" stroke-linecap="butt"/><path d="M228.73712,157.58124l-15.06653,-5.95054v-13.11547l16.15045,-7.16493l14.63296,7.16493v13.11547z" data-paper-data="{&quot;index&quot;:null}" fill="#d2b097" stroke="#4f473c" stroke-width="2.5" stroke-linecap="butt"/><path d="M244.3456,138.93776l-14.74135,5.6364l-14.74135,-5.41962" data-paper-data="{&quot;index&quot;:null}" fill="none" stroke="#4f473c" stroke-width="2.5" stroke-linecap="round"/><path d="M229.38746,157.14766v-12.13993" data-paper-data="{&quot;index&quot;:null}" fill="none" stroke="#4f473c" stroke-width="2.5" stroke-linecap="round"/><path d="M224.6182,135.25242l2.16785,-7.80424l4.11891,11.05601z" data-paper-data="{&quot;index&quot;:null}" fill="#d2b097" stroke="#4f473c" stroke-width="2.5" stroke-linecap="butt"/><path d="M210.52721,146.95879l-0.21679,-5.20283l12.5735,4.76926v4.76926z" data-paper-data="{&quot;index&quot;:null}" fill="#d2b097" stroke="#4f473c" stroke-width="2.5" stroke-linecap="butt"/><path d="M233.50638,147.60914c-0.59864,0 -1.08392,-0.4853 -1.08392,-1.08392c0,-0.59863 0.48528,-1.08392 1.08392,-1.08392c0.59864,0 1.08392,0.4853 1.08392,1.08392c0,0.59863 -0.48528,1.08392 -1.08392,1.08392z" data-paper-data="{&quot;index&quot;:null}" fill="#000000" stroke="none" stroke-width="0.5" stroke-linecap="butt"/><path d="M187.06838,151.34582c5.65262,0 10.23497,3.48259 10.23497,7.77857c0,4.29599 -4.58235,7.77857 -10.23497,7.77857c-5.65262,0 0.4094,-3.20965 0.4094,-7.50564c0,-4.29599 -6.06203,-8.05151 -0.4094,-8.05151z" data-paper-data="{&quot;index&quot;:null}" fill="#d2b097" stroke="#4f473c" stroke-width="2.5" stroke-linecap="butt"/><path d="M212.0447,161.77699c0,-0.56804 -2.46173,-6.74354 -1.81261,-6.97475c2.04912,-0.72987 6.32906,3.15752 9.55447,2.38747c1.90713,-0.45532 2.6188,-3.23245 4.83163,-3.23245c1.29169,0 4.07572,-0.04384 5.08135,0.31767c2.12991,0.76568 2.11168,2.37815 3.99241,3.25151c3.1574,1.46622 6.53474,2.05366 6.53474,3.81698c0,1.53248 -5.40046,1.537 -7.86537,2.59662c-1.50887,0.64864 -0.89896,2.11622 -1.98352,2.83101c-0.97001,0.63931 -3.57427,0.56492 -5.75959,0.56492c-1.0691,0 -1.55565,-3.10724 -2.56434,-3.18584c-4.2589,-0.33193 -10.34805,4.56624 -12.73872,4.07942c-1.60853,-0.32756 2.72955,-5.2865 2.72955,-6.45256z" data-paper-data="{&quot;index&quot;:null}" fill="#d2b097" stroke="#4f473c" stroke-width="2.5" stroke-linecap="butt"/><path d="M220.06573,156.06373c0,2.15312 -1.47178,5.96228 -1.47178,5.96228c0,0 -2.54538,0.92159 -5.03215,0.83449c-2.41172,-0.08447 -4.76833,-1.18642 -4.69449,-0.64496c0.14819,1.08691 0.39129,2.3662 1.18618,3.00072c1.35892,1.08476 3.49692,1.11868 3.49692,1.11868c0,0 -4.25317,2.51909 -6.27495,2.51909c-7.06388,0 -12.79029,-5.72641 -12.79029,-12.79029c0,-7.06388 5.72641,-12.79029 12.79029,-12.79029c7.06388,0 12.79029,5.72641 12.79029,12.79029z" data-paper-data="{&quot;index&quot;:null}" fill="#d2b097" stroke="#4f473c" stroke-width="2.5" stroke-linecap="butt"/><path d="M191.1993,140.09014c0.76772,-2.0137 4.68173,-1.41796 9.38038,0.37337c3.29386,1.25577 5.84466,3.14711 6.81101,4.85951c-2.99845,0.57298 -5.68348,1.6963 -8.42861,2.83814c-0.38438,-0.1216 -0.77254,-0.25671 -1.16255,-0.4054c-4.69864,-1.79134 -7.88527,-4.87594 -7.11756,-6.88964z" data-paper-data="{&quot;index&quot;:null}" fill="#d2b097" stroke="#4f473c" stroke-width="2.5" stroke-linecap="butt"/><path d="M193.40246,165.61535c-0.50446,-1.34525 1.94924,-3.50927 5.4805,-4.8335c3.53127,-1.32422 6.80287,-1.30718 7.30734,0.03806c0.50446,1.34525 -1.94924,3.50929 -5.4805,4.83351c-3.53127,1.32422 -6.80287,1.30718 -7.30734,-0.03806z" data-paper-data="{&quot;index&quot;:null}" fill="#d2b097" stroke="#4f473c" stroke-width="2.5" stroke-linecap="butt"/><path d="M215.07968,156.28052c-0.59864,0 -1.08392,-0.4853 -1.08392,-1.08392c0,-0.59863 0.48528,-1.08392 1.08392,-1.08392c0.59864,0 1.08392,0.4853 1.08392,1.08392c0,0.59863 -0.48528,1.08392 -1.08392,1.08392z" data-paper-data="{&quot;index&quot;:null}" fill="#000000" stroke="none" stroke-width="0.5" stroke-linecap="butt"/><path d="M232.85602,162.1337c-0.59864,0 -1.08392,-0.4853 -1.08392,-1.08392c0,-0.59863 0.48528,-1.08392 1.08392,-1.08392c0.59864,0 1.08392,0.4853 1.08392,1.08392c0,0.59863 -0.48528,1.08392 -1.08392,1.08392z" data-paper-data="{&quot;index&quot;:null}" fill="#000000" stroke="none" stroke-width="0.5" stroke-linecap="butt"/><path d="M236.14051,165.63536c2.64814,0.49415 4.63465,1.75344 4.43699,2.81269c-0.19766,1.05925 -2.50463,1.51736 -5.15278,1.02322c-2.64814,-0.49415 -4.63465,-1.75344 -4.43699,-2.81269c0.19766,-1.05925 2.50463,-1.51736 5.15278,-1.02322z" data-paper-data="{&quot;index&quot;:null}" fill="#d2b097" stroke="#4f473c" stroke-width="2.5" stroke-linecap="butt"/><path d="M221.36644,163.65119c0,0 -1.35934,-1.78135 -1.58635,-2.8029c-0.20412,-0.91854 0.28564,-3.05029 0.28564,-3.05029" data-paper-data="{&quot;index&quot;:null}" fill="none" stroke="#4f473c" stroke-width="2.5" stroke-linecap="round"/><path d="M219.79598,162.98901c2.38497,-1.11795 4.73032,-1.14542 5.23848,-0.06134c0.50816,1.08408 -1.0133,2.86919 -3.39827,3.98713c-2.38497,1.11795 -4.73032,1.14542 -5.23848,0.06134c-0.50816,-1.08408 1.0133,-2.86919 3.39827,-3.98713z" data-paper-data="{&quot;index&quot;:null}" fill="#d2b097" stroke="#4f473c" stroke-width="2.5" stroke-linecap="butt"/><path d="M222.66715,154.54624l1.73428,-6.93711l6.06997,6.93711z" data-paper-data="{&quot;index&quot;:null}" fill="#d2b097" stroke="#4f473c" stroke-width="2.5" stroke-linecap="butt"/><path d="M237.36262,148.06823c1.64863,-0.75433 3.12078,-1.0038 3.5193,-0.13283c0.39852,0.87096 -0.4275,2.53254 -2.07613,3.2869c-1.64863,0.75434 -3.68294,-0.02822 -4.08145,-0.89919c-0.39852,-0.87098 0.98965,-1.50053 2.63829,-2.25488z" data-paper-data="{&quot;index&quot;:null}" fill="#000000" stroke="#000000" stroke-width="1.5" stroke-linecap="butt"/><path d="M180.75283,172.35739v-51.54517h67.60635v51.54517z" fill="none" stroke="none" stroke-width="0" stroke-linecap="butt"/><path d="M240.49514,145.30265c-0.59864,0 -1.08392,-0.4853 -1.08392,-1.08392c0,-0.59863 0.48528,-1.08392 1.08392,-1.08392c0.59864,0 1.08392,0.4853 1.08392,1.08392c0,0.59863 -0.48528,1.08392 -1.08392,1.08392z" data-paper-data="{&quot;index&quot;:null}" fill="#000000" stroke="none" stroke-width="0.5" stroke-linecap="butt"/></g></g></svg>