<svg version="1.1" xmlns="http://www.w3.org/2000/svg" xmlns:xlink="http://www.w3.org/1999/xlink" width="95.30026" height="72.65986" viewBox="0,0,95.30026,72.65986"><g transform="translate(-192.34987,-143.67007)"><g data-paper-data="{&quot;isPaintingLayer&quot;:true}" fill-rule="nonzero" stroke-linejoin="miter" stroke-miterlimit="10" stroke-dasharray="" stroke-dashoffset="0" style="mix-blend-mode: normal"><path d="M192.34987,216.32993v-72.65986h95.30026v72.65986z" fill="none" stroke="none" stroke-width="0" stroke-linecap="butt"/><path d="M231.30633,163.9021l15.92045,-17.92201l8.30765,17.07071l-6.91085,7.61847z" data-paper-data="{&quot;index&quot;:null}" fill="#d2b097" stroke="#4f473c" stroke-width="2.5" stroke-linecap="butt"/><path d="M262.14563,188.924l-18.98417,-7.49782v-16.52579l20.34994,-9.02798l18.43787,9.02798v16.52579z" data-paper-data="{&quot;index&quot;:null}" fill="#d2b097" stroke="#4f473c" stroke-width="2.5" stroke-linecap="butt"/><path d="M281.81268,165.43278l-18.57444,7.10199l-18.57444,-6.82884" data-paper-data="{&quot;index&quot;:null}" fill="none" stroke="#4f473c" stroke-width="2.5" stroke-linecap="round"/><path d="M262.96508,188.37767v-15.2966" data-paper-data="{&quot;index&quot;:null}" fill="none" stroke="#4f473c" stroke-width="2.5" stroke-linecap="round"/><path d="M256.95571,160.78916l2.73154,-9.83353l5.18992,13.93083z" data-paper-data="{&quot;index&quot;:null}" fill="#d2b097" stroke="#4f473c" stroke-width="2.5" stroke-linecap="butt"/><path d="M239.19844,175.50634l-0.24477,-6.5568l15.81674,6.07792l-0.02602,6.00932z" data-paper-data="{&quot;index&quot;:null}" fill="#d2b097" stroke="#4f473c" stroke-width="2.5" stroke-linecap="butt"/><path d="M268.15501,176.35892c-0.7543,0 -1.36577,-0.61148 -1.36577,-1.36577c0,-0.75428 0.61147,-1.36577 1.36577,-1.36577c0.7543,0 1.36577,0.61148 1.36577,1.36577c0,0.75428 -0.61147,1.36577 -1.36577,1.36577z" data-paper-data="{&quot;index&quot;:null}" fill="#000000" stroke="none" stroke-width="0.5" stroke-linecap="butt"/><path d="M273.01397,176.93739c2.07731,-0.95048 3.93225,-1.26481 4.4344,-0.16737c0.50215,1.09743 -0.53866,3.19106 -2.61597,4.14157c-2.07731,0.95049 -4.64059,-0.03555 -5.14273,-1.133c-0.50215,-1.09746 1.24699,-1.8907 3.3243,-2.8412z" data-paper-data="{&quot;index&quot;:null}" fill="#000000" stroke="#000000" stroke-width="1.5" stroke-linecap="butt"/><path d="M276.96102,173.45269c-0.7543,0 -1.36577,-0.61148 -1.36577,-1.36577c0,-0.75428 0.61147,-1.36577 1.36577,-1.36577c0.7543,0 1.36577,0.61148 1.36577,1.36577c0,0.75428 -0.61147,1.36577 -1.36577,1.36577z" data-paper-data="{&quot;index&quot;:null}" fill="#000000" stroke="none" stroke-width="0.5" stroke-linecap="butt"/><path d="M248.38671,205.02401c-0.12005,-0.70561 -4.48303,-7.85641 -3.72558,-8.28079c2.39111,-1.33967 8.52908,2.58464 12.37287,0.94647c2.27277,-0.96862 2.56988,-4.56871 5.3186,-5.03636c1.6045,-0.27298 5.05349,-0.9158 6.37905,-0.67926c2.80753,0.50099 3.12566,2.5078 5.64641,3.19521c4.2319,1.15404 8.55129,1.16999 8.92394,3.36035c0.32386,1.90361 -6.38349,3.05052 -9.2214,4.88768c-1.73721,1.12459 -0.66944,2.81869 -1.86559,3.9358c-1.06981,0.99913 -4.32048,1.45708 -7.03503,1.91892c-1.32802,0.22594 -2.58906,-3.53097 -3.85863,-3.41544c-5.36043,0.48774 -11.88908,7.85896 -14.96159,7.75947c-2.0673,-0.06695 2.27337,-7.1436 2.02694,-8.59205z" data-paper-data="{&quot;index&quot;:null}" fill="#d2b097" stroke="#4f473c" stroke-width="2.5" stroke-linecap="butt"/><path d="M274.31338,201.06898c-0.74361,0.12652 -1.44898,-0.37375 -1.57549,-1.11735c-0.12651,-0.7436 0.37374,-1.44898 1.11735,-1.57549c0.74361,-0.12652 1.44898,0.37375 1.57549,1.11735c0.12651,0.7436 -0.37374,1.44898 -1.11735,1.57549z" data-paper-data="{&quot;index&quot;:null}" fill="#000000" stroke="none" stroke-width="0.5" stroke-linecap="butt"/><path d="M279.22298,204.7276c3.38964,0.178 6.07979,1.42144 6.00858,2.77729c-0.0712,1.35585 -2.87676,2.3107 -6.2664,2.13271c-3.38964,-0.178 -6.07979,-1.42144 -6.00858,-2.77729c0.0712,-1.35585 2.87676,-2.3107 6.2664,-2.13271z" data-paper-data="{&quot;index&quot;:null}" fill="#d2b097" stroke="#4f473c" stroke-width="2.5" stroke-linecap="butt"/><path d="M260.36201,205.38211c0,0 -2.06499,-1.92548 -2.56287,-3.14643c-0.44767,-1.09785 -0.28981,-3.84935 -0.28981,-3.84935" data-paper-data="{&quot;index&quot;:null}" fill="none" stroke="#4f473c" stroke-width="2.5" stroke-linecap="round"/><path d="M260.0693,202.1622c3.26409,0.60062 5.68885,2.29025 5.41585,3.77393c-0.27301,1.48367 -3.14041,2.19956 -6.40449,1.59894c-3.26409,-0.60062 -5.68885,-2.29025 -5.41585,-3.77393c0.27301,-1.48367 3.14041,-2.19956 6.40449,-1.59894z" data-paper-data="{&quot;index&quot;:null}" fill="#d2b097" stroke="#4f473c" stroke-width="2.5" stroke-linecap="butt"/><path d="M260.05353,193.79729l0.68823,-8.98361l9.00601,7.3343z" data-paper-data="{&quot;index&quot;:null}" fill="#d2b097" stroke="#4f473c" stroke-width="2.5" stroke-linecap="butt"/><g stroke-linecap="butt"><path d="M200.47086,180.37105c7.11777,0.25765 12.72913,4.85179 12.53331,10.26129c-0.19581,5.40951 -6.12464,9.5859 -13.24241,9.32825c-7.11778,-0.25765 0.66181,-4.02293 0.85762,-9.43243c0.19582,-5.4095 -7.26629,-10.41476 -0.14852,-10.1571z" data-paper-data="{&quot;index&quot;:null}" fill="#d2b097" stroke="#4f473c" stroke-width="2.5"/><path d="M241.80601,187.81587c-0.09814,2.71121 -2.12503,7.4406 -2.12503,7.4406c0,0 -3.24715,1.04445 -6.37451,0.82142c-3.03299,-0.21629 -5.95018,-1.71128 -5.8819,-1.0261c0.13706,1.3754 0.38485,2.99736 1.35685,3.83257c1.66172,1.42787 4.35232,1.56803 4.35232,1.56803c0,0 -5.47041,2.97817 -8.01623,2.88602c-8.89483,-0.32197 -15.8445,-7.79367 -15.52252,-16.68851c0.32197,-8.89483 7.79367,-15.8445 16.68851,-15.52252c8.89483,0.32197 15.8445,7.79367 15.52252,16.68851z" data-paper-data="{&quot;index&quot;:null}" fill="#d2b097" stroke="#4f473c" stroke-width="2.5"/><path d="M205.49875,167.33976c1.0585,-2.50067 6.64665,-2.52565 12.48154,-0.05584c4.09038,1.73141 7.21614,4.22923 8.35492,6.42954c-3.80176,0.58483 -7.23395,1.87693 -10.74266,3.1896c-0.47847,-0.17065 -0.96109,-0.35846 -1.44541,-0.56346c-5.83487,-2.46982 -9.70687,-6.49919 -8.64838,-8.99985z" data-paper-data="{&quot;index&quot;:null}" fill="#d2b097" stroke="#4f473c" stroke-width="2.5"/><path d="M206.98302,186.85372c0.75239,-1.64654 4.86613,-1.38027 9.18831,0.59471c4.32219,1.975 7.21609,4.91085 6.4637,6.55739c-0.75239,1.64654 -4.86614,1.3803 -9.18831,-0.59471c-4.32219,-1.975 -7.21609,-4.91085 -6.4637,-6.55739z" data-paper-data="{&quot;index&quot;:null}" fill="#d2b097" stroke="#4f473c" stroke-width="2.5"/><path d="M235.51772,187.8616c-0.75381,-0.02728 -1.34275,-0.66049 -1.31547,-1.41429c0.02728,-0.7538 0.66047,-1.34276 1.41429,-1.31547c0.75381,0.02728 1.34275,0.66049 1.31547,1.41429c-0.02728,0.7538 -0.66047,1.34276 -1.41429,1.31547z" data-paper-data="{&quot;index&quot;:null}" fill="#000000" stroke="none" stroke-width="0.5"/></g></g></g></svg>