<svg version="1.1" xmlns="http://www.w3.org/2000/svg" xmlns:xlink="http://www.w3.org/1999/xlink" width="192.42857" height="964.26645" viewBox="0,0,192.42857,964.26645"><g transform="translate(-143.78572,308.96724)"><g data-paper-data="{&quot;isPaintingLayer&quot;:true}" fill-rule="nonzero" stroke="none" stroke-linecap="butt" stroke-linejoin="miter" stroke-miterlimit="10" stroke-dasharray="" stroke-dashoffset="0" style="mix-blend-mode: normal"><g data-paper-data="{&quot;index&quot;:null}" stroke-width="1"><path d="M241.51741,605.57003c-4.29604,31.24393 -8.20153,51.55248 -16.40306,49.59973c0,0 -34.36831,-32.41556 -27.33843,-66.00278c7.02988,-33.58722 35.93051,-41.78875 32.41557,-68.34608c-3.51494,-26.55733 -34.75886,-37.10216 -34.75886,-67.17443c0,-30.07228 33.58722,-30.07228 32.41557,-68.34608c-1.17165,-38.27381 -40.6171,-34.75886 -31.24392,-80.06255c9.37318,-45.30369 56.62961,-38.2738 27.72898,-75.37596c0,0 40.6171,19.52745 16.40306,60.14455c-24.21404,40.6171 32.41557,56.62961 32.41557,92.56012c0,35.93051 -44.13204,49.99028 -28.90063,73.03267c15.23141,23.04239 27.72898,38.66435 26.55733,80.06255c-0.7811,33.97776 -25.77624,46.86588 -29.29118,69.90827z" fill="#3aaa26"/><path d="M225.11434,655.16977c0,0 -0.78109,-1.5622 -2.73384,-5.46769c-1.5622,-3.51494 -3.51494,-8.20153 -5.46769,-14.45031c-1.95275,-6.24878 -4.29604,-13.66921 -5.07714,-23.04239c-0.39055,-4.68659 -0.39055,-9.76372 0.7811,-14.84086c0.7811,-2.34329 1.95274,-5.07714 3.51494,-7.42043c1.5622,-2.34329 3.51494,-4.29604 5.07714,-6.63933c6.63933,-8.59207 13.66921,-18.74635 19.1369,-30.07227c2.73385,-5.85823 4.68659,-12.10702 5.85824,-18.3558c1.17165,-6.24878 0.39055,-12.49757 -2.73384,-18.74635c-2.73384,-5.46769 -7.42043,-11.32592 -11.71647,-16.79361c-4.29604,-5.46769 -9.37318,-11.32593 -13.27867,-17.57471c-4.29604,-6.24879 -7.81098,-13.27867 -8.20153,-21.08965v-2.73384c0,-0.78109 0.39055,-1.95274 0.39055,-2.73384c0,-0.78109 0,-1.95274 0.39055,-2.73384l1.17165,-2.73384c1.17165,-3.90549 3.12439,-6.63933 5.07714,-10.15427c7.42043,-13.27866 16.01251,-25.38568 22.26129,-38.66435c2.73385,-6.63933 5.46769,-13.27867 5.07714,-19.918v-2.34329c-0.39055,-0.78109 -0.7811,-1.56219 -0.7811,-2.34329c-0.39055,-1.5622 -1.17165,-2.73384 -1.95275,-4.29604c-0.39055,-1.17165 -1.95274,-2.73384 -2.73384,-4.29604l-3.12439,-4.29604c-8.20153,-10.93537 -16.7936,-21.87074 -22.26129,-33.97776c-2.34329,-5.85823 -4.29604,-12.49757 -3.51494,-18.74635c0.7811,-6.24879 3.90549,-11.71647 7.02988,-16.40306c5.85823,-9.37318 12.10702,-17.57471 15.62196,-25.77624c3.90549,-8.20152 3.1244,-16.0125 1.17165,-21.87074c-2.34329,-5.85824 -5.07713,-10.54483 -7.02988,-13.27867c-1.95274,-2.73384 -3.12439,-4.29604 -3.12439,-4.29604c0,0 1.5622,1.17165 3.90549,3.90549c2.3433,2.73385 5.46769,6.63934 8.59208,12.88812c2.73384,6.24879 3.90549,15.62196 -0.39055,24.21404c-3.90549,8.98263 -11.32593,16.40306 -17.57471,25.38569c-3.12439,4.68659 -5.85823,9.76372 -6.24878,15.62196c-0.39055,5.85824 1.5622,12.10702 4.29604,17.57471c5.85824,10.93537 15.23141,21.08965 23.82349,32.02502c1.95274,2.73384 4.29603,5.46769 6.24878,8.59208c0.78109,1.5622 1.95274,3.51494 2.34329,5.46769c0.39055,0.78109 0.7811,1.56219 0.7811,2.73384v3.12439c0,8.20152 -3.12439,15.23141 -6.63933,21.87074c-7.02988,13.27866 -16.79361,24.99513 -24.21404,37.88325c-0.78109,1.5622 -1.95274,3.12439 -2.73384,4.68659c-0.78109,1.95275 -1.95274,3.51494 -2.34329,5.07714l-0.7811,2.34329c-0.39055,0.78109 -0.39055,1.95274 -0.39055,2.73384c0,0.78109 -0.39055,1.95274 -0.39055,2.73384v2.73384c0.39055,7.02988 4.29604,13.66921 8.59208,19.52745c8.59208,11.71647 19.918,21.08964 26.94788,34.36831c1.56219,3.12439 2.73384,7.02988 3.12439,10.54482l0.39055,2.73384v2.73384c0,1.95275 0,3.90549 -0.39055,5.46769c-1.17164,7.02988 -3.90549,13.27866 -6.63933,19.1369c-5.46769,11.71647 -12.88812,21.87074 -19.918,30.46282c-1.5622,1.95274 -3.51494,4.29603 -5.07714,6.24878c-1.56219,1.95274 -2.34329,4.29604 -3.12439,6.63933c-1.17165,4.68658 -1.5622,9.76372 -1.17165,14.05976c0.39055,8.98263 2.34329,16.79361 3.90549,23.04239c3.51494,12.49757 6.24878,19.52745 6.24878,19.52745z" fill="#2d8c31"/><path d="M244.64182,456.38031c0,0 -0.39055,-0.7811 -0.7811,-1.17165c-0.7811,-0.7811 -1.5622,-1.95274 -1.95275,-3.90549c-0.39055,-1.17164 -0.7811,-1.95274 -0.7811,-3.12439c0,-1.17165 0,-2.34329 0,-3.51494c0.39055,-2.34329 0.7811,-4.68659 1.95275,-7.02988c0.39055,-1.17164 0.7811,-1.95274 1.5622,-3.12439c0.39055,-1.17164 1.17165,-2.34329 1.95275,-3.12439c1.17165,-1.95275 2.73384,-3.12439 3.90549,-4.68659c1.17164,-1.56219 2.34329,-2.34329 3.12439,-3.12439c0.7811,-0.7811 1.17165,-1.17165 1.17165,-1.17165c0,0 -0.39055,0.39055 -1.17165,1.17165c-0.39055,0.39055 -0.7811,1.17165 -1.17165,1.5622c-0.39055,0.7811 -1.17165,1.17165 -1.5622,1.95275c-0.7811,1.5622 -2.34329,3.12439 -3.51494,5.07714c-0.7811,1.17164 -1.5622,1.95274 -1.95275,3.12439c-0.39055,1.17164 -1.17165,1.95274 -1.5622,3.12439c-1.17165,1.95274 -1.5622,4.29604 -1.95275,6.63933c0,1.17164 0,1.95274 0,3.12439c0,0.78109 0,1.95274 0.39055,2.73384c0.78109,3.51494 2.34329,5.46769 2.34329,5.46769z" fill="#2d8c31"/><path d="M220.03723,414.59156c0,0 1.95275,-3.51494 4.29604,-8.59208c1.17164,-2.73385 1.95274,-5.85824 2.73384,-9.37318c0.39055,-1.95275 0.39055,-3.51494 0.7811,-5.46769c0.39055,-1.5622 0.39055,-3.51494 0.39055,-5.46769v-2.73384l-0.39055,-2.73384c-0.39055,-1.95275 -0.7811,-3.90549 -1.17165,-5.46769c-0.39055,-1.5622 -1.17165,-3.12439 -1.5622,-4.68659c-0.39055,-1.5622 -1.17165,-3.12439 -1.95275,-4.29604c-0.7811,-1.17165 -1.17165,-2.73384 -1.95275,-3.51494c-0.39055,-0.78109 -1.17165,-1.56219 -1.5622,-2.34329c-1.17165,-1.56219 -1.5622,-2.34329 -1.5622,-2.34329c0,0 0.7811,0.7811 1.95275,1.95275c0.39055,0.78109 1.17165,1.56219 1.95275,2.34329c0.78109,0.7811 1.56219,1.95274 2.34329,3.12439c0.78109,1.5622 1.56219,2.73384 2.34329,4.29604c0.7811,1.5622 1.5622,3.12439 1.95275,5.07714c0.39055,1.5622 1.17165,3.51494 1.17165,5.46769l0.39055,2.73384v3.12439c0,1.95275 -0.39055,3.90549 -0.39055,5.85824c-0.39055,1.95275 -0.7811,3.51494 -1.17165,5.46769c-0.7811,3.51494 -2.34329,6.63934 -3.51494,9.37318c-2.3433,5.07714 -5.07714,8.20153 -5.07714,8.20153z" fill="#2d8c31"/><path d="M204.41527,468.0968c0,0 -1.5622,-1.95275 -3.90549,-5.46769c-0.39055,-1.95274 -0.7811,-3.90549 -0.7811,-6.24878c0,-2.34329 0.39055,-4.68659 0.7811,-7.02988c0.78109,-2.34329 1.56219,-4.68658 2.73384,-6.63933c1.17165,-1.95275 2.34329,-3.90549 3.51494,-5.07714c1.17164,-1.56219 2.34329,-2.34329 3.12439,-3.12439c0.7811,-0.7811 1.17165,-1.17165 1.17165,-1.17165c0,0 0,0.39055 -0.39055,1.5622c0,0.7811 -0.7811,2.34329 -1.17165,3.90549c0,1.17164 -0.39055,1.95274 -0.7811,2.73384c0,0.78109 -0.39055,1.95274 -0.7811,2.73384c-0.39055,1.17164 -0.39055,1.95274 -0.7811,3.12439c-0.39055,1.17164 -0.39055,1.95274 -0.7811,3.12439c-0.39055,1.17164 -0.39055,1.95274 -0.7811,3.12439c0,1.17164 -0.39055,1.95274 -0.39055,3.12439c0,0.78109 -0.39055,1.95274 -0.39055,2.73384c-0.39055,1.17164 -0.39055,1.95274 -0.39055,2.73384c0,3.51495 0,5.85824 0,5.85824z" fill="#6bc134"/></g><g data-paper-data="{&quot;index&quot;:null}" stroke-width="1"><path d="M235.12938,-308.8378c8.20153,-1.95275 12.10702,18.3558 16.40306,49.59972c3.51495,23.04238 28.51008,35.93051 29.29118,69.90827c1.17164,41.39819 -11.32593,57.02016 -26.55734,80.06255c-15.23141,23.04239 28.90063,37.10215 28.90063,73.03266c0,35.93051 -56.62961,51.94302 -32.41557,92.56012c24.21404,40.6171 -16.40306,60.14454 -16.40306,60.14454c28.90062,-37.10216 -18.35581,-30.07228 -27.72898,-75.37596c-9.37318,-45.30369 30.07228,-41.78875 31.24392,-80.06255c1.17164,-38.2738 -32.41557,-38.27381 -32.41557,-68.34608c0,-30.07227 31.24392,-40.61709 34.75886,-67.17443c3.51494,-26.55733 -25.38569,-34.75886 -32.41557,-68.34608c-7.02988,-33.58721 27.33843,-66.00278 27.33843,-66.00278z" fill="#3aaa26"/><path d="M232.39551,-303.37011c1.95275,-3.90549 2.73385,-5.46769 2.73385,-5.46769c0,0 -2.73384,7.02988 -6.24878,19.52745c-1.5622,6.24879 -3.51494,14.05977 -3.90549,23.04239c-0.39055,4.29604 0,9.37317 1.17165,14.05976c0.7811,2.34329 1.5622,4.68658 3.12439,6.63933c1.56219,1.95274 3.51493,4.29603 5.07713,6.24878c7.02988,8.59208 14.45032,18.74636 19.918,30.46283c2.73385,5.85823 5.46769,12.10702 6.63934,19.1369c0.39055,1.5622 0.39055,3.51494 0.39055,5.46769v2.73384l-0.39055,2.73384c-0.39055,3.51494 -1.5622,7.42043 -3.12439,10.54482c-7.02988,13.27866 -18.3558,22.65184 -26.94788,34.36831c-4.29604,5.85824 -8.20152,12.49758 -8.59207,19.52746v2.73384c0,0.78109 0.39054,1.95274 0.39054,2.73384c0,0.7811 0,1.95274 0.39055,2.73384l0.7811,2.3433c0.39055,1.56219 1.5622,3.1244 2.3433,5.07714c0.7811,1.56219 1.95274,3.12439 2.73384,4.68658c7.42043,12.88812 17.18416,24.6046 24.21404,37.88326c3.51494,6.63933 6.63934,13.66921 6.63934,21.87074v3.12439c0,1.17165 -0.39055,1.95274 -0.7811,2.73384c-0.39055,1.95274 -1.5622,3.9055 -2.3433,5.46769c-1.95274,3.12439 -4.29604,5.85824 -6.24878,8.59208c-8.59208,10.93537 -17.96526,21.08965 -23.82349,32.02502c-2.73384,5.46769 -4.68658,11.71647 -4.29603,17.57471c0.39055,5.85823 3.12439,10.93537 6.24878,15.62196c6.24879,8.98262 13.66922,16.40307 17.57471,25.38569c4.29604,8.59208 3.1244,17.96525 0.39055,24.21403c-3.12439,6.24878 -6.24878,10.15427 -8.59208,12.88812c-2.34329,2.73384 -3.90549,3.90549 -3.90549,3.90549c0,0 1.17165,-1.5622 3.12439,-4.29604c1.95275,-2.73384 4.68659,-7.42043 7.02989,-13.27866c1.95274,-5.85824 2.73384,-13.66922 -1.17165,-21.87075c-3.51494,-8.20153 -9.76372,-16.40306 -15.62196,-25.77624c-3.12439,-4.68659 -6.24878,-10.15428 -7.02988,-16.40306c-0.7811,-6.24878 1.17164,-12.88812 3.51494,-18.74635c5.46768,-12.10702 14.05976,-23.04239 22.26129,-33.97776l3.12439,-4.29604c0.7811,-1.56219 2.34329,-3.12439 2.73384,-4.29604c0.78109,-1.56219 1.56219,-2.73385 1.95274,-4.29604c0,-0.7811 0.39054,-1.5622 0.78109,-2.3433v-2.3433c0.39056,-6.63934 -2.34328,-13.27866 -5.07713,-19.918c-6.24879,-13.27867 -14.84087,-25.38569 -22.2613,-38.66435c-1.95274,-3.51494 -3.90549,-6.24879 -5.07713,-10.15428l-1.17165,-2.73384c-0.39055,-0.7811 -0.39055,-1.95274 -0.39055,-2.73384c0,-0.78109 -0.39055,-1.95274 -0.39055,-2.73384v-2.73384c0.39056,-7.81098 3.90549,-14.84087 8.20153,-21.08965c3.90549,-6.24878 8.98263,-12.10702 13.27867,-17.5747c4.29604,-5.46769 8.98262,-11.32593 11.71647,-16.79361c3.12439,-6.24878 3.90549,-12.49757 2.73384,-18.74635c-1.17165,-6.24879 -3.1244,-12.49757 -5.85824,-18.35581c-5.46769,-11.32592 -12.49757,-21.4802 -19.1369,-30.07228c-1.56219,-2.34329 -3.51494,-4.29603 -5.07713,-6.63933c-1.5622,-2.34329 -2.73385,-5.07713 -3.51495,-7.42043c-1.17164,-5.07713 -1.17164,-10.15427 -0.78109,-14.84086c0.78109,-9.37317 3.12439,-16.79361 5.07713,-23.04239c1.95274,-6.24879 3.90549,-10.93537 5.46768,-14.45031z" fill="#2d8c31"/><path d="M253.87573,-108.87672c0.39054,-0.39055 0.78109,-1.17165 0.78109,-1.17165c0,0 -1.56219,1.95275 -2.34329,5.46769c-0.39055,0.7811 -0.39055,1.95274 -0.39055,2.73384c0,1.17164 0,1.95274 0,3.12439c0.39055,2.3433 0.78109,4.68659 1.95274,6.63933c0.39054,1.17165 1.17164,1.95275 1.56219,3.1244c0.39055,1.17165 1.17165,1.95274 1.95275,3.12439c1.17165,1.95275 2.73384,3.51495 3.51494,5.07714c0.39055,0.78109 1.17165,1.17164 1.5622,1.95274c0.39055,0.39055 0.7811,1.17164 1.17165,1.56219c0.7811,0.7811 1.17165,1.17165 1.17165,1.17165c0,0 -0.39055,-0.39055 -1.17165,-1.17165c-0.7811,-0.78109 -1.95275,-1.5622 -3.1244,-3.12439c-1.17165,-1.56219 -2.73384,-2.73384 -3.90549,-4.68658c-0.7811,-0.78109 -1.56219,-1.95274 -1.95274,-3.12439c-0.7811,-1.17165 -1.17165,-1.95274 -1.5622,-3.12439c-1.17164,-2.3433 -1.56219,-4.68659 -1.95274,-7.02989c0,-1.17165 0,-2.34329 0,-3.51494c0,-1.17165 0.39055,-1.95274 0.7811,-3.12439c0.39055,-1.95274 1.17164,-3.12439 1.95274,-3.90549z" fill="#2d8c31"/><path d="M234.34827,-59.66752c-2.3433,-5.07714 -4.29604,-8.59208 -4.29604,-8.59208c0,0 2.73383,3.1244 5.07713,8.20153c1.17164,2.73384 2.73384,5.85824 3.51494,9.37318c0.39055,1.95275 0.7811,3.51495 1.17165,5.46769c0,1.95274 0.39055,3.90549 0.39055,5.85823v3.12439l-0.39055,2.73384c0,1.95275 -0.7811,3.9055 -1.17165,5.46769c-0.39055,1.95275 -1.17164,3.51495 -1.95274,5.07714c-0.78111,1.5622 -1.5622,2.73385 -2.3433,4.29604c-0.7811,1.17164 -1.56219,2.34329 -2.34329,3.12439c-0.78109,0.7811 -1.56219,1.5622 -1.95274,2.3433c-1.17164,1.17164 -1.95274,1.95274 -1.95274,1.95274c0,0 0.39054,-0.78111 1.56219,-2.3433c0.39055,-0.7811 1.17165,-1.5622 1.5622,-2.3433c0.78109,-0.7811 1.17164,-2.34329 1.95274,-3.51494c0.78109,-1.17165 1.56219,-2.73385 1.95274,-4.29604c0.39055,-1.56219 1.17165,-3.1244 1.5622,-4.68659c0.39055,-1.56219 0.7811,-3.51494 1.17165,-5.46768l0.39055,-2.73385v-2.73384c0,-1.95275 0,-3.9055 -0.39055,-5.46769c-0.39055,-1.95274 -0.39055,-3.51495 -0.7811,-5.46769c-0.7811,-3.51495 -1.56219,-6.63934 -2.73384,-9.37318z" fill="#2d8c31"/><path d="M210.52479,-116.29714c2.34329,-3.51494 3.90549,-5.46769 3.90549,-5.46769c0,0 0,2.34329 0,5.85823c0,0.7811 -0.00001,1.5622 0.39054,2.73385c0,0.78109 0.39055,1.95274 0.39055,2.73384c0,1.17165 0.39055,1.95274 0.39055,3.12439c0.39055,1.17165 0.39055,1.95274 0.7811,3.12439c0.39056,1.17164 0.39055,1.95274 0.7811,3.12439c0.39055,1.17165 0.39055,1.95274 0.7811,3.12439c0.39056,0.7811 0.7811,1.95275 0.7811,2.73385c0.39055,0.7811 0.7811,1.56219 0.7811,2.73384c0.39055,1.56219 1.17165,3.12439 1.17165,3.90549c0.39055,1.17165 0.39055,1.5622 0.39055,1.5622c0,0 -0.39055,-0.39055 -1.17165,-1.17165c-0.7811,-0.7811 -1.95275,-1.5622 -3.1244,-3.12439c-1.17165,-1.17164 -2.3433,-3.12439 -3.51494,-5.07713c-1.17165,-1.95275 -1.95275,-4.29604 -2.73385,-6.63934c-0.39055,-2.3433 -0.78109,-4.68659 -0.78109,-7.02989c0,-2.3433 0.39054,-4.29603 0.78109,-6.24878z" fill="#6bc134"/></g><path d="M143.78572,184.5v-9h192.42857v9z" fill="none" stroke-width="0"/></g></g></svg>