<svg version="1.1" xmlns="http://www.w3.org/2000/svg" xmlns:xlink="http://www.w3.org/1999/xlink" width="92.59998" height="93.84205" viewBox="0,0,92.59998,93.84205"><defs><linearGradient x1="215.63567" y1="189.32214" x2="215.63567" y2="264.18084" gradientUnits="userSpaceOnUse" id="color-1"><stop offset="0" stop-color="#00ff04"/><stop offset="1" stop-color="#00ab03"/></linearGradient><linearGradient x1="205.57159" y1="239.45568" x2="193.91434" y2="250.8197" gradientUnits="userSpaceOnUse" id="color-2"><stop offset="0" stop-color="#355ab1"/><stop offset="1" stop-color="#6e8fe0"/></linearGradient><linearGradient x1="210.14832" y1="200.26737" x2="210.97592" y2="210.89923" gradientUnits="userSpaceOnUse" id="color-3"><stop offset="0" stop-color="#355ab1"/><stop offset="1" stop-color="#6e8fe0"/></linearGradient><linearGradient x1="218.83019" y1="199.9654" x2="222.12303" y2="242.26743" gradientUnits="userSpaceOnUse" id="color-4"><stop offset="0" stop-color="#355ab1"/><stop offset="1" stop-color="#6e8fe0"/></linearGradient><linearGradient x1="214.045" y1="215.66314" x2="214.93033" y2="227.03666" gradientUnits="userSpaceOnUse" id="color-5"><stop offset="0" stop-color="#355ab1"/><stop offset="1" stop-color="#6e8fe0"/></linearGradient></defs><g transform="translate(-165.68669,-174.61818)"><g data-paper-data="{&quot;isPaintingLayer&quot;:true}" fill-rule="nonzero" stroke-linecap="butt" stroke-linejoin="miter" stroke-miterlimit="10" stroke-dasharray="" stroke-dashoffset="0" style="mix-blend-mode: normal"><path d="M178.2063,264.18084v-74.85875h74.85876v74.85876z" fill="url(#color-1)" stroke="#000000" stroke-width="2.5"/><path d="M181.68055,258.91067v-65.55159h68.11379v65.55159z" fill="none" stroke="none" stroke-width="0"/><path d="M198.80234,246.32131c-5.28321,-4.07794 -12.78345,-1.27427 -10.43533,-4.64501c2.34813,-3.37074 10.34439,-6.71982 15.62761,-2.6419c5.28321,4.07794 6.54591,12.36926 4.19778,15.74c-2.34813,3.37074 -4.10685,-4.37516 -9.39008,-8.45309z" data-paper-data="{&quot;index&quot;:null}" fill="url(#color-2)" stroke="#213f7d" stroke-width="2.5"/><path d="M211.21315,200.59627c5.44445,0.71076 9.56659,3.5197 9.20704,6.27395c-0.35956,2.75427 -5.06464,4.41086 -10.50909,3.7001c-5.44445,-0.71076 -9.56659,-3.5197 -9.20704,-6.27395c0.35956,-2.75427 5.06464,-4.41086 10.50909,-3.7001z" data-paper-data="{&quot;index&quot;:null}" fill="url(#color-3)" stroke="#213f7d" stroke-width="2.5"/><path d="M202.06396,242.23191c-5.74275,-4.91326 -2.46622,-18.16729 7.31832,-29.60369c9.78454,-11.4364 22.37188,-16.72446 28.11463,-11.81119c2.93876,2.51429 6.36912,6.20596 4.8862,11.8549c-0.1452,0.55312 -0.50433,2.7279 -6.1917,3.24457c-3.46078,0.3144 -7.13988,-1.26484 -7.19275,1.47614c-0.04046,2.09837 1.62985,3.38583 3.55296,4.03855c2.59978,0.88238 5.66912,0.70127 5.66912,0.70127c0,0 -5.48285,7.02996 -8.04215,8.28828c-13.50664,6.64073 -22.37188,16.72446 -28.11463,11.81119z" data-paper-data="{&quot;index&quot;:null}" fill="url(#color-4)" stroke="#213f7d" stroke-width="2.5"/><path d="M211.90506,217.44886c3.77036,-2.49608 7.98309,-2.77299 9.40942,-0.61849c1.42632,2.15449 -0.47388,5.92451 -4.24423,8.42057c-3.77036,2.49608 -7.98309,2.77299 -9.40942,0.61849c-1.42632,-2.15449 0.47388,-5.92451 4.24423,-8.42057z" data-paper-data="{&quot;index&quot;:null}" fill="url(#color-5)" stroke="#213f7d" stroke-width="2.5"/><path d="M237.10139,210.43905c-0.64401,0.05013 -1.20672,-0.4313 -1.25686,-1.07531c-0.05013,-0.64401 0.4313,-1.20672 1.07531,-1.25686c0.64401,-0.05013 1.20672,0.4313 1.25686,1.07531c0.05013,0.64401 -0.4313,1.20672 -1.07531,1.25686z" data-paper-data="{&quot;index&quot;:null}" fill="#000000" stroke="none" stroke-width="0.5"/><path d="M232.24013,211.28672c-0.64401,0.05013 -1.20672,-0.4313 -1.25685,-1.07532c-0.05013,-0.64401 0.4313,-1.20672 1.07531,-1.25686c0.64401,-0.05013 1.20672,0.4313 1.25686,1.07532c0.05013,0.64401 -0.4313,1.20672 -1.07532,1.25686z" data-paper-data="{&quot;index&quot;:null}" fill="#000000" stroke="none" stroke-width="0.5"/><path d="M210.77531,268.46024l-45.08862,-39.21643l47.51136,-54.62562l45.08862,39.21643z" fill="none" stroke="none" stroke-width="0"/></g></g></svg>