<svg version="1.1" xmlns="http://www.w3.org/2000/svg" xmlns:xlink="http://www.w3.org/1999/xlink" width="88.57524" height="80.71353" viewBox="0,0,88.57524,80.71353"><defs><radialGradient cx="213.69343" cy="203.52643" r="17.71252" gradientUnits="userSpaceOnUse" id="color-1"><stop offset="0" stop-color="#333435"/><stop offset="1" stop-color="#2a2a2a"/></radialGradient><radialGradient cx="227.21963" cy="150.31407" r="10.32639" gradientUnits="userSpaceOnUse" id="color-2"><stop offset="0" stop-color="#333435"/><stop offset="1" stop-color="#2a2a2a"/></radialGradient><radialGradient cx="247.24126" cy="176.54931" r="32.21872" gradientUnits="userSpaceOnUse" id="color-3"><stop offset="0" stop-color="#333435"/><stop offset="1" stop-color="#2a2a2a"/></radialGradient><radialGradient cx="239.44063" cy="183.03173" r="12.20874" gradientUnits="userSpaceOnUse" id="color-4"><stop offset="0" stop-color="#333435"/><stop offset="1" stop-color="#2a2a2a"/></radialGradient></defs><g transform="translate(-197.28472,-139.64324)"><g data-paper-data="{&quot;isPaintingLayer&quot;:true}" fill-rule="nonzero" stroke-linecap="butt" stroke-linejoin="miter" stroke-miterlimit="10" stroke-dasharray="" stroke-dashoffset="0" style="mix-blend-mode: normal"><path d="M207.50735,192.68799c10.41547,-5.94464 21.62847,-5.9112 25.04494,0.0747c3.41648,5.98589 -2.25735,15.65752 -12.67282,21.60217c-10.41547,5.94466 -1.83459,-4.71166 -5.25105,-10.69756c-3.41646,-5.98589 -17.53653,-5.03467 -7.12106,-10.97931z" data-paper-data="{&quot;index&quot;:null}" fill="url(#color-1)" stroke="#212122" stroke-width="2.5"/><path d="M228.82107,144.54887c5.63327,1.56479 9.48295,5.41447 8.5985,8.5985c-0.88445,3.18403 -6.16811,4.49668 -11.80139,2.93187c-5.63327,-1.56481 -9.48295,-5.41447 -8.5985,-8.5985c0.88445,-3.18403 6.16811,-4.49668 11.80139,-2.93187z" data-paper-data="{&quot;index&quot;:null}" fill="url(#color-2)" stroke="#212122" stroke-width="2.5"/><path d="M247.24126,144.3306c4.83748,0 11.6452,2.92737 16.24772,6.53031c6.09884,4.77429 7.36062,11.09408 10.42681,17.72664c0.50715,1.09706 -5.28167,4.32292 -10.29809,3.9865c-5.01643,-0.33642 -14.97327,-2.329 -14.59729,-1.03292c0.29175,1.00572 6.74479,7.88277 13.24336,8.59302c6.49855,0.71026 13.43655,-3.32566 13.62914,-2.20404c3.01139,17.53725 -13.01844,30.83793 -28.65165,30.83793c-15.63321,0 -28.30645,-14.42481 -28.30645,-32.21873c0,-17.79392 12.67324,-32.21872 28.30645,-32.21872z" data-paper-data="{&quot;index&quot;:null}" fill="url(#color-3)" stroke="#212122" stroke-width="2.5"/><path d="M240.47712,176.90516c7.01784,1.18726 12.24289,4.8927 11.67045,8.2763c-0.57243,3.3836 -6.72558,5.1641 -13.74341,3.97683c-7.01784,-1.18726 -12.24288,-4.89269 -11.67044,-8.27629c0.57243,-3.3836 6.72556,-5.16409 13.7434,-3.97683z" data-paper-data="{&quot;index&quot;:null}" fill="url(#color-4)" stroke="#212122" stroke-width="2.5"/><path d="M262.56817,163.80604c-1.52519,0 -2.7616,-1.23641 -2.7616,-2.7616c0,-1.52519 1.23641,-2.7616 2.7616,-2.7616c1.52519,0 2.7616,1.23641 2.7616,2.7616c0,1.52519 -1.23641,2.7616 -2.7616,2.7616z" data-paper-data="{&quot;index&quot;:null}" fill="#000000" stroke="none" stroke-width="0.5"/><path d="M250.14095,164.63453c-1.52519,0 -2.7616,-1.23641 -2.7616,-2.7616c0,-1.52519 1.23641,-2.7616 2.7616,-2.7616c1.52519,0 2.7616,1.23641 2.7616,2.7616c0,1.52519 -1.23641,2.7616 -2.7616,2.7616z" data-paper-data="{&quot;index&quot;:null}" fill="#000000" stroke="none" stroke-width="0.5"/><path d="M197.28472,220.35677v-80.71353h88.57524v80.71353z" fill="none" stroke="none" stroke-width="0"/></g></g></svg>