<svg version="1.1" xmlns="http://www.w3.org/2000/svg" xmlns:xlink="http://www.w3.org/1999/xlink" width="95.61237" height="92.58526" viewBox="0,0,95.61237,92.58526"><g transform="translate(-200.62148,-121.0654)"><g data-paper-data="{&quot;isPaintingLayer&quot;:true}" fill-rule="nonzero" stroke-linejoin="miter" stroke-miterlimit="10" stroke-dasharray="" stroke-dashoffset="0" style="mix-blend-mode: normal"><path d="M228.87451,187.22737c-4.00668,-4.27159 -2.82774,-8.03002 0.25929,-10.92561c3.08703,-2.89558 6.76591,-4.97934 10.7726,-0.70773c4.00668,4.27159 6.82394,13.28096 3.7369,16.17655c-3.08703,2.89558 -10.76211,-0.2716 -14.76879,-4.5432z" fill="#faff00" stroke="#000000" stroke-width="2" stroke-linecap="butt"/><g data-paper-data="{&quot;index&quot;:null}"><path d="M220.39417,204.69864l-2.87285,-4.85133l12.19018,-6.99132" fill="none" stroke="#000000" stroke-width="2" stroke-linecap="round"/><path d="M219.34403,203.0235c0.2148,-0.93331 -0.34412,-1.48792 -0.65253,-2.84979c-0.12324,-0.54428 -0.50748,-1.33364 -0.27055,-1.62997c0.28316,-0.35414 0.88353,0.20718 1.32531,0.31077c1.41235,1.57579 4.188,3.48634 4.57766,6.34837c0.23035,1.69183 -0.65788,2.95677 -1.78805,2.75872c-1.0508,-0.18415 -2.11303,-1.34719 -3.01221,-2.62728c-0.11362,-0.02624 -0.24778,-0.11579 -0.39749,-0.32111c-0.1837,-0.25194 -0.24925,-0.48408 -0.26043,-0.67428c-0.15588,-0.24886 -0.30395,-0.4938 -0.44292,-0.72852c0,0 -0.42689,-0.72098 -0.04352,-1.14372c0.38336,-0.42274 0.81025,0.29824 0.81025,0.29824c0.05157,0.08709 0.10303,0.17329 0.15448,0.25857z" fill="#000000" stroke="none" stroke-width="0.5" stroke-linecap="butt"/></g><g><path d="M230.41529,209.84201l-4.79326,-2.13132l5.50288,-11.23957" fill="none" stroke="#000000" stroke-width="2" stroke-linecap="round"/><path d="M227.29618,208.50385c-0.17115,-0.94865 -0.93902,-1.20713 -1.79213,-2.31493c-0.34095,-0.44274 0.15009,-0.51035 0.25948,-0.88659c0.13072,-0.44963 -0.24333,-0.68655 0.22744,-0.78826c2.01124,0.81254 5.48142,1.32498 7.02348,3.76794c0.91156,1.4441 0.56415,2.99532 -0.61297,3.31672c-1.09446,0.29884 -2.59815,-0.29205 -3.9912,-1.06242c-0.12091,0.02654 -0.28751,0.00432 -0.51628,-0.11681c-0.28071,-0.14865 -0.43872,-0.33169 -0.52692,-0.50058c-0.25247,-0.15818 -0.49574,-0.31625 -0.72606,-0.46904c0,0 -0.70742,-0.46926 -0.50736,-1.02614c0.20005,-0.55687 0.90746,-0.08761 0.90746,-0.08761c0.08544,0.05668 0.17045,0.11261 0.25505,0.16768z" fill="#000000" stroke="none" stroke-width="0.5" stroke-linecap="butt"/></g><path d="M211.61763,193.39152c-5.03789,-3.01623 -4.30437,-8.55167 -1.34654,-14.15089c2.95781,-5.5992 6.68681,-10.52126 11.72472,-7.50502c5.03789,3.01623 9.47696,12.82855 6.51913,18.42777c-2.95781,5.5992 -11.8594,6.24438 -16.89731,3.22814z" fill="#faff00" stroke="#000000" stroke-width="2" stroke-linecap="butt"/><path d="M240.10105,204.72293c-9.03021,0.40068 -16.62757,-5.51565 -16.96917,-13.21449c-0.3416,-7.69884 6.70191,-14.26478 15.73212,-14.66545c9.03021,-0.40068 16.62757,5.51565 16.96917,13.21449c0.3416,7.69884 -6.70191,14.26479 -15.73212,14.66546z" fill="#4dff00" stroke="#000000" stroke-width="2" stroke-linecap="butt"/><path d="M255.18036,188.89058c-1.27318,1.05817 -3.33468,0.67746 -4.60449,-0.85036c-1.26981,-1.52781 -1.26708,-3.62417 0.0061,-4.68235c1.27318,-1.05817 3.33468,-0.67746 4.60449,0.85036c1.26981,1.52781 1.26708,3.62417 -0.0061,4.68235z" fill="#faff00" stroke="#000000" stroke-width="2" stroke-linecap="butt"/><path d="M235.23232,204.10314c-5.73298,1.19705 -8.32815,-1.7662 -9.19325,-5.90937c-0.8651,-4.14315 -0.72894,-8.36899 5.00406,-9.56604c5.73298,-1.19705 14.89182,1.08796 15.75692,5.23113c0.8651,4.14315 -5.83474,9.04723 -11.56773,10.24429z" fill="#faff00" stroke="#000000" stroke-width="2" stroke-linecap="butt"/><path d="M244.83389,178.63564c0.15731,2.68674 -3.13619,2.87046 -6.67549,2.87046c-3.53931,0 -6.40847,0.35492 -6.40847,-2.33642c0,-2.69135 -2.87176,-8.07735 0.66755,-8.07735c3.53931,0 12.1494,2.98282 12.41641,7.54331z" fill="#faff00" stroke="#000000" stroke-width="2" stroke-linecap="butt"/><g><path d="M263.6714,155.03163c-8.60866,0 -15.58736,-6.88923 -15.58736,-15.38752c0,-8.49829 6.9787,-15.38752 15.58736,-15.38752c8.60866,0 15.58736,6.88923 15.58736,15.38752c0,8.49829 -6.9787,15.38752 -15.58736,15.38752z" fill="#00b3ff" stroke="#000000" stroke-width="2" stroke-linecap="butt"/><path d="M289.98623,165.70838c0,13.67453 -11.27328,24.75992 -25.17958,24.75992c-13.9063,0 -25.17958,-11.0854 -25.17958,-24.75992c0,-13.67453 11.27328,-24.75992 25.17958,-24.75992c13.9063,0 25.17958,11.0854 25.17958,24.75992z" fill="#faff00" stroke="#000000" stroke-width="2" stroke-linecap="butt"/><path d="M278.76035,169.3804l0.62949,-14.47826" fill="none" stroke="#000000" stroke-width="2" stroke-linecap="round"/><path d="M266.38038,153.85299v15.73724" fill="none" stroke="#000000" stroke-width="2" stroke-linecap="round"/><path d="M260.08549,173.99666l18.2552,0.20983" fill="none" stroke="#000000" stroke-width="2" stroke-linecap="round"/><path d="M277.08171,174.41632c0,-0.83932 0.83932,-0.83932 0.83932,-0.83932h0.62949c4.53706,0 1.47961,2.78587 0.04304,4.69876c-0.55792,0.7429 -1.13545,2.49064 -1.82598,3.09016c-1.63644,1.42077 -4.31094,1.94375 -6.40669,2.46769c-3.33918,0.8348 -6.45477,1.1543 -8.64816,-1.79231c-0.72613,-0.97549 -1.66949,-1.323 -2.02445,-2.60605c-0.47974,-1.73407 -0.23228,-3.85305 -0.23228,-5.64841c0,0 0,-0.83932 0.83932,-0.83932c0.83932,0 0.83932,0.83932 0.83932,0.83932c0,1.72172 -0.16023,3.586 0.18738,5.26274c0.16481,0.795 1.3227,1.44115 1.75249,2.01021c1.73276,2.29424 4.22218,1.80957 6.87925,1.1453c1.94075,-0.48519 4.20212,-0.95079 5.76345,-2.14857c0.3961,-0.30387 1.26614,-2.43112 1.53129,-2.78508c0.3906,-0.52142 1.29138,-1.80084 2.04684,-2.25365c-0.22538,0.10126 -0.56911,0.23786 -0.74482,0.23786h-0.62949c0,0 -0.83932,0 -0.83932,-0.83932z" fill="#000000" stroke="none" stroke-width="0.5" stroke-linecap="butt"/><path d="M277.61786,147.3534c-0.71496,0.35748 -1.07244,-0.35748 -1.07244,-0.35748c-1.16063,-2.32128 -1.95991,-5.14457 0.14973,-7.31752c0.60578,-0.62396 1.78838,-0.99668 2.39806,-1.5987c0.48497,-0.47888 1.08594,-0.96708 1.76426,-1.03347h0.79935c0,0 0.03334,0 0.0864,0.00681c0.66441,-0.32064 1.36963,-0.58682 2.12799,-0.78478c1.18717,-0.30988 2.44673,-0.15969 3.65269,-0.41074c2.27382,-0.47335 4.10342,-0.91519 4.10342,2.17171c-2.07632,4.36723 -5.70744,6.33048 -10.18654,7.38881c-1.1898,0.28112 -1.8806,1.19903 -3.19741,1.19903l-0.17923,0.09647c-0.00802,0.21696 -0.10488,0.46918 -0.44629,0.63988z" fill="#00b3ff" stroke="#000000" stroke-width="1.5" stroke-linecap="butt"/></g><path d="M200.62148,213.65066v-92.58526h95.61237v92.58526z" fill="none" stroke="none" stroke-width="0" stroke-linecap="butt"/></g></g></svg>