<svg version="1.1" xmlns="http://www.w3.org/2000/svg" xmlns:xlink="http://www.w3.org/1999/xlink" width="605.91149" height="449.70178" viewBox="0,0,605.91149,449.70178"><defs><linearGradient x1="-4165.3674" y1="-2094.83339" x2="-2490.60381" y2="5262.83586" gradientUnits="userSpaceOnUse" id="color-1"><stop offset="0" stop-color="#000000" stop-opacity="0"/><stop offset="1" stop-color="#000000"/></linearGradient></defs><g transform="translate(58.35098,29.08513)"><g data-paper-data="{&quot;isPaintingLayer&quot;:true}" fill-rule="nonzero" stroke-linecap="butt" stroke-linejoin="miter" stroke-miterlimit="10" stroke-dasharray="" stroke-dashoffset="0" style="mix-blend-mode: normal"><path d="M-58.35098,420.61665l14.81449,-448.1959l583.38281,-1.50588l7.71419,446.02978z" fill="url(#color-1)" stroke="none" stroke-width="0"/><text transform="translate(15.73074,294.477) scale(0.78975,0.78975)" font-size="40" xml:space="preserve" fill="#dddddd" fill-rule="nonzero" stroke="none" stroke-width="1" stroke-linecap="butt" stroke-linejoin="miter" stroke-miterlimit="10" stroke-dasharray="" stroke-dashoffset="0" font-family="Handwriting" font-weight="normal" text-anchor="start" style="mix-blend-mode: normal"><tspan x="0" dy="0">Hover over a difficulty for more info</tspan></text><path d="M211.04959,106.71343c-8.63354,3.78879 -17.84891,24.26498 -22.30832,21.39379c-7.91218,-5.09426 -4.43289,-67.92021 2.17679,-73.50919c4.00176,-3.38379 12.19529,17.50099 20.20958,19.48925c3.66698,0.90973 5.3361,-19.44698 47.07192,-19.40284c39.35103,0.04162 37.83123,36.09101 37.52641,40.07932c0,0 1.64006,30.73334 -32.27477,30.44656c-47.35728,-0.40045 -49.64452,-19.70682 -52.40161,-18.49689z" fill="#ffffff" stroke="#ffffff" stroke-width="2.5"/></g></g></svg>