<svg version="1.1" xmlns="http://www.w3.org/2000/svg" xmlns:xlink="http://www.w3.org/1999/xlink" width="100.10575" height="51.36316" viewBox="0,0,100.10575,51.36316"><defs><linearGradient x1="213.12803" y1="172.97852" x2="194.05964" y2="192.7954" gradientUnits="userSpaceOnUse" id="color-1"><stop offset="0" stop-color="#a289e3"/><stop offset="1" stop-color="#7f67be"/></linearGradient><linearGradient x1="251.6059" y1="162.79957" x2="239.05998" y2="175.83795" gradientUnits="userSpaceOnUse" id="color-2"><stop offset="0" stop-color="#a289e3"/><stop offset="1" stop-color="#7f67be"/></linearGradient><linearGradient x1="268.03907" y1="162.23892" x2="227.69805" y2="204.16343" gradientUnits="userSpaceOnUse" id="color-3"><stop offset="0" stop-color="#7f67be"/><stop offset="1" stop-color="#d2aed5"/></linearGradient><linearGradient x1="248.49844" y1="180.69192" x2="238.62309" y2="198.99452" gradientUnits="userSpaceOnUse" id="color-4"><stop offset="0" stop-color="#a289e3"/><stop offset="1" stop-color="#7f67be"/></linearGradient></defs><g transform="translate(-189.94713,-154.31842)"><g data-paper-data="{&quot;isPaintingLayer&quot;:true}" fill-rule="nonzero" stroke-linecap="butt" stroke-linejoin="miter" stroke-miterlimit="10" stroke-dasharray="" stroke-dashoffset="0" style="mix-blend-mode: normal"><path d="M211.92981,190.33336l-7.95627,7.17373l-10.71866,-5.48604l2.61279,-17.21426l6.68288,-6.2845l14.08238,7.82876z" data-paper-data="{&quot;index&quot;:null}" fill="url(#color-1)" stroke="#503e87" stroke-width="2.5"/><path d="M239.05998,175.83795l-0.30858,-16.03087l15.49535,5.5336l0.8441,10.18871z" data-paper-data="{&quot;index&quot;:null}" fill="url(#color-2)" stroke="#503e87" stroke-width="2.5"/><path d="M223.57171,200.19292l-15.51501,-14.92901l14.92901,-15.51501l53.00209,0.38606l4.40259,4.74052c0,0 -0.70639,2.16922 -2.44723,3.71466c-2.88284,2.55926 -7.36072,5.07747 -7.02479,5.49071c3.59182,4.41836 14.46025,-3.7416 14.46025,-3.7416l1.36649,1.7363l-15.26518,15.89926z" data-paper-data="{&quot;index&quot;:null}" fill="url(#color-3)" stroke="#503e87" stroke-width="2.5"/><path d="M234.04745,196.52568l-2.10681,-7.04449l21.13345,-6.32044l2.1068,7.0445z" data-paper-data="{&quot;index&quot;:null}" fill="url(#color-4)" stroke="#503e87" stroke-width="2.5"/><path d="M272.96349,178.2637c-0.65785,0.68367 -1.74537,0.70461 -2.42905,0.04676c-0.68368,-0.65785 -0.7046,-1.74538 -0.04676,-2.42905c0.65785,-0.68367 1.74537,-0.70461 2.42905,-0.04676c0.68368,0.65785 0.7046,1.74538 0.04676,2.42905z" data-paper-data="{&quot;index&quot;:null}" fill="#000000" stroke="none" stroke-width="0.5"/><path d="M189.94713,205.68158v-51.36316h100.10575v51.36316z" fill="none" stroke="none" stroke-width="0"/></g></g></svg>