<svg version="1.1" xmlns="http://www.w3.org/2000/svg" xmlns:xlink="http://www.w3.org/1999/xlink" width="100.93545" height="87.41299" viewBox="0,0,100.93545,87.41299"><g transform="translate(-189.53227,-136.2935)"><g data-paper-data="{&quot;isPaintingLayer&quot;:true}" fill-rule="nonzero" stroke-linejoin="miter" stroke-miterlimit="10" stroke-dasharray="" stroke-dashoffset="0" style="mix-blend-mode: normal"><path d="M189.53227,223.70649v-87.41299h100.93545v87.41299z" fill="none" stroke="none" stroke-width="0" stroke-linecap="butt"/><path d="M243.48566,167.06663c1.36697,5.17071 -4.74886,11.27219 -13.66009,13.62803c-8.91123,2.35584 -17.24335,0.07394 -18.61033,-5.09678c-1.36697,-5.17071 4.74886,-11.27219 13.66009,-13.62803c8.91123,-2.35584 17.24335,-0.07394 18.61033,5.09678z" fill="#dcdbff" stroke="#9694c4" stroke-width="1.5" stroke-linecap="butt"/><path d="M193.87834,211.79388l2.54515,-24.76426l10.58319,9.8239c0,0 4.1442,3.68924 8.59986,2.02663c4.5294,-1.69014 9.00162,-4.43337 9.00162,-4.43337c0,0 -4.95859,10.45808 -8.24914,12.40589c-3.23609,1.91557 -11.69527,0.33896 -11.69527,0.33896z" fill="#dcdbff" stroke="#9694c4" stroke-width="1.5" stroke-linecap="butt"/><path d="M238.9527,185.19847c1.36697,5.17071 -4.74886,11.27219 -13.66009,13.62803c-8.91123,2.35584 -17.24335,0.07394 -18.61032,-5.09678c-1.36697,-5.17071 4.74886,-11.27219 13.66009,-13.62803c8.91123,-2.35584 17.24335,-0.07394 18.61033,5.09678z" fill="#dcdbff" stroke="#9694c4" stroke-width="1.5" stroke-linecap="butt"/><path d="M255.20679,164.5251c-1.62287,4.25348 -5.88973,1.38569 -14.1053,-2.59286c-8.21557,-3.97855 -17.26878,-7.56127 -15.6459,-11.81475c1.62288,-4.25348 10.21665,-8.80326 18.43221,-4.82471c8.21557,3.97855 12.94186,14.97884 11.31898,19.23232z" fill="#c1bfff" stroke="#6564a6" stroke-width="1.5" stroke-linecap="butt"/><path d="M265.73836,174.07211c1.36698,5.17071 -4.74886,11.27219 -13.66009,13.62803c-8.91123,2.35584 -17.24335,0.07394 -18.61032,-5.09678c-1.36697,-5.17071 4.74886,-11.27219 13.66009,-13.62803c8.91123,-2.35584 17.24335,-0.07394 18.61032,5.09678z" fill="#dcdbff" stroke="#9694c4" stroke-width="1.5" stroke-linecap="butt"/><path d="M267.38671,158.0007c1.36698,5.17071 -4.74886,11.27219 -13.66009,13.62804c-8.91123,2.35584 -17.24335,0.07394 -18.61032,-5.09678c-1.36697,-5.17071 4.74886,-11.27219 13.66009,-13.62803c8.91123,-2.35584 17.24335,-0.07394 18.61032,5.09678z" fill="#dcdbff" stroke="#9694c4" stroke-width="1.5" stroke-linecap="butt"/><path d="M285.93064,167.06663c1.36697,5.17071 -4.74886,11.27219 -13.66009,13.62803c-8.91123,2.35584 -17.24335,0.07394 -18.61032,-5.09678c-1.36697,-5.17071 4.74886,-11.27219 13.66009,-13.62803c8.91123,-2.35584 17.24335,-0.07394 18.61032,5.09678z" fill="#dcdbff" stroke="#9694c4" stroke-width="1.5" stroke-linecap="butt"/><path d="M260.79332,190.96768c1.36698,5.17071 -4.74886,11.27219 -13.66009,13.62803c-8.91123,2.35584 -17.24335,0.07394 -18.61032,-5.09678c-1.36697,-5.17071 4.74886,-11.27219 13.66009,-13.62803c8.91123,-2.35584 17.24335,-0.07394 18.61032,5.09678z" fill="#dcdbff" stroke="#9694c4" stroke-width="1.5" stroke-linecap="butt"/><path d="M284.28229,184.37429c1.36697,5.17071 -4.74886,11.27219 -13.66009,13.62803c-8.91123,2.35584 -17.24335,0.07394 -18.61033,-5.09678c-1.36697,-5.17071 4.74886,-11.27219 13.66009,-13.62803c8.91123,-2.35584 17.24335,-0.07394 18.61033,5.09678z" fill="#dcdbff" stroke="#9694c4" stroke-width="1.5" stroke-linecap="butt"/><path d="M277.27681,198.38525c1.36697,5.17071 -4.74886,11.27219 -13.66009,13.62803c-8.91123,2.35584 -17.24335,0.07394 -18.61033,-5.09678c-1.36697,-5.17071 4.74886,-11.27219 13.66009,-13.62803c8.91123,-2.35584 17.24335,-0.07394 18.61033,5.09678z" fill="#dcdbff" stroke="#9694c4" stroke-width="1.5" stroke-linecap="butt"/><path d="M248.4307,201.68195c1.36697,5.17071 -4.74886,11.27219 -13.66009,13.62803c-8.91123,2.35584 -17.24335,0.07394 -18.61033,-5.09678c-1.36697,-5.17071 4.74886,-11.27219 13.66009,-13.62803c8.91123,-2.35584 17.24335,-0.07394 18.61033,5.09678z" fill="#dcdbff" stroke="#9694c4" stroke-width="1.5" stroke-linecap="butt"/><path d="M281.952,190.53155c0,0 -4.33808,0.23632 -8.74623,-0.16324c-3.87978,-0.35167 -7.9433,-3.13345 -7.9433,-3.13345" fill="none" stroke="#9694c4" stroke-width="1.5" stroke-linecap="round"/><path d="M276.59487,173.63598c0,-0.56898 0.46124,-1.03022 1.03022,-1.03022c0.56898,0 1.03022,0.46124 1.03022,1.03022c0,0.56898 -0.46124,1.03022 -1.03022,1.03022c-0.56898,0 -1.03022,-0.46124 -1.03022,-1.03022z" fill="#000000" stroke="none" stroke-width="0.5" stroke-linecap="butt"/><path d="M266.70478,173.63598c0,-0.56898 0.46124,-1.03022 1.03022,-1.03022c0.56898,0 1.03022,0.46124 1.03022,1.03022c0,0.56898 -0.46124,1.03022 -1.03022,1.03022c-0.56898,0 -1.03022,-0.46124 -1.03022,-1.03022z" fill="#000000" stroke="none" stroke-width="0.5" stroke-linecap="butt"/><path d="M232.04373,194.94524c-9.01738,1.41811 -16.58371,-1.11395 -16.89983,-5.65553c-0.31612,-4.54157 6.73764,-9.37285 15.75503,-10.79096c9.01738,-1.41811 16.58371,1.11395 16.89983,5.65553c0.31612,4.54157 -6.73764,9.37285 -15.75503,10.79097z" data-paper-data="{&quot;index&quot;:null}" fill="#c1bfff" stroke="#6564a6" stroke-width="1.5" stroke-linecap="butt"/></g></g></svg>