<svg version="1.1" xmlns="http://www.w3.org/2000/svg" xmlns:xlink="http://www.w3.org/1999/xlink" width="92.59998" height="93.84205" viewBox="0,0,92.59998,93.84205"><defs><linearGradient x1="215.63567" y1="189.32214" x2="215.63567" y2="264.18084" gradientUnits="userSpaceOnUse" id="color-1"><stop offset="0" stop-color="#00ff04"/><stop offset="1" stop-color="#00ab03"/></linearGradient></defs><g transform="translate(-165.68669,-174.61819)"><g data-paper-data="{&quot;isPaintingLayer&quot;:true}" fill-rule="nonzero" stroke-linecap="butt" stroke-linejoin="miter" stroke-miterlimit="10" stroke-dasharray="" stroke-dashoffset="0" style="mix-blend-mode: normal"><path d="M178.2063,264.18084v-74.85875h74.85876v74.85876z" fill="url(#color-1)" stroke="#000000" stroke-width="2.5"/><path d="M181.68055,258.91067v-65.55159h68.11379v65.55159z" fill="none" stroke="none" stroke-width="0"/><path d="M210.77531,268.46024l-45.08862,-39.21643l47.51136,-54.62562l45.08862,39.21643z" fill="none" stroke="none" stroke-width="0"/><path d="M228.03197,216.2108c0,0 -6.95513,2.16722 -9.50243,2.16722c-2.5473,0 -4.27887,-2.61178 -4.27887,-2.61178l-0.72241,-7.83534z" fill="#00e4f7" stroke="#008b97" stroke-width="2.5"/><path d="M191.79688,227.53619c-0.70054,-5.39539 -5.53635,-15.35303 -0.91173,-15.95349c0.93559,-0.12148 1.47354,5.26531 3.51236,7.77317c1.87785,2.30987 5.24638,1.69721 6.4809,2.88936c4.05043,3.91139 4.98571,3.0548 5.41399,6.35332c0.4607,3.5482 -5.86938,5.48458 -10.02431,8.0162c-2.16305,1.31795 -2.08772,4.34182 -3.67102,4.54739c-4.62462,0.60046 -0.09964,-8.23057 -0.80018,-13.62595z" fill="#00e4f7" stroke="#008b97" stroke-width="2.5"/><path d="M245.17223,227.96692c0,0.77144 -9.35247,0.30451 -9.59762,1.03862c-0.09573,0.28665 -0.14755,2.69174 3.1692,4.43185c1.66125,0.87156 3.99901,2.43603 3.99901,2.43603c0,0 -3.49771,2.77403 -8.12452,4.22031c-5.19898,1.62513 -11.69329,1.93868 -13.72228,1.84169c-7.46869,-0.35701 -24.27621,-6.85675 -24.27621,-13.96849c0,-7.11174 10.86883,-12.87694 24.27621,-12.87694c13.40738,0 24.27622,5.7652 24.27622,12.87694z" fill="#00e4f7" stroke="#008b97" stroke-width="2.5"/><path d="M202.00813,233.9938c-0.78091,0.08624 -1.81151,-0.14981 -2.46839,-0.05398c-0.64928,0.09473 -0.92652,0.52234 -1.41058,0.43847c-0.9891,-0.17137 -2.72358,-4.38435 -2.55426,-7.86711c0.11074,-2.27765 1.4944,-4.48945 1.87362,-4.48945c0.12548,0 3.38687,0.76995 3.38687,0.76995c0,0 1.66074,11.14821 1.17275,11.20211z" fill="#00e4f7" stroke="none" stroke-width="0.5"/><path d="M222.58613,228.21387c0,2.73144 -3.35872,4.94571 -7.50192,4.94571c-4.1432,0 -7.50192,-2.21427 -7.50192,-4.94571c0,-2.73144 3.35872,-4.94571 7.50192,-4.94571c4.1432,0 7.50192,2.21427 7.50192,4.94571z" fill="#00e4f7" stroke="#008b97" stroke-width="2.5"/><path d="M237.25655,224.71297c0,-0.98209 0.79614,-1.77823 1.77823,-1.77823c0.98209,0 1.77823,0.79614 1.77823,1.77823c0,0.98209 -0.79614,1.77823 -1.77823,1.77823c-0.98209,0 -1.77823,-0.79614 -1.77823,-1.77823z" fill="#000000" stroke="none" stroke-width="0"/></g></g></svg>