<svg version="1.1" xmlns="http://www.w3.org/2000/svg" xmlns:xlink="http://www.w3.org/1999/xlink" width="94.86461" height="72.32771" viewBox="0,0,94.86461,72.32771"><defs><linearGradient x1="250.5" y1="146.51825" x2="250.5" y2="156.58846" gradientUnits="userSpaceOnUse" id="color-1"><stop offset="0" stop-color="#b5f4c4"/><stop offset="1" stop-color="#469a3b"/></linearGradient><linearGradient x1="216.15337" y1="174.57099" x2="216.15337" y2="189.67631" gradientUnits="userSpaceOnUse" id="color-2"><stop offset="0" stop-color="#b5f4c4"/><stop offset="1" stop-color="#469a3b"/></linearGradient><linearGradient x1="255.71493" y1="171.69378" x2="255.71493" y2="194.35177" gradientUnits="userSpaceOnUse" id="color-3"><stop offset="0" stop-color="#b5f4c4"/><stop offset="1" stop-color="#469a3b"/></linearGradient><linearGradient x1="248.16227" y1="175.29029" x2="248.16227" y2="189.67631" gradientUnits="userSpaceOnUse" id="color-4"><stop offset="0" stop-color="#b5f4c4"/><stop offset="1" stop-color="#469a3b"/></linearGradient></defs><g transform="translate(-197.33537,-140.15205)"><g data-paper-data="{&quot;isPaintingLayer&quot;:true}" fill-rule="nonzero" stroke-linecap="butt" stroke-linejoin="miter" stroke-miterlimit="10" stroke-dasharray="" stroke-dashoffset="0" style="mix-blend-mode: normal"><path d="M240.60961,156.58846v-10.07021c0,0 6.61445,-2.90365 15.63163,2.17735c2.62846,1.48108 4.14914,7.89286 4.14914,7.89286z" data-paper-data="{&quot;index&quot;:null}" fill="url(#color-1)" stroke="#4a7b42" stroke-width="2.5"/><path d="M206.44281,197.58862c-3.33036,-4.27294 2.45362,-10.64429 2.33753,-15.81251c-0.15953,-7.102 -5.0706,-12.89059 -1.97788,-16.55604c5.34334,-6.33283 19.06148,9.35091 19.06148,9.35091v15.10532c0,0 -11.51427,18.05696 -19.42113,7.91231z" data-paper-data="{&quot;index&quot;:null}" fill="url(#color-2)" stroke="#4a7b42" stroke-width="2.5"/><path d="M283.35927,184.17455c0,0 -4.16754,2.92213 -7.96033,3.06265c-3.82539,0.14172 -10.32226,-1.06418 -10.37429,0.68095c-0.02604,1.93666 5.5499,5.22974 8.66316,5.87033c3.50866,0.72196 9.00092,1.28259 9.00092,1.28259l-13.83233,11.58636l-29.32573,0.28211l-13.30707,-12.58777v-22.65798l12.30143,-14.43982l27.61978,0.0538l17.98253,14.38602z" data-paper-data="{&quot;index&quot;:null}" fill="url(#color-3)" stroke="#4a7b42" stroke-width="2.5"/><path d="M248.16227,175.29029c6.1575,0 11.14917,3.22041 11.14917,7.19301c0,3.9726 -4.99166,7.19301 -11.14917,7.19301c-6.1575,0 -11.14917,-3.22041 -11.14917,-7.19301c0,-3.9726 4.99166,-7.19301 11.14917,-7.19301z" data-paper-data="{&quot;index&quot;:null}" fill="url(#color-4)" stroke="#4a7b42" stroke-width="2.5"/><path d="M277.65361,177.08854c-0.99315,0 -1.79825,-0.8051 -1.79825,-1.79825c0,-0.99315 0.8051,-1.79825 1.79825,-1.79825c0.99315,0 1.79825,0.8051 1.79825,1.79825c0,0.99315 -0.8051,1.79825 -1.79825,1.79825z" data-paper-data="{&quot;index&quot;:null}" fill="#000000" stroke="none" stroke-width="0.5"/><path d="M197.33537,212.47976v-72.32771h94.86461v72.32771z" fill="none" stroke="none" stroke-width="0"/></g></g></svg>