<svg version="1.1" xmlns="http://www.w3.org/2000/svg" xmlns:xlink="http://www.w3.org/1999/xlink" width="99.20523" height="66.16001" viewBox="0,0,99.20523,66.16001"><g transform="translate(-190.39738,-146.91998)"><g data-paper-data="{&quot;isPaintingLayer&quot;:true}" fill-rule="nonzero" stroke-linecap="butt" stroke-linejoin="miter" stroke-miterlimit="10" stroke-dasharray="" stroke-dashoffset="0" style="mix-blend-mode: normal"><path d="M258.2885,165.47556c0,0 -11.57108,3.60555 -15.80896,3.60555c-4.23788,0 -7.11865,-4.34515 -7.11865,-4.34515l-1.20185,-13.03546z" fill="#00e4f7" stroke="#008b97" stroke-width="2.5"/><path d="M198.00508,184.31735c-1.16547,-8.97617 -9.21069,-25.54247 -1.51683,-26.54144c1.55652,-0.20211 2.4515,8.75977 5.84342,12.93203c3.12414,3.84287 8.72827,2.82361 10.78211,4.80696c6.7386,6.50728 8.29461,5.0822 9.00713,10.56986c0.76646,5.90305 -9.76475,9.12456 -16.6772,13.33636c-3.59862,2.19265 -3.47329,7.22338 -6.10739,7.56538c-7.69387,0.99897 -0.16577,-13.693 -1.33125,-22.66917z" fill="#00e4f7" stroke="#008b97" stroke-width="2.5"/><path d="M286.80433,185.03394c0,1.28343 -15.55948,0.5066 -15.96732,1.72793c-0.15926,0.47689 -0.24548,4.47818 5.27252,7.37316c2.76378,1.45 6.65305,4.05277 6.65305,4.05277c0,0 -5.81905,4.61508 -13.51657,7.02122c-8.64942,2.70369 -19.45383,3.22533 -22.82943,3.06397c-12.42548,-0.59395 -40.38774,-11.40741 -40.38774,-23.23904c0,-11.83163 18.08221,-21.42305 40.38774,-21.42305c22.30554,0 40.38775,9.59143 40.38775,21.42305z" fill="#00e4f7" stroke="#008b97" stroke-width="2.5"/><path d="M214.99328,195.06072c-1.29918,0.14348 -3.01377,-0.24923 -4.1066,-0.0898c-1.08019,0.15759 -1.54143,0.86901 -2.34675,0.72948c-1.64554,-0.2851 -4.53116,-7.29413 -4.24947,-13.08831c0.18423,-3.78927 2.4862,-7.46898 3.11709,-7.46898c0.20875,0 5.63465,1.28094 5.63465,1.28094c0,0 2.76293,18.547 1.95108,18.63667z" fill="#00e4f7" stroke="none" stroke-width="0.5"/><path d="M248.35602,188.40582c-1.6691,4.2266 -8.21942,5.60051 -14.63055,3.06873c-6.41114,-2.53178 -10.25531,-8.01053 -8.58621,-12.23712c1.6691,-4.2266 8.21942,-5.60051 14.63055,-3.06873c6.41114,2.53178 10.25531,8.01053 8.58621,12.23712z" fill="#00e4f7" stroke="#008b97" stroke-width="2.5"/><path d="M273.63521,179.62043c0,-1.63388 1.32452,-2.9584 2.9584,-2.9584c1.63388,0 2.9584,1.32452 2.9584,2.9584c0,1.63388 -1.32452,2.9584 -2.9584,2.9584c-1.63388,0 -2.9584,-1.32452 -2.9584,-2.9584z" fill="#000000" stroke="none" stroke-width="0"/><path d="M190.39739,213.08v-66.16001h99.20523v66.16001z" fill="none" stroke="none" stroke-width="0"/></g></g></svg>