<svg version="1.1" xmlns="http://www.w3.org/2000/svg" xmlns:xlink="http://www.w3.org/1999/xlink" width="114.34671" height="146.19009" viewBox="0,0,114.34671,146.19009"><defs><linearGradient x1="246.51" y1="205.44212" x2="246.51" y2="210.001" gradientUnits="userSpaceOnUse" id="color-1"><stop offset="0" stop-color="#b5f4c4"/><stop offset="1" stop-color="#469a3b"/></linearGradient><linearGradient x1="230.96098" y1="218.14186" x2="230.96098" y2="224.98019" gradientUnits="userSpaceOnUse" id="color-2"><stop offset="0" stop-color="#b5f4c4"/><stop offset="1" stop-color="#469a3b"/></linearGradient><linearGradient x1="248.87087" y1="216.83933" x2="248.87087" y2="227.09679" gradientUnits="userSpaceOnUse" id="color-3"><stop offset="0" stop-color="#b5f4c4"/><stop offset="1" stop-color="#469a3b"/></linearGradient><linearGradient x1="245.64816" y1="218.44345" x2="244.18255" y2="224.78908" gradientUnits="userSpaceOnUse" id="color-4"><stop offset="0" stop-color="#b5f4c4"/><stop offset="1" stop-color="#469a3b"/></linearGradient></defs><g transform="translate(-182.24121,-106.12543)"><g data-paper-data="{&quot;isPaintingLayer&quot;:true}" fill-rule="nonzero" stroke-linejoin="miter" stroke-miterlimit="10" stroke-dasharray="" stroke-dashoffset="0" style="mix-blend-mode: normal"><path d="M295.33793,109.25152v141.49696l-110.67585,-25.23157z" fill="#30d932" stroke="#000000" stroke-width="2.5" stroke-linecap="round"/><path d="M250.09379,192.129l5.00082,1.65538l4.22122,-12.75209l6.00099,1.98646l-4.38676,13.25215l4.75078,1.57261l-10.56713,5.10265z" fill="#ffffff" stroke="#ffffff" stroke-width="1" stroke-linecap="round"/><g fill="#ffffff" stroke="#ffffff" stroke-width="1" stroke-linecap="butt"><path d="M266.73157,172.07279c-3.38829,-1.95614 -7.52659,0.25916 -6.42593,-1.88275c1.10068,-2.14194 5.48451,-4.7129 8.8728,-2.75677c3.38829,1.95614 4.77016,6.67452 3.6695,8.81646c-1.10068,2.14194 -2.72809,-2.2208 -6.11639,-4.17694z" data-paper-data="{&quot;index&quot;:null}"/><path d="M270.36697,144.53697c3.2187,-0.01274 5.83323,1.29692 5.83966,2.92519c0.00645,1.6283 -2.5976,2.95861 -5.8163,2.97137c-3.2187,0.01274 -5.83322,-1.29692 -5.83966,-2.9252c-0.00645,-1.6283 2.5976,-2.9586 5.81629,-2.97137z" data-paper-data="{&quot;index&quot;:null}"/><path d="M268.30678,169.44191c-3.72059,-2.40553 -2.85327,-10.36207 1.93721,-17.77143c4.79047,-7.40938 11.69004,-11.46581 15.41064,-9.06028c1.90396,1.23099 4.18557,3.10757 3.7657,6.50547c-0.04111,0.33269 -0.07973,1.62429 -3.34358,2.36915c-1.98607,0.45325 -4.24706,-0.17661 -4.06345,1.41998c0.14056,1.22228 1.21164,1.83967 2.37997,2.06853c1.57943,0.30937 3.3485,-0.03583 3.3485,-0.03583c0,0 -2.63579,4.51298 -4.02432,5.44414c-7.32792,4.9142 -11.69004,11.46581 -15.41063,9.06029z" data-paper-data="{&quot;index&quot;:null}"/></g><path d="M242.03253,210.001v-4.55888c0,0 2.99442,-1.3145 7.07658,0.98571c1.18993,0.6705 1.87835,3.57317 1.87835,3.57317z" data-paper-data="{&quot;index&quot;:null}" fill="url(#color-1)" stroke="#4a7b42" stroke-width="1.5" stroke-linecap="butt"/><path d="M226.56493,228.56214c-1.50769,-1.9344 1.11078,-4.81877 1.05822,-7.15847c-0.07222,-3.21514 -2.29551,-5.83569 -0.8954,-7.49507c2.41898,-2.86693 8.6293,4.23324 8.6293,4.23324v6.83832c0,0 -5.21261,8.17455 -8.79212,3.58198z" data-paper-data="{&quot;index&quot;:null}" fill="url(#color-2)" stroke="#4a7b42" stroke-width="1.5" stroke-linecap="butt"/><path d="M261.3857,222.48948c0,0 -1.88668,1.32287 -3.60371,1.38648c-1.73179,0.06416 -4.00224,-2.04429 -4.4665,-0.26682c-0.46426,1.77747 2.28245,2.94264 3.69185,3.23264c1.5884,0.32684 4.0748,0.58064 4.0748,0.58064l-6.26202,5.24525l-13.27602,0.12771l-6.02423,-5.6986v-10.25747l5.56897,-6.53704l12.50373,0.02436l8.14085,6.51268z" data-paper-data="{&quot;index&quot;:null}" fill="url(#color-3)" stroke="#4a7b42" stroke-width="1.5" stroke-linecap="butt"/><path d="M245.64816,218.44345c2.71606,0.62731 4.58978,2.55636 4.18506,4.30866c-0.40472,1.7523 -2.93462,2.66428 -5.65067,2.03697c-2.71606,-0.62731 -4.58978,-2.55636 -4.18506,-4.30866c0.40472,-1.7523 2.93462,-2.66428 5.65067,-2.03696z" data-paper-data="{&quot;index&quot;:null}" fill="url(#color-4)" stroke="#4a7b42" stroke-width="1.5" stroke-linecap="butt"/><path d="M258.57266,219.74166c-0.57666,0 -1.04413,-0.46747 -1.04413,-1.04413c0,-0.57665 0.46747,-1.04413 1.04413,-1.04413c0.57666,0 1.04413,0.46747 1.04413,1.04413c0,0.57665 -0.46747,1.04413 -1.04413,1.04413z" data-paper-data="{&quot;index&quot;:null}" fill="#000000" stroke="none" stroke-width="1.5" stroke-linecap="butt"/><path d="M222.4419,235.30352v-32.74341h42.94608v32.74342z" fill="none" stroke="none" stroke-width="1.5" stroke-linecap="butt"/></g></g></svg>