<svg version="1.1" xmlns="http://www.w3.org/2000/svg" xmlns:xlink="http://www.w3.org/1999/xlink" width="96.84271" height="146.70412" viewBox="0,0,96.84271,146.70412"><g transform="translate(-199.74522,-105.6238)"><g data-paper-data="{&quot;isPaintingLayer&quot;:true}" fill-rule="nonzero" stroke-linejoin="miter" stroke-miterlimit="10" stroke-dasharray="" stroke-dashoffset="0" style="mix-blend-mode: normal"><path d="M295.33793,109.25152v141.49696l-93.40534,-22.05016c0,0 48.03511,-61.42731 65.28103,-83.4814c11.31968,-14.47561 28.12432,-35.9654 28.12432,-35.9654z" fill="#30d932" stroke="#000000" stroke-width="2.5" stroke-linecap="round"/><path d="M250.09379,192.129l5.00082,1.65538l4.22122,-12.75209l6.00099,1.98646l-4.38676,13.25215l4.75078,1.57261l-10.56713,5.10265z" fill="#ffffff" stroke="#ffffff" stroke-width="1" stroke-linecap="round"/><g fill="#ffffff" stroke="#ffffff" stroke-width="1" stroke-linecap="butt"><path d="M241.70384,209.07778v-4.60927c0,0 3.02751,-1.32902 7.1548,0.99661c1.20308,0.67791 1.89912,3.61264 1.89912,3.61264z" data-paper-data="{&quot;index&quot;:null}"/><path d="M226.06526,227.84408c-1.52435,-1.95578 1.12305,-4.87203 1.06991,-7.23759c-0.07301,-3.25068 -2.32088,-5.90019 -0.9053,-7.57791c2.44572,-2.89862 8.72467,4.28002 8.72467,4.28002v6.91388c0,0 -5.27022,8.26489 -8.8893,3.62157z" data-paper-data="{&quot;index&quot;:null}"/><path d="M261.27089,221.7043c0,0 -1.90755,1.3375 -3.64355,1.40183c-1.75095,0.06488 -4.72462,-0.48708 -4.74843,0.31169c-0.01192,0.88643 2.54025,2.39372 3.96523,2.68692c1.60596,0.33044 4.11983,0.58706 4.11983,0.58706l-6.33122,5.3032l-13.42276,0.12913l-6.09082,-5.76157v-10.37085l5.63053,-6.60928l12.64192,0.02462l8.23083,6.58467z" data-paper-data="{&quot;index&quot;:null}"/></g><path d="M266.73157,172.07279c-3.38829,-1.95614 -7.52659,0.25916 -6.42593,-1.88275c1.10068,-2.14194 5.48451,-4.7129 8.8728,-2.75677c3.38829,1.95614 4.77016,6.67452 3.6695,8.81646c-1.10068,2.14194 -2.72809,-2.2208 -6.11639,-4.17694z" data-paper-data="{&quot;index&quot;:null}" fill="#ffffff" stroke="#ffffff" stroke-width="1" stroke-linecap="butt"/><path d="M269.60011,144.72144c2.4023,-1.43161 5.05391,-1.40666 5.92249,0.05575c0.86861,1.46242 -0.3747,3.80849 -2.77699,5.24013c-2.4023,1.43161 -4.90998,1.32182 -5.77857,-0.14059c-0.86861,-1.46242 0.23078,-3.72365 2.63306,-5.15528z" data-paper-data="{&quot;index&quot;:null}" fill="#ffffff" stroke="#ffffff" stroke-width="1" stroke-linecap="butt"/><path d="M268.30678,169.44191c-3.72059,-2.40553 -2.85327,-10.36207 1.93721,-17.77143c4.79047,-7.40938 11.69004,-11.46581 15.41064,-9.06028c1.90396,1.23099 4.18557,3.10757 3.7657,6.50547c-0.04111,0.33269 -0.07973,1.62429 -3.34358,2.36915c-1.98607,0.45325 -4.24706,-0.17661 -4.06345,1.41998c0.14056,1.22228 1.21164,1.83967 2.37997,2.06853c1.57943,0.30937 3.3485,-0.03583 3.3485,-0.03583c0,0 -2.63579,4.51298 -4.02432,5.44414c-7.32792,4.9142 -11.69004,11.46581 -15.41063,9.06029z" data-paper-data="{&quot;index&quot;:null}" fill="#ffffff" stroke="#ffffff" stroke-width="1" stroke-linecap="butt"/></g></g></svg>