<svg version="1.1" xmlns="http://www.w3.org/2000/svg" xmlns:xlink="http://www.w3.org/1999/xlink" width="77.35876" height="77.35876" viewBox="0,0,77.35876,77.35876"><defs><linearGradient x1="136.53958" y1="109.5198" x2="136.53958" y2="184.37856" gradientUnits="userSpaceOnUse" id="color-1"><stop offset="0" stop-color="#00ff04"/><stop offset="1" stop-color="#00ab03"/></linearGradient><linearGradient x1="141.01089" y1="124.38131" x2="141.01089" y2="131.47473" gradientUnits="userSpaceOnUse" id="color-2"><stop offset="0" stop-color="#b5f4c4"/><stop offset="1" stop-color="#469a3b"/></linearGradient><linearGradient x1="116.81725" y1="144.14156" x2="116.81725" y2="154.78169" gradientUnits="userSpaceOnUse" id="color-3"><stop offset="0" stop-color="#b5f4c4"/><stop offset="1" stop-color="#469a3b"/></linearGradient><linearGradient x1="144.68427" y1="142.11486" x2="144.68427" y2="158.07506" gradientUnits="userSpaceOnUse" id="color-4"><stop offset="0" stop-color="#b5f4c4"/><stop offset="1" stop-color="#469a3b"/></linearGradient><linearGradient x1="139.3642" y1="144.64823" x2="139.3642" y2="154.78169" gradientUnits="userSpaceOnUse" id="color-5"><stop offset="0" stop-color="#b5f4c4"/><stop offset="1" stop-color="#469a3b"/></linearGradient></defs><g transform="translate(-97.86021,-108.26979)"><g data-paper-data="{&quot;isPaintingLayer&quot;:true}" fill-rule="nonzero" stroke-linecap="butt" stroke-linejoin="miter" stroke-miterlimit="10" stroke-dasharray="" stroke-dashoffset="0" style="mix-blend-mode: normal"><path d="M99.11022,184.37854v-74.85875h74.85876v74.85876z" fill="url(#color-1)" stroke="#000000" stroke-width="2.5"/><path d="M134.04414,131.47473v-7.09342c0,0 4.65919,-2.04532 11.01086,1.53372c1.85148,1.04327 2.92264,5.5597 2.92264,5.5597z" data-paper-data="{&quot;index&quot;:null}" fill="url(#color-2)" stroke="#4a7b42" stroke-width="2.5"/><path d="M109.97717,160.35509c-2.34589,-3.00984 1.72832,-7.4978 1.64655,-11.13827c-0.11237,-5.00262 -3.57171,-9.08008 -1.39321,-11.66201c3.76383,-4.46082 13.42683,6.58675 13.42683,6.58675v10.64013c0,0 -8.11061,12.71925 -13.68017,5.5734z" data-paper-data="{&quot;index&quot;:null}" fill="url(#color-3)" stroke="#4a7b42" stroke-width="2.5"/><path d="M164.15684,150.90627c0,0 -2.9356,2.05834 -5.60723,2.15732c-2.69459,0.09983 -7.27096,-0.7496 -7.30761,0.47966c-0.01834,1.36418 3.90933,3.68381 6.1023,4.13504c2.47149,0.50855 6.34021,0.90345 6.34021,0.90345l-9.74344,8.16139l-20.65693,0.19872l-9.37345,-8.86678v-15.9602l8.66508,-10.17135l19.45527,0.0379l12.66683,10.13346z" data-paper-data="{&quot;index&quot;:null}" fill="url(#color-4)" stroke="#4a7b42" stroke-width="2.5"/><path d="M139.3642,144.64823c4.33732,0 7.85343,2.26844 7.85343,5.06673c0,2.79828 -3.51611,5.06673 -7.85343,5.06673c-4.33732,0 -7.85343,-2.26844 -7.85343,-5.06673c0,-2.79828 3.51611,-5.06673 7.85343,-5.06673z" data-paper-data="{&quot;index&quot;:null}" fill="url(#color-5)" stroke="#4a7b42" stroke-width="2.5"/><path d="M160.13779,145.91491c-0.69957,0 -1.26668,-0.56711 -1.26668,-1.26668c0,-0.69957 0.56711,-1.26668 1.26668,-1.26668c0.69957,0 1.26668,0.56711 1.26668,1.26668c0,0.69957 -0.56711,1.26668 -1.26668,1.26668z" data-paper-data="{&quot;index&quot;:null}" fill="#000000" stroke="none" stroke-width="0.5"/><path d="M103.56193,170.84435v-50.94736h66.82227v50.94736z" fill="none" stroke="none" stroke-width="0"/></g></g></svg>