<svg version="1.1" xmlns="http://www.w3.org/2000/svg" xmlns:xlink="http://www.w3.org/1999/xlink" width="77.35876" height="77.35876" viewBox="0,0,77.35876,77.35876"><defs><linearGradient x1="57.44353" y1="189.32205" x2="57.44353" y2="264.18081" gradientUnits="userSpaceOnUse" id="color-1"><stop offset="0" stop-color="#00ff04"/><stop offset="1" stop-color="#00ab03"/></linearGradient></defs><g transform="translate(-18.76414,-188.07204)"><g data-paper-data="{&quot;isPaintingLayer&quot;:true}" fill-rule="nonzero" stroke-linejoin="miter" stroke-miterlimit="10" stroke-dasharray="" stroke-dashoffset="0" style="mix-blend-mode: normal"><path d="M20.01415,264.18081v-74.85876h74.85876v74.85876z" fill="url(#color-1)" stroke="#000000" stroke-width="2.5" stroke-linecap="butt"/><path d="M23.16827,243.13717v-35.42983h69.05202v35.42983z" fill="none" stroke="none" stroke-width="0" stroke-linecap="butt"/><path d="M27.07674,251.95123v-51.76081h62.70909v51.76081z" fill="none" stroke="none" stroke-width="0" stroke-linecap="butt"/><path d="M43.6577,239.96534c-2.59199,-2.76336 -1.82932,-5.19476 0.16774,-7.06797c1.99706,-1.8732 4.37699,-3.22123 6.96898,-0.45784c2.59199,2.76336 4.41452,8.59168 2.41747,10.46489c-1.99706,1.8732 -6.9622,-0.1757 -9.55419,-2.93908z" fill="#faff00" stroke="#000000" stroke-width="2" stroke-linecap="butt"/><g data-paper-data="{&quot;index&quot;:null}"><path d="M38.17162,251.26781l-1.85849,-3.13841l7.88604,-4.52281" fill="none" stroke="#000000" stroke-width="2" stroke-linecap="round"/><path d="M37.49227,250.18413c0.13896,-0.60378 -0.22262,-0.96257 -0.42214,-1.84358c-0.07973,-0.3521 -0.32829,-0.86275 -0.17502,-1.05445c0.18318,-0.2291 0.57157,0.13403 0.85736,0.20104c0.91367,1.01941 2.70929,2.25538 2.96137,4.10687c0.14901,1.09447 -0.4256,1.91278 -1.15673,1.78466c-0.67978,-0.11913 -1.36695,-0.87152 -1.94865,-1.69964c-0.0735,-0.01698 -0.16029,-0.07491 -0.25714,-0.20773c-0.11884,-0.16298 -0.16124,-0.31316 -0.16848,-0.43621c-0.10084,-0.16099 -0.19663,-0.31945 -0.28653,-0.47129c0,0 -0.27617,-0.46641 -0.02816,-0.73989c0.248,-0.27348 0.52417,0.19294 0.52417,0.19294c0.03336,0.05634 0.06665,0.1121 0.09994,0.16727z" fill="#000000" stroke="none" stroke-width="0.5" stroke-linecap="butt"/></g><g><path d="M44.65446,254.59514l-3.10084,-1.37879l3.55991,-7.27107" fill="none" stroke="#000000" stroke-width="2" stroke-linecap="round"/><path d="M42.63665,253.72946c-0.11072,-0.6137 -0.60747,-0.78091 -1.15936,-1.49757c-0.22057,-0.28642 0.09709,-0.33015 0.16786,-0.57355c0.08456,-0.29087 -0.15742,-0.44414 0.14713,-0.50994c1.3011,0.52564 3.54603,0.85715 4.54362,2.43755c0.58971,0.93421 0.36495,1.93773 -0.39655,2.14565c-0.70802,0.19332 -1.68079,-0.18893 -2.58197,-0.6873c-0.07822,0.01717 -0.18599,0.00279 -0.33399,-0.07557c-0.1816,-0.09617 -0.28381,-0.21457 -0.34087,-0.32383c-0.16333,-0.10233 -0.3207,-0.20458 -0.4697,-0.30343c0,0 -0.45764,-0.30357 -0.32822,-0.66383c0.12942,-0.36025 0.58705,-0.05668 0.58705,-0.05668c0.05528,0.03666 0.11027,0.07285 0.165,0.10847z" fill="#000000" stroke="none" stroke-width="0.5" stroke-linecap="butt"/></g><path d="M32.49392,243.95303c-3.2591,-1.95125 -2.78457,-5.53222 -0.8711,-9.15446c1.91346,-3.62222 4.32581,-6.80639 7.58492,-4.85513c3.2591,1.95125 6.13081,8.29901 4.21734,11.92125c-1.91346,3.62222 -7.67205,4.0396 -10.93116,2.08834z" fill="#faff00" stroke="#000000" stroke-width="2" stroke-linecap="butt"/><path d="M50.92034,251.28352c-5.8418,0.25921 -10.75667,-3.56816 -10.97765,-8.54868c-0.22098,-4.98051 4.33559,-9.22814 10.17739,-9.48734c5.8418,-0.25921 10.75666,3.56816 10.97765,8.54868c0.22098,4.98051 -4.33558,9.22815 -10.17738,9.48735z" fill="#4dff00" stroke="#000000" stroke-width="2" stroke-linecap="butt"/><path d="M60.67541,241.0413c-0.82364,0.68455 -2.15726,0.43826 -2.97872,-0.55011c-0.82146,-0.98836 -0.8197,-2.34454 0.00394,-3.02909c0.82364,-0.68455 2.15727,-0.43826 2.97873,0.55011c0.82146,0.98836 0.81969,2.34454 -0.00395,3.02909z" fill="#faff00" stroke="#000000" stroke-width="2" stroke-linecap="butt"/><path d="M47.77068,250.88257c-3.70876,0.77439 -5.38762,-1.14258 -5.94727,-3.82288c-0.55965,-2.68027 -0.47157,-5.41405 3.23721,-6.18844c3.70876,-0.77439 9.63378,0.70382 10.19343,3.38411c0.55965,2.68027 -3.7746,5.85281 -7.48337,6.62721z" fill="#faff00" stroke="#000000" stroke-width="2" stroke-linecap="butt"/><path d="M53.9821,234.4072c0.10177,1.7381 -2.02886,1.85695 -4.31849,1.85695c-2.28964,0 -4.14575,0.2296 -4.14575,-1.51147c0,-1.74108 -1.85779,-5.22538 0.43185,-5.22538c2.28964,0 7.85966,1.92964 8.0324,4.8799z" fill="#faff00" stroke="#000000" stroke-width="2" stroke-linecap="butt"/><path d="M66.16841,219.13735c-5.56909,0 -10.08373,-4.45676 -10.08373,-9.95445c0,-5.49769 4.51464,-9.95445 10.08373,-9.95445c5.56909,0 10.08374,4.45676 10.08374,9.95445c0,5.49769 -4.51465,9.95445 -10.08374,9.95445z" fill="#00b3ff" stroke="#000000" stroke-width="2" stroke-linecap="butt"/><path d="M83.19193,226.04433c0,8.84629 -7.29288,16.01763 -16.2891,16.01763c-8.99623,0 -16.28911,-7.17134 -16.28911,-16.01763c0,-8.84629 7.29289,-16.01762 16.28911,-16.01762c8.99622,0 16.2891,7.17133 16.2891,16.01762z" fill="#faff00" stroke="#000000" stroke-width="2" stroke-linecap="butt"/><path d="M75.92972,228.41982l0.40723,-9.36624" fill="none" stroke="#000000" stroke-width="2" stroke-linecap="round"/><path d="M67.9209,218.37487v10.18069" fill="none" stroke="#000000" stroke-width="2" stroke-linecap="round"/><path d="M63.84863,231.40616l11.80961,0.13574" fill="none" stroke="#000000" stroke-width="1" stroke-linecap="round"/><path d="M74.84377,231.67765c0,-0.54297 0.54297,-0.54297 0.54297,-0.54297h0.40723c2.93511,0 0.95718,1.80223 0.02784,3.03971c-0.36093,0.48059 -0.73454,1.61123 -1.18126,1.99908c-1.05864,0.91912 -2.78883,1.25744 -4.1446,1.59639c-2.16017,0.54004 -4.1757,0.74674 -5.59464,-1.15947c-0.46975,-0.63106 -1.08002,-0.85587 -1.30965,-1.6859c-0.31035,-1.1218 -0.15026,-2.4926 -0.15026,-3.65405c0,0 0,-0.54297 0.54297,-0.54297c0.54297,0 0.54297,0.54297 0.54297,0.54297c0,1.11381 -0.10365,2.31985 0.12122,3.40456c0.10662,0.5143 0.85568,0.93231 1.13372,1.30044c1.12095,1.48418 2.7314,1.17064 4.45031,0.74091c1.2555,-0.31388 2.71842,-0.61508 3.72848,-1.38995c0.25625,-0.19658 0.81909,-1.57273 0.99062,-1.80172c0.25268,-0.33731 0.83542,-1.16499 1.32414,-1.45792c-0.1458,0.06551 -0.36817,0.15387 -0.48184,0.15387h-0.40723c0,0 -0.54297,0 -0.54297,-0.54297z" fill="#000000" stroke="none" stroke-width="0.5" stroke-linecap="butt"/><path d="M75.19062,214.17017c-0.46252,0.23126 -0.69378,-0.23126 -0.69378,-0.23126c-0.75083,-1.50168 -1.26791,-3.32811 0.09686,-4.73383c0.39189,-0.40365 1.15694,-0.64477 1.55135,-1.03423c0.31373,-0.3098 0.70251,-0.62562 1.14133,-0.66857h0.51711c0,0 0.02157,0 0.0559,0.0044c0.42982,-0.20743 0.88604,-0.37963 1.37663,-0.50769c0.768,-0.20047 1.58284,-0.10331 2.36299,-0.26572c1.47097,-0.30622 2.65457,-0.59205 2.65457,1.40492c-1.3432,2.82523 -3.69224,4.0953 -6.58985,4.77995c-0.7697,0.18186 -1.21659,0.77567 -2.06846,0.77567l-0.11594,0.06241c-0.00519,0.14035 -0.06785,0.30352 -0.28871,0.41395z" fill="#00b3ff" stroke="#000000" stroke-width="1.5" stroke-linecap="butt"/><path d="M25.38032,257.05902v-59.89501h61.85331v59.89501z" fill="none" stroke="none" stroke-width="0" stroke-linecap="butt"/></g></g></svg>