<svg version="1.1" xmlns="http://www.w3.org/2000/svg" xmlns:xlink="http://www.w3.org/1999/xlink" width="102.5" height="366.65379" viewBox="0,0,102.5,366.65379"><defs><linearGradient x1="424.77501" y1="100.10835" x2="424.77501" y2="126.77502" gradientUnits="userSpaceOnUse" id="color-1"><stop offset="0" stop-color="#30d94e"/><stop offset="1" stop-color="#19a632"/></linearGradient></defs><g transform="translate(-373.52501,-98.85835)"><g data-paper-data="{&quot;isPaintingLayer&quot;:true}" fill-rule="nonzero" stroke-linecap="butt" stroke-linejoin="miter" stroke-miterlimit="10" stroke-dasharray="" stroke-dashoffset="0" style="mix-blend-mode: normal"><path d="M374.77501,126.77502v-26.66667h100v26.66667z" fill="url(#color-1)" stroke="#000000" stroke-width="2.5"/><text transform="translate(401.88612,119.66391) scale(0.5,0.5)" font-size="40" xml:space="preserve" fill="#ffffff" fill-rule="nonzero" stroke="none" stroke-width="1" stroke-linecap="butt" stroke-linejoin="miter" stroke-miterlimit="10" stroke-dasharray="" stroke-dashoffset="0" font-family="Handwriting" font-weight="normal" text-anchor="start" style="mix-blend-mode: normal"><tspan x="0" dy="0">More</tspan></text><path d="M446.2131,333.68696c1.34164,0.67082 0.67082,2.01246 0.67082,2.01246l-0.72519,1.44195c-2.57534,7.76011 -6.03289,15.40206 -11.86575,21.2597c0,0 -1.06066,1.06066 -2.12132,0c-1.06066,-1.06066 0,-2.12132 0,-2.12132c5.5735,-5.54761 8.75176,-12.92617 11.21543,-20.28643l0.81355,-1.63554c0,0 0.67082,-1.34164 2.01246,-0.67082z" fill="none" stroke="none" stroke-width="0.5"/><path d="M444.4677,465.08377c-1.10512,1.01425 -2.11937,-0.09087 -2.11937,-0.09087l-1.83901,-2.01435c-0.99719,-1.65573 -2.55118,-2.90428 -3.82138,-4.36114c-2.56114,-2.93753 -4.32267,-7.06597 -6.49458,-10.32323c0,0 -0.83205,-1.24808 0.41603,-2.08013c1.24808,-0.83205 2.08013,0.41603 2.08013,0.41603c2.0847,3.12764 3.77689,7.20979 6.25275,10.00792c1.33091,1.50415 2.91133,2.82711 3.96456,4.53722l1.65176,1.78918c0,0 1.01425,1.10512 -0.09087,2.11937z" fill="none" stroke="none" stroke-width="0.5"/></g></g></svg>