<svg version="1.1" xmlns="http://www.w3.org/2000/svg" xmlns:xlink="http://www.w3.org/1999/xlink" width="110.84787" height="106.15107" viewBox="0,0,110.84787,106.15107"><defs><radialGradient cx="210.35978" cy="184.98099" r="17.71252" gradientUnits="userSpaceOnUse" id="color-1"><stop offset="0" stop-color="#333435"/><stop offset="1" stop-color="#2a2a2a"/></radialGradient><radialGradient cx="241.27864" cy="139.60988" r="10.32639" gradientUnits="userSpaceOnUse" id="color-2"><stop offset="0" stop-color="#333435"/><stop offset="1" stop-color="#2a2a2a"/></radialGradient><radialGradient cx="251.11381" cy="171.11263" r="32.21872" gradientUnits="userSpaceOnUse" id="color-3"><stop offset="0" stop-color="#333435"/><stop offset="1" stop-color="#2a2a2a"/></radialGradient><radialGradient cx="240.63158" cy="176.35721" r="12.20874" gradientUnits="userSpaceOnUse" id="color-4"><stop offset="0" stop-color="#333435"/><stop offset="1" stop-color="#2a2a2a"/></radialGradient></defs><g transform="translate(-189.18237,-119.33955)"><g data-paper-data="{&quot;isPaintingLayer&quot;:true}" fill-rule="nonzero" stroke-linecap="butt" stroke-linejoin="miter" stroke-miterlimit="10" stroke-dasharray="" stroke-dashoffset="0" style="mix-blend-mode: normal"><path d="M208.25609,172.68002c11.82091,-2.02157 22.34551,1.84694 23.50734,8.64057c1.16185,6.79362 -7.47907,13.93977 -19.29999,15.96135c-11.82092,2.02159 -0.1115,-5.055 -1.27332,-11.84863c-1.16183,-6.79362 -14.75494,-10.73171 -2.93402,-12.75328z" data-paper-data="{&quot;index&quot;:null}" fill="url(#color-1)" stroke="#212122" stroke-width="2.5"/><path d="M244.75625,134.74076c4.7577,3.39802 7.05761,8.33265 5.13698,11.02179c-1.92063,2.68914 -7.33449,2.11448 -12.09219,-1.28357c-4.7577,-3.39804 -7.05761,-8.33265 -5.13698,-11.02179c1.92063,-2.68914 7.33449,-2.11448 12.09219,1.28357z" data-paper-data="{&quot;index&quot;:null}" fill="url(#color-2)" stroke="#212122" stroke-width="2.5"/><path d="M262.13905,140.83905c4.54543,1.65539 9.9404,6.73562 13.03213,11.69603c4.09687,6.57308 3.11984,12.9431 3.73126,20.22449c0.10112,1.20437 -6.4421,2.25455 -11.04055,0.22182c-4.59845,-2.03273 -13.27231,-7.31224 -13.36254,-5.96575c-0.07002,1.04484 3.6401,9.71493 9.50329,12.60611c5.86316,2.89118 13.76339,1.47311 13.56053,2.59292c-3.17166,17.50897 -22.78522,24.52125 -37.47461,19.17156c-14.68939,-5.34968 -21.66134,-23.24041 -15.57226,-39.96006c6.08908,-16.71965 22.93337,-25.9368 37.62275,-20.58712z" data-paper-data="{&quot;index&quot;:null}" fill="url(#color-3)" stroke="#212122" stroke-width="2.5"/><path d="M240.47264,170.14561c7.11523,-0.18207 12.95444,2.45136 13.04222,5.88192c0.08778,3.43056 -5.6091,6.35919 -12.72433,6.54125c-7.11523,0.18207 -12.95443,-2.45135 -13.04221,-5.88191c-0.08778,-3.43056 5.60909,-6.35917 12.72432,-6.54125z" data-paper-data="{&quot;index&quot;:null}" fill="url(#color-4)" stroke="#212122" stroke-width="2.5"/><path d="M269.87613,164.38357c-1.43311,-0.52192 -2.17177,-2.10678 -1.64985,-3.53989c0.52192,-1.43311 2.10678,-2.17177 3.53989,-1.64985c1.43311,0.52192 2.17177,2.10678 1.64985,3.53989c-0.52192,1.43311 -2.10678,2.17177 -3.53989,1.64985z" data-paper-data="{&quot;index&quot;:null}" fill="#000000" stroke="none" stroke-width="0.5"/><path d="M257.91567,160.90945c-1.43311,-0.52192 -2.17177,-2.10678 -1.64985,-3.53989c0.52192,-1.43311 2.10678,-2.17177 3.53989,-1.64985c1.43311,0.52192 2.17177,2.10678 1.64985,3.53989c-0.52192,1.43311 -2.10678,2.17177 -3.53989,1.64985z" data-paper-data="{&quot;index&quot;:null}" fill="#000000" stroke="none" stroke-width="0.5"/><path d="M189.18237,195.18018l27.62017,-75.84062l83.2277,30.31045l-27.62017,75.84062z" fill="none" stroke="none" stroke-width="0"/></g></g></svg>