<svg version="1.1" xmlns="http://www.w3.org/2000/svg" xmlns:xlink="http://www.w3.org/1999/xlink" width="102.72632" height="98.86213" viewBox="0,0,102.72632,98.86213"><defs><radialGradient cx="208.47001" cy="188.07369" r="7.14368" gradientUnits="userSpaceOnUse" id="color-1"><stop offset="0" stop-color="#d9d1c4"/><stop offset="1" stop-color="#c4b7a5"/></radialGradient><radialGradient cx="243.1628" cy="177.714" r="33.487" gradientUnits="userSpaceOnUse" id="color-2"><stop offset="0" stop-color="#d9d1c4"/><stop offset="1" stop-color="#c4b7a5"/></radialGradient><radialGradient cx="210.32807" cy="146.17125" r="6.61544" gradientUnits="userSpaceOnUse" id="color-3"><stop offset="0" stop-color="#d9d1c4"/><stop offset="1" stop-color="#c4b7a5"/></radialGradient><radialGradient cx="228.07641" cy="154.47467" r="16.47302" gradientUnits="userSpaceOnUse" id="color-4"><stop offset="0" stop-color="#d9d1c4"/><stop offset="1" stop-color="#c4b7a5"/></radialGradient><radialGradient cx="244.3857" cy="141.40922" r="6.74355" gradientUnits="userSpaceOnUse" id="color-5"><stop offset="0" stop-color="#d9d1c4"/><stop offset="1" stop-color="#c4b7a5"/></radialGradient><radialGradient cx="262.0209" cy="150.73078" r="16.38845" gradientUnits="userSpaceOnUse" id="color-6"><stop offset="0" stop-color="#d9d1c4"/><stop offset="1" stop-color="#c4b7a5"/></radialGradient><radialGradient cx="243.8037" cy="213.60705" r="7.60621" gradientUnits="userSpaceOnUse" id="color-7"><stop offset="0" stop-color="#d9d1c4"/><stop offset="1" stop-color="#c4b7a5"/></radialGradient><radialGradient cx="263.78885" cy="202.3746" r="17.72266" gradientUnits="userSpaceOnUse" id="color-8"><stop offset="0" stop-color="#d9d1c4"/><stop offset="1" stop-color="#c4b7a5"/></radialGradient><radialGradient cx="205.14196" cy="218.43105" r="6.65344" gradientUnits="userSpaceOnUse" id="color-9"><stop offset="0" stop-color="#d9d1c4"/><stop offset="1" stop-color="#c4b7a5"/></radialGradient><radialGradient cx="228.58249" cy="204.08117" r="19.76469" gradientUnits="userSpaceOnUse" id="color-10"><stop offset="0" stop-color="#d9d1c4"/><stop offset="1" stop-color="#c4b7a5"/></radialGradient></defs><g transform="translate(-188.37478,-130.56893)"><g data-paper-data="{&quot;isPaintingLayer&quot;:true}" fill-rule="nonzero" stroke-linecap="butt" stroke-linejoin="miter" stroke-miterlimit="10" stroke-dasharray="" stroke-dashoffset="0" style="mix-blend-mode: normal"><path d="M204.22938,194.56927l-2.90305,-12.99119l14.28736,5.7585z" data-paper-data="{&quot;index&quot;:null}" fill="url(#color-1)" stroke="#7f726d" stroke-width="2.5"/><path d="M253.83981,164.89978c12.5976,0 22.80999,4.56298 22.80999,10.19169c0,5.62871 -10.21238,10.19169 -22.80999,10.19169c-12.5976,0 -44.164,9.02594 -44.164,3.39723c0,-5.62871 31.5664,-23.78062 44.164,-23.78062z" data-paper-data="{&quot;index&quot;:null}" fill="url(#color-2)" stroke="#7f726d" stroke-width="2.5"/><path d="M203.77117,152.78671l1.46357,-13.2309l11.65023,10.07775z" data-paper-data="{&quot;index&quot;:null}" fill="url(#color-3)" stroke="#7f726d" stroke-width="2.5"/><path d="M244.54942,158.32254c0,3.90563 -2.62579,9.77571 -8.94374,9.77571c-6.31795,0 -23.2953,-10.65393 -23.2953,-14.55956c0,-3.90563 -2.99004,-12.68763 3.32791,-12.68763c6.31795,0 28.91113,13.56584 28.91113,17.47148z" data-paper-data="{&quot;index&quot;:null}" fill="url(#color-4)" stroke="#7f726d" stroke-width="2.5"/><path d="M237.64215,147.59586l4.61924,-12.48445l8.86785,12.59564z" data-paper-data="{&quot;index&quot;:null}" fill="url(#color-5)" stroke="#7f726d" stroke-width="2.5"/><path d="M245.88416,144.59615c1.57157,-4.13391 10.07025,-4.73853 18.98232,-1.35047c8.91207,3.38805 14.86274,9.48582 13.29116,13.61973c-1.57156,4.13391 -10.07024,4.73856 -18.98231,1.35049c-8.91207,-3.38805 -14.86274,-9.48583 -13.29116,-13.61974z" data-paper-data="{&quot;index&quot;:null}" fill="url(#color-6)" stroke="#7f726d" stroke-width="2.5"/><path d="M249.83529,212.03356l-9.64011,9.1797l-2.42308,-15.21241z" data-paper-data="{&quot;index&quot;:null}" fill="url(#color-7)" stroke="#7f726d" stroke-width="2.5"/><path d="M258.71045,194.37227c9.37482,-5.9494 19.2483,-7.18959 22.05301,-2.77003c2.80471,4.41956 -2.5214,12.82527 -11.89623,18.77467c-9.37482,5.9494 -19.24828,7.18959 -22.05299,2.77003c-2.80471,-4.41956 2.52138,-12.82527 11.89621,-18.77467z" data-paper-data="{&quot;index&quot;:null}" fill="url(#color-8)" stroke="#7f726d" stroke-width="2.5"/><path d="M198.4885,212.32693l13.3069,-0.35343l-8.39579,12.91509z" data-paper-data="{&quot;index&quot;:null}" fill="url(#color-9)" stroke="#7f726d" stroke-width="2.5"/><path d="M209.31444,213.54004c-2.42088,-4.93141 4.24322,-13.16399 14.88468,-18.38797c10.64145,-5.22399 21.23057,-5.46118 23.65144,-0.52976c2.42088,4.93141 -4.24324,13.164 -14.88469,18.38799c-10.64147,5.22399 -21.23057,5.46118 -23.65144,0.52976z" data-paper-data="{&quot;index&quot;:null}" fill="url(#color-10)" stroke="#7f726d" stroke-width="2.5"/><path d="M271.76195,156.00865c-1.00512,0 -1.81995,-0.81481 -1.81995,-1.81995c0,-1.00512 0.81483,-1.81995 1.81995,-1.81995c1.00512,0 1.81995,0.81481 1.81995,1.81995c0,1.00513 -0.81483,1.81995 -1.81995,1.81995z" data-paper-data="{&quot;index&quot;:null}" fill="#000000" stroke="none" stroke-width="0.5"/><path d="M237.91096,162.19646c-1.00512,0 -1.81995,-0.81481 -1.81995,-1.81995c0,-1.00513 0.81483,-1.81995 1.81995,-1.81995c1.00512,0 1.81995,0.81481 1.81995,1.81995c0,1.00513 -0.81483,1.81995 -1.81995,1.81995z" data-paper-data="{&quot;index&quot;:null}" fill="#000000" stroke="none" stroke-width="0.5"/><path d="M269.21402,176.02805c-1.00512,0 -1.81995,-0.81481 -1.81995,-1.81995c0,-1.00513 0.81483,-1.81995 1.81995,-1.81995c1.00512,0 1.81995,0.81481 1.81995,1.81995c0,1.00513 -0.81483,1.81995 -1.81995,1.81995z" data-paper-data="{&quot;index&quot;:null}" fill="#000000" stroke="none" stroke-width="0.5"/><path d="M275.40184,197.13942c-1.00512,0 -1.81995,-0.81481 -1.81995,-1.81995c0,-1.00513 0.81483,-1.81995 1.81995,-1.81995c1.00512,0 1.81995,0.81481 1.81995,1.81995c0,1.00513 -0.81483,1.81995 -1.81995,1.81995z" data-paper-data="{&quot;index&quot;:null}" fill="#000000" stroke="none" stroke-width="0.5"/><path d="M240.0949,200.05133c-1.00512,0 -1.81995,-0.81481 -1.81995,-1.81995c0,-1.00513 0.81483,-1.81995 1.81995,-1.81995c1.00512,0 1.81995,0.81481 1.81995,1.81995c0,1.00513 -0.81483,1.81995 -1.81995,1.81995z" data-paper-data="{&quot;index&quot;:null}" fill="#000000" stroke="none" stroke-width="0.5"/><path d="M188.37478,229.43107v-98.86213h102.72632v98.86213z" fill="none" stroke="none" stroke-width="0"/></g></g></svg>