<svg version="1.1" xmlns="http://www.w3.org/2000/svg" xmlns:xlink="http://www.w3.org/1999/xlink" width="94.86461" height="72.32771" viewBox="0,0,94.86461,72.32771"><defs><linearGradient x1="245.73229" y1="150.20231" x2="245.73229" y2="160.27252" gradientUnits="userSpaceOnUse" id="color-1"><stop offset="0" stop-color="#b5f4c4"/><stop offset="1" stop-color="#469a3b"/></linearGradient><linearGradient x1="211.38568" y1="178.25508" x2="211.38568" y2="193.36041" gradientUnits="userSpaceOnUse" id="color-2"><stop offset="0" stop-color="#b5f4c4"/><stop offset="1" stop-color="#469a3b"/></linearGradient><linearGradient x1="250.94726" y1="175.37787" x2="250.94726" y2="198.03583" gradientUnits="userSpaceOnUse" id="color-3"><stop offset="0" stop-color="#b5f4c4"/><stop offset="1" stop-color="#469a3b"/></linearGradient><linearGradient x1="243.82855" y1="178.92126" x2="240.59113" y2="192.93827" gradientUnits="userSpaceOnUse" id="color-4"><stop offset="0" stop-color="#b5f4c4"/><stop offset="1" stop-color="#469a3b"/></linearGradient></defs><g transform="translate(-192.56769,-143.83615)"><g data-paper-data="{&quot;isPaintingLayer&quot;:true}" fill-rule="nonzero" stroke-linecap="butt" stroke-linejoin="miter" stroke-miterlimit="10" stroke-dasharray="" stroke-dashoffset="0" style="mix-blend-mode: normal"><path d="M235.8419,160.27252v-10.07021c0,0 6.61445,-2.90365 15.63163,2.17735c2.62846,1.48108 4.14914,7.89286 4.14914,7.89286z" data-paper-data="{&quot;index&quot;:null}" fill="url(#color-1)" stroke="#4a7b42" stroke-width="2.5"/><path d="M201.67514,201.27268c-3.33036,-4.27294 2.45362,-10.64429 2.33753,-15.81251c-0.15953,-7.102 -5.0706,-12.89059 -1.97788,-16.55604c5.34334,-6.33283 19.06148,9.35091 19.06148,9.35091v15.10532c0,0 -11.51427,18.05696 -19.42113,7.91231z" data-paper-data="{&quot;index&quot;:null}" fill="url(#color-2)" stroke="#4a7b42" stroke-width="2.5"/><path d="M278.59158,187.85862c0,0 -4.16754,2.92213 -7.96033,3.06265c-3.82539,0.14172 -8.84065,-4.51567 -9.86615,-0.58939c-1.02551,3.92628 5.04176,6.50008 8.15502,7.14067c3.50866,0.72196 9.00092,1.28259 9.00092,1.28259l-13.83233,11.58636l-29.32573,0.28211l-13.30707,-12.58777v-22.65798l12.30143,-14.43982l27.61978,0.0538l17.98253,14.38602z" data-paper-data="{&quot;index&quot;:null}" fill="url(#color-3)" stroke="#4a7b42" stroke-width="2.5"/><path d="M243.82855,178.92126c5.99956,1.38568 10.13847,5.64681 9.24448,9.51751c-0.89399,3.8707 -6.48234,5.88519 -12.4819,4.4995c-5.99956,-1.38568 -10.13847,-5.64681 -9.24448,-9.51751c0.89399,-3.8707 6.48234,-5.88519 12.4819,-4.4995z" data-paper-data="{&quot;index&quot;:null}" fill="url(#color-4)" stroke="#4a7b42" stroke-width="2.5"/><path d="M272.37778,181.7889c-1.27379,0 -2.30639,-1.0326 -2.30639,-2.30639c0,-1.27379 1.0326,-2.30639 2.30639,-2.30639c1.27379,0 2.30639,1.0326 2.30639,2.30639c0,1.27379 -1.0326,2.30639 -2.30639,2.30639z" data-paper-data="{&quot;index&quot;:null}" fill="#000000" stroke="none" stroke-width="0.5"/><path d="M192.5677,216.16386v-72.32771h94.86461v72.32771z" fill="none" stroke="none" stroke-width="0"/></g></g></svg>