<svg version="1.1" xmlns="http://www.w3.org/2000/svg" xmlns:xlink="http://www.w3.org/1999/xlink" width="77.35876" height="77.35876" viewBox="0,0,77.35876,77.35876"><defs><linearGradient x1="215.63564" y1="189.32211" x2="215.63564" y2="264.18084" gradientUnits="userSpaceOnUse" id="color-1"><stop offset="0" stop-color="#00ff04"/><stop offset="1" stop-color="#00ab03"/></linearGradient><radialGradient cx="195.00487" cy="231.4882" r="4.73669" gradientUnits="userSpaceOnUse" id="color-2"><stop offset="0" stop-color="#d9d1c4"/><stop offset="1" stop-color="#c4b7a5"/></radialGradient><radialGradient cx="218.0083" cy="224.6191" r="22.20391" gradientUnits="userSpaceOnUse" id="color-3"><stop offset="0" stop-color="#d9d1c4"/><stop offset="1" stop-color="#c4b7a5"/></radialGradient><radialGradient cx="196.23688" cy="203.70434" r="4.38643" gradientUnits="userSpaceOnUse" id="color-4"><stop offset="0" stop-color="#d9d1c4"/><stop offset="1" stop-color="#c4b7a5"/></radialGradient><radialGradient cx="208.00511" cy="209.21001" r="10.92262" gradientUnits="userSpaceOnUse" id="color-5"><stop offset="0" stop-color="#d9d1c4"/><stop offset="1" stop-color="#c4b7a5"/></radialGradient><radialGradient cx="218.81916" cy="200.54683" r="4.47138" gradientUnits="userSpaceOnUse" id="color-6"><stop offset="0" stop-color="#d9d1c4"/><stop offset="1" stop-color="#c4b7a5"/></radialGradient><radialGradient cx="230.51237" cy="206.72759" r="10.86654" gradientUnits="userSpaceOnUse" id="color-7"><stop offset="0" stop-color="#d9d1c4"/><stop offset="1" stop-color="#c4b7a5"/></radialGradient><radialGradient cx="218.43326" cy="248.41837" r="5.04338" gradientUnits="userSpaceOnUse" id="color-8"><stop offset="0" stop-color="#d9d1c4"/><stop offset="1" stop-color="#c4b7a5"/></radialGradient><radialGradient cx="231.68463" cy="240.97058" r="11.7512" gradientUnits="userSpaceOnUse" id="color-9"><stop offset="0" stop-color="#d9d1c4"/><stop offset="1" stop-color="#c4b7a5"/></radialGradient><radialGradient cx="192.79817" cy="251.61698" r="4.41163" gradientUnits="userSpaceOnUse" id="color-10"><stop offset="0" stop-color="#d9d1c4"/><stop offset="1" stop-color="#c4b7a5"/></radialGradient><radialGradient cx="208.34067" cy="242.10214" r="13.10519" gradientUnits="userSpaceOnUse" id="color-11"><stop offset="0" stop-color="#d9d1c4"/><stop offset="1" stop-color="#c4b7a5"/></radialGradient></defs><g transform="translate(-176.95626,-188.07205)"><g data-paper-data="{&quot;isPaintingLayer&quot;:true}" fill-rule="nonzero" stroke-linecap="butt" stroke-linejoin="miter" stroke-miterlimit="10" stroke-dasharray="" stroke-dashoffset="0" style="mix-blend-mode: normal"><path d="M178.20627,264.18081v-74.85875h74.85876v74.85876z" fill="url(#color-1)" stroke="#000000" stroke-width="2.5"/><path d="M192.19308,235.79517l-1.92489,-8.61395l9.47339,3.81823z" data-paper-data="{&quot;index&quot;:null}" fill="url(#color-2)" stroke="#7f726d" stroke-width="2.5"/><path d="M225.08781,216.12249c8.35297,0 15.12441,3.02553 15.12441,6.75771c0,3.73218 -6.77143,6.75771 -15.12441,6.75771c-8.35297,0 -29.28341,5.98475 -29.28341,2.25257c0,-3.73218 20.93044,-15.768 29.28341,-15.768z" data-paper-data="{&quot;index&quot;:null}" fill="url(#color-3)" stroke="#7f726d" stroke-width="2.5"/><path d="M191.88926,208.09079l0.97044,-8.77289l7.72481,6.68216z" data-paper-data="{&quot;index&quot;:null}" fill="url(#color-4)" stroke="#7f726d" stroke-width="2.5"/><path d="M218.92771,211.76138c0,2.58967 -1.74105,6.48189 -5.93024,6.48189c-4.18919,0 -15.4462,-7.0642 -15.4462,-9.65387c0,-2.58967 -1.98258,-8.41267 2.20661,-8.41267c4.18919,0 19.16983,8.99498 19.16983,11.58465z" data-paper-data="{&quot;index&quot;:null}" fill="url(#color-5)" stroke="#7f726d" stroke-width="2.5"/><path d="M214.34778,204.64894l3.06283,-8.27795l5.87993,8.35167z" data-paper-data="{&quot;index&quot;:null}" fill="url(#color-6)" stroke="#7f726d" stroke-width="2.5"/><path d="M219.81273,202.65995c1.04205,-2.74104 6.67719,-3.14193 12.58643,-0.89544c5.90924,2.24649 9.85491,6.28967 8.81285,9.0307c-1.04204,2.74104 -6.67718,3.14196 -12.58642,0.89546c-5.90924,-2.24649 -9.8549,-6.28968 -8.81285,-9.03072z" data-paper-data="{&quot;index&quot;:null}" fill="url(#color-7)" stroke="#7f726d" stroke-width="2.5"/><path d="M222.43257,247.37505l-6.39198,6.0867l-1.60665,-10.08675z" data-paper-data="{&quot;index&quot;:null}" fill="url(#color-8)" stroke="#7f726d" stroke-width="2.5"/><path d="M228.31734,235.66455c6.21607,-3.94482 12.76279,-4.76713 14.62248,-1.8367c1.85969,2.93043 -1.67184,8.50393 -7.88792,12.44875c-6.21607,3.94482 -12.76278,4.76713 -14.62247,1.8367c-1.85969,-2.93043 1.67183,-8.50393 7.88791,-12.44875z" data-paper-data="{&quot;index&quot;:null}" fill="url(#color-9)" stroke="#7f726d" stroke-width="2.5"/><path d="M188.38653,247.56958l8.82328,-0.23434l-5.56691,8.56349z" data-paper-data="{&quot;index&quot;:null}" fill="url(#color-10)" stroke="#7f726d" stroke-width="2.5"/><path d="M195.56478,248.37394c-1.60519,-3.26982 2.81351,-8.72852 9.86944,-12.19234c7.05593,-3.46383 14.07716,-3.6211 15.68234,-0.35127c1.60519,3.26982 -2.81352,8.72853 -9.86945,12.19235c-7.05594,3.46382 -14.07716,3.62109 -15.68234,0.35126z" data-paper-data="{&quot;index&quot;:null}" fill="url(#color-11)" stroke="#7f726d" stroke-width="2.5"/><path d="M236.97128,210.22713c-0.66646,0 -1.20674,-0.54026 -1.20674,-1.20673c0,-0.66646 0.54028,-1.20674 1.20674,-1.20674c0.66646,0 1.20674,0.54027 1.20674,1.20674c0,0.66646 -0.54028,1.20673 -1.20674,1.20673z" data-paper-data="{&quot;index&quot;:null}" fill="#000000" stroke="none" stroke-width="0.5"/><path d="M214.52601,214.33003c-0.66646,0 -1.20674,-0.54027 -1.20674,-1.20674c0,-0.66646 0.54029,-1.20674 1.20674,-1.20674c0.66646,0 1.20673,0.54027 1.20673,1.20674c0,0.66646 -0.54028,1.20674 -1.20673,1.20674z" data-paper-data="{&quot;index&quot;:null}" fill="#000000" stroke="none" stroke-width="0.5"/><path d="M235.28184,223.50121c-0.66646,0 -1.20673,-0.54026 -1.20673,-1.20673c0,-0.66646 0.54028,-1.20674 1.20673,-1.20674c0.66646,0 1.20674,0.54027 1.20674,1.20674c0,0.66646 -0.54029,1.20673 -1.20674,1.20673z" data-paper-data="{&quot;index&quot;:null}" fill="#000000" stroke="none" stroke-width="0.5"/><path d="M239.38474,237.49933c-0.66646,0 -1.20673,-0.54026 -1.20673,-1.20673c0,-0.66646 0.54028,-1.20674 1.20673,-1.20674c0.66646,0 1.20674,0.54027 1.20674,1.20674c0,0.66646 -0.54028,1.20673 -1.20674,1.20673z" data-paper-data="{&quot;index&quot;:null}" fill="#000000" stroke="none" stroke-width="0.5"/><path d="M215.9741,239.43011c-0.66646,0 -1.20674,-0.54027 -1.20674,-1.20674c0,-0.66646 0.54028,-1.20674 1.20674,-1.20674c0.66646,0 1.20673,0.54027 1.20673,1.20674c0,0.66646 -0.54028,1.20674 -1.20673,1.20674z" data-paper-data="{&quot;index&quot;:null}" fill="#000000" stroke="none" stroke-width="0.5"/><path d="M181.68052,258.91066v-65.55159h68.11379v65.55159z" fill="none" stroke="none" stroke-width="0"/></g></g></svg>