<svg version="1.1" xmlns="http://www.w3.org/2000/svg" xmlns:xlink="http://www.w3.org/1999/xlink" width="91.83433" height="95.71744" viewBox="0,0,91.83433,95.71744"><defs><linearGradient x1="214.30289" y1="165.53268" x2="214.30289" y2="205.96684" gradientUnits="userSpaceOnUse" id="color-1"><stop offset="0" stop-color="#a82516"/><stop offset="1" stop-color="#490d06"/></linearGradient><linearGradient x1="236.59663" y1="137.31054" x2="236.59663" y2="150.76984" gradientUnits="userSpaceOnUse" id="color-2"><stop offset="0" stop-color="#a82516"/><stop offset="1" stop-color="#490d06"/></linearGradient><linearGradient x1="247.94938" y1="143.91296" x2="247.94938" y2="222.68946" gradientUnits="userSpaceOnUse" id="color-3"><stop offset="0" stop-color="#a82516"/><stop offset="1" stop-color="#490d06"/></linearGradient><linearGradient x1="232.29194" y1="183.28094" x2="227.83788" y2="198.0631" gradientUnits="userSpaceOnUse" id="color-4"><stop offset="0" stop-color="#a82516"/><stop offset="1" stop-color="#490d06"/></linearGradient></defs><g transform="translate(-193.82078,-132.14129)"><g data-paper-data="{&quot;isPaintingLayer&quot;:true}" fill-rule="nonzero" stroke-linecap="butt" stroke-linejoin="miter" stroke-miterlimit="10" stroke-dasharray="" stroke-dashoffset="0" style="mix-blend-mode: normal"><path d="M207.59975,205.072c-9.21497,8.54453 -5.577,-47.1283 0.39586,-38.65956c9.35768,13.26796 18.60551,8.54106 18.60551,8.54106v19.77931c0,0 -4.97663,-2.66518 -19.00137,10.33918z" data-paper-data="{&quot;index&quot;:null}" fill="url(#color-1)" stroke="#330603" stroke-width="2.5"/><path d="M236.59663,137.31054c5.57502,0 10.09448,3.01297 10.09448,6.72965c0,3.71668 -4.51946,6.72965 -10.09448,6.72965c-5.57502,0 -10.09448,-3.01297 -10.09448,-6.72965c0,-3.71668 4.51946,-6.72965 10.09448,-6.72965z" data-paper-data="{&quot;index&quot;:null}" fill="url(#color-2)" stroke="#330603" stroke-width="2.5"/><path d="M218.85355,186.86395c0,0 12.04604,-42.95101 25.92895,-42.95101c13.88291,0 32.89612,23.60602 33.21281,48.09721c0.00475,0.36646 -4.87828,1.59976 -10.14918,1.68151c-5.70514,0.08847 -11.5373,-5.12558 -12.33496,-2.68651c-1.01951,3.1174 4.19514,7.86416 9.5654,9.27291c5.40027,1.41663 11.26341,-0.72628 11.26341,-0.72628c0,0 -1.52492,4.53425 -3.18341,7.82715c-4.55982,9.05349 -12.81505,15.31053 -21.24856,15.31053c-13.88291,0 -33.05446,-35.8255 -33.05446,-35.8255z" data-paper-data="{&quot;index&quot;:null}" fill="url(#color-3)" stroke="#330603" stroke-width="2.5"/><path d="M232.29194,183.28094c8.16395,2.45991 13.78507,7.76316 12.55512,11.84515c-1.22996,4.08198 -8.84524,5.39692 -17.00918,2.93701c-8.16395,-2.45991 -13.78507,-7.76316 -12.55512,-11.84515c1.22996,-4.08198 8.84524,-5.39692 17.00918,-2.93701z" data-paper-data="{&quot;index&quot;:null}" fill="url(#color-4)" stroke="#330603" stroke-width="2.5"/><path d="M269.27054,179.81948c-1.09315,0 -1.97931,-0.88616 -1.97931,-1.97931c0,-1.09315 0.88616,-1.97931 1.97931,-1.97931c1.09315,0 1.97931,0.88616 1.97931,1.97931c0,1.09315 -0.88616,1.97931 -1.97931,1.97931z" data-paper-data="{&quot;index&quot;:null}" fill="#000000" stroke="none" stroke-width="0.5"/><path d="M258.71424,178.23603c-1.09315,0 -1.97931,-0.88616 -1.97931,-1.97931c0,-1.09315 0.88616,-1.97931 1.97931,-1.97931c1.09315,0 1.97931,0.88616 1.97931,1.97931c0,1.09315 -0.88616,1.97931 -1.97931,1.97931z" data-paper-data="{&quot;index&quot;:null}" fill="#000000" stroke="none" stroke-width="0.5"/><path d="M193.82078,227.85873v-95.71744h91.83433v95.71744z" fill="none" stroke="none" stroke-width="0"/></g></g></svg>