<svg version="1.1" xmlns="http://www.w3.org/2000/svg" xmlns:xlink="http://www.w3.org/1999/xlink" width="38.86461" height="29.63158" viewBox="0,0,38.86461,29.63158"><defs><linearGradient x1="454.65158" y1="329.79233" x2="454.65158" y2="333.91794" gradientUnits="userSpaceOnUse" id="color-1"><stop offset="0" stop-color="#b5f4c4"/><stop offset="1" stop-color="#469a3b"/></linearGradient><linearGradient x1="468.72287" y1="341.28513" x2="468.72287" y2="347.47356" gradientUnits="userSpaceOnUse" id="color-2"><stop offset="0" stop-color="#b5f4c4"/><stop offset="1" stop-color="#469a3b"/></linearGradient><linearGradient x1="452.51508" y1="340.10638" x2="452.51508" y2="349.38901" gradientUnits="userSpaceOnUse" id="color-3"><stop offset="0" stop-color="#b5f4c4"/><stop offset="1" stop-color="#469a3b"/></linearGradient><linearGradient x1="455.43151" y1="341.55805" x2="456.75783" y2="347.30061" gradientUnits="userSpaceOnUse" id="color-4"><stop offset="0" stop-color="#b5f4c4"/><stop offset="1" stop-color="#469a3b"/></linearGradient></defs><g transform="translate(-437.5677,-327.18421)"><g data-paper-data="{&quot;isPaintingLayer&quot;:true}" fill-rule="nonzero" stroke-width="1.5" stroke-linecap="butt" stroke-linejoin="miter" stroke-miterlimit="10" stroke-dasharray="" stroke-dashoffset="0" style="mix-blend-mode: normal"><path d="M450.59964,333.91794c0,0 0.623,-2.62681 1.69984,-3.23359c3.6942,-2.08161 6.40404,-0.89203 6.40404,-0.89203v4.12561z" data-paper-data="{&quot;index&quot;:null}" fill="url(#color-1)" stroke="#4a7b42"/><path d="M472.70113,350.71509c-3.23932,4.15611 -7.95655,-3.24155 -7.95655,-3.24155v-6.18842c0,0 5.62012,-6.42539 7.8092,-3.83093c1.26704,1.50168 -0.74495,3.87318 -0.81031,6.78276c-0.04756,2.11734 2.32205,4.72759 0.95765,6.47815z" data-paper-data="{&quot;index&quot;:null}" fill="url(#color-2)" stroke="#4a7b42"/><path d="M440.87495,340.10638l7.36717,-5.89374l11.31541,-0.02204l5.03971,5.91578v9.28264l-5.45171,5.15702l-12.01431,-0.11558c0,0 -4.37981,-3.45617 -5.30947,-4.23488c-0.37107,-0.31082 -0.35743,-0.51188 -0.35743,-0.51188c0,0 5.79051,0.58112 5.37037,-0.26211c0.09007,-2.88405 -5.64508,-4.20204 -5.64508,-4.20204z" data-paper-data="{&quot;index&quot;:null}" fill="url(#color-3)" stroke="#4a7b42"/><path d="M460.54516,343.40143c0.36625,1.58577 -1.3294,3.33149 -3.78733,3.89918c-2.45793,0.5677 -4.74739,-0.25761 -5.11365,-1.84338c-0.36625,-1.58577 1.3294,-3.33149 3.78733,-3.89918c2.45793,-0.5677 4.74739,0.25761 5.11365,1.84338z" data-paper-data="{&quot;index&quot;:null}" fill="url(#color-4)" stroke="#4a7b42"/><path d="M442.79043,341.78799c0,-0.52185 0.42304,-0.94489 0.94489,-0.94489c0.52185,0 0.94489,0.42304 0.94489,0.94489c0,0.52185 -0.42304,0.94489 -0.94489,0.94489c-0.52185,0 -0.94489,-0.42304 -0.94489,-0.94489z" data-paper-data="{&quot;index&quot;:null}" fill="#000000" stroke="none"/><path d="M437.5677,356.81579v-29.63158h38.86461v29.63158z" data-paper-data="{&quot;index&quot;:null}" fill="none" stroke="none"/></g></g></svg>