<svg version="1.1" xmlns="http://www.w3.org/2000/svg" xmlns:xlink="http://www.w3.org/1999/xlink" width="77.35876" height="77.35876" viewBox="0,0,77.35876,77.35876"><defs><linearGradient x1="215.63563" y1="109.51978" x2="215.63563" y2="184.37854" gradientUnits="userSpaceOnUse" id="color-1"><stop offset="0" stop-color="#00ff04"/><stop offset="1" stop-color="#00ab03"/></linearGradient><linearGradient x1="213.9127" y1="118.72567" x2="213.9127" y2="127.43203" gradientUnits="userSpaceOnUse" id="color-2"><stop offset="0" stop-color="#a82516"/><stop offset="1" stop-color="#490d06"/></linearGradient><linearGradient x1="221.25641" y1="122.99655" x2="221.25641" y2="173.95439" gradientUnits="userSpaceOnUse" id="color-3"><stop offset="0" stop-color="#a82516"/><stop offset="1" stop-color="#490d06"/></linearGradient><linearGradient x1="199.49164" y1="136.98161" x2="199.49164" y2="160.01448" gradientUnits="userSpaceOnUse" id="color-4"><stop offset="0" stop-color="#a82516"/><stop offset="1" stop-color="#490d06"/></linearGradient><linearGradient x1="209.68755" y1="150.22222" x2="209.68755" y2="160.20894" gradientUnits="userSpaceOnUse" id="color-5"><stop offset="0" stop-color="#a82516"/><stop offset="1" stop-color="#490d06"/></linearGradient></defs><g transform="translate(-176.95626,-108.26978)"><g data-paper-data="{&quot;isPaintingLayer&quot;:true}" fill-rule="nonzero" stroke-linecap="butt" stroke-linejoin="miter" stroke-miterlimit="10" stroke-dasharray="" stroke-dashoffset="0" style="mix-blend-mode: normal"><path d="M178.20626,184.37853v-74.85875h74.85876v74.85876z" fill="url(#color-1)" stroke="#000000" stroke-width="2.5"/><path d="M180.75283,172.35739v-51.54517h67.60635v51.54517z" fill="none" stroke="none" stroke-width="0"/><path d="M213.9127,118.72567c3.60629,0 6.52978,1.94899 6.52978,4.35318c0,2.40419 -2.92349,4.35318 -6.52978,4.35318c-3.60629,0 -6.52978,-1.94899 -6.52978,-4.35318c0,-2.40419 2.92349,-4.35318 6.52978,-4.35318z" data-paper-data="{&quot;index&quot;:null}" fill="url(#color-2)" stroke="#330603" stroke-width="2.5"/><path d="M202.4353,150.78009c0,0 7.79217,-27.78355 16.77256,-27.78355c8.98038,0 21.27938,15.26993 21.48424,31.11245c0.00307,0.23705 -3.15559,1.03483 -6.56516,1.08771c-3.69046,0.05723 -8.27293,-3.68545 -8.30777,-2.88825c-0.13251,3.03218 3.04239,6.2375 6.51623,7.14877c3.49325,0.91637 7.28592,-0.46981 7.28592,-0.46981c0,0 -0.98642,2.93305 -2.05924,5.06312c-2.94959,5.8564 -8.28962,9.90386 -13.74497,9.90386c-8.98038,0 -21.38181,-23.1743 -21.38181,-23.1743z" data-paper-data="{&quot;index&quot;:null}" fill="url(#color-3)" stroke="#330603" stroke-width="2.5"/><path d="M195.1556,159.50475c-5.96085,4.8673 -3.60757,-26.84611 0.25607,-22.02199c6.05317,7.55794 12.03527,4.86532 12.03527,4.86532v11.26706c0,0 -3.21921,-1.51819 -12.29134,5.8896z" data-paper-data="{&quot;index&quot;:null}" fill="url(#color-4)" stroke="#330603" stroke-width="2.5"/><path d="M209.68755,150.22222c5.5155,0 9.98671,2.2356 9.98671,4.99336c0,2.75776 -4.47121,4.99336 -9.98671,4.99336c-5.5155,0 -9.98671,-2.2356 -9.98671,-4.99336c0,-2.75776 4.47121,-4.99336 9.98671,-4.99336z" data-paper-data="{&quot;index&quot;:null}" fill="url(#color-5)" stroke="#330603" stroke-width="2.5"/><path d="M235.04835,146.22326c-0.70712,0 -1.28035,-0.57323 -1.28035,-1.28035c0,-0.70712 0.57323,-1.28035 1.28035,-1.28035c0.70712,0 1.28035,0.57323 1.28035,1.28035c0,0.70712 -0.57323,1.28035 -1.28035,1.28035z" data-paper-data="{&quot;index&quot;:null}" fill="#000000" stroke="none" stroke-width="0.5"/><path d="M228.21983,145.19898c-0.70712,0 -1.28035,-0.57323 -1.28035,-1.28035c0,-0.70712 0.57323,-1.28035 1.28035,-1.28035c0.70712,0 1.28035,0.57323 1.28035,1.28035c0,0.70712 -0.57323,1.28035 -1.28035,1.28035z" data-paper-data="{&quot;index&quot;:null}" fill="#000000" stroke="none" stroke-width="0.5"/><path d="M186.24245,177.29822v-61.91637h59.40451v61.91637z" fill="none" stroke="none" stroke-width="0"/></g></g></svg>