<svg version="1.1" xmlns="http://www.w3.org/2000/svg" xmlns:xlink="http://www.w3.org/1999/xlink" width="77.35876" height="77.35876" viewBox="0,0,77.35876,77.35876"><defs><linearGradient x1="136.53959" y1="109.51982" x2="136.53959" y2="184.37859" gradientUnits="userSpaceOnUse" id="color-1"><stop offset="0" stop-color="#00ff04"/><stop offset="1" stop-color="#00ab03"/></linearGradient><radialGradient cx="120.03034" cy="150.42571" r="15.81019" gradientUnits="userSpaceOnUse" id="color-2"><stop offset="0" stop-color="#86ecdb"/><stop offset="1" stop-color="#68c6b7"/></radialGradient><radialGradient cx="141.41719" cy="127.53256" r="11.84548" gradientUnits="userSpaceOnUse" id="color-3"><stop offset="0" stop-color="#86ecdb"/><stop offset="1" stop-color="#68c6b7"/></radialGradient><radialGradient cx="142.07073" cy="150.97844" r="24.75297" gradientUnits="userSpaceOnUse" id="color-4"><stop offset="0" stop-color="#86ecdb"/><stop offset="1" stop-color="#68c6b7"/></radialGradient><radialGradient cx="134.19759" cy="150.28047" r="10.56901" gradientUnits="userSpaceOnUse" id="color-5"><stop offset="0" stop-color="#86ecdb"/><stop offset="1" stop-color="#68c6b7"/></radialGradient></defs><g transform="translate(-97.86024,-108.26981)"><g data-paper-data="{&quot;isPaintingLayer&quot;:true}" fill-rule="nonzero" stroke-linejoin="miter" stroke-miterlimit="10" stroke-dasharray="" stroke-dashoffset="0" style="mix-blend-mode: normal"><path d="M99.11024,184.37856v-74.85875h74.85876v74.85876z" fill="url(#color-1)" stroke="#000000" stroke-width="2.5" stroke-linecap="butt"/><path d="M103.56195,170.84438v-50.94736h66.82227v50.94736z" fill="none" stroke="none" stroke-width="0" stroke-linecap="butt"/><path d="M109.63863,163.96762c-1.39516,-2.979 -1.76899,-24.46522 -0.49016,-27.12207c4.34353,-9.02399 22.54726,12.25395 22.54726,12.25395c0,0 -17.51247,24.57193 -22.0571,14.86812z" data-paper-data="{&quot;index&quot;:null}" fill="url(#color-2)" stroke="#487f75" stroke-width="2.5" stroke-linecap="butt"/><path d="M139.53825,133.41445l-9.96653,-10.29332l17.48229,-1.63385l6.20866,12.09056z" data-paper-data="{&quot;index&quot;:null}" fill="url(#color-3)" stroke="#487f75" stroke-width="2.5" stroke-linecap="butt"/><path d="M117.31776,150.97844c0,-10.69291 11.08228,-19.36123 24.75297,-19.36123c13.67069,0 24.75297,8.66832 24.75297,19.36123c0,2.06196 -0.20575,3.7519 -0.62876,5.21869c-0.22419,0.77736 -3.98437,1.33206 -7.99336,0.74095c-4.66983,-0.68855 -9.67726,-2.512 -9.82692,-0.85811c-0.26649,2.94502 1.44884,5.60009 4.10347,6.64349c3.66971,1.44237 8.59856,0.6979 7.74864,1.41496c-4.52088,3.81412 -10.98206,6.20125 -18.15603,6.20125c-13.67069,0 -24.75297,-8.66832 -24.75297,-19.36123z" data-paper-data="{&quot;index&quot;:null}" fill="url(#color-4)" stroke="#487f75" stroke-width="2.5" stroke-linecap="butt"/><path d="M125.32368,143.54439c6.07126,-6.26813 19.44292,6.20867 19.44292,6.20867c0,0 -12.65854,13.62623 -18.74237,7.39178c-2.32604,-2.38363 -3.64274,-10.56287 -0.70057,-13.60046z" data-paper-data="{&quot;index&quot;:null}" fill="url(#color-5)" stroke="#487f75" stroke-width="2.5" stroke-linecap="round"/><path d="M160.04083,148.46549c-0.67677,0 -1.22539,-0.54862 -1.22539,-1.22539c0,-0.67677 0.54862,-1.22539 1.22539,-1.22539c0.67677,0 1.22539,0.54862 1.22539,1.22539c0,0.67677 -0.54862,1.22539 -1.22539,1.22539z" data-paper-data="{&quot;index&quot;:null}" fill="#000000" stroke="none" stroke-width="0.5" stroke-linecap="butt"/><path d="M152.1983,148.46549c-0.67677,0 -1.22539,-0.54862 -1.22539,-1.22539c0,-0.67677 0.54862,-1.22539 1.22539,-1.22539c0.67677,0 1.22539,0.54862 1.22539,1.22539c0,0.67677 -0.54862,1.22539 -1.22539,1.22539z" data-paper-data="{&quot;index&quot;:null}" fill="#000000" stroke="none" stroke-width="0.5" stroke-linecap="butt"/><path d="M106.10872,176.05023v-60.27348h62.62937v60.27348z" fill="none" stroke="none" stroke-width="0" stroke-linecap="butt"/></g></g></svg>