<svg version="1.1" xmlns="http://www.w3.org/2000/svg" xmlns:xlink="http://www.w3.org/1999/xlink" width="42.08978" height="34.01082" viewBox="0,0,42.08978,34.01082"><defs><linearGradient x1="456.10858" y1="327.67742" x2="455.62173" y2="331.7742" gradientUnits="userSpaceOnUse" id="color-1"><stop offset="0" stop-color="#b5f4c4"/><stop offset="1" stop-color="#469a3b"/></linearGradient><linearGradient x1="468.72533" y1="340.75042" x2="467.99505" y2="346.89561" gradientUnits="userSpaceOnUse" id="color-2"><stop offset="0" stop-color="#b5f4c4"/><stop offset="1" stop-color="#469a3b"/></linearGradient><linearGradient x1="452.76988" y1="337.66728" x2="451.67447" y2="346.88505" gradientUnits="userSpaceOnUse" id="color-3"><stop offset="0" stop-color="#b5f4c4"/><stop offset="1" stop-color="#469a3b"/></linearGradient><linearGradient x1="462.29913" y1="336.69603" x2="457.36373" y2="333.47454" gradientUnits="userSpaceOnUse" id="color-4"><stop offset="0" stop-color="#b5f4c4"/><stop offset="1" stop-color="#469a3b"/></linearGradient></defs><g transform="translate(-435.95512,-323.07151)"><g data-paper-data="{&quot;isPaintingLayer&quot;:true}" fill-rule="nonzero" stroke-width="1.5" stroke-linecap="butt" stroke-linejoin="miter" stroke-miterlimit="10" stroke-dasharray="" stroke-dashoffset="0" style="mix-blend-mode: normal"><path d="M451.5981,331.29605c0,0 0.92863,-2.53494 2.06955,-3.0104c3.91403,-1.63112 6.46456,-0.13008 6.46456,-0.13008l-0.48685,4.09678z" data-paper-data="{&quot;index&quot;:null}" fill="url(#color-1)" stroke="#4a7b42"/><path d="M471.56299,350.58395c-3.70713,3.74481 -7.51843,-4.15783 -7.51843,-4.15783l0.73028,-6.14518c0,0 6.33909,-5.71729 8.20671,-2.88263c1.08098,1.64071 -1.1968,3.75821 -1.60506,6.63975c-0.29709,2.09693 1.74794,4.96858 0.18649,6.5459z" data-paper-data="{&quot;index&quot;:null}" fill="url(#color-2)" stroke="#4a7b42"/><path d="M441.21109,336.29367l8.01119,-4.98318l11.23895,1.3134l4.3064,6.46917l-1.09541,9.21778l-6.02218,4.47765l-11.91673,-1.53254c0,0 -3.64851,-3.68258 -4.57947,-4.67144c-0.55548,-0.59003 -0.48768,-0.71089 -0.48768,-0.71089c0,0 6.63088,3.82479 7.66754,-1.75467c-0.22737,-0.80418 -2.77376,-0.83731 -4.32316,-1.0799c-1.5362,-0.24053 -3.09038,-1.6308 -3.09038,-1.6308z" data-paper-data="{&quot;index&quot;:null}" fill="url(#color-3)" stroke="#4a7b42"/><path d="M457.33477,338.91022c-1.36287,-0.88959 -1.34991,-3.32324 0.02896,-5.43568c1.37885,-2.11246 3.60147,-3.10378 4.96436,-2.21419c1.36287,0.88959 1.34991,3.32324 -0.02896,5.43568c-1.37885,2.11246 -3.60147,3.10378 -4.96436,2.21419z" data-paper-data="{&quot;index&quot;:null}" fill="url(#color-4)" stroke="#4a7b42"/><path d="M442.91474,338.18957c0.06158,-0.51821 0.53159,-0.88836 1.04979,-0.82678c0.51821,0.06158 0.88836,0.53158 0.82678,1.04979c-0.06158,0.51821 -0.53158,0.88837 -1.04979,0.82679c-0.51821,-0.06158 -0.88837,-0.53159 -0.82679,-1.04979z" data-paper-data="{&quot;index&quot;:null}" fill="#000000" stroke="none"/><path d="M435.95512,352.49605l3.49672,-29.42454l38.59306,4.58628l-3.49672,29.42454z" data-paper-data="{&quot;index&quot;:null}" fill="none" stroke="none"/></g></g></svg>