<svg version="1.1" xmlns="http://www.w3.org/2000/svg" xmlns:xlink="http://www.w3.org/1999/xlink" width="91.83433" height="70.55998" viewBox="0,0,91.83433,70.55998"><g transform="translate(-201.18899,-144.93673)"><g data-paper-data="{&quot;isPaintingLayer&quot;:true}" fill-rule="nonzero" stroke-linecap="butt" stroke-linejoin="miter" stroke-miterlimit="10" stroke-dasharray="" stroke-dashoffset="0" style="mix-blend-mode: normal"><path d="M212.89149,203.01621v-26.6099c0,0 27.44146,0.09938 27.44146,12.1962c0,12.09682 -27.44146,14.4137 -27.44146,14.4137z" data-paper-data="{&quot;index&quot;:null}" fill="#6e544d" stroke="#58362e" stroke-width="2.5"/><path d="M237.45301,187.05858l-8.44439,-9.17869l8.4444,-11.38157h22.76315l21.62877,12.58613c0,0 -5.34801,3.80284 -8.79233,5.07271c-3.74076,1.37915 -12.83644,2.90144 -12.83644,2.90144z" data-paper-data="{&quot;index&quot;:null}" fill="#6e544d" stroke="#58362e" stroke-width="2.5"/><path d="M238.40544,207.03356l-8.44439,-9.17869l8.4444,-11.38157h22.76315c0,0 7.01159,5.4479 10.34816,5.50539c3.05384,0.05261 7.54063,-0.68047 7.54063,-0.68047l-17.88878,15.73536z" data-paper-data="{&quot;index&quot;:null}" fill="#6e544d" stroke="#58362e" stroke-width="2.5"/><path d="M269.7147,181.14661c-0.78097,0 -1.41406,-0.63309 -1.41406,-1.41406c0,-0.78097 0.63309,-1.41406 1.41406,-1.41406c0.78097,0 1.41406,0.63309 1.41406,1.41406c0,0.78097 -0.63309,1.41406 -1.41406,1.41406z" data-paper-data="{&quot;index&quot;:null}" fill="#000000" stroke="none" stroke-width="0.5"/><path d="M263.06223,181.97817c-0.78097,0 -1.41406,-0.63309 -1.41406,-1.41406c0,-0.78097 0.63309,-1.41406 1.41406,-1.41406c0.78097,0 1.41406,0.63309 1.41406,1.41406c0,0.78097 -0.63309,1.41406 -1.41406,1.41406z" data-paper-data="{&quot;index&quot;:null}" fill="#000000" stroke="none" stroke-width="0.5"/><path d="M242.27326,178.901c5.66417,0 10.25589,2.66815 10.25589,5.9595c0,3.29134 -4.59172,5.9595 -10.25589,5.9595c-5.66418,0 -10.2559,-2.66815 -10.2559,-5.9595c0,-3.29135 4.59173,-5.9595 10.2559,-5.9595z" data-paper-data="{&quot;index&quot;:null}" fill="#6e544d" stroke="#58362e" stroke-width="2.5"/><path d="M241.71888,165.59605l-7.48404,-11.91902l21.34336,-0.27719l3.88061,12.19621z" data-paper-data="{&quot;index&quot;:null}" fill="#6e544d" stroke="#58362e" stroke-width="2.5"/><path d="M201.18899,215.49671v-70.55998h91.83433v70.55998z" fill="none" stroke="none" stroke-width="0"/></g></g></svg>