<svg version="1.1" xmlns="http://www.w3.org/2000/svg" xmlns:xlink="http://www.w3.org/1999/xlink" width="101.47608" height="86.60272" viewBox="0,0,101.47608,86.60272"><defs><linearGradient x1="217.77539" y1="199.76315" x2="187.66505" y2="204.38969" gradientUnits="userSpaceOnUse" id="color-1"><stop offset="0" stop-color="#de5656"/><stop offset="1" stop-color="#d72727"/></linearGradient><linearGradient x1="282.43822" y1="187.84777" x2="217.73727" y2="187.84777" gradientUnits="userSpaceOnUse" id="color-2"><stop offset="0" stop-color="#de5656"/><stop offset="1" stop-color="#d72727"/></linearGradient><linearGradient x1="249.93901" y1="187.85754" x2="224.91958" y2="180.90768" gradientUnits="userSpaceOnUse" id="color-3"><stop offset="0" stop-color="#de5656"/><stop offset="1" stop-color="#d72727"/></linearGradient></defs><g transform="translate(-189.26196,-136.69864)"><g data-paper-data="{&quot;isPaintingLayer&quot;:true}" fill-rule="nonzero" stroke-linecap="butt" stroke-linejoin="miter" stroke-miterlimit="10" stroke-dasharray="" stroke-dashoffset="0" style="mix-blend-mode: normal"><path d="M245.21329,168.38671c0,0 0.22886,-9.29688 -0.96254,-13.60275c-1.16888,-4.22445 -6.11962,-11.99288 -6.11962,-11.99288l7.29702,-2.09908c0,0 5.82434,7.17238 7.75275,11.42937c1.87972,4.14954 3.67534,13.79844 3.67534,13.79844z" data-paper-data="{&quot;index&quot;:null}" fill="#5a2300" stroke="#3d2300" stroke-width="2.5"/><path d="M225.79588,198.53079c1.47658,9.61001 -12.0873,19.66851 -20.40204,20.94609c-8.31474,1.27758 3.09967,-7.75892 1.2507,-17.77634c-1.76477,-9.56129 -14.91268,-15.74698 -6.59794,-17.02455c8.31474,-1.27756 24.27267,4.24481 25.74928,13.85481z" data-paper-data="{&quot;index&quot;:null}" fill="url(#color-1)" stroke="#b90000" stroke-width="2.5"/><path d="M217.73726,187.84775c0,-9.09723 6.02773,-23.39818 18.00188,-26.99056c8.48173,-2.54459 10.24394,5.60566 14.3486,5.60566c6.09328,0 5.84238,-10.24688 19.36398,-7.22883c9.87599,2.20433 10.28162,20.83106 10.28162,28.61373c0,0.78832 -2.27612,2.04941 -5.00923,2.11019c-3.99221,0.08877 -8.95945,-1.15697 -9.23229,-0.04372c-2.99051,12.20164 13.43079,8.07242 13.15811,10.59313c-0.27843,2.57375 -6.82685,11.36241 -13.80263,12.05635c-9.80044,0.97495 -10.94801,-3.33103 -14.75956,-3.33103c-6.26916,0 -5.08913,9.09972 -20.86519,7.05915c-9.83407,-1.27202 -11.48528,-20.77763 -11.48528,-28.44404z" data-paper-data="{&quot;index&quot;:null}" fill="url(#color-2)" stroke="#b90000" stroke-width="2.5"/><path d="M271.2764,184.14828c-1.55378,0 -2.81341,-1.25961 -2.81341,-2.81342c0,-1.5538 1.2596,-2.81341 2.81341,-2.81341c1.5538,0 2.81341,1.2596 2.81341,2.81341c0,1.5538 -1.2596,2.81342 -2.81341,2.81342z" data-paper-data="{&quot;index&quot;:null}" fill="#000000" stroke="none" stroke-width="0"/><path d="M224.9196,180.90768c0.79965,-2.87871 7.04868,-3.65659 13.9576,-1.73746c6.90893,1.91914 11.86147,5.80859 11.06183,8.68731c-0.79965,2.87871 -7.04868,3.65659 -13.9576,1.73746c-6.90893,-1.91914 -11.86148,-5.80859 -11.06184,-8.68731z" data-paper-data="{&quot;index&quot;:null}" fill="url(#color-3)" stroke="#b90000" stroke-width="2.5"/><path d="M229.61636,154.3238c-5.52302,0.21712 -10.07165,-1.42199 -10.15968,-3.66106c-0.08801,-2.23905 4.31792,-4.23018 9.84094,-4.44729c5.52302,-0.21712 10.15968,3.66106 10.15968,3.66106c0,0 -4.31792,4.23018 -9.84094,4.44729z" data-paper-data="{&quot;index&quot;:null}" fill="#0e8400" stroke="#005604" stroke-width="2.5"/><path d="M189.26196,223.30136v-86.60272h101.47608v86.60272z" fill="none" stroke="none" stroke-width="0"/></g></g></svg>