<svg version="1.1" xmlns="http://www.w3.org/2000/svg" xmlns:xlink="http://www.w3.org/1999/xlink" width="91.83433" height="95.71744" viewBox="0,0,91.83433,95.71744"><defs><linearGradient x1="237.24677" y1="125.39138" x2="237.24677" y2="138.85068" gradientUnits="userSpaceOnUse" id="color-1"><stop offset="0" stop-color="#a82516"/><stop offset="1" stop-color="#490d06"/></linearGradient><linearGradient x1="248.59952" y1="131.9938" x2="248.59952" y2="210.7703" gradientUnits="userSpaceOnUse" id="color-2"><stop offset="0" stop-color="#a82516"/><stop offset="1" stop-color="#490d06"/></linearGradient><linearGradient x1="214.95303" y1="153.61352" x2="214.95303" y2="189.22038" gradientUnits="userSpaceOnUse" id="color-3"><stop offset="0" stop-color="#a82516"/><stop offset="1" stop-color="#490d06"/></linearGradient><linearGradient x1="230.71505" y1="174.08238" x2="230.71505" y2="189.52099" gradientUnits="userSpaceOnUse" id="color-4"><stop offset="0" stop-color="#a82516"/><stop offset="1" stop-color="#490d06"/></linearGradient></defs><g transform="translate(-194.47092,-120.22213)"><g data-paper-data="{&quot;isPaintingLayer&quot;:true}" fill-rule="nonzero" stroke-linecap="butt" stroke-linejoin="miter" stroke-miterlimit="10" stroke-dasharray="" stroke-dashoffset="0" style="mix-blend-mode: normal"><path d="M237.24677,125.39138c5.57502,0 10.09448,3.01297 10.09448,6.72965c0,3.71668 -4.51946,6.72965 -10.09448,6.72965c-5.57502,0 -10.09448,-3.01297 -10.09448,-6.72965c0,-3.71668 4.51946,-6.72965 10.09448,-6.72965z" data-paper-data="{&quot;index&quot;:null}" fill="url(#color-1)" stroke="#330603" stroke-width="2.5"/><path d="M219.50369,174.94479c0,0 12.04604,-42.95101 25.92895,-42.95101c13.88291,0 32.89612,23.60602 33.21281,48.09721c0.00475,0.36646 -4.87828,1.59976 -10.14918,1.68151c-5.70514,0.08847 -12.78925,-5.6974 -12.8431,-4.46499c-0.20485,4.6875 4.70328,9.64264 10.07354,11.05139c5.40027,1.41663 11.26341,-0.72628 11.26341,-0.72628c0,0 -1.52492,4.53425 -3.18341,7.82715c-4.55982,9.05349 -12.81505,15.31053 -21.24856,15.31053c-13.88291,0 -33.05446,-35.8255 -33.05446,-35.8255z" data-paper-data="{&quot;index&quot;:null}" fill="url(#color-2)" stroke="#330603" stroke-width="2.5"/><path d="M208.24989,188.43237c-9.21497,7.52443 -5.577,-41.50181 0.39586,-34.04412c9.35768,11.68394 18.60551,7.52137 18.60551,7.52137v17.41792c0,0 -4.97663,-2.34699 -19.00137,9.10482z" data-paper-data="{&quot;index&quot;:null}" fill="url(#color-3)" stroke="#330603" stroke-width="2.5"/><path d="M230.71505,174.08238c8.5265,0 15.43861,3.45605 15.43861,7.71931c0,4.26326 -6.91211,7.71931 -15.43861,7.71931c-8.5265,0 -15.43861,-3.45605 -15.43861,-7.71931c0,-4.26326 6.91211,-7.71931 15.43861,-7.71931z" data-paper-data="{&quot;index&quot;:null}" fill="url(#color-4)" stroke="#330603" stroke-width="2.5"/><path d="M269.92068,167.90032c-1.09315,0 -1.97931,-0.88616 -1.97931,-1.97931c0,-1.09315 0.88616,-1.97931 1.97931,-1.97931c1.09315,0 1.97931,0.88616 1.97931,1.97931c0,1.09315 -0.88616,1.97931 -1.97931,1.97931z" data-paper-data="{&quot;index&quot;:null}" fill="#000000" stroke="none" stroke-width="0.5"/><path d="M259.36438,166.31687c-1.09315,0 -1.97931,-0.88616 -1.97931,-1.97931c0,-1.09315 0.88616,-1.97931 1.97931,-1.97931c1.09315,0 1.97931,0.88616 1.97931,1.97931c0,1.09315 -0.88616,1.97931 -1.97931,1.97931z" data-paper-data="{&quot;index&quot;:null}" fill="#000000" stroke="none" stroke-width="0.5"/><path d="M194.47092,215.93957v-95.71744h91.83433v95.71744z" fill="none" stroke="none" stroke-width="0"/></g></g></svg>