<svg version="1.1" xmlns="http://www.w3.org/2000/svg" xmlns:xlink="http://www.w3.org/1999/xlink" width="108.49157" height="82.71733" viewBox="0,0,108.49157,82.71733"><g transform="translate(-189.00489,-130.18956)"><g data-paper-data="{&quot;isPaintingLayer&quot;:true}" fill-rule="nonzero" stroke-linejoin="miter" stroke-miterlimit="10" stroke-dasharray="" stroke-dashoffset="0" style="mix-blend-mode: normal"><path d="M226.73121,157.32714l20.27614,-22.82531l10.58055,21.7411l-8.8016,9.70282z" data-paper-data="{&quot;index&quot;:null}" fill="#d2b097" stroke="#4f473c" stroke-width="2.5" stroke-linecap="butt"/><path d="M266.00787,189.1948l-24.17807,-9.54915v-21.0471l25.9175,-11.49795l23.4823,11.49795v21.0471z" data-paper-data="{&quot;index&quot;:null}" fill="#d2b097" stroke="#4f473c" stroke-width="2.5" stroke-linecap="butt"/><path d="M291.05565,159.2766l-23.65624,9.04503l-23.65624,-8.69715" data-paper-data="{&quot;index&quot;:null}" fill="none" stroke="#4f473c" stroke-width="2.5" stroke-linecap="round"/><path d="M267.05152,188.49901v-19.48161" data-paper-data="{&quot;index&quot;:null}" fill="none" stroke="#4f473c" stroke-width="2.5" stroke-linecap="round"/><path d="M259.39803,153.36254l3.47886,-12.52389l6.60983,17.74218z" data-paper-data="{&quot;index&quot;:null}" fill="#d2b097" stroke="#4f473c" stroke-width="2.5" stroke-linecap="butt"/><path d="M236.78545,172.14838l-0.34789,-8.34926l20.17738,7.65349v7.65349z" data-paper-data="{&quot;index&quot;:null}" fill="#d2b097" stroke="#4f473c" stroke-width="2.5" stroke-linecap="butt"/><path d="M273.66136,173.19203c-0.96067,0 -1.73943,-0.77878 -1.73943,-1.73943c0,-0.96065 0.77876,-1.73943 1.73943,-1.73943c0.96067,0 1.73943,0.77878 1.73943,1.73943c0,0.96065 -0.77876,1.73943 -1.73943,1.73943z" data-paper-data="{&quot;index&quot;:null}" fill="#000000" stroke="none" stroke-width="0.5" stroke-linecap="butt"/><path d="M199.1398,179.18849c9.07106,0 16.42461,5.5887 16.42461,12.4827c0,6.89401 -7.35354,12.4827 -16.42461,12.4827c-9.07107,0 0.65699,-5.1507 0.65699,-12.04471c0,-6.894 -9.72806,-12.92069 -0.65699,-12.92069z" data-paper-data="{&quot;index&quot;:null}" fill="#d2b097" stroke="#4f473c" stroke-width="2.5" stroke-linecap="butt"/><path d="M239.22065,195.92795c0,-0.91157 -3.95047,-10.82173 -2.90879,-11.19276c3.28833,-1.17126 10.15658,5.06704 15.33258,3.8313c3.06048,-0.73067 4.20253,-5.18729 7.75358,-5.18729c2.07284,0 6.54053,-0.07036 8.15431,0.50978c3.41798,1.22873 3.38873,3.81634 6.40683,5.21787c5.06685,2.35292 10.48665,3.29562 10.48665,6.12532c0,2.45926 -8.66641,2.46651 -12.62198,4.16694c-2.42137,1.0409 -1.44261,3.39601 -3.18307,4.54308c-1.55662,1.02593 -5.73583,0.90655 -9.24273,0.90655c-1.71565,0 -2.49644,-4.98635 -4.11513,-5.11249c-6.83448,-0.53266 -16.60607,7.3277 -20.44251,6.54646c-2.58129,-0.52566 4.38026,-8.48353 4.38026,-10.35478z" data-paper-data="{&quot;index&quot;:null}" fill="#d2b097" stroke="#4f473c" stroke-width="2.5" stroke-linecap="butt"/><path d="M252.09242,186.75957c0,3.45523 -2.36184,9.56799 -2.36184,9.56799c0,0 -4.08471,1.47893 -8.07536,1.33915c-3.87022,-0.13556 -7.65199,-1.90392 -7.53351,-1.035c0.23781,1.74423 0.62792,3.79717 1.90352,4.81542c2.18074,1.74078 5.61169,1.7952 5.61169,1.7952c0,0 -6.82529,4.04252 -10.06975,4.04252c-11.33579,0 -20.52527,-9.18948 -20.52527,-20.52527c0,-11.33579 9.18948,-20.52527 20.52527,-20.52527c11.33579,0 20.52527,9.18948 20.52527,20.52527z" data-paper-data="{&quot;index&quot;:null}" fill="#d2b097" stroke="#4f473c" stroke-width="2.5" stroke-linecap="butt"/><path d="M204.93872,162.37117c1.232,-3.2315 8.34322,-3.52076 15.88339,-0.64611c5.28583,2.01521 9.37925,5.05033 10.93,7.79832c-4.81178,0.9195 -9.12059,2.72215 -13.52585,4.55452c-0.61684,-0.19514 -1.23974,-0.41195 -1.86561,-0.65056c-7.54016,-2.87466 -12.65392,-7.82468 -11.42193,-11.05618z" data-paper-data="{&quot;index&quot;:null}" fill="#d2b097" stroke="#4f473c" stroke-width="2.5" stroke-linecap="butt"/><path d="M209.30443,202.08758c-0.80954,-2.15879 3.12805,-5.63152 8.79486,-7.75658c5.66682,-2.12505 10.91694,-2.09771 11.72648,0.06107c0.80954,2.15879 -3.12805,5.63154 -8.79486,7.75659c-5.66682,2.12505 -10.91694,2.09771 -11.72648,-0.06107z" data-paper-data="{&quot;index&quot;:null}" fill="#d2b097" stroke="#4f473c" stroke-width="2.5" stroke-linecap="butt"/><path d="M244.09105,187.10747c-0.96067,0 -1.73943,-0.77878 -1.73943,-1.73943c0,-0.96065 0.77876,-1.73943 1.73943,-1.73943c0.96067,0 1.73943,0.77878 1.73943,1.73943c0,0.96065 -0.77876,1.73943 -1.73943,1.73943z" data-paper-data="{&quot;index&quot;:null}" fill="#000000" stroke="none" stroke-width="0.5" stroke-linecap="butt"/><path d="M272.6177,196.50039c-0.96067,0 -1.73943,-0.77878 -1.73943,-1.73943c0,-0.96065 0.77876,-1.73943 1.73943,-1.73943c0.96067,0 1.73943,0.77878 1.73943,1.73943c0,0.96065 -0.77876,1.73943 -1.73943,1.73943z" data-paper-data="{&quot;index&quot;:null}" fill="#000000" stroke="none" stroke-width="0.5" stroke-linecap="butt"/><path d="M277.88849,202.11969c4.24961,0.79299 7.43748,2.81384 7.12028,4.51368c-0.31719,1.69984 -4.01932,2.43499 -8.26894,1.64201c-4.24961,-0.79299 -7.43748,-2.81384 -7.12028,-4.51368c0.31719,-1.69984 4.01932,-2.43499 8.26894,-1.64201z" data-paper-data="{&quot;index&quot;:null}" fill="#d2b097" stroke="#4f473c" stroke-width="2.5" stroke-linecap="butt"/><path d="M254.17975,198.93559c0,0 -2.1814,-2.85863 -2.5457,-4.49796c-0.32756,-1.47403 0.45839,-4.89496 0.45839,-4.89496" data-paper-data="{&quot;index&quot;:null}" fill="none" stroke="#4f473c" stroke-width="2.5" stroke-linecap="round"/><path d="M251.65955,197.87295c3.82729,-1.79403 7.591,-1.83812 8.40647,-0.09844c0.81547,1.73968 -1.62609,4.60434 -5.45338,6.39837c-3.82729,1.79403 -7.591,1.83812 -8.40647,0.09844c-0.81547,-1.73968 1.62609,-4.60434 5.45338,-6.39837z" data-paper-data="{&quot;index&quot;:null}" fill="#d2b097" stroke="#4f473c" stroke-width="2.5" stroke-linecap="butt"/><path d="M256.26706,184.32438l2.78309,-11.13235l9.74081,11.13235z" data-paper-data="{&quot;index&quot;:null}" fill="#d2b097" stroke="#4f473c" stroke-width="2.5" stroke-linecap="butt"/><path d="M279.84969,173.92877c2.64564,-1.21052 5.00808,-1.61085 5.64761,-0.21316c0.63953,1.39768 -0.68603,4.06411 -3.33168,5.27466c-2.64564,1.21053 -5.91021,-0.04528 -6.54973,-1.44298c-0.63953,-1.39771 1.58815,-2.40798 4.2338,-3.61853z" data-paper-data="{&quot;index&quot;:null}" fill="#000000" stroke="#000000" stroke-width="1.5" stroke-linecap="butt"/><path d="M189.00489,212.90689v-82.71733h108.49157v82.71733z" fill="none" stroke="none" stroke-width="0" stroke-linecap="butt"/><path d="M284.87661,169.49068c-0.96067,0 -1.73943,-0.77878 -1.73943,-1.73943c0,-0.96065 0.77876,-1.73943 1.73943,-1.73943c0.96067,0 1.73943,0.77878 1.73943,1.73943c0,0.96065 -0.77876,1.73943 -1.73943,1.73943z" data-paper-data="{&quot;index&quot;:null}" fill="#000000" stroke="none" stroke-width="0.5" stroke-linecap="butt"/></g></g></svg>