<svg version="1.1" xmlns="http://www.w3.org/2000/svg" xmlns:xlink="http://www.w3.org/1999/xlink" width="77.35876" height="77.35876" viewBox="0,0,77.35876,77.35876"><defs><linearGradient x1="215.63563" y1="109.51978" x2="215.63563" y2="184.37854" gradientUnits="userSpaceOnUse" id="color-1"><stop offset="0" stop-color="#00ff04"/><stop offset="1" stop-color="#00ab03"/></linearGradient></defs><g transform="translate(-176.95626,-108.26978)"><g data-paper-data="{&quot;isPaintingLayer&quot;:true}" fill-rule="nonzero" stroke-linejoin="miter" stroke-miterlimit="10" stroke-dasharray="" stroke-dashoffset="0" style="mix-blend-mode: normal"><path d="M178.20626,184.37853v-74.85875h74.85876v74.85876z" fill="url(#color-1)" stroke="#000000" stroke-width="2.5" stroke-linecap="butt"/><path d="M180.75283,172.35739v-51.54517h67.60635v51.54517z" fill="none" stroke="none" stroke-width="0" stroke-linecap="butt"/><path d="M186.24245,177.29822v-61.91637h59.40451v61.91637z" fill="none" stroke="none" stroke-width="0" stroke-linecap="butt"/><path d="M217.67648,138.68716c0.86902,3.28717 -3.01898,7.16605 -8.68411,8.66372c-5.66512,1.49767 -10.96208,0.047 -11.83111,-3.24016c-0.86902,-3.28717 3.01898,-7.16605 8.68411,-8.66372c5.66512,-1.49767 10.96208,-0.047 11.83111,3.24016z" fill="#f3c5ff" stroke="#b581c5" stroke-width="1.5" stroke-linecap="butt"/><path d="M186.13972,167.12152l1.61803,-15.74334l6.72803,6.24534c0,0 2.6346,2.34536 5.46718,1.28838c2.87947,-1.07447 5.72258,-2.81842 5.72258,-2.81842c0,0 -3.15231,6.64849 -5.24421,7.88678c-2.05727,1.21778 -7.43501,0.21548 -7.43501,0.21548z" fill="#f3c5ff" stroke="#b581c5" stroke-width="1.5" stroke-linecap="butt"/><path d="M214.79475,150.21407c0.86902,3.28717 -3.01898,7.16605 -8.68411,8.66372c-5.66512,1.49767 -10.96208,0.047 -11.8311,-3.24016c-0.86902,-3.28717 3.01898,-7.16605 8.68411,-8.66372c5.66512,-1.49767 10.96208,-0.047 11.83111,3.24016z" fill="#f3c5ff" stroke="#b581c5" stroke-width="1.5" stroke-linecap="butt"/><path d="M222.63917,132.61786c-1.03171,2.70406 -4.5302,-3.70364 -9.75306,-6.23292c-5.22287,-2.52928 -10.19232,-0.22234 -9.16062,-2.92641c1.03171,-2.70406 6.49502,-5.59648 11.71788,-3.06721c5.22287,2.52928 8.22751,9.52246 7.19579,12.22653z" fill="#e167ff" stroke="#ac5bc4" stroke-width="1.5" stroke-linecap="butt"/><path d="M231.82315,143.14074c0.86902,3.28717 -3.01898,7.16605 -8.68411,8.66372c-5.66512,1.49767 -10.96208,0.047 -11.8311,-3.24016c-0.86902,-3.28717 3.01898,-7.16605 8.68411,-8.66372c5.66512,-1.49767 10.96208,-0.047 11.8311,3.24016z" fill="#f3c5ff" stroke="#b581c5" stroke-width="1.5" stroke-linecap="butt"/><path d="M232.87105,132.92369c0.86902,3.28717 -3.01898,7.16605 -8.68411,8.66373c-5.66512,1.49767 -10.96208,0.047 -11.8311,-3.24016c-0.86902,-3.28717 3.01898,-7.16605 8.68411,-8.66372c5.66512,-1.49767 10.96208,-0.047 11.8311,3.24016z" fill="#f3c5ff" stroke="#b581c5" stroke-width="1.5" stroke-linecap="butt"/><path d="M244.65995,138.68716c0.86902,3.28717 -3.01898,7.16605 -8.68411,8.66372c-5.66512,1.49767 -10.96208,0.047 -11.8311,-3.24016c-0.86902,-3.28717 3.01898,-7.16605 8.68411,-8.66372c5.66512,-1.49767 10.96208,-0.047 11.8311,3.24016z" fill="#f3c5ff" stroke="#b581c5" stroke-width="1.5" stroke-linecap="butt"/><path d="M228.67945,153.88173c0.86902,3.28717 -3.01898,7.16605 -8.68411,8.66372c-5.66512,1.49767 -10.96208,0.047 -11.8311,-3.24016c-0.86902,-3.28717 3.01898,-7.16605 8.68411,-8.66372c5.66512,-1.49767 10.96208,-0.047 11.8311,3.24016z" fill="#f3c5ff" stroke="#b581c5" stroke-width="1.5" stroke-linecap="butt"/><path d="M243.61204,149.69013c0.86902,3.28717 -3.01898,7.16605 -8.68411,8.66372c-5.66512,1.49767 -10.96208,0.047 -11.83111,-3.24016c-0.86902,-3.28717 3.01898,-7.16605 8.68411,-8.66372c5.66512,-1.49767 10.96208,-0.047 11.83111,3.24016z" fill="#f3c5ff" stroke="#b581c5" stroke-width="1.5" stroke-linecap="butt"/><path d="M239.15847,158.59728c0.86902,3.28717 -3.01898,7.16605 -8.68411,8.66372c-5.66512,1.49767 -10.96208,0.047 -11.83111,-3.24016c-0.86902,-3.28717 3.01898,-7.16605 8.68411,-8.66372c5.66512,-1.49767 10.96208,-0.047 11.83111,3.24016z" fill="#f3c5ff" stroke="#b581c5" stroke-width="1.5" stroke-linecap="butt"/><path d="M220.82018,160.69308c0.86902,3.28717 -3.01898,7.16605 -8.68411,8.66372c-5.66512,1.49767 -10.96208,0.047 -11.83111,-3.24016c-0.86902,-3.28717 3.01898,-7.16605 8.68411,-8.66372c5.66512,-1.49767 10.96208,-0.047 11.83111,3.24016z" fill="#f3c5ff" stroke="#b581c5" stroke-width="1.5" stroke-linecap="butt"/><path d="M242.13062,153.60447c0,0 -2.75784,0.15024 -5.56022,-0.10378c-2.46649,-0.22357 -5.04978,-1.99202 -5.04978,-1.99202" fill="none" stroke="#b581c5" stroke-width="1.5" stroke-linecap="round"/><path d="M238.72494,142.86347c0,-0.36171 0.29323,-0.65493 0.65493,-0.65493c0.36171,0 0.65493,0.29323 0.65493,0.65493c0,0.36171 -0.29323,0.65493 -0.65493,0.65493c-0.36171,0 -0.65493,-0.29323 -0.65493,-0.65493z" fill="#000000" stroke="none" stroke-width="0.5" stroke-linecap="butt"/><path d="M232.43753,142.86347c0,-0.36171 0.29323,-0.65493 0.65493,-0.65493c0.36171,0 0.65493,0.29323 0.65493,0.65493c0,0.36171 -0.29323,0.65493 -0.65493,0.65493c-0.36171,0 -0.65493,-0.29323 -0.65493,-0.65493z" fill="#000000" stroke="none" stroke-width="0.5" stroke-linecap="butt"/><path d="M219.49546,150.43218c-1.03171,2.70406 -6.10205,2.84575 -11.32492,0.31647c-5.22287,-2.52928 -8.62046,-6.77173 -7.58876,-9.47579c1.03171,-2.70406 6.10205,-2.84575 11.32492,-0.31647c5.22287,2.52928 8.62046,6.77173 7.58876,9.47579z" fill="#e167ff" stroke="#ac5bc4" stroke-width="1.5" stroke-linecap="butt"/><path d="M180.02025,175.79726v-62.22957h71.85626v62.22957z" fill="none" stroke="none" stroke-width="0" stroke-linecap="butt"/></g></g></svg>