<svg version="1.1" xmlns="http://www.w3.org/2000/svg" xmlns:xlink="http://www.w3.org/1999/xlink" width="302.4883" height="129.95429" viewBox="0,0,302.4883,129.95429"><defs><linearGradient x1="58.2739" y1="17.28587" x2="60.93605" y2="26.99783" gradientUnits="userSpaceOnUse" id="color-1"><stop offset="0" stop-color="#b5f4c4"/><stop offset="1" stop-color="#469a3b"/></linearGradient><linearGradient x1="31.56719" y1="52.42248" x2="35.56042" y2="66.99043" gradientUnits="userSpaceOnUse" id="color-2"><stop offset="0" stop-color="#b5f4c4"/><stop offset="1" stop-color="#469a3b"/></linearGradient><linearGradient x1="68.96073" y1="39.18916" x2="74.95056" y2="61.04105" gradientUnits="userSpaceOnUse" id="color-3"><stop offset="0" stop-color="#b5f4c4"/><stop offset="1" stop-color="#469a3b"/></linearGradient><linearGradient x1="52.70491" y1="28.05288" x2="43.63933" y2="39.22305" gradientUnits="userSpaceOnUse" id="color-4"><stop offset="0" stop-color="#b5f4c4"/><stop offset="1" stop-color="#469a3b"/></linearGradient></defs><g transform="translate(-11.20218,-9.8181)"><g data-paper-data="{&quot;isPaintingLayer&quot;:true}" fill-rule="nonzero" stroke-linecap="butt" stroke-linejoin="miter" stroke-miterlimit="10" stroke-dasharray="" stroke-dashoffset="0" style="mix-blend-mode: normal"><path d="M12.45218,87.85818v-76.79008h299.9883v76.79008z" fill="#30d932" stroke="#000000" stroke-width="2.5"/><path d="M51.39752,29.61245l-2.66215,-9.71195c0,0 5.61153,-4.54894 15.65113,-2.03247c2.92649,0.73353 6.08808,6.5152 6.08808,6.5152z" data-paper-data="{&quot;index&quot;:null}" fill="url(#color-1)" stroke="#4a7b42" stroke-width="2.5"/><path d="M28.28702,77.18828c-4.34147,-3.24052 -0.44759,-10.91425 -1.92581,-15.86792c-2.03133,-6.80717 -8.29795,-11.09153 -6.28425,-15.44418c3.47911,-7.52009 20.85535,3.97917 20.85535,3.97917l3.99323,14.56794c0,0 -6.33112,20.45847 -16.63852,12.76497z" data-paper-data="{&quot;index&quot;:null}" fill="url(#color-2)" stroke="#4a7b42" stroke-width="2.5"/><path d="M98.92098,43.91787c0,0 -3.24679,3.9199 -6.8675,5.05808c-3.65184,1.14796 -9.7199,-2.01791 -9.67097,2.03979c5.41661,14.25631 18.77237,3.58827 18.77237,3.58827c0,0 0.31623,0.70556 -0.17862,1.41966c-1.52095,2.19484 -10.09866,13.41121 -10.09866,13.41121l-28.20787,8.0246l-16.16135,-8.62211l-5.98984,-21.8519l8.0465,-17.17811l26.65141,-7.24966l21.14587,9.12039z" data-paper-data="{&quot;index&quot;:null}" fill="url(#color-3)" stroke="#4a7b42" stroke-width="2.5"/><path d="M52.70491,28.05288c4.78106,3.88025 6.6275,9.52634 4.1241,12.61091c-2.50339,3.08457 -8.40863,2.43951 -13.18968,-1.44074c-4.78106,-3.88025 -6.6275,-9.52634 -4.1241,-12.61091c2.50339,-3.08457 8.40863,-2.43951 13.18968,1.44074z" data-paper-data="{&quot;index&quot;:null}" fill="url(#color-4)" stroke="#4a7b42" stroke-width="2.5"/><path d="M91.32366,39.70676c-1.22848,0.33674 -2.49732,-0.38615 -2.83406,-1.61462c-0.33674,-1.22848 0.38615,-2.49732 1.61463,-2.83405c1.22848,-0.33674 2.49732,0.38615 2.83406,1.61462c0.33674,1.22848 -0.38615,2.49732 -1.61463,2.83405z" data-paper-data="{&quot;index&quot;:null}" fill="#000000" stroke="none" stroke-width="0.5"/><text transform="translate(114.67079,37.2961) scale(0.5,0.5)" font-size="40" xml:space="preserve" fill="#ffffff" fill-rule="nonzero" stroke="#ffffff" stroke-width="2" stroke-linecap="butt" stroke-linejoin="miter" stroke-miterlimit="10" stroke-dasharray="" stroke-dashoffset="0" font-family="Handwriting" font-weight="normal" text-anchor="start" style="mix-blend-mode: normal"><tspan x="0" dy="0">Achievement Unlocked</tspan></text><text transform="translate(116.1138,66.41531) scale(0.38242,0.38242)" font-size="40" xml:space="preserve" fill="#ffffff" fill-rule="nonzero" stroke="none" stroke-width="1" stroke-linecap="butt" stroke-linejoin="miter" stroke-miterlimit="10" stroke-dasharray="" stroke-dashoffset="0" font-family="Handwriting" font-weight="normal" text-anchor="start" style="mix-blend-mode: normal"><tspan x="0" dy="0">Found the hidden Emerald Fish</tspan></text><path d="M120.82614,139.77239v-22.41715h34.11306v22.41715z" fill="none" stroke="none" stroke-width="NaN"/></g></g></svg>