<svg version="1.1" xmlns="http://www.w3.org/2000/svg" xmlns:xlink="http://www.w3.org/1999/xlink" width="192.42857" height="964.26645" viewBox="0,0,192.42857,964.26645"><g transform="translate(-143.78572,308.96724)"><g data-paper-data="{&quot;isPaintingLayer&quot;:true}" fill-rule="nonzero" stroke="none" stroke-linecap="butt" stroke-linejoin="miter" stroke-miterlimit="10" stroke-dasharray="" stroke-dashoffset="0" style="mix-blend-mode: normal"><g stroke-width="1"><path d="M236.81495,605.57004c-3.51494,-23.04239 -28.51008,-35.93051 -29.29118,-69.90827c-1.17165,-41.3982 11.32592,-57.02016 26.55733,-80.06255c15.23141,-23.04239 -28.90063,-37.10216 -28.90063,-73.03267c0,-35.93051 56.62961,-51.94302 32.41557,-92.56012c-24.21404,-40.6171 16.40306,-60.14455 16.40306,-60.14455c-28.90063,37.10216 18.3558,30.07227 27.72898,75.37596c9.37318,45.30369 -30.07227,41.78874 -31.24392,80.06255c-1.17165,38.2738 32.41557,38.2738 32.41557,68.34608c0,30.07227 -31.24392,40.6171 -34.75886,67.17443c-3.51494,26.55733 25.38569,34.75886 32.41557,68.34608c7.02988,33.58722 -27.33843,66.00278 -27.33843,66.00278c-8.20153,1.95275 -12.10702,-18.3558 -16.40306,-49.59973z" fill="#3aaa26"/><path d="M253.21801,655.16977c0,0 2.73384,-7.02988 6.24878,-19.52745c1.5622,-6.24878 3.51494,-14.05976 3.90549,-23.04239c0.39055,-4.29604 0,-9.37318 -1.17165,-14.05976c-0.7811,-2.34329 -1.5622,-4.68659 -3.12439,-6.63933c-1.5622,-1.95275 -3.51494,-4.29604 -5.07714,-6.24878c-7.02988,-8.59208 -14.45031,-18.74635 -19.918,-30.46282c-2.73384,-5.85824 -5.46769,-12.10702 -6.63933,-19.1369c-0.39055,-1.5622 -0.39055,-3.51494 -0.39055,-5.46769v-2.73384l0.39055,-2.73384c0.39055,-3.51494 1.5622,-7.42043 3.12439,-10.54482c7.02988,-13.27867 18.3558,-22.65184 26.94788,-34.36831c4.29604,-5.85824 8.20153,-12.49757 8.59208,-19.52745v-2.73384c0,-0.7811 -0.39055,-1.95275 -0.39055,-2.73384c0,-0.7811 0,-1.95275 -0.39055,-2.73384l-0.7811,-2.34329c-0.39055,-1.5622 -1.5622,-3.12439 -2.34329,-5.07714c-0.7811,-1.5622 -1.95275,-3.12439 -2.73384,-4.68659c-7.42043,-12.88812 -17.18416,-24.60459 -24.21404,-37.88325c-3.51494,-6.63933 -6.63933,-13.66922 -6.63933,-21.87074v-3.12439c0,-1.17165 0.39055,-1.95275 0.7811,-2.73384c0.39055,-1.95275 1.5622,-3.90549 2.34329,-5.46769c1.95275,-3.12439 4.29604,-5.85824 6.24878,-8.59208c8.59208,-10.93537 17.96525,-21.08965 23.82349,-32.02502c2.73384,-5.46769 4.68659,-11.71647 4.29604,-17.57471c-0.39055,-5.85824 -3.12439,-10.93537 -6.24878,-15.62196c-6.24878,-8.98263 -13.66922,-16.40306 -17.57471,-25.38569c-4.29604,-8.59208 -3.12439,-17.96525 -0.39055,-24.21404c3.12439,-6.24878 6.24878,-10.15427 8.59208,-12.88812c2.34329,-2.73384 3.90549,-3.90549 3.90549,-3.90549c0,0 -1.17165,1.5622 -3.12439,4.29604c-1.95275,2.73384 -4.68659,7.42043 -7.02988,13.27867c-1.95275,5.85824 -2.73384,13.66922 1.17165,21.87074c3.51494,8.20153 9.76373,16.40306 15.62196,25.77624c3.12439,4.68659 6.24878,10.15427 7.02988,16.40306c0.7811,6.24878 -1.17165,12.88812 -3.51494,18.74635c-5.46769,12.10702 -14.05976,23.04239 -22.26129,33.97776l-3.12439,4.29604c-0.7811,1.5622 -2.34329,3.12439 -2.73384,4.29604c-0.7811,1.5622 -1.5622,2.73384 -1.95275,4.29604c0,0.7811 -0.39055,1.5622 -0.7811,2.34329v2.34329c-0.39055,6.63933 2.34329,13.27867 5.07714,19.918c6.24878,13.27867 14.84086,25.38569 22.26129,38.66435c1.95275,3.51494 3.90549,6.24878 5.07714,10.15427l1.17165,2.73384c0.39055,0.7811 0.39055,1.95275 0.39055,2.73384c0,0.7811 0.39055,1.95275 0.39055,2.73384v2.73384c-0.39055,7.81098 -3.90549,14.84086 -8.20153,21.08965c-3.90549,6.24878 -8.98263,12.10702 -13.27867,17.57471c-4.29604,5.46769 -8.98263,11.32592 -11.71647,16.79361c-3.12439,6.24878 -3.90549,12.49757 -2.73384,18.74635c1.17165,6.24878 3.12439,12.49757 5.85824,18.3558c5.46769,11.32592 12.49757,21.4802 19.1369,30.07227c1.5622,2.34329 3.51494,4.29604 5.07714,6.63933c1.5622,2.34329 2.73384,5.07714 3.51494,7.42043c1.17165,5.07714 1.17165,10.15427 0.7811,14.84086c-0.7811,9.37318 -3.12439,16.79361 -5.07714,23.04239c-1.95275,6.24878 -3.90549,10.93537 -5.46769,14.45031c-1.95275,3.90549 -2.73384,5.46769 -2.73384,5.46769z" fill="#2d8c31"/><path d="M233.69056,456.38032c0,0 1.5622,-1.95275 2.34329,-5.46769c0.39055,-0.7811 0.39055,-1.95275 0.39055,-2.73384c0,-1.17165 0,-1.95275 0,-3.12439c-0.39055,-2.34329 -0.7811,-4.68659 -1.95275,-6.63933c-0.39055,-1.17165 -1.17165,-1.95275 -1.5622,-3.12439c-0.39055,-1.17165 -1.17165,-1.95275 -1.95275,-3.12439c-1.17165,-1.95275 -2.73384,-3.51494 -3.51494,-5.07714c-0.39055,-0.7811 -1.17165,-1.17165 -1.5622,-1.95275c-0.39055,-0.39055 -0.7811,-1.17165 -1.17165,-1.5622c-0.7811,-0.7811 -1.17165,-1.17165 -1.17165,-1.17165c0,0 0.39055,0.39055 1.17165,1.17165c0.7811,0.7811 1.95275,1.5622 3.12439,3.12439c1.17165,1.5622 2.73384,2.73384 3.90549,4.68659c0.7811,0.7811 1.5622,1.95275 1.95275,3.12439c0.7811,1.17165 1.17165,1.95275 1.5622,3.12439c1.17165,2.34329 1.5622,4.68659 1.95275,7.02988c0,1.17165 0,2.34329 0,3.51494c0,1.17165 -0.39055,1.95275 -0.7811,3.12439c-0.39055,1.95275 -1.17165,3.12439 -1.95275,3.90549c-0.39055,0.39055 -0.7811,1.17165 -0.7811,1.17165z" fill="#2d8c31"/><path d="M258.29515,414.59157c0,0 -2.73384,-3.12439 -5.07714,-8.20153c-1.17165,-2.73384 -2.73384,-5.85824 -3.51494,-9.37318c-0.39055,-1.95275 -0.7811,-3.51494 -1.17165,-5.46769c0,-1.95275 -0.39055,-3.90549 -0.39055,-5.85824v-3.12439l0.39055,-2.73384c0,-1.95275 0.7811,-3.90549 1.17165,-5.46769c0.39055,-1.95275 1.17165,-3.51494 1.95275,-5.07714c0.7811,-1.5622 1.5622,-2.73384 2.34329,-4.29604c0.7811,-1.17165 1.5622,-2.34329 2.34329,-3.12439c0.7811,-0.7811 1.5622,-1.5622 1.95275,-2.34329c1.17165,-1.17165 1.95275,-1.95275 1.95275,-1.95275c0,0 -0.39055,0.7811 -1.5622,2.34329c-0.39055,0.7811 -1.17165,1.5622 -1.5622,2.34329c-0.7811,0.7811 -1.17165,2.34329 -1.95275,3.51494c-0.7811,1.17165 -1.5622,2.73384 -1.95275,4.29604c-0.39055,1.5622 -1.17165,3.12439 -1.5622,4.68659c-0.39055,1.5622 -0.7811,3.51494 -1.17165,5.46769l-0.39055,2.73384v2.73384c0,1.95275 0,3.90549 0.39055,5.46769c0.39055,1.95275 0.39055,3.51494 0.7811,5.46769c0.7811,3.51494 1.5622,6.63933 2.73384,9.37318c2.34329,5.07714 4.29604,8.59208 4.29604,8.59208z" fill="#2d8c31"/><path d="M273.91711,468.09679c0,0 0,-2.34329 0,-5.85824c0,-0.7811 0,-1.5622 -0.39055,-2.73384c0,-0.7811 -0.39055,-1.95275 -0.39055,-2.73384c0,-1.17165 -0.39055,-1.95275 -0.39055,-3.12439c-0.39055,-1.17165 -0.39055,-1.95275 -0.7811,-3.12439c-0.39055,-1.17165 -0.39055,-1.95275 -0.7811,-3.12439c-0.39055,-1.17165 -0.39055,-1.95275 -0.7811,-3.12439c-0.39055,-0.7811 -0.7811,-1.95275 -0.7811,-2.73384c-0.39055,-0.7811 -0.7811,-1.5622 -0.7811,-2.73384c-0.39055,-1.5622 -1.17165,-3.12439 -1.17165,-3.90549c-0.39055,-1.17165 -0.39055,-1.5622 -0.39055,-1.5622c0,0 0.39055,0.39055 1.17165,1.17165c0.7811,0.7811 1.95275,1.5622 3.12439,3.12439c1.17165,1.17165 2.34329,3.12439 3.51494,5.07714c1.17165,1.95275 1.95275,4.29604 2.73384,6.63933c0.39055,2.34329 0.7811,4.68659 0.7811,7.02988c0,2.34329 -0.39055,4.29604 -0.7811,6.24878c-2.34329,3.51494 -3.90549,5.46769 -3.90549,5.46769z" fill="#6bc134"/></g><g data-paper-data="{&quot;index&quot;:null}" stroke-width="1"><path d="M243.20299,-308.83782c0,0 34.36831,32.41557 27.33843,66.00278c-7.02988,33.58722 -35.93051,41.78875 -32.41557,68.34608c3.51494,26.55734 34.75886,37.10216 34.75886,67.17443c0,30.07227 -33.58721,30.07228 -32.41557,68.34608c1.17164,38.2738 40.6171,34.75886 31.24392,80.06255c-9.37317,45.30368 -56.6296,38.2738 -27.72898,75.37596c0,0 -40.6171,-19.52744 -16.40306,-60.14454c24.21404,-40.6171 -32.41557,-56.62961 -32.41557,-92.56012c0,-35.93051 44.13204,-49.99027 28.90063,-73.03266c-15.23141,-23.04239 -27.72898,-38.66436 -26.55734,-80.06255c0.7811,-33.97776 25.77623,-46.86589 29.29118,-69.90827c4.29604,-31.24392 8.20153,-51.55247 16.40306,-49.59972z" fill="#3aaa26"/><path d="M245.93684,-303.37013c1.56219,3.51494 3.51494,8.20152 5.46768,14.45031c1.95274,6.24878 4.29604,13.66922 5.07713,23.04239c0.39055,4.68659 0.39055,9.76373 -0.78109,14.84086c-0.7811,2.3433 -1.95275,5.07714 -3.51495,7.42043c-1.56219,2.3433 -3.51494,4.29604 -5.07713,6.63933c-6.63933,8.59208 -13.66921,18.74636 -19.1369,30.07228c-2.73384,5.85824 -4.68659,12.10702 -5.85824,18.35581c-1.17165,6.24878 -0.39055,12.49757 2.73384,18.74635c2.73385,5.46768 7.42043,11.32592 11.71647,16.79361c4.29604,5.46768 9.37318,11.32592 13.27867,17.5747c4.29604,6.24878 7.81097,13.27867 8.20153,21.08965v2.73384c0,0.7811 -0.39055,1.95275 -0.39055,2.73384c0,0.7811 0,1.95274 -0.39055,2.73384l-1.17165,2.73384c-1.17164,3.90549 -3.12439,6.63934 -5.07713,10.15428c-7.42043,13.27866 -16.01251,25.38568 -22.2613,38.66435c-2.73385,6.63934 -5.46769,13.27866 -5.07713,19.918v2.3433c0.39055,0.7811 0.78109,1.5622 0.78109,2.3433c0.39055,1.56219 1.17165,2.73385 1.95274,4.29604c0.39055,1.17165 1.95274,2.73385 2.73384,4.29604l3.12439,4.29604c8.20153,10.93537 16.79361,21.87074 22.26129,33.97776c2.3433,5.85823 4.29604,12.49757 3.51494,18.74635c-0.7811,6.24878 -3.90549,11.71647 -7.02988,16.40306c-5.85824,9.37318 -12.10702,17.57471 -15.62196,25.77624c-3.90549,8.20153 -3.12439,16.01251 -1.17165,21.87075c2.3433,5.85823 5.07714,10.54482 7.02989,13.27866c1.95274,2.73384 3.12439,4.29604 3.12439,4.29604c0,0 -1.5622,-1.17165 -3.90549,-3.90549c-2.3433,-2.73385 -5.46769,-6.63934 -8.59208,-12.88812c-2.73385,-6.24878 -3.90549,-15.62195 0.39055,-24.21403c3.90549,-8.98262 11.32592,-16.40307 17.57471,-25.38569c3.12439,-4.68659 5.85823,-9.76373 6.24878,-15.62196c0.39055,-5.85824 -1.56219,-12.10702 -4.29603,-17.57471c-5.85823,-10.93537 -15.23141,-21.08965 -23.82349,-32.02502c-1.95274,-2.73384 -4.29604,-5.46769 -6.24878,-8.59208c-0.7811,-1.56219 -1.95275,-3.51495 -2.3433,-5.46769c-0.39055,-0.7811 -0.7811,-1.56219 -0.7811,-2.73384v-3.12439c0,-8.20153 3.1244,-15.23141 6.63934,-21.87074c7.02988,-13.27866 16.79361,-24.99514 24.21404,-37.88326c0.7811,-1.56219 1.95274,-3.12439 2.73384,-4.68658c0.7811,-1.95274 1.95275,-3.51495 2.3433,-5.07714l0.7811,-2.3433c0.39055,-0.7811 0.39055,-1.95274 0.39055,-2.73384c0,-0.7811 0.39054,-1.95275 0.39054,-2.73384v-2.73384c-0.39055,-7.02988 -4.29603,-13.66922 -8.59207,-19.52746c-8.59208,-11.71647 -19.918,-21.08965 -26.94788,-34.36831c-1.56219,-3.12439 -2.73384,-7.02988 -3.12439,-10.54482l-0.39055,-2.73384v-2.73384c0,-1.95275 0,-3.90549 0.39055,-5.46769c1.17165,-7.02988 3.90549,-13.27867 6.63934,-19.1369c5.46768,-11.71647 12.88812,-21.87075 19.918,-30.46283c1.5622,-1.95275 3.51494,-4.29604 5.07713,-6.24878c1.56219,-1.95275 2.34329,-4.29604 3.12439,-6.63933c1.17165,-4.68659 1.5622,-9.76372 1.17165,-14.05976c-0.39055,-8.98262 -2.34329,-16.7936 -3.90549,-23.04239c-3.51494,-12.49757 -6.24878,-19.52745 -6.24878,-19.52745c0,0 0.7811,1.5622 2.73385,5.46769z" fill="#2d8c31"/><path d="M224.45664,-108.87672c0.7811,0.7811 1.56219,1.95275 1.95274,3.90549c0.39055,1.17165 0.7811,1.95274 0.7811,3.12439c0,1.17165 0,2.34329 0,3.51494c-0.39055,2.3433 -0.7811,4.68659 -1.95274,7.02989c-0.39055,1.17165 -0.7811,1.95274 -1.5622,3.12439c-0.39055,1.17165 -1.17164,2.3433 -1.95274,3.12439c-1.17165,1.95274 -2.73384,3.12439 -3.90549,4.68658c-1.17165,1.56219 -2.3433,2.3433 -3.1244,3.12439c-0.7811,0.7811 -1.17165,1.17165 -1.17165,1.17165c0,0 0.39055,-0.39055 1.17165,-1.17165c0.39055,-0.39055 0.7811,-1.17164 1.17165,-1.56219c0.39055,-0.7811 1.17165,-1.17165 1.5622,-1.95274c0.7811,-1.56219 2.34329,-3.12439 3.51494,-5.07714c0.7811,-1.17165 1.5622,-1.95274 1.95275,-3.12439c0.39055,-1.17165 1.17165,-1.95275 1.56219,-3.1244c1.17165,-1.95274 1.56219,-4.29603 1.95274,-6.63933c0,-1.17165 0,-1.95275 0,-3.12439c0,-0.7811 0,-1.95274 -0.39055,-2.73384c-0.7811,-3.51494 -2.34329,-5.46769 -2.34329,-5.46769c0,0 0.39055,0.7811 0.78109,1.17165z" fill="#2d8c31"/><path d="M243.98409,-59.66754c-1.17165,2.73384 -1.95274,5.85823 -2.73384,9.37318c-0.39055,1.95274 -0.39055,3.51495 -0.7811,5.46769c-0.39055,1.56219 -0.39055,3.51494 -0.39055,5.46769v2.73384l0.39055,2.73385c0.39055,1.95274 0.7811,3.90549 1.17165,5.46768c0.39055,1.56219 1.17165,3.1244 1.5622,4.68659c0.39055,1.56219 1.17165,3.12439 1.95274,4.29604c0.7811,1.17165 1.17165,2.73384 1.95274,3.51494c0.39055,0.7811 1.17165,1.5622 1.5622,2.3433c1.17165,1.56219 1.56219,2.3433 1.56219,2.3433c0,0 -0.7811,-0.7811 -1.95274,-1.95274c-0.39055,-0.7811 -1.17165,-1.5622 -1.95274,-2.3433c-0.7811,-0.7811 -1.56219,-1.95275 -2.34329,-3.12439c-0.7811,-1.56219 -1.56219,-2.73384 -2.3433,-4.29604c-0.7811,-1.56219 -1.56219,-3.12439 -1.95274,-5.07714c-0.39055,-1.56219 -1.17165,-3.51494 -1.17165,-5.46769l-0.39055,-2.73384v-3.12439c0,-1.95274 0.39055,-3.90549 0.39055,-5.85823c0.39055,-1.95274 0.7811,-3.51494 1.17165,-5.46769c0.7811,-3.51494 2.3433,-6.63934 3.51494,-9.37318c2.3433,-5.07713 5.07713,-8.20153 5.07713,-8.20153c0,0 -1.95274,3.51494 -4.29604,8.59208z" fill="#2d8c31"/><path d="M267.80758,-116.29715c0.39055,1.95275 0.78109,3.90548 0.78109,6.24878c0,2.3433 -0.39054,4.68659 -0.78109,7.02989c-0.7811,2.3433 -1.5622,4.68659 -2.73385,6.63934c-1.17164,1.95274 -2.34329,3.90549 -3.51494,5.07713c-1.17165,1.56219 -2.3433,2.34329 -3.1244,3.12439c-0.7811,0.7811 -1.17165,1.17165 -1.17165,1.17165c0,0 0,-0.39055 0.39055,-1.5622c0,-0.7811 0.7811,-2.3433 1.17165,-3.90549c0,-1.17165 0.39055,-1.95274 0.7811,-2.73384c0,-0.7811 0.39054,-1.95275 0.7811,-2.73385c0.39055,-1.17165 0.39055,-1.95274 0.7811,-3.12439c0.39055,-1.17165 0.39054,-1.95275 0.7811,-3.12439c0.39055,-1.17165 0.39055,-1.95274 0.7811,-3.12439c0,-1.17165 0.39055,-1.95274 0.39055,-3.12439c0,-0.7811 0.39055,-1.95275 0.39055,-2.73384c0.39055,-1.17165 0.39054,-1.95275 0.39054,-2.73385c0,-3.51494 0,-5.85823 0,-5.85823c0,0 1.5622,1.95275 3.90549,5.46769z" fill="#6bc134"/></g><path d="M143.78572,184.5v-9h192.42857v9z" fill="none" stroke-width="0"/></g></g></svg>