<svg version="1.1" xmlns="http://www.w3.org/2000/svg" xmlns:xlink="http://www.w3.org/1999/xlink" width="109.08275" height="106.47632" viewBox="0,0,109.08275,106.47632"><defs><linearGradient x1="217.75891" y1="178.89219" x2="211.81994" y2="205.12455" gradientUnits="userSpaceOnUse" id="color-1"><stop offset="0" stop-color="#e6cb59"/><stop offset="1" stop-color="#c38c35"/></linearGradient><linearGradient x1="239.84364" y1="134.30876" x2="235.71619" y2="152.53966" gradientUnits="userSpaceOnUse" id="color-2"><stop offset="0" stop-color="#e6cb59"/><stop offset="1" stop-color="#c38c35"/></linearGradient><linearGradient x1="258.32636" y1="145.03305" x2="245.1194" y2="203.36804" gradientUnits="userSpaceOnUse" id="color-3"><stop offset="0" stop-color="#e6cb59"/><stop offset="1" stop-color="#c38c35"/></linearGradient><linearGradient x1="245.10344" y1="167.31842" x2="241.67568" y2="182.45881" gradientUnits="userSpaceOnUse" id="color-4"><stop offset="0" stop-color="#e6cb59"/><stop offset="1" stop-color="#c38c35"/></linearGradient></defs><g transform="translate(-192.78149,-121.34406)"><g data-paper-data="{&quot;isPaintingLayer&quot;:true}" fill-rule="nonzero" stroke-linecap="butt" stroke-linejoin="miter" stroke-miterlimit="10" stroke-dasharray="" stroke-dashoffset="0" style="mix-blend-mode: normal"><path d="M212.29081,205.11668c-6.29238,-0.17489 -12.37844,-10.79858 -9.34415,-16.99192c3.03429,-6.19334 12.31748,-8.34166 18.60986,-8.16678c6.29237,0.17489 8.93357,5.33737 5.89926,11.53071c-3.0343,6.19334 -8.87261,13.80287 -15.16499,13.628z" data-paper-data="{&quot;index&quot;:null}" fill="url(#color-1)" stroke="#7e5926" stroke-width="2.5"/><path d="M229.9831,135.40307c3.34507,-3.25151 9.54753,-2.29619 13.85358,2.13374c4.30605,4.42995 5.0851,10.657 1.74004,13.90852c-3.34506,3.25152 -9.54752,2.2962 -13.85357,-2.13374c-4.30607,-4.42994 -5.08511,-10.65698 -1.74006,-13.9085z" data-paper-data="{&quot;index&quot;:null}" fill="url(#color-2)" stroke="#7e5926" stroke-width="2.5"/><path d="M217.00307,166.34006c3.647,-16.10877 22.2124,-25.89572 41.33729,-21.30381c20.49846,4.92171 28.00972,28.09434 28.00972,28.09434c0,0 1.20783,7.98188 1.17018,9.64061c-0.00782,0.3443 -6.9703,-0.6555 -12.77761,-2.07154c-6.52945,-1.59213 -12.307,-8.42315 -12.5387,-7.06816c-0.65778,3.84655 4.00166,9.8668 9.3633,13.14965c6.21837,3.8074 13.32733,4.59901 13.32733,4.59901c0,0 -9.50053,18.56117 -39.76118,11.99109c-19.22062,-4.17312 -31.77733,-20.92244 -28.13033,-37.03119z" data-paper-data="{&quot;index&quot;:null}" fill="url(#color-3)" stroke="#7e5926" stroke-width="2.5"/><path d="M245.10343,167.3184c6.02541,1.36414 10.14264,5.85929 9.19609,10.0402c-0.94655,4.18091 -6.59844,6.46434 -12.62385,5.10019c-6.02541,-1.36414 -10.14264,-5.85929 -9.19609,-10.0402c0.94655,-4.18091 6.59844,-6.46434 12.62385,-5.10019z" data-paper-data="{&quot;index&quot;:null}" fill="url(#color-4)" stroke="#7e5926" stroke-width="2.5"/><path d="M274.82204,169.29048c-0.92226,-0.2088 -1.50064,-1.12569 -1.29184,-2.04796c0.2088,-0.92226 1.12569,-1.50064 2.04796,-1.29184c0.92226,0.2088 1.50064,1.12569 1.29184,2.04796c-0.2088,0.92226 -1.12569,1.50064 -2.04796,1.29184z" data-paper-data="{&quot;index&quot;:null}" fill="#000000" stroke="none" stroke-width="0.5"/><path d="M265.22867,168.24206c-0.92226,-0.2088 -1.50064,-1.12569 -1.29184,-2.04796c0.2088,-0.92226 1.12569,-1.50064 2.04796,-1.29184c0.92226,0.2088 1.50064,1.12569 1.29184,2.04796c-0.2088,0.92226 -1.12569,1.50064 -2.04796,1.29184z" data-paper-data="{&quot;index&quot;:null}" fill="#000000" stroke="none" stroke-width="0.5"/><path d="M192.78149,207.54241l19.51519,-86.19835l89.56756,20.27797l-19.51519,86.19835z" fill="none" stroke="none" stroke-width="0"/></g></g></svg>