<svg version="1.1" xmlns="http://www.w3.org/2000/svg" xmlns:xlink="http://www.w3.org/1999/xlink" width="747.55315" height="345.68298" viewBox="0,0,747.55315,345.68298"><g transform="translate(-7.25,-4.86702)"><g data-paper-data="{&quot;isPaintingLayer&quot;:true}" fill-rule="nonzero" stroke-linecap="butt" stroke-linejoin="miter" stroke-miterlimit="10" stroke-dasharray="" stroke-dashoffset="0" style="mix-blend-mode: normal"><path d="M746.67532,162.28371c-4.21912,-0.05043 -7.97404,-0.90559 -11.88734,-1.92968c-1.67449,-0.3162 -3.31162,-0.74375 -4.77738,-1.19406c-0.04598,-0.04945 -0.09372,-0.09785 -0.14283,-0.14542c-1.97649,-0.66309 -2.47079,-1.20522 -4.43357,0.19704c-0.29912,1.10081 -1.11811,2.6554 -0.76774,3.81543c1.04083,3.44603 5.1699,3.80104 8.05076,3.7995c4.7216,-0.00252 10.6858,-0.55685 13.95811,-4.54282zM750.04458,162.25914c-0.02993,0.46039 -0.26862,0.81842 -0.26862,0.81842l-0.56325,0.83472c-4.39412,5.33289 -12.0702,6.32129 -18.52437,5.91197c-3.49672,-0.22176 -7.83765,-2.12181 -8.89316,-5.92785c-0.6062,-2.18587 0.44941,-4.41859 1.17819,-6.40069c1.0696,-0.90005 2.19938,-2.09551 3.68873,-2.32891c0.35956,-0.05635 0.80983,-0.01156 1.29598,0.0892c0.14847,-2.13252 1.15294,-4.75601 1.61691,-6.32382c2.35721,-7.96534 11.34261,-15.59492 19.39773,-9.02451c2.84701,2.32226 4.33267,6.57292 5.41415,9.93552c0.01726,2.70375 0.73284,5.79199 0.24811,8.47528c-0.55859,3.09221 -2.33068,3.79401 -4.59039,3.94067zM744.48763,159.28178c0.13043,0.00283 0.26098,0.00428 0.39164,0.00428c1.0847,0 5.93159,0.67894 6.57216,-0.35734c1.18521,-1.91739 -0.04109,-6.48764 -0.02583,-8.60499c-1.84464,-5.26839 -6.478,-12.88465 -13.31583,-8.92645c-1.70411,0.98645 -3.3133,3.72864 -4.37269,5.36015c-1.51199,2.32853 -1.9393,5.2426 -2.45454,7.92149c-0.09862,0.51273 -0.21076,1.20146 0.03262,1.64352c0.10523,0.03362 0.20151,0.06234 0.28726,0.08487c0.88377,0.23217 1.76795,0.48806 2.65358,0.74861c0.20139,0.03644 0.40335,0.07163 0.6057,0.10556c-0.02088,-2.99271 -0.01797,-6.94425 2.84771,-8.66019c4.76508,-2.85327 7.53073,5.64641 6.96341,9.12898c-0.07977,0.48966 -0.09081,1.04403 -0.18518,1.55152zM737.86275,157.6721c0.59587,0.06366 1.18784,0.11642 1.77155,0.15829c0.7795,0.05591 1.67215,0.80565 2.31624,0.36305c0.59962,-0.41204 -0.22219,-1.4399 -0.27018,-2.16586c-0.15312,-2.31643 -2.52525,-7.96488 -3.61709,-2.65735c-0.16013,0.77839 -0.1659,1.58175 -0.19897,2.37575c-0.02672,0.64151 -0.00922,1.28392 -0.00154,1.92613z" fill="none" stroke="none" stroke-width="0.5"/><path d="M8.5,349.3v-343h344v343z" fill="#30d932" stroke="#000000" stroke-width="2.5"/><text transform="translate(12.5,49.9519) scale(1.18333,1.18333)" font-size="40" xml:space="preserve" fill="#000000" fill-rule="nonzero" stroke="none" stroke-width="1" stroke-linecap="butt" stroke-linejoin="miter" stroke-miterlimit="10" stroke-dasharray="" stroke-dashoffset="0" font-family="Handwriting" font-weight="normal" text-anchor="start" style="mix-blend-mode: normal"><tspan x="0" dy="0">Info</tspan></text><text transform="translate(12.2476,71.84616) scale(0.40021,0.40021)" font-size="40" xml:space="preserve" fill="#000000" fill-rule="nonzero" stroke="none" stroke-width="1" stroke-linecap="butt" stroke-linejoin="miter" stroke-miterlimit="10" stroke-dasharray="" stroke-dashoffset="0" font-family="Handwriting" font-weight="normal" text-anchor="start" style="mix-blend-mode: normal"><tspan x="0" dy="0">Game info:</tspan><tspan x="0" dy="46.150000000000006px"> </tspan><tspan x="0" dy="46.150000000000006px">Swimmy Mineral Fish</tspan><tspan x="0" dy="46.150000000000006px">A Flappy Bird-like game, </tspan><tspan x="0" dy="46.150000000000006px">where you play as the </tspan><tspan x="0" dy="46.150000000000006px">Mineral Fish!</tspan><tspan x="0" dy="46.150000000000006px"> </tspan><tspan x="0" dy="46.150000000000006px">Release date: Aug 5 2021</tspan><tspan x="0" dy="46.150000000000006px"> </tspan><tspan x="0" dy="46.150000000000006px"> </tspan><tspan x="0" dy="46.150000000000006px"> </tspan><tspan x="0" dy="46.150000000000006px"> </tspan><tspan x="0" dy="46.150000000000006px">Version info:</tspan><tspan x="0" dy="46.150000000000006px">Version 5.31 (web)</tspan><tspan x="0" dy="46.150000000000006px">Released on Nov 30 2023</tspan></text><text transform="translate(189.79841,264.46864) scale(0.3305,0.3305)" font-size="40" xml:space="preserve" fill="#000000" fill-rule="nonzero" stroke="none" stroke-width="1" stroke-linecap="butt" stroke-linejoin="miter" stroke-miterlimit="10" stroke-dasharray="" stroke-dashoffset="0" font-family="Handwriting" font-weight="normal" text-anchor="start" style="mix-blend-mode: normal"><tspan x="0" dy="0">Web port features:</tspan><tspan x="0" dy="46.150000000000006px">smoother gameplay</tspan><tspan x="0" dy="46.150000000000006px">local high scores </tspan><tspan x="0" dy="46.150000000000006px">gamepad support</tspan><tspan x="0" dy="46.150000000000006px">made with &lt;3 by  whenthesilly</tspan><tspan x="0" dy="46.150000000000006px">(and the turpowarp packager)</tspan></text><text transform="translate(227.28384,33.48123) scale(0.5,0.5)" font-size="40" xml:space="preserve" fill="#000000" fill-rule="nonzero" stroke="none" stroke-width="1" stroke-linecap="butt" stroke-linejoin="miter" stroke-miterlimit="10" stroke-dasharray="" stroke-dashoffset="0" font-family="Handwriting" font-weight="normal" text-anchor="start" style="mix-blend-mode: normal"><tspan x="0" dy="0">Click to close</tspan></text><path d="M746.67532,162.28371c-4.21912,-0.05043 -7.97404,-0.90559 -11.88734,-1.92968c-1.67449,-0.3162 -3.31162,-0.74375 -4.77738,-1.19406c-0.04598,-0.04945 -0.09372,-0.09785 -0.14283,-0.14542c-1.97649,-0.66309 -2.47079,-1.20522 -4.43357,0.19704c-0.29912,1.10081 -1.11811,2.6554 -0.76774,3.81543c1.04083,3.44603 5.1699,3.80104 8.05076,3.7995c4.7216,-0.00252 10.6858,-0.55685 13.95811,-4.54282zM750.04458,162.25914c-0.02993,0.46039 -0.26862,0.81842 -0.26862,0.81842l-0.56325,0.83472c-4.39412,5.33289 -12.0702,6.32129 -18.52437,5.91197c-3.49672,-0.22176 -7.83765,-2.12181 -8.89316,-5.92785c-0.6062,-2.18587 0.44941,-4.41859 1.17819,-6.40069c1.0696,-0.90005 2.19938,-2.09551 3.68873,-2.32891c0.35956,-0.05635 0.80983,-0.01156 1.29598,0.0892c0.14847,-2.13252 1.15294,-4.75601 1.61691,-6.32382c2.35721,-7.96534 11.34261,-15.59492 19.39773,-9.02451c2.84701,2.32226 4.33267,6.57292 5.41415,9.93552c0.01726,2.70375 0.73284,5.79199 0.24811,8.47528c-0.55859,3.09221 -2.33068,3.79401 -4.59039,3.94067zM744.48763,159.28178c0.13043,0.00283 0.26098,0.00428 0.39164,0.00428c1.0847,0 5.93159,0.67894 6.57216,-0.35734c1.18521,-1.91739 -0.04109,-6.48764 -0.02583,-8.60499c-1.84464,-5.26839 -6.478,-12.88465 -13.31583,-8.92645c-1.70411,0.98645 -3.3133,3.72864 -4.37269,5.36015c-1.51199,2.32853 -1.9393,5.2426 -2.45454,7.92149c-0.09862,0.51273 -0.21076,1.20146 0.03262,1.64352c0.10523,0.03362 0.20151,0.06234 0.28726,0.08487c0.88377,0.23217 1.76795,0.48806 2.65358,0.74861c0.20139,0.03644 0.40335,0.07163 0.6057,0.10556c-0.02088,-2.99271 -0.01797,-6.94425 2.84771,-8.66019c4.76508,-2.85327 7.53073,5.64641 6.96341,9.12898c-0.07977,0.48966 -0.09081,1.04403 -0.18518,1.55152zM737.86275,157.6721c0.59587,0.06366 1.18784,0.11642 1.77155,0.15829c0.7795,0.05591 1.67215,0.80565 2.31624,0.36305c0.59962,-0.41204 -0.22219,-1.4399 -0.27018,-2.16586c-0.15312,-2.31643 -2.52525,-7.96488 -3.61709,-2.65735c-0.16013,0.77839 -0.1659,1.58175 -0.19897,2.37575c-0.02672,0.64151 -0.00922,1.28392 -0.00154,1.92613z" fill="none" stroke="none" stroke-width="0.5"/><text transform="translate(193.5,67.06536) scale(0.43544,0.43544)" font-size="40" xml:space="preserve" fill="#000000" fill-rule="nonzero" stroke="none" stroke-width="1" stroke-linecap="butt" stroke-linejoin="miter" stroke-miterlimit="10" stroke-dasharray="" stroke-dashoffset="0" font-family="Handwriting" font-weight="normal" text-anchor="start" style="mix-blend-mode: normal"><tspan x="0" dy="0">Credits:</tspan><tspan x="0" dy="46.150000000000006px">Developed by</tspan><tspan x="0" dy="46.150000000000006px">whenthesilly</tspan><tspan x="0" dy="46.150000000000006px">JackyBorderCollie</tspan><tspan x="0" dy="46.150000000000006px">CST1229</tspan><tspan x="0" dy="46.150000000000006px">Copper_Fish</tspan><tspan x="0" dy="46.150000000000006px">Marc92020</tspan><tspan x="0" dy="46.150000000000006px"> </tspan><tspan x="0" dy="46.150000000000006px">Made by</tspan><tspan x="0" dy="46.150000000000006px">Emerald Fish Studios</tspan></text></g></g></svg>