<svg version="1.1" xmlns="http://www.w3.org/2000/svg" xmlns:xlink="http://www.w3.org/1999/xlink" width="605.91151" height="449.70178" viewBox="0,0,605.91151,449.70178"><defs><linearGradient x1="-4169.97217" y1="-2110.59916" x2="-2495.20859" y2="5247.07009" gradientUnits="userSpaceOnUse" id="color-1"><stop offset="0" stop-color="#000000" stop-opacity="0"/><stop offset="1" stop-color="#000000"/></linearGradient></defs><g transform="translate(62.95575,44.85089)"><g data-paper-data="{&quot;isPaintingLayer&quot;:true}" fill-rule="nonzero" stroke-linecap="butt" stroke-linejoin="miter" stroke-miterlimit="10" stroke-dasharray="" stroke-dashoffset="0" style="mix-blend-mode: normal"><path d="M-62.95575,404.85089l14.8145,-448.1959l583.38281,-1.50588l7.7142,446.02978z" fill="url(#color-1)" stroke="none" stroke-width="0"/><text transform="translate(31.48751,294.47695) scale(0.78975,0.78975)" font-size="40" xml:space="preserve" fill="#ffffff" fill-rule="nonzero" stroke="none" stroke-width="1" stroke-linecap="butt" stroke-linejoin="miter" stroke-miterlimit="10" stroke-dasharray="" stroke-dashoffset="0" font-family="Handwriting" font-weight="normal" text-anchor="start" style="mix-blend-mode: normal"><tspan x="0" dy="0">Seaweed moves at 0.8x the speed</tspan></text><text transform="translate(271.48751,294.47695) scale(0.78975,0.78975)" font-size="40" xml:space="preserve" fill="#ffffff" fill-rule="nonzero" stroke="#ffffff" stroke-width="1" stroke-linecap="butt" stroke-linejoin="miter" stroke-miterlimit="10" stroke-dasharray="" stroke-dashoffset="0" font-family="Handwriting" font-weight="normal" text-anchor="start" style="mix-blend-mode: normal"><tspan x="0" dy="0">0.8x</tspan></text><g fill="#ffffff" stroke="#ffffff" stroke-width="2.5"><path d="M234.81504,52.65631v-14.97898c0,0 9.83869,-4.31905 23.25134,3.23871c3.90971,2.20304 6.17166,11.74027 6.17166,11.74027z" data-paper-data="{&quot;index&quot;:null}"/><path d="M183.99352,113.64219c-4.95376,-6.3558 3.64965,-15.8329 3.47697,-23.52039c-0.23729,-10.5639 -7.54229,-19.17417 -2.94201,-24.62636c7.94798,-9.4198 28.35309,13.90905 28.35309,13.90905v22.46848c0,0 -17.12695,26.85891 -28.88805,11.7692z" data-paper-data="{&quot;index&quot;:null}"/><path d="M298.40325,93.68938c0,0 -6.19903,4.34654 -11.84063,4.55555c-5.69009,0.2108 -13.15007,-6.71685 -14.67545,-0.87669c-1.5254,5.84016 7.49939,9.66857 12.13022,10.62142c5.21897,1.07388 13.38846,1.90779 13.38846,1.90779l-20.57496,17.23418l-43.62069,0.41963l-19.79366,-18.72374v-33.70272l18.29782,-21.47858l41.08317,0.08003l26.7482,21.39855z" data-paper-data="{&quot;index&quot;:null}"/></g></g></g></svg>