<svg version="1.1" xmlns="http://www.w3.org/2000/svg" xmlns:xlink="http://www.w3.org/1999/xlink" width="77.35876" height="77.35876" viewBox="0,0,77.35876,77.35876"><defs><linearGradient x1="136.53958" y1="189.32212" x2="136.53958" y2="264.18084" gradientUnits="userSpaceOnUse" id="color-1"><stop offset="0" stop-color="#00ff04"/><stop offset="1" stop-color="#00ab03"/></linearGradient></defs><g transform="translate(-97.86022,-188.07205)"><g data-paper-data="{&quot;isPaintingLayer&quot;:true}" fill-rule="nonzero" stroke-linecap="butt" stroke-linejoin="miter" stroke-miterlimit="10" stroke-dasharray="" stroke-dashoffset="0" style="mix-blend-mode: normal"><path d="M99.11022,264.1808v-74.85875h74.85876v74.85876z" fill="url(#color-1)" stroke="#000000" stroke-width="2.5"/><path d="M97.94588,243.55127l19.09508,-52.43208l57.5391,20.955l-19.09508,52.43208z" fill="none" stroke="none" stroke-width="0"/><path d="M108.66466,243.97491v-21.84135c0,0 22.52389,0.08157 22.52389,10.01061c0,9.92904 -22.52389,11.83073 -22.52389,11.83073z" data-paper-data="{&quot;index&quot;:null}" fill="#6e544d" stroke="#58362e" stroke-width="2.5"/><path d="M128.8247,230.87693l-6.93114,-7.53385l6.93114,-9.34197h18.68394l17.75285,10.33067c0,0 -4.38963,3.12136 -7.21672,4.16367c-3.07041,1.132 -10.53612,2.3815 -10.53612,2.3815z" data-paper-data="{&quot;index&quot;:null}" fill="#6e544d" stroke="#58362e" stroke-width="2.5"/><path d="M129.60645,247.27234l-6.93114,-7.53385l6.93114,-9.34197h18.68394c0,0 5.7551,4.47162 8.49375,4.51881c2.50658,0.04318 6.18933,-0.55853 6.18933,-0.55853l-14.68307,12.91555z" data-paper-data="{&quot;index&quot;:null}" fill="#6e544d" stroke="#58362e" stroke-width="2.5"/><path d="M155.30502,226.02439c-0.64102,0 -1.16066,-0.51964 -1.16066,-1.16066c0,-0.64102 0.51964,-1.16066 1.16066,-1.16066c0.64102,0 1.16066,0.51964 1.16066,1.16066c0,0.64102 -0.51964,1.16066 -1.16066,1.16066z" data-paper-data="{&quot;index&quot;:null}" fill="#000000" stroke="none" stroke-width="0.5"/><path d="M149.84468,226.70694c-0.64102,0 -1.16066,-0.51964 -1.16066,-1.16066c0,-0.64102 0.51964,-1.16066 1.16066,-1.16066c0.64102,0 1.16066,0.51964 1.16066,1.16066c0,0.64102 -0.51964,1.16066 -1.16066,1.16066z" data-paper-data="{&quot;index&quot;:null}" fill="#000000" stroke="none" stroke-width="0.5"/><path d="M132.78115,224.1812c4.64914,0 8.41801,2.19001 8.41801,4.89154c0,2.70152 -3.76887,4.89154 -8.41801,4.89154c-4.64915,0 -8.41802,-2.19001 -8.41802,-4.89154c0,-2.70153 3.76888,-4.89154 8.41802,-4.89154z" data-paper-data="{&quot;index&quot;:null}" fill="#6e544d" stroke="#58362e" stroke-width="2.5"/><path d="M132.32611,213.26053l-6.14288,-9.7831l17.51858,-0.22752l3.1852,10.01062z" data-paper-data="{&quot;index&quot;:null}" fill="#6e544d" stroke="#58362e" stroke-width="2.5"/><path d="M99.05927,254.21888v-57.91547h75.37741v57.91547z" fill="none" stroke="none" stroke-width="0"/></g></g></svg>