<svg version="1.1" xmlns="http://www.w3.org/2000/svg" xmlns:xlink="http://www.w3.org/1999/xlink" width="605.91151" height="449.70178" viewBox="0,0,605.91151,449.70178"><defs><linearGradient x1="-4165.36736" y1="-2091.83336" x2="-2490.60377" y2="5265.83588" gradientUnits="userSpaceOnUse" id="color-1"><stop offset="0" stop-color="#000000" stop-opacity="0"/><stop offset="1" stop-color="#000000"/></linearGradient></defs><g transform="translate(58.35094,26.0851)"><g data-paper-data="{&quot;isPaintingLayer&quot;:true}" fill-rule="nonzero" stroke-linecap="butt" stroke-linejoin="miter" stroke-miterlimit="10" stroke-dasharray="" stroke-dashoffset="0" style="mix-blend-mode: normal"><path d="M-58.35094,423.61668l14.8145,-448.1959l583.38281,-1.50588l7.7142,446.02978z" fill="url(#color-1)" stroke="none" stroke-width="0"/><text transform="translate(119.03662,294.477) scale(0.78975,0.78975)" font-size="40" xml:space="preserve" fill="#ffffff" fill-rule="nonzero" stroke="none" stroke-width="1" stroke-linecap="butt" stroke-linejoin="miter" stroke-miterlimit="10" stroke-dasharray="" stroke-dashoffset="0" font-family="Handwriting" font-weight="normal" text-anchor="start" style="mix-blend-mode: normal"><tspan x="0" dy="0">No special changes</tspan></text><path d="M192.56773,216.16389v-72.32771h94.86461v72.32771z" fill="none" stroke="none" stroke-width="0"/><g fill="#ffffff" stroke="#ffffff" stroke-width="2.5"><path d="M279.69307,110.30086c8.20865,-0.26197 14.95612,2.44161 15.07092,6.03868c0.11479,3.59705 -6.44655,6.7254 -14.65523,6.98738c-8.20865,0.26197 -14.95612,-2.44161 -15.07092,-6.03868c-0.11479,-3.59703 6.44655,-6.7254 14.65523,-6.98738z" data-paper-data="{&quot;index&quot;:null}"/><path d="M269.80787,59.91307c10.07244,7.79188 15.94917,17.06692 13.12602,20.71635c-2.82315,3.64944 -13.27708,0.2913 -23.34953,-7.50058c-10.07244,-7.79188 -15.94917,-17.06692 -13.12602,-20.71635c2.82315,-3.64944 13.27708,-0.2913 23.34953,7.50058z" data-paper-data="{&quot;index&quot;:null}"/><path d="M235.10229,68.54573c8.02589,8.02589 -5.58364,9.58506 -11.84775,15.84917c-6.26411,6.26411 -17.52802,9.80864 -24.87181,1.15424c-9.36257,-11.03342 -16.92433,-20.93223 -8.53673,-31.55525c9.52728,-12.06648 37.23041,6.52595 45.2563,14.55182z" data-paper-data="{&quot;index&quot;:null}"/><path d="M203.20847,97.76607c0,-17.0716 21.17038,-30.9109 47.28532,-30.9109c26.11496,0 47.28532,13.83929 47.28532,30.9109c0,4.95964 -12.81942,3.17032 -16.39825,4.21802c-22.93488,6.7142 2.01037,20.67777 -16.51767,20.67777c-26.11496,0 -61.6547,-7.82419 -61.6547,-24.89579z" data-paper-data="{&quot;index&quot;:null}"/><path d="M235.28902,75.87785c0,0 -18.31777,-29.60619 -1.33668,-27.06792c4.47122,0.66835 36.09058,27.06792 36.09058,27.06792z" data-paper-data="{&quot;index&quot;:null}"/></g></g></g></svg>