<svg version="1.1" xmlns="http://www.w3.org/2000/svg" xmlns:xlink="http://www.w3.org/1999/xlink" width="77.35876" height="77.35876" viewBox="0,0,77.35876,77.35876"><defs><linearGradient x1="136.53959" y1="109.51982" x2="136.53959" y2="184.37859" gradientUnits="userSpaceOnUse" id="color-1"><stop offset="0" stop-color="#00ff04"/><stop offset="1" stop-color="#00ab03"/></linearGradient><linearGradient x1="120.35053" y1="157.49156" x2="99.9789" y2="158.49297" gradientUnits="userSpaceOnUse" id="color-2"><stop offset="0" stop-color="#de5656"/><stop offset="1" stop-color="#d72727"/></linearGradient><linearGradient x1="164.23591" y1="154.02258" x2="121.1481" y2="149.55384" gradientUnits="userSpaceOnUse" id="color-3"><stop offset="0" stop-color="#de5656"/><stop offset="1" stop-color="#d72727"/></linearGradient><linearGradient x1="142.59228" y1="151.78445" x2="126.41052" y2="145.42813" gradientUnits="userSpaceOnUse" id="color-4"><stop offset="0" stop-color="#de5656"/><stop offset="1" stop-color="#d72727"/></linearGradient></defs><g transform="translate(-97.86024,-108.26981)"><g data-paper-data="{&quot;isPaintingLayer&quot;:true}" fill-rule="nonzero" stroke-linecap="butt" stroke-linejoin="miter" stroke-miterlimit="10" stroke-dasharray="" stroke-dashoffset="0" style="mix-blend-mode: normal"><path d="M99.11024,184.37856v-74.85875h74.85876v74.85876z" fill="url(#color-1)" stroke="#000000" stroke-width="2.5"/><path d="M103.56195,170.84439v-50.94736h66.82227v50.94736z" fill="none" stroke="none" stroke-width="0"/><path d="M106.10872,176.05024v-60.27348h62.62937v60.27348z" fill="none" stroke="none" stroke-width="0"/><path d="M140.78997,138.49138c0,0 0.79453,-6.17548 0.2985,-9.12528c-0.48665,-2.89402 -3.24707,-8.40936 -3.24707,-8.40936l5.00445,-0.8939c0,0 3.38336,5.17874 4.37357,8.14689c0.9652,2.89322 1.49458,9.44297 1.49458,9.44297z" data-paper-data="{&quot;index&quot;:null}" fill="#5a2300" stroke="#3d2300" stroke-width="2.5"/><path d="M125.77691,157.22482c0.3196,6.5018 -9.40804,12.26347 -15.0335,12.54c-5.62547,0.27653 2.60012,-4.95299 2.06068,-11.75183c-0.51488,-6.48926 -8.84354,-11.51673 -3.21808,-11.79326c5.62546,-0.27652 15.87129,4.50329 16.1909,11.00509z" data-paper-data="{&quot;index&quot;:null}" fill="url(#color-2)" stroke="#b90000" stroke-width="2.5"/><path d="M121.1481,149.55383c0.62832,-6.05833 5.63024,-15.16577 13.85258,-16.73111c5.82419,-1.10877 6.43482,4.44063 9.16833,4.72413c4.05784,0.42084 4.59848,-6.42043 13.39479,-3.47664c6.4247,2.15009 5.40833,14.58264 4.8708,19.76553c-0.05445,0.52499 -1.65734,1.20761 -3.48166,1.05931c-2.66476,-0.21662 -5.88667,-1.38929 -6.14525,-0.66677c-2.83427,7.91918 8.38673,6.30349 8.03104,7.96332c-0.36318,1.69476 -5.33114,7.09532 -10.02461,7.07565c-6.59397,-0.02762 -7.06079,-2.97446 -9.59911,-3.23772c-4.17497,-0.433 -4.01762,5.70849 -14.3828,3.25996c-6.46118,-1.52632 -6.2136,-14.63019 -5.6841,-19.73566z" data-paper-data="{&quot;index&quot;:null}" fill="url(#color-3)" stroke="#b90000" stroke-width="2.5"/><path d="M157.05818,150.78797c-1.03475,-0.10732 -1.7866,-1.03316 -1.67928,-2.06792c0.10732,-1.03476 1.03315,-1.7866 2.06791,-1.67928c1.03476,0.10732 1.7866,1.03315 1.67928,2.06791c-0.10732,1.03476 -1.03315,1.78661 -2.06791,1.67929z" data-paper-data="{&quot;index&quot;:null}" fill="#000000" stroke="none" stroke-width="0"/><path d="M126.41053,145.42813c0.73135,-1.86185 4.94664,-1.94828 9.41511,-0.19305c4.46848,1.75524 7.498,4.68749 6.76665,6.54936c-0.73135,1.86185 -4.94664,1.94828 -9.41511,0.19305c-4.46848,-1.75524 -7.49801,-4.68749 -6.76666,-6.54936z" data-paper-data="{&quot;index&quot;:null}" fill="url(#color-4)" stroke="#b90000" stroke-width="2.5"/><path d="M131.37444,128.0489c-3.69307,-0.23687 -6.60903,-1.6426 -6.51301,-3.13979c0.09603,-1.49718 3.1677,-2.51887 6.86076,-2.282c3.69307,0.23687 6.51301,3.13979 6.51301,3.13979c0,0 -3.1677,2.51887 -6.86076,2.282z" data-paper-data="{&quot;index&quot;:null}" fill="#0e8400" stroke="#005604" stroke-width="2.5"/><path d="M99.73619,171.19756l5.98143,-57.67336l67.57832,7.0087l-5.98143,57.67336z" fill="none" stroke="none" stroke-width="0"/></g></g></svg>