<svg version="1.1" xmlns="http://www.w3.org/2000/svg" xmlns:xlink="http://www.w3.org/1999/xlink" width="96.02724" height="92.41504" viewBox="0,0,96.02724,92.41504"><defs><radialGradient cx="213.0698" cy="186.91842" r="24.24116" gradientUnits="userSpaceOnUse" id="color-1"><stop offset="0" stop-color="#86ecdb"/><stop offset="1" stop-color="#68c6b7"/></radialGradient><radialGradient cx="245.86146" cy="151.81723" r="18.16222" gradientUnits="userSpaceOnUse" id="color-2"><stop offset="0" stop-color="#86ecdb"/><stop offset="1" stop-color="#68c6b7"/></radialGradient><radialGradient cx="246.8635" cy="187.76591" r="37.95279" gradientUnits="userSpaceOnUse" id="color-3"><stop offset="0" stop-color="#86ecdb"/><stop offset="1" stop-color="#68c6b7"/></radialGradient><radialGradient cx="234.99728" cy="182.82169" r="16.20506" gradientUnits="userSpaceOnUse" id="color-4"><stop offset="0" stop-color="#86ecdb"/><stop offset="1" stop-color="#68c6b7"/></radialGradient></defs><g transform="translate(-191.72432,-133.79249)"><g data-paper-data="{&quot;isPaintingLayer&quot;:true}" fill-rule="nonzero" stroke-linejoin="miter" stroke-miterlimit="10" stroke-dasharray="" stroke-dashoffset="0" style="mix-blend-mode: normal"><path d="M197.13659,207.68173c-2.13915,-4.56759 -2.71232,-37.5116 -0.75154,-41.58524c6.65977,-13.83614 34.57086,18.78851 34.57086,18.78851c0,0 -26.8512,37.67521 -33.81932,22.79673z" data-paper-data="{&quot;index&quot;:null}" fill="url(#color-1)" stroke="#487f75" stroke-width="2.5" stroke-linecap="butt"/><path d="M242.98055,160.83571l-15.28131,-15.78235l26.80493,-2.50512l9.51951,18.53799z" data-paper-data="{&quot;index&quot;:null}" fill="url(#color-2)" stroke="#487f75" stroke-width="2.5" stroke-linecap="butt"/><path d="M208.91071,187.76591c0,-16.39503 16.99204,-29.68584 37.95279,-29.68584c20.96075,0 37.95279,13.29081 37.95279,29.68584c0,3.16152 -0.31547,5.75264 -0.96406,8.00162c-0.34374,1.1919 -6.10908,2.0424 -12.25592,1.13607c-7.16008,-1.05572 -14.83778,-3.85155 -15.06724,-1.31571c-0.4086,4.51548 2.22145,8.58641 6.2917,10.18621c5.62662,2.21153 13.18385,1.07007 11.8807,2.1695c-6.9317,5.84805 -16.83837,9.50814 -27.83796,9.50814c-20.96075,0 -37.95279,-13.29081 -37.95279,-29.68584z" data-paper-data="{&quot;index&quot;:null}" fill="url(#color-3)" stroke="#487f75" stroke-width="2.5" stroke-linecap="butt"/><path d="M224.26671,169.5307c11.34281,-7.09649 26.65631,16.39402 26.65631,16.39402c0,0 -23.85468,15.62556 -30.61681,4.10765c-2.58538,-4.40367 -1.53632,-17.06265 3.96049,-20.50168z" data-paper-data="{&quot;index&quot;:null}" fill="url(#color-4)" stroke="#487f75" stroke-width="2.5" stroke-linecap="round"/><path d="M274.41637,183.91289c-1.03767,0 -1.87885,-0.84118 -1.87885,-1.87885c0,-1.03767 0.84118,-1.87885 1.87885,-1.87885c1.03767,0 1.87885,0.84118 1.87885,1.87885c0,1.03767 -0.84118,1.87885 -1.87885,1.87885z" data-paper-data="{&quot;index&quot;:null}" fill="#000000" stroke="none" stroke-width="0.5" stroke-linecap="butt"/><path d="M262.39172,183.91289c-1.03767,0 -1.87885,-0.84118 -1.87885,-1.87885c0,-1.03767 0.84118,-1.87885 1.87885,-1.87885c1.03767,0 1.87885,0.84118 1.87885,1.87885c0,1.03767 -0.84118,1.87885 -1.87885,1.87885z" data-paper-data="{&quot;index&quot;:null}" fill="#000000" stroke="none" stroke-width="0.5" stroke-linecap="butt"/><path d="M191.72432,226.20753v-92.41504h96.02724v92.41504z" fill="none" stroke="none" stroke-width="0" stroke-linecap="butt"/></g></g></svg>