<svg version="1.1" xmlns="http://www.w3.org/2000/svg" xmlns:xlink="http://www.w3.org/1999/xlink" width="91.83433" height="75.80112" viewBox="0,0,91.83433,75.80112"><g transform="translate(-193.82078,-142.09945)"><g data-paper-data="{&quot;isPaintingLayer&quot;:true}" fill-rule="nonzero" stroke-linecap="butt" stroke-linejoin="miter" stroke-miterlimit="10" stroke-dasharray="" stroke-dashoffset="0" style="mix-blend-mode: normal"><path d="M193.82078,217.90057v-75.80112h91.83433v75.80112z" fill="none" stroke="none" stroke-width="0"/><path d="M201.09533,205.72771v-30.02749c0,0 30.96585,0.11215 30.96585,13.7626c0,13.65045 -30.96585,16.26489 -30.96585,16.26489z" data-paper-data="{&quot;index&quot;:null}" fill="#6e544d" stroke="#58362e" stroke-width="2.5"/><path d="M228.81135,187.7206l-9.52893,-10.35753l9.52894,-12.84334h25.68669l24.40662,14.20261c0,0 -6.03487,4.29125 -9.92155,5.72421c-4.22119,1.55628 -14.48507,3.27408 -14.48507,3.27408z" data-paper-data="{&quot;index&quot;:null}" fill="#6e544d" stroke="#58362e" stroke-width="2.5"/><path d="M229.88611,210.26102l-9.52893,-10.35753l9.52894,-12.84334h25.68669c0,0 7.91211,6.14759 11.6772,6.21247c3.44605,0.05936 8.5091,-0.76786 8.5091,-0.76786l-20.18629,17.7563z" data-paper-data="{&quot;index&quot;:null}" fill="#6e544d" stroke="#58362e" stroke-width="2.5"/><path d="M265.21651,181.04933c-0.88128,0 -1.59568,-0.7144 -1.59568,-1.59568c0,-0.88128 0.7144,-1.59568 1.59568,-1.59568c0.88128,0 1.59568,0.7144 1.59568,1.59568c0,0.88128 -0.7144,1.59568 -1.59568,1.59568z" data-paper-data="{&quot;index&quot;:null}" fill="#000000" stroke="none" stroke-width="0.5"/><path d="M257.70965,181.98769c-0.88128,0 -1.59568,-0.7144 -1.59568,-1.59568c0,-0.88128 0.7144,-1.59568 1.59568,-1.59568c0.88128,0 1.59568,0.7144 1.59568,1.59568c0,0.88128 -0.7144,1.59568 -1.59568,1.59568z" data-paper-data="{&quot;index&quot;:null}" fill="#000000" stroke="none" stroke-width="0.5"/><path d="M231.32628,183.02948c5.96482,-2.29652 11.88204,-1.34844 13.21651,2.11761c1.33446,3.46603 -2.41917,8.13752 -8.38399,10.43404c-5.96483,2.29652 -11.88205,1.34845 -13.21652,-2.1176c-1.33446,-3.46604 2.41918,-8.13752 8.384,-10.43404z" data-paper-data="{&quot;index&quot;:null}" fill="#6e544d" stroke="#58362e" stroke-width="2.5"/><path d="M233.6251,163.50156l-8.44524,-13.44982l24.08456,-0.31279l4.37901,13.76261z" data-paper-data="{&quot;index&quot;:null}" fill="#6e544d" stroke="#58362e" stroke-width="2.5"/></g></g></svg>