<svg version="1.1" xmlns="http://www.w3.org/2000/svg" xmlns:xlink="http://www.w3.org/1999/xlink" width="100.10575" height="51.36316" viewBox="0,0,100.10575,51.36316"><defs><linearGradient x1="219.41267" y1="174.49551" x2="200.34428" y2="194.31239" gradientUnits="userSpaceOnUse" id="color-1"><stop offset="0" stop-color="#a289e3"/><stop offset="1" stop-color="#7f67be"/></linearGradient><linearGradient x1="257.89054" y1="164.31656" x2="245.34462" y2="177.35494" gradientUnits="userSpaceOnUse" id="color-2"><stop offset="0" stop-color="#a289e3"/><stop offset="1" stop-color="#7f67be"/></linearGradient><linearGradient x1="274.32371" y1="163.75591" x2="233.98269" y2="205.68042" gradientUnits="userSpaceOnUse" id="color-3"><stop offset="0" stop-color="#7f67be"/><stop offset="1" stop-color="#d2aed5"/></linearGradient><linearGradient x1="257.56346" y1="181.83473" x2="243.14363" y2="196.82059" gradientUnits="userSpaceOnUse" id="color-4"><stop offset="0" stop-color="#a289e3"/><stop offset="1" stop-color="#7f67be"/></linearGradient></defs><g transform="translate(-196.23177,-155.83541)"><g data-paper-data="{&quot;isPaintingLayer&quot;:true}" fill-rule="nonzero" stroke-linecap="butt" stroke-linejoin="miter" stroke-miterlimit="10" stroke-dasharray="" stroke-dashoffset="0" style="mix-blend-mode: normal"><path d="M218.21445,191.85035l-7.95627,7.17373l-10.71866,-5.48604l2.61279,-17.21426l6.68288,-6.2845l14.08238,7.82876z" data-paper-data="{&quot;index&quot;:null}" fill="url(#color-1)" stroke="#503e87" stroke-width="2.5"/><path d="M245.34462,177.35494l-0.30858,-16.03087l15.49535,5.5336l0.8441,10.18871z" data-paper-data="{&quot;index&quot;:null}" fill="url(#color-2)" stroke="#503e87" stroke-width="2.5"/><path d="M229.85635,201.70991l-15.51501,-14.92901l14.92901,-15.51501l53.00209,0.38606l4.40259,4.74052c0,0 -0.70639,2.16922 -2.44723,3.71466c-2.88284,2.55926 -7.36072,5.07747 -7.02479,5.49071c3.59182,4.41836 14.46025,-3.7416 14.46025,-3.7416l1.36649,1.7363l-15.26518,15.89926z" data-paper-data="{&quot;index&quot;:null}" fill="url(#color-3)" stroke="#503e87" stroke-width="2.5"/><path d="M239.39717,193.21563l-0.1415,-7.35142l22.05426,-0.42452l0.14149,7.35143z" data-paper-data="{&quot;index&quot;:null}" fill="url(#color-4)" stroke="#503e87" stroke-width="2.5"/><path d="M279.24813,179.78069c-0.65785,0.68367 -1.74537,0.70461 -2.42905,0.04676c-0.68368,-0.65785 -0.7046,-1.74538 -0.04676,-2.42905c0.65785,-0.68367 1.74537,-0.70461 2.42905,-0.04676c0.68368,0.65785 0.7046,1.74538 0.04676,2.42905z" data-paper-data="{&quot;index&quot;:null}" fill="#000000" stroke="none" stroke-width="0.5"/><path d="M196.23177,207.19857v-51.36316h100.10575v51.36316z" fill="none" stroke="none" stroke-width="0"/></g></g></svg>