<svg version="1.1" xmlns="http://www.w3.org/2000/svg" xmlns:xlink="http://www.w3.org/1999/xlink" width="102.72632" height="98.86213" viewBox="0,0,102.72632,98.86213"><defs><radialGradient cx="213.45439" cy="171.38687" r="7.14368" gradientUnits="userSpaceOnUse" id="color-1"><stop offset="0" stop-color="#d9d1c4"/><stop offset="1" stop-color="#c4b7a5"/></radialGradient><radialGradient cx="248.14718" cy="161.02718" r="33.487" gradientUnits="userSpaceOnUse" id="color-2"><stop offset="0" stop-color="#d9d1c4"/><stop offset="1" stop-color="#c4b7a5"/></radialGradient><radialGradient cx="215.31245" cy="129.48443" r="6.61544" gradientUnits="userSpaceOnUse" id="color-3"><stop offset="0" stop-color="#d9d1c4"/><stop offset="1" stop-color="#c4b7a5"/></radialGradient><radialGradient cx="233.06079" cy="137.78785" r="16.47302" gradientUnits="userSpaceOnUse" id="color-4"><stop offset="0" stop-color="#d9d1c4"/><stop offset="1" stop-color="#c4b7a5"/></radialGradient><radialGradient cx="249.37008" cy="124.7224" r="6.74355" gradientUnits="userSpaceOnUse" id="color-5"><stop offset="0" stop-color="#d9d1c4"/><stop offset="1" stop-color="#c4b7a5"/></radialGradient><radialGradient cx="267.00528" cy="134.04396" r="16.38845" gradientUnits="userSpaceOnUse" id="color-6"><stop offset="0" stop-color="#d9d1c4"/><stop offset="1" stop-color="#c4b7a5"/></radialGradient><radialGradient cx="248.78808" cy="196.92023" r="7.60621" gradientUnits="userSpaceOnUse" id="color-7"><stop offset="0" stop-color="#d9d1c4"/><stop offset="1" stop-color="#c4b7a5"/></radialGradient><radialGradient cx="268.77323" cy="185.68778" r="17.72266" gradientUnits="userSpaceOnUse" id="color-8"><stop offset="0" stop-color="#d9d1c4"/><stop offset="1" stop-color="#c4b7a5"/></radialGradient><radialGradient cx="210.12634" cy="201.74423" r="6.65344" gradientUnits="userSpaceOnUse" id="color-9"><stop offset="0" stop-color="#d9d1c4"/><stop offset="1" stop-color="#c4b7a5"/></radialGradient><radialGradient cx="233.56687" cy="187.39435" r="19.76469" gradientUnits="userSpaceOnUse" id="color-10"><stop offset="0" stop-color="#d9d1c4"/><stop offset="1" stop-color="#c4b7a5"/></radialGradient></defs><g transform="translate(-193.35916,-113.88212)"><g data-paper-data="{&quot;isPaintingLayer&quot;:true}" fill-rule="nonzero" stroke-linecap="butt" stroke-linejoin="miter" stroke-miterlimit="10" stroke-dasharray="" stroke-dashoffset="0" style="mix-blend-mode: normal"><path d="M209.21376,177.88245l-2.90305,-12.99119l14.28736,5.7585z" data-paper-data="{&quot;index&quot;:null}" fill="url(#color-1)" stroke="#7f726d" stroke-width="2.5"/><path d="M258.82419,148.21296c12.5976,0 22.80999,4.56298 22.80999,10.19169c0,5.62871 -10.21238,10.19169 -22.80999,10.19169c-12.5976,0 -44.164,9.02594 -44.164,3.39723c0,-5.62871 31.5664,-23.78062 44.164,-23.78062z" data-paper-data="{&quot;index&quot;:null}" fill="url(#color-2)" stroke="#7f726d" stroke-width="2.5"/><path d="M208.75555,136.09989l1.46357,-13.2309l11.65023,10.07775z" data-paper-data="{&quot;index&quot;:null}" fill="url(#color-3)" stroke="#7f726d" stroke-width="2.5"/><path d="M249.5338,141.63572c0,3.90563 -2.62579,9.77571 -8.94374,9.77571c-6.31795,0 -23.2953,-10.65393 -23.2953,-14.55956c0,-3.90563 -2.99004,-12.68763 3.32791,-12.68763c6.31795,0 28.91113,13.56584 28.91113,17.47148z" data-paper-data="{&quot;index&quot;:null}" fill="url(#color-4)" stroke="#7f726d" stroke-width="2.5"/><path d="M242.62653,130.90904l4.61924,-12.48445l8.86785,12.59564z" data-paper-data="{&quot;index&quot;:null}" fill="url(#color-5)" stroke="#7f726d" stroke-width="2.5"/><path d="M250.86854,127.90933c1.57157,-4.13391 10.07025,-4.73853 18.98232,-1.35047c8.91207,3.38805 14.86274,9.48582 13.29116,13.61973c-1.57156,4.13391 -10.07024,4.73856 -18.98231,1.35049c-8.91207,-3.38805 -14.86274,-9.48583 -13.29116,-13.61974z" data-paper-data="{&quot;index&quot;:null}" fill="url(#color-6)" stroke="#7f726d" stroke-width="2.5"/><path d="M254.81967,195.34674l-9.64011,9.1797l-2.42308,-15.21241z" data-paper-data="{&quot;index&quot;:null}" fill="url(#color-7)" stroke="#7f726d" stroke-width="2.5"/><path d="M263.69483,177.68545c9.37482,-5.9494 19.2483,-7.18959 22.05301,-2.77003c2.80471,4.41956 -2.5214,12.82527 -11.89623,18.77467c-9.37482,5.9494 -19.24828,7.18959 -22.05299,2.77003c-2.80471,-4.41956 2.52138,-12.82527 11.89621,-18.77467z" data-paper-data="{&quot;index&quot;:null}" fill="url(#color-8)" stroke="#7f726d" stroke-width="2.5"/><path d="M203.47288,195.64011l13.3069,-0.35343l-8.39579,12.91509z" data-paper-data="{&quot;index&quot;:null}" fill="url(#color-9)" stroke="#7f726d" stroke-width="2.5"/><path d="M214.29882,196.85322c-2.42088,-4.93141 4.24322,-13.16399 14.88468,-18.38797c10.64145,-5.22399 21.23057,-5.46118 23.65144,-0.52976c2.42088,4.93141 -4.24324,13.164 -14.88469,18.38799c-10.64147,5.22399 -21.23057,5.46118 -23.65144,0.52976z" data-paper-data="{&quot;index&quot;:null}" fill="url(#color-10)" stroke="#7f726d" stroke-width="2.5"/><path d="M276.74633,139.32183c-1.00512,0 -1.81995,-0.81481 -1.81995,-1.81995c0,-1.00512 0.81483,-1.81995 1.81995,-1.81995c1.00512,0 1.81995,0.81481 1.81995,1.81995c0,1.00513 -0.81483,1.81995 -1.81995,1.81995z" data-paper-data="{&quot;index&quot;:null}" fill="#000000" stroke="none" stroke-width="0.5"/><path d="M242.89534,145.50964c-1.00512,0 -1.81995,-0.81481 -1.81995,-1.81995c0,-1.00513 0.81483,-1.81995 1.81995,-1.81995c1.00512,0 1.81995,0.81481 1.81995,1.81995c0,1.00513 -0.81483,1.81995 -1.81995,1.81995z" data-paper-data="{&quot;index&quot;:null}" fill="#000000" stroke="none" stroke-width="0.5"/><path d="M274.1984,159.34123c-1.00512,0 -1.81995,-0.81481 -1.81995,-1.81995c0,-1.00513 0.81483,-1.81995 1.81995,-1.81995c1.00512,0 1.81995,0.81481 1.81995,1.81995c0,1.00513 -0.81483,1.81995 -1.81995,1.81995z" data-paper-data="{&quot;index&quot;:null}" fill="#000000" stroke="none" stroke-width="0.5"/><path d="M280.38622,180.4526c-1.00512,0 -1.81995,-0.81481 -1.81995,-1.81995c0,-1.00513 0.81483,-1.81995 1.81995,-1.81995c1.00512,0 1.81995,0.81481 1.81995,1.81995c0,1.00513 -0.81483,1.81995 -1.81995,1.81995z" data-paper-data="{&quot;index&quot;:null}" fill="#000000" stroke="none" stroke-width="0.5"/><path d="M245.07928,183.36451c-1.00512,0 -1.81995,-0.81481 -1.81995,-1.81995c0,-1.00513 0.81483,-1.81995 1.81995,-1.81995c1.00512,0 1.81995,0.81481 1.81995,1.81995c0,1.00513 -0.81483,1.81995 -1.81995,1.81995z" data-paper-data="{&quot;index&quot;:null}" fill="#000000" stroke="none" stroke-width="0.5"/><path d="M193.35916,212.74425v-98.86213h102.72632v98.86213z" fill="none" stroke="none" stroke-width="0"/></g></g></svg>