<svg version="1.1" xmlns="http://www.w3.org/2000/svg" xmlns:xlink="http://www.w3.org/1999/xlink" width="102.5" height="400.95363" viewBox="0,0,102.5,400.95363"><defs><linearGradient x1="424.66391" y1="65.77502" x2="424.66391" y2="92.44169" gradientUnits="userSpaceOnUse" id="color-1"><stop offset="0" stop-color="#30d932"/><stop offset="1" stop-color="#19a61b"/></linearGradient></defs><g transform="translate(-373.41391,-64.52502)"><g data-paper-data="{&quot;isPaintingLayer&quot;:true}" fill-rule="nonzero" stroke-linecap="butt" stroke-linejoin="miter" stroke-miterlimit="10" stroke-dasharray="" stroke-dashoffset="0" style="mix-blend-mode: normal"><path d="M374.66391,92.44169v-26.66667h100v26.66667z" fill="url(#color-1)" stroke="#000000" stroke-width="2.5"/><text transform="translate(409.77502,85.33058) scale(0.5,0.5)" font-size="40" xml:space="preserve" fill="#ffffff" fill-rule="nonzero" stroke="none" stroke-width="1" stroke-linecap="butt" stroke-linejoin="miter" stroke-miterlimit="10" stroke-dasharray="" stroke-dashoffset="0" font-family="Handwriting" font-weight="normal" text-anchor="start" style="mix-blend-mode: normal"><tspan x="0" dy="0">Info</tspan></text><path d="M430.09624,349.88987c-0.24319,1.48016 -1.72334,1.23697 -1.72334,1.23697l-1.63747,-0.30084c-5.60768,-2.16412 -11.10949,-4.84328 -16.48574,-7.5314c0,0 -1.34164,-0.67082 -0.67082,-2.01246c0.67082,-1.34164 2.01246,-0.67082 2.01246,-0.67082c5.29028,2.64514 10.70253,5.292 16.22269,7.41529l1.04525,0.13993c0,0 1.48016,0.24319 1.23697,1.72334z" fill="none" stroke="none" stroke-width="0.5"/><path d="M438.94745,463.97865c0,1.5 -1.5,1.5 -1.5,1.5l-2.64155,-0.52517c-1.2916,-1.51827 -2.20772,-3.32209 -3.40265,-4.91756c-4.48323,-5.98599 -11.43968,-11.42431 -17.37832,-15.87829c0,0 -1.2,-0.9 -0.3,-2.1c0.9,-1.2 2.1,-0.3 2.1,-0.3c6.17613,4.63209 13.28202,10.26833 17.97514,16.47405c1.16496,1.54043 2.02666,3.30779 3.28593,4.77214l0.36146,-0.52517c0,0 1.5,0 1.5,1.5z" fill="none" stroke="none" stroke-width="0.5"/></g></g></svg>