<svg version="1.1" xmlns="http://www.w3.org/2000/svg" xmlns:xlink="http://www.w3.org/1999/xlink" width="77.35876" height="77.35876" viewBox="0,0,77.35876,77.35876"><defs><linearGradient x1="136.53958" y1="189.32214" x2="136.53958" y2="264.18084" gradientUnits="userSpaceOnUse" id="color-1"><stop offset="0" stop-color="#00ff04"/><stop offset="1" stop-color="#00ab03"/></linearGradient></defs><g transform="translate(-97.86022,-188.07205)"><g data-paper-data="{&quot;isPaintingLayer&quot;:true}" fill-rule="nonzero" stroke-linejoin="miter" stroke-miterlimit="10" stroke-dasharray="" stroke-dashoffset="0" style="mix-blend-mode: normal"><path d="M99.11022,264.1808v-74.85875h74.85876v74.85876z" fill="url(#color-1)" stroke="#000000" stroke-width="2.5" stroke-linecap="butt"/><path d="M97.94588,243.55129l19.09508,-52.43208l57.5391,20.955l-19.09508,52.43208z" fill="none" stroke="none" stroke-width="0" stroke-linecap="butt"/><path d="M99.05927,254.2189v-57.91547h75.37741v57.91547z" fill="none" stroke="none" stroke-width="0" stroke-linecap="butt"/><path d="M163.83516,228.81302c-0.21419,2.80245 -1.37698,6.92181 -4.26788,9.19586c-2.11759,1.66573 -4.64031,2.64763 -8.25085,3.09395c-3.05422,0.37755 -7.00633,0.37186 -10.92106,0.07267c-2.30087,-0.17585 -4.98472,-2.22862 -7.5134,-4.25137c-2.68122,-2.14477 -5.21411,-4.22968 -7.87784,-3.06071c-3.98274,1.74781 -8.00283,15.35273 -10.05999,14.02823c-3.64997,-2.35003 -0.763,-17.83712 -0.54359,-20.70799c0.18657,-2.4412 -4.73617,-18.24923 -1.68706,-20.82748c1.84606,-1.56098 8.62958,11.53927 12.32665,12.45647c3.54865,0.88038 5.11572,-0.25105 8.08561,-1.83175c2.62492,-1.39708 4.56733,-3.02704 7.39406,-2.811c0.79759,0.06096 3.65195,-0.43986 4.59404,-0.52222c0.8409,-0.07351 1.87409,0.06174 2.54518,0.08549c1.84069,0.06513 2.96134,0.58838 4.57653,0.96916c2.87191,0.67704 5.31551,2.22789 7.07532,3.46749c4.01723,2.82971 4.79299,7.12741 4.52429,10.64322z" fill="#2157c3" stroke="#1e489d" stroke-width="2.5" stroke-linecap="butt"/><path d="M156.4794,224.54267c0,-1.21781 0.98723,-2.20504 2.20504,-2.20504c1.21781,0 2.20504,0.98723 2.20504,2.20504c0,1.21781 -0.98723,2.20504 -2.20504,2.20504c-1.21781,0 -2.20504,-0.98723 -2.20504,-2.20504z" fill="#000000" stroke="none" stroke-width="0" stroke-linecap="butt"/><path d="M161.25365,231.70132c0,0 -1.11568,1.76414 -4.34395,1.37007c-2.65132,-0.32364 -3.24078,-2.85001 -3.24078,-2.85001" fill="none" stroke="#000000" stroke-width="2.5" stroke-linecap="round"/></g></g></svg>