<svg version="1.1" xmlns="http://www.w3.org/2000/svg" xmlns:xlink="http://www.w3.org/1999/xlink" width="28.5" height="61.57918" viewBox="0,0,28.5,61.57918"><defs><linearGradient x1="386.54505" y1="329.28613" x2="386.54505" y2="355.28613" gradientUnits="userSpaceOnUse" id="color-1"><stop offset="0" stop-color="#30d932"/><stop offset="1" stop-color="#19a61b"/></linearGradient></defs><g transform="translate(-372.29505,-328.03613)"><g data-paper-data="{&quot;isPaintingLayer&quot;:true}" fill-rule="nonzero" stroke-linejoin="miter" stroke-miterlimit="10" stroke-dasharray="" stroke-dashoffset="0" style="mix-blend-mode: normal"><path d="M373.54505,355.28613v-26h26v26z" fill="url(#color-1)" stroke="#000000" stroke-width="2.5" stroke-linecap="butt"/><path d="M376.28923,346.18005v-7.30435h4.08696l5.68421,-4.20595l0.08695,15.5225l-5.77117,-4.0122z" fill="#ffffff" stroke="none" stroke-width="0" stroke-linecap="butt"/><path d="M388.12474,339.70629c0,0 1.3806,0.37059 1.41905,2.52961c0.03587,2.01412 -1.41905,2.7764 -1.41905,2.7764" fill="none" stroke="#ffffff" stroke-width="2" stroke-linecap="round"/><path d="M390.59513,337.91576c0,0 2.28058,0.61217 2.34409,4.17859c0.05925,3.32708 -2.34409,4.58627 -2.34409,4.58627" fill="none" stroke="#ffffff" stroke-width="2" stroke-linecap="round"/><path d="M393.23805,335.89348c0,0 3.16278,1.51155 3.24468,6.11007c0.0764,4.28991 -3.18912,6.74684 -3.18912,6.74684" fill="none" stroke="#ffffff" stroke-width="2" stroke-linecap="round"/><path d="M397.86058,330.81771l-22.42105,22.42105" fill="none" stroke="#ff0000" stroke-width="2.5" stroke-linecap="round"/><path d="M395.49431,388.11531c0,1.5 -1.5,1.5 -1.5,1.5c-5.12915,0 -11.02768,0 -16.15683,0c0,0 -1.5,0 -1.5,-1.5c0,-1.5 1.5,-1.5 1.5,-1.5c5.12915,0 10.2583,0 15.38745,0h0.76937c0,0 1.5,0 1.5,1.5z" fill="none" stroke="none" stroke-width="0.5" stroke-linecap="butt"/></g></g></svg>