<svg version="1.1" xmlns="http://www.w3.org/2000/svg" xmlns:xlink="http://www.w3.org/1999/xlink" width="93.61572" height="70.73324" viewBox="0,0,93.61572,70.73324"><g transform="translate(-193.19214,-144.63338)"><g data-paper-data="{&quot;isPaintingLayer&quot;:true}" fill-rule="nonzero" stroke-linejoin="miter" stroke-miterlimit="10" stroke-dasharray="" stroke-dashoffset="0" style="mix-blend-mode: normal"><path d="M280.2437,182.6405c-0.33106,4.33169 -2.12837,10.69891 -6.59678,14.21384c-3.27312,2.57469 -7.17243,4.09238 -12.75318,4.78226c-4.72085,0.58358 -10.82954,0.57478 -16.88046,0.11232c-3.55641,-0.27181 -7.70477,-3.44474 -11.6133,-6.57125c-4.14431,-3.31513 -8.05934,-6.53772 -12.17661,-4.73088c-6.15604,2.70155 -12.3698,23.73041 -15.54953,21.68315c-5.64168,-3.6324 -1.17936,-27.57047 -0.84022,-32.00792c0.28838,-3.77331 -7.3206,-28.20746 -2.60765,-32.19261c2.85341,-2.41277 13.33856,17.83601 19.05305,19.25371c5.48508,1.36078 7.90726,-0.38804 12.49776,-2.83129c4.05728,-2.15944 7.05963,-4.67883 11.42884,-4.34491c1.23282,0.09422 5.64475,-0.67988 7.10091,-0.80718c1.29977,-0.11363 2.89674,0.09543 3.93403,0.13213c2.84512,0.10067 4.57728,0.90945 7.07384,1.498c4.43906,1.04649 8.21607,3.4436 10.93617,5.35963c6.20935,4.37382 7.40844,11.0167 6.9931,16.45101z" fill="#2157c3" stroke="#1e489d" stroke-width="2.5" stroke-linecap="butt"/><path d="M268.87404,176.03988c0,-1.88234 1.52594,-3.40828 3.40828,-3.40828c1.88234,0 3.40828,1.52594 3.40828,3.40828c0,1.88234 -1.52594,3.40828 -3.40828,3.40828c-1.88234,0 -3.40828,-1.52594 -3.40828,-3.40828z" fill="#000000" stroke="none" stroke-width="0" stroke-linecap="butt"/><path d="M276.25351,187.10487c0,0 -1.72448,2.7268 -6.71435,2.11767c-4.09809,-0.50025 -5.0092,-4.4052 -5.0092,-4.4052" fill="none" stroke="#000000" stroke-width="2.5" stroke-linecap="round"/><path d="M193.19214,215.36662v-70.73324h93.61572v70.73324z" fill="none" stroke="none" stroke-width="0" stroke-linecap="butt"/></g></g></svg>