<svg version="1.1" xmlns="http://www.w3.org/2000/svg" xmlns:xlink="http://www.w3.org/1999/xlink" width="117.46188" height="119.03743" viewBox="0,0,117.46188,119.03743"><defs><linearGradient x1="226.44474" y1="189.07394" x2="211.65767" y2="203.48906" gradientUnits="userSpaceOnUse" id="color-1"><stop offset="0" stop-color="#355ab1"/><stop offset="1" stop-color="#6e8fe0"/></linearGradient><linearGradient x1="232.25026" y1="139.36408" x2="233.30006" y2="152.85046" gradientUnits="userSpaceOnUse" id="color-2"><stop offset="0" stop-color="#355ab1"/><stop offset="1" stop-color="#6e8fe0"/></linearGradient><linearGradient x1="243.2631" y1="138.98104" x2="247.44003" y2="192.64061" gradientUnits="userSpaceOnUse" id="color-3"><stop offset="0" stop-color="#355ab1"/><stop offset="1" stop-color="#6e8fe0"/></linearGradient><linearGradient x1="237.19315" y1="158.89342" x2="238.31618" y2="173.32058" gradientUnits="userSpaceOnUse" id="color-4"><stop offset="0" stop-color="#355ab1"/><stop offset="1" stop-color="#6e8fe0"/></linearGradient></defs><g transform="translate(-175.85126,-106.82842)"><g data-paper-data="{&quot;isPaintingLayer&quot;:true}" fill-rule="nonzero" stroke-linecap="butt" stroke-linejoin="miter" stroke-miterlimit="10" stroke-dasharray="" stroke-dashoffset="0" style="mix-blend-mode: normal"><path d="M217.85803,197.78291c-6.70169,-5.17281 -16.21564,-1.61639 -13.23708,-5.89213c2.97857,-4.27574 13.12172,-8.52401 19.82342,-3.35122c6.70168,5.17281 8.3034,15.69025 5.32483,19.96599c-2.97857,4.27574 -5.20949,-5.54984 -11.91119,-10.72264z" data-paper-data="{&quot;index&quot;:null}" fill="url(#color-1)" stroke="#213f7d" stroke-width="2.5"/><path d="M233.60098,139.78129c6.90622,0.90159 12.13509,4.4647 11.67901,7.95843c-0.4561,3.49375 -6.42443,5.59512 -13.33065,4.69353c-6.90622,-0.90159 -12.13509,-4.4647 -11.67901,-7.95843c0.4561,-3.49375 6.42443,-5.59512 13.33065,-4.69353z" data-paper-data="{&quot;index&quot;:null}" fill="url(#color-2)" stroke="#213f7d" stroke-width="2.5"/><path d="M221.99535,192.59556c-7.2846,-6.23241 -3.12837,-23.04497 9.28319,-37.5519c12.41156,-14.50693 28.37844,-21.21476 35.66304,-14.98234c3.72778,3.18934 8.07915,7.87218 6.19808,15.03779c-0.18418,0.70162 -0.63973,3.46031 -7.85409,4.11569c-4.38995,0.39881 -9.05685,-1.60443 -9.12391,1.87246c-0.05132,2.66176 2.06744,4.29488 4.50689,5.12285c3.29779,1.11929 7.19121,0.88955 7.19121,0.88955c0,0 -6.95493,8.91741 -10.20136,10.51358c-17.133,8.42368 -28.37844,21.21476 -35.66304,14.98234z" data-paper-data="{&quot;index&quot;:null}" fill="url(#color-3)" stroke="#213f7d" stroke-width="2.5"/><path d="M234.47867,161.15858c4.78265,-3.16624 10.12645,-3.5175 11.93573,-0.78455c1.80927,2.73294 -0.60111,7.51516 -5.38375,10.68139c-4.78265,3.16624 -10.12645,3.5175 -11.93573,0.78455c-1.80927,-2.73294 0.60111,-7.51516 5.38375,-10.68139z" data-paper-data="{&quot;index&quot;:null}" fill="url(#color-4)" stroke="#213f7d" stroke-width="2.5"/><path d="M266.43988,152.26672c-0.81692,0.06359 -1.53071,-0.5471 -1.59431,-1.36402c-0.06359,-0.81692 0.5471,-1.53071 1.36402,-1.59431c0.81692,-0.06359 1.53071,0.5471 1.59431,1.36402c0.06359,0.81692 -0.5471,1.53071 -1.36402,1.59431z" data-paper-data="{&quot;index&quot;:null}" fill="#000000" stroke="none" stroke-width="0.5"/><path d="M260.27344,153.34198c-0.81692,0.06359 -1.53071,-0.5471 -1.5943,-1.36403c-0.06359,-0.81692 0.5471,-1.53071 1.36402,-1.59431c0.81692,-0.06359 1.53071,0.5471 1.59431,1.36403c0.06359,0.81692 -0.5471,1.53071 -1.36403,1.59431z" data-paper-data="{&quot;index&quot;:null}" fill="#000000" stroke="none" stroke-width="0.5"/><path d="M233.04559,225.86585l-57.19433,-49.74554l60.26755,-69.29189l57.19433,49.74554z" fill="none" stroke="none" stroke-width="0"/></g></g></svg>