<svg version="1.1" xmlns="http://www.w3.org/2000/svg" xmlns:xlink="http://www.w3.org/1999/xlink" width="192.42857" height="960.99326" viewBox="0,0,192.42857,960.99326"><g transform="translate(-143.78571,310.78617)"><g data-paper-data="{&quot;isPaintingLayer&quot;:true}" fill-rule="nonzero" stroke="none" stroke-linecap="butt" stroke-linejoin="miter" stroke-miterlimit="10" stroke-dasharray="" stroke-dashoffset="0" style="mix-blend-mode: normal"><g data-paper-data="{&quot;index&quot;:null}" stroke-width="1"><path d="M294.97227,598.85777c-0.15843,31.5375 -1.36484,52.18295 -9.75171,51.32346c0,0 -38.32527,-27.62468 -35.76419,-61.84399c2.56108,-34.21931 30.13537,-46.14283 23.16544,-72.00915c-6.96993,-25.86632 -39.32751,-32.21949 -43.2742,-62.03165c-3.94669,-29.81217 29.35002,-34.22016 23.16544,-72.00915c-6.18458,-37.789 -44.82754,-29.12762 -41.4811,-75.2696c3.34645,-46.14198 51.11674,-45.37484 17.59679,-78.36316c0,0 42.82858,14.02796 24.15457,57.4716c-18.67401,43.44365 39.56727,51.88558 44.2828,87.50531c4.71552,35.61974 -37.1896,55.3498 -19.06584,76.19391c18.12376,20.84412 32.56346,34.69077 36.83505,75.88467c3.68491,33.78639 -19.4026,49.8434 -19.86305,73.14779z" fill="#3aaa26"/><path d="M285.22053,650.18128c0,0 -0.97935,-1.44618 -3.42777,-5.06161c-2.00999,-3.27951 -4.56091,-7.66929 -7.31686,-13.60774c-2.75595,-5.93845 -6.05283,-12.98716 -8.05731,-22.17676c-1.00224,-4.5948 -1.66856,-9.62802 -1.17337,-14.81501c0.46681,-2.42553 1.26953,-5.2895 2.51068,-7.81755c1.24116,-2.52805 2.92073,-4.72018 4.16188,-7.24823c5.45428,-9.3891 11.09071,-20.37815 15.02469,-32.32369c1.94137,-6.16635 3.05713,-12.61737 3.39855,-18.96587c0.34142,-6.3485 -1.25301,-12.44073 -5.17047,-18.22542c-3.42778,-5.0616 -8.84267,-10.2541 -13.81913,-15.11068c-4.97647,-4.85658 -10.77853,-9.99783 -15.47033,-15.68c-5.07897,-5.63093 -9.48611,-12.13871 -10.8984,-19.83087l-0.35879,-2.71019c-0.10251,-0.77433 0.13089,-1.98711 0.02838,-2.76145c-0.10251,-0.77433 -0.25628,-1.93585 0.02838,-2.76145l0.80273,-2.86396c0.64896,-4.02548 2.22602,-6.99195 3.70058,-10.73277c5.61356,-14.13766 12.54239,-27.26759 16.99443,-41.2515c1.83885,-6.9407 3.6777,-13.8814 2.41918,-20.41205l-0.30753,-2.32302c-0.48968,-0.72308 -0.97937,-1.44617 -1.08188,-2.22051c-0.59219,-1.49743 -1.5203,-2.55642 -2.49967,-4.0026c-0.54094,-1.11026 -2.29464,-2.45391 -3.27401,-3.90009l-3.66118,-3.84884c-9.56575,-9.76442 -19.51866,-19.47758 -26.52799,-30.7623c-3.09185,-5.50002 -5.89906,-11.82566 -5.94481,-18.1229c-0.04574,-6.29726 2.33404,-12.12769 4.81634,-17.18379c4.57742,-10.06094 9.69579,-19.01163 12.10396,-27.60352c2.79534,-8.64314 0.9959,-16.28405 -1.7088,-21.83534c-3.09186,-5.50003 -6.41712,-9.7873 -8.71177,-12.24121c-2.29464,-2.45392 -3.66118,-3.84884 -3.66118,-3.84884c0,0 1.70246,0.95649 4.38427,3.35915c2.68182,2.40267 6.29174,5.86433 10.2092,11.64902c3.53028,5.83595 5.92194,14.97428 2.79068,24.05586c-2.69283,9.4175 -9.07523,17.7476 -14.09108,27.47263c-2.48229,5.0561 -4.52616,10.4481 -4.1445,16.30693c0.38166,5.85883 3.13762,11.79728 6.56539,16.85889c7.24273,10.07195 17.86748,18.90826 27.8204,28.62142c2.29464,2.45391 4.97645,4.85658 7.32236,7.69767c0.97935,1.44617 2.39715,3.22826 3.0406,5.11286c0.48968,0.72308 0.97936,1.44616 1.13313,2.60768l0.41005,3.09737c1.07637,8.13058 -1.09839,15.50971 -3.71158,22.55292c-5.22638,14.08641 -13.36799,26.98294 -19.0328,40.73344c-0.56931,1.65119 -1.5258,3.35364 -2.09512,5.00484c-0.51806,2.03837 -1.47455,3.74082 -1.6567,5.34076l-0.46681,2.42553c-0.28466,0.82559 -0.13089,1.98711 -0.02838,2.76145c0.10251,0.77433 -0.13089,1.98711 -0.02838,2.76145l0.35879,2.71019c1.30977,6.91782 6.05283,12.98716 11.08055,18.23092c10.05543,10.4875 22.51353,18.29319 31.2253,30.5344c1.95872,2.89235 3.6328,6.61029 4.48127,10.04357l0.74596,2.65894l0.35879,2.71019c0.25628,1.93586 0.51256,3.87171 0.33041,5.47165c-0.2389,7.12284 -2.12901,13.67636 -4.07037,19.84272c-3.88273,12.33271 -9.90633,23.37301 -15.74778,32.81338c-1.29241,2.14088 -2.92072,4.72018 -4.21313,6.86106c-1.2924,2.14087 -1.75921,4.56642 -2.22602,6.99195c-0.54645,4.79981 -0.2673,9.88429 0.68369,14.09192c1.56606,8.85368 4.52702,16.34082 6.8958,22.33053c5.12472,11.92817 8.75752,18.53846 8.75752,18.53846z" fill="#2d8c31"/><path d="M278.48996,450.54842c0,0 -0.48968,-0.72308 -0.92811,-1.059c-0.87686,-0.67183 -1.80497,-1.73083 -2.44842,-3.61543c-0.54094,-1.11025 -1.03062,-1.83333 -1.18439,-2.99485c-0.15377,-1.16152 -0.30753,-2.32302 -0.4613,-3.48454c0.07964,-2.37428 0.15928,-4.74857 1.01326,-7.22536c0.2334,-1.21276 0.51806,-2.03836 1.13864,-3.30239c0.2334,-1.21277 0.85398,-2.47679 1.52581,-3.35365c0.90524,-2.08963 2.30015,-3.45615 3.25664,-5.15861c0.95648,-1.70244 2.01549,-2.63055 2.68732,-3.50741c0.67183,-0.87685 1.00775,-1.31528 1.00775,-1.31528c0,0 -0.33592,0.43842 -1.00775,1.31528c-0.33591,0.43843 -0.62057,1.26403 -0.95649,1.70246c-0.28466,0.8256 -1.00775,1.31528 -1.29241,2.14088c-0.56932,1.6512 -1.91297,3.4049 -2.81821,5.49453c-0.62057,1.26402 -1.29241,2.14088 -1.52581,3.35365c-0.2334,1.21276 -0.90524,2.08962 -1.13864,3.30239c-0.90523,2.08961 -0.98487,4.4639 -1.06451,6.83818c0.15377,1.16151 0.25628,1.93585 0.41005,3.09737c0.10251,0.77434 0.25628,1.93585 0.74596,2.65894c1.23563,3.38202 3.0406,5.11286 3.0406,5.11286z" fill="#2d8c31"/><path d="M248.61383,412.35022c0,0 1.47456,-3.74082 3.13126,-9.08158c0.80272,-2.86397 1.16702,-6.06385 1.48006,-9.6509c0.13089,-1.98712 -0.07413,-3.53579 0.05676,-5.52291c0.18215,-1.59994 -0.07413,-3.53579 -0.33041,-5.47165l-0.35879,-2.71019l-0.74596,-2.65894c-0.64345,-1.8846 -1.2869,-3.7692 -1.8791,-5.26663c-0.5922,-1.49743 -1.57156,-2.9436 -2.16376,-4.44103c-0.59219,-1.49743 -1.57156,-2.9436 -2.49967,-4.0026c-0.92811,-1.05901 -1.5203,-2.55643 -2.39716,-3.22826c-0.48968,-0.72308 -1.36654,-1.39491 -1.85622,-2.118c-1.36654,-1.39491 -1.85622,-2.118 -1.85622,-2.118c0,0 0.87686,0.67183 2.19214,1.67958c0.48968,0.72308 1.36653,1.39491 2.24339,2.06674c0.87685,0.67183 1.80496,1.73083 2.73307,2.78983c0.97936,1.44618 1.90747,2.50517 2.88684,3.95135c0.97936,1.44618 1.95873,2.89235 2.60218,4.77695c0.5922,1.49743 1.62282,3.33077 1.8791,5.26663l0.74596,2.65894l0.41005,3.09737c0.25627,1.93586 0.12538,3.92297 0.38166,5.85883c-0.1309,1.98712 -0.31305,3.58705 -0.44394,5.57417c-0.31304,3.58705 -1.45167,6.88945 -2.2544,9.75341c-1.65671,5.34076 -3.95686,8.79692 -3.95686,8.79692z" fill="#2d8c31"/><path d="M240.14903,467.4429c0,0 -1.80497,-1.73084 -4.58929,-4.90784c-0.64345,-1.88459 -1.28691,-3.7692 -1.59444,-6.09222c-0.30754,-2.32302 -0.2279,-4.69731 -0.14826,-7.07159c0.4668,-2.42553 0.93361,-4.85106 1.83885,-6.94069c0.90523,-2.08963 1.81046,-4.17925 2.81821,-5.49453c0.95648,-1.70244 2.01549,-2.63055 2.68732,-3.50741c0.67183,-0.87685 1.00775,-1.31528 1.00775,-1.31528c0,0 0.05125,0.38717 -0.18215,1.59994c0.10251,0.77435 -0.46681,2.42554 -0.64896,4.02548c0.15377,1.16151 -0.13089,1.98711 -0.41555,2.81271c0.10251,0.77434 -0.13089,1.98711 -0.41555,2.81271c-0.23341,1.21276 -0.1309,1.98711 -0.3643,3.19988c-0.23341,1.21276 -0.1309,1.98711 -0.3643,3.19988c-0.23341,1.21276 -0.1309,1.98711 -0.3643,3.19988c0.15376,1.1615 -0.1309,1.9871 0.02287,3.14862c0.10251,0.77433 -0.13089,1.98711 -0.02838,2.76145c-0.2334,1.21276 -0.13089,1.98711 -0.02838,2.76145c0.46131,3.48455 0.76884,5.80757 0.76884,5.80757z" fill="#6bc134"/></g><g data-paper-data="{&quot;index&quot;:null}" stroke-width="1"><path d="M240.70658,-310.69509c0,0 35.60219,31.05534 29.88301,64.89039c-5.71918,33.83506 -34.27922,43.15364 -29.73477,69.55429c4.54445,26.40066 36.17459,35.7232 37.34337,65.77275c1.16877,30.04955 -32.39306,31.35494 -29.73477,69.55429c2.65829,38.19934 41.93733,33.15398 34.33199,78.78774c-7.60534,45.63374 -55.09928,40.44582 -24.7785,76.39671c0,0 -41.34536,-17.93407 -18.72822,-59.46158c22.61714,-41.5275 -34.59202,-55.32697 -35.98848,-91.23033c-1.39647,-35.90336 42.15579,-51.66772 26.04033,-74.10072c-16.11545,-22.433 -29.21074,-37.55744 -29.64895,-78.96989c-0.54006,-33.98245 23.93528,-47.83229 26.55202,-70.99387c3.07848,-31.38728 6.19171,-51.83228 14.46294,-50.19976z" fill="#3aaa26"/><path d="M243.65085,-305.33778c1.69762,3.45157 3.83104,8.05872 6.02517,14.22689c2.19413,6.16816 4.82406,13.49192 5.96885,22.82765c0.5724,4.66787 0.76973,9.74117 -0.2037,14.86c-0.68943,2.37188 -1.75394,5.14919 -3.22389,7.55143c-1.46993,2.40225 -3.34531,4.42941 -4.81525,6.83164c-6.30037,8.84363 -12.93029,19.26346 -17.95366,30.79333c-2.50409,5.96007 -4.2125,12.28002 -5.1404,18.56963c-0.9279,6.28959 0.09547,12.5033 3.46036,18.62593c2.94429,5.35729 7.85501,11.02896 12.36031,16.32555c4.5053,5.29658 9.80629,10.95307 13.95169,17.04534c4.53566,6.07709 8.32116,12.96506 9.015,20.75496l0.10625,2.73177c0.03036,0.78051 -0.31436,1.96645 -0.284,2.74695c0.03036,0.78051 0.0759,1.95126 -0.284,2.74695l-1.06451,2.77731c-1.01896,3.94807 -2.86399,6.75575 -4.67864,10.34393c-6.89874,13.55703 -15.01378,25.98884 -20.74177,39.50034c-2.47374,6.74058 -4.94748,13.48114 -4.29917,20.10028l0.09107,2.34153c0.42061,0.76533 0.84121,1.53066 0.87157,2.31117c0.45097,1.54583 1.27701,2.68625 2.11823,4.2169c0.43579,1.15558 2.05751,2.65589 2.89874,4.18654l3.289,4.17136c8.62035,10.60835 17.63094,21.20152 23.56504,33.08689c2.56921,5.76273 4.77852,12.32116 4.24087,18.59558c-0.53764,6.27442 -3.44717,11.85941 -6.38705,16.66389c-5.48952,9.59378 -11.41482,18.03198 -14.60835,26.36392c-3.58378,8.34712 -2.49969,16.12184 -0.32074,21.89976c2.56921,5.76273 5.48313,10.33953 7.54066,12.99541c2.05752,2.65588 3.289,4.17136 3.289,4.17136c0,0 -1.60656,-1.11005 -4.05433,-3.75075c-2.44778,-2.64071 -5.7216,-6.42182 -9.08649,-12.54445c-2.97465,-6.1378 -4.5097,-15.45835 -0.55084,-24.21091c3.55342,-9.12762 10.67985,-16.83086 16.5748,-26.04956c2.93988,-4.80448 5.47433,-9.98404 5.6369,-15.85302c0.16257,-5.86899 -2.03156,-12.03715 -4.97584,-17.39446c-6.27881,-10.69943 -16.03956,-20.48174 -25.05016,-31.07491c-2.05752,-2.65588 -4.5053,-5.2966 -6.578,-8.34273c-0.84122,-1.53066 -2.08788,-3.4364 -2.55403,-5.37249c-0.42061,-0.76533 -0.84122,-1.53066 -0.88676,-2.70142l-0.12143,-3.12203c-0.31876,-8.19534 2.53006,-15.34134 5.7843,-22.11226c6.50849,-13.54185 15.80947,-25.62895 22.72339,-38.79573c0.7198,-1.59137 1.82984,-3.19792 2.54963,-4.78929c0.70461,-1.98162 1.81466,-3.58819 2.1442,-5.16438l0.68944,-2.37189c0.35989,-0.79569 0.31436,-1.96644 0.284,-2.74695c-0.03036,-0.78051 0.31435,-1.96645 0.28399,-2.74695l-0.10625,-2.73177c-0.66348,-7.00939 -4.82405,-13.49192 -9.34453,-19.17877c-9.04095,-11.37368 -20.72261,-20.29959 -28.26326,-33.295c-1.68244,-3.06131 -3.00499,-6.91831 -3.53186,-10.41542l-0.49651,-2.7166l-0.10625,-2.73177c-0.07589,-1.95128 -0.15179,-3.90254 0.17775,-5.47874c0.89755,-7.0701 3.38646,-13.42042 5.89056,-19.38048c5.00818,-11.92012 12.02836,-22.35513 18.71899,-31.21394c1.48512,-2.01199 3.34531,-4.4294 4.83043,-6.44138c1.48512,-2.01199 2.17455,-4.38386 2.86399,-6.75574c0.98861,-4.72858 1.18154,-9.81705 0.62432,-14.09467c-0.73937,-8.96065 -2.99422,-16.68984 -4.7981,-22.87319c-3.99801,-12.35151 -7.00301,-19.26983 -7.00301,-19.26983c0,0 0.84123,1.53067 2.94429,5.35731z" fill="#2d8c31"/><path d="M229.74598,-110.15647c0.81086,0.75015 1.6369,1.89055 2.10305,3.82664c0.43579,1.15558 0.8564,1.92091 0.90194,3.09167c0.04554,1.17076 0.09107,2.34152 0.13661,3.51228c-0.29918,2.35671 -0.59836,4.7134 -1.67804,7.10047c-0.34472,1.18595 -0.70462,1.98163 -1.43959,3.18275c-0.34471,1.18594 -1.07968,2.38706 -1.82983,3.19792c-1.09487,1.9968 -2.61034,3.22828 -3.72039,4.83483c-1.11005,1.60655 -2.25046,2.4326 -3.00061,3.24346c-0.75015,0.81087 -1.12523,1.2163 -1.12523,1.2163c0,0 0.37508,-0.40543 1.12523,-1.2163c0.37508,-0.40544 0.73497,-1.20112 1.11005,-1.60655c0.3599,-0.79569 1.12523,-1.2163 1.48513,-2.01198c0.7198,-1.59136 2.22009,-3.2131 3.31496,-5.20991c0.73497,-1.20112 1.48512,-2.01198 1.82984,-3.19792c0.34472,-1.18594 1.09487,-1.99681 1.43958,-3.18275c1.09487,-1.9968 1.39404,-4.3535 1.69322,-6.71021c-0.04554,-1.17077 -0.07589,-1.95128 -0.12143,-3.12203c-0.03036,-0.78051 -0.0759,-1.95127 -0.49651,-2.7166c-0.91712,-3.48193 -2.55402,-5.37249 -2.55402,-5.37249c0,0 0.42062,0.76533 0.82604,1.14041z" fill="#2d8c31"/><path d="M251.17124,-61.74341c-1.06451,2.77731 -1.72358,5.9297 -2.36748,9.47235c-0.31436,1.96645 -0.25364,3.52748 -0.568,5.49392c-0.32954,1.57619 -0.25364,3.52747 -0.17775,5.47874l0.10625,2.73177l0.49651,2.71661c0.46615,1.93608 0.9323,3.87218 1.38327,5.41801c0.45097,1.54583 1.2922,3.0765 1.74317,4.62233c0.45097,1.54583 1.29219,3.07649 2.11823,4.2169c0.82604,1.14041 1.27701,2.68624 2.08787,3.43639c0.42061,0.76533 1.23148,1.51548 1.65209,2.28081c1.23148,1.51547 1.65208,2.28081 1.65208,2.28081c0,0 -0.81087,-0.75015 -2.02716,-1.87537c-0.42061,-0.76534 -1.23148,-1.51549 -2.04234,-2.26564c-0.81087,-0.75016 -1.6369,-1.89056 -2.46295,-3.03096c-0.84123,-1.53065 -1.66726,-2.67106 -2.5085,-4.20172c-0.84122,-1.53065 -1.68244,-3.06131 -2.14859,-4.99741c-0.45097,-1.54583 -1.30738,-3.46675 -1.38327,-5.41802l-0.49651,-2.7166l-0.12143,-3.12203c-0.0759,-1.95126 0.23846,-3.91772 0.16257,-5.86898c0.31436,-1.96645 0.6439,-3.54265 0.95826,-5.5091c0.6439,-3.54264 2.08349,-6.7254 3.14799,-9.50271c2.14421,-5.16437 4.75454,-8.39266 4.75454,-8.39266c0,0 -1.81466,3.58818 -3.95886,8.75256z" fill="#2d8c31"/><path d="M272.77577,-119.25616c0.46615,1.93609 0.93229,3.87217 1.02336,6.2137c0.09107,2.34153 -0.2081,4.69823 -0.50728,7.05494c-0.68943,2.37189 -1.37887,4.74377 -2.47374,6.74058c-1.09486,1.9968 -2.18973,3.99361 -3.31496,5.2099c-1.11005,1.60655 -2.25046,2.43259 -3.00061,3.24346c-0.75015,0.81087 -1.12523,1.2163 -1.12523,1.2163c0,0 -0.01518,-0.39026 0.32954,-1.5762c-0.03035,-0.78051 0.68944,-2.37189 1.01898,-3.94808c-0.04553,-1.17076 0.31436,-1.96644 0.67426,-2.76213c-0.03036,-0.78051 0.31435,-1.96645 0.67426,-2.76214c0.34472,-1.18595 0.31436,-1.96645 0.65908,-3.15239c0.34472,-1.18595 0.31435,-1.96646 0.65908,-3.15239c0.34472,-1.18595 0.31436,-1.96645 0.65908,-3.15239c-0.04554,-1.17077 0.31436,-1.96645 0.26882,-3.13721c-0.03036,-0.78051 0.31436,-1.96645 0.284,-2.74695c0.34472,-1.18594 0.31435,-1.96645 0.28399,-2.74696c-0.13661,-3.51228 -0.22768,-5.8538 -0.22768,-5.8538c0,0 1.63691,1.89056 4.11504,5.31177z" fill="#6bc134"/></g><path d="M143.78571,184.5v-9h192.42857v9z" fill="none" stroke-width="0"/></g></g></svg>