<svg version="1.1" xmlns="http://www.w3.org/2000/svg" xmlns:xlink="http://www.w3.org/1999/xlink" width="276.66924" height="147.69753" viewBox="0,0,276.66924,147.69753"><g transform="translate(-13.14597,-73.25)"><g data-paper-data="{&quot;isPaintingLayer&quot;:true}" fill-rule="nonzero" stroke-linejoin="miter" stroke-miterlimit="10" stroke-dasharray="" stroke-dashoffset="0" style="mix-blend-mode: normal"><g data-paper-data="{&quot;index&quot;:null}"><path d="M233.34952,177.55589c0,0 11.68955,-9.25203 11.23094,-14.24332c-0.72383,-7.87781 -14.04644,-16.39924 -14.04644,-16.39924c0,0 8.04589,0.03282 21.26958,7.93319c7.90933,4.72535 14.18691,19.71026 14.18691,19.71026z" fill="#ff9600" stroke="#d27a00" stroke-width="2" stroke-linecap="butt"/><path d="M221.24116,202.67555c0,0 -8.76452,2.39049 -13.31025,2.65206c-5.3435,0.30747 -16.74612,-0.92255 -16.74612,-0.92255c0,0 13.55667,-10.49671 14.42982,-17.16345c0.90437,-6.90514 -9.09398,-23.57732 -9.09398,-23.57732c0,0 11.45956,5.13442 16.32756,8.29913c4.59694,2.98849 12.11386,10.1908 12.11386,10.1908l-3.7209,20.52133z" fill="#ff9600" stroke="#d27a00" stroke-width="2" stroke-linecap="butt"/><path d="M251.81273,170.49877c20.43591,0 37.00248,11.06948 37.00248,24.72438c0,13.6549 -16.56658,24.72438 -37.00248,24.72438c-20.43591,0 -37.00248,-11.06948 -37.00248,-24.72438c0,-13.6549 16.56658,-24.72438 37.00248,-24.72438z" fill="#ff9600" stroke="#d27a00" stroke-width="2" stroke-linecap="butt"/><path d="M231.08255,203.69544c9.01095,-1.63836 16.84003,-0.08302 17.48675,3.47393c0.64672,3.55695 -6.13383,7.76857 -15.14477,9.40693c-9.01095,1.63835 -16.84003,0.08302 -17.48675,-3.47393c-0.64672,-3.55695 6.13382,-7.76858 15.14477,-9.40693z" fill="#ff9600" stroke="#d27a00" stroke-width="2" stroke-linecap="butt"/><path d="M234.65216,153.81473c-1.3859,0.36428 -8.19932,-1.49626 -9.1697,-2.2268c-1.41877,-1.06809 3.24163,-1.47956 2.70903,-3.50585c-0.46512,-1.76958 -4.34039,-3.83312 -3.44425,-5.27284c0.83184,-1.33642 4.64812,0.82818 6.29073,0.39643c1.24157,-0.32633 -0.65414,-3.23294 0.54159,-3.15153c2.09051,0.14234 7.05643,3.78771 7.62697,5.95834c0.89688,3.41219 -1.14218,6.90537 -4.55437,7.80225z" fill="#71ff00" stroke="#5cd100" stroke-width="2" stroke-linecap="butt"/><path d="M279.33144,193.90409c-1.38071,0 -2.5,-1.11929 -2.5,-2.5c0,-1.38071 1.11929,-2.5 2.5,-2.5c1.38071,0 2.5,1.11929 2.5,2.5c0,1.38071 -1.11929,2.5 -2.5,2.5z" fill="#000000" stroke="none" stroke-width="0.5" stroke-linecap="butt"/><path d="M265.45589,201.65994c0,0 6.5371,0.15246 10.6894,0.65073c4.47454,0.53693 9.01791,3.37117 9.01791,3.37117" fill="none" stroke="#d27a00" stroke-width="2" stroke-linecap="round"/><path d="M276.08179,185.55658l6.21711,3.53595" fill="none" stroke="#000000" stroke-width="2" stroke-linecap="round"/></g><text transform="translate(13.39597,92) scale(0.5,0.5)" font-size="40" xml:space="preserve" fill="#9966ff" fill-rule="nonzero" stroke="none" stroke-width="1" stroke-linecap="butt" stroke-linejoin="miter" stroke-miterlimit="10" stroke-dasharray="" stroke-dashoffset="0" font-family="Handwriting" font-weight="normal" text-anchor="start" style="mix-blend-mode: normal"><tspan x="0" dy="0">for reference</tspan></text></g></g></svg>