<svg version="1.1" xmlns="http://www.w3.org/2000/svg" xmlns:xlink="http://www.w3.org/1999/xlink" width="91.83433" height="75.80112" viewBox="0,0,91.83433,75.80112"><g transform="translate(-193.82078,-142.09945)"><g data-paper-data="{&quot;isPaintingLayer&quot;:true}" fill-rule="nonzero" stroke-linecap="butt" stroke-linejoin="miter" stroke-miterlimit="10" stroke-dasharray="" stroke-dashoffset="0" style="mix-blend-mode: normal"><path d="M200.06792,206.32398c0,0 11.33976,-10.36624 11.33976,-15.91229c0,-4.80887 -11.33976,-15.46898 -11.33976,-15.46898c0,0 32.36193,0.1172 32.36193,14.38307c0,14.26587 -32.36193,16.9982 -32.36193,16.9982z" data-paper-data="{&quot;index&quot;:null}" fill="#595959" stroke="#4d4d4d" stroke-width="2.5"/><path d="M229.03352,187.50498l-9.95854,-10.82451l9.95855,-13.42238h26.84477c0,0 12.64326,6.88541 16.35207,11.6392c3.37166,4.32165 7.70171,13.59533 7.70171,13.59533c0,0 -3.13675,1.96655 -9.26849,1.93905c-7.11055,-0.0319 -10.59243,-3.30785 -10.59243,-3.30785z" data-paper-data="{&quot;index&quot;:null}" fill="#595959" stroke="#4d4d4d" stroke-width="2.5"/><path d="M233.89216,211.86213l-9.95854,-10.82451l9.95855,-13.42238h26.84477c0,0 2.04713,6.49987 6.14064,8.63269c4.09351,2.13282 10.11968,1.55991 10.11968,1.55991l-16.26031,14.05429z" data-paper-data="{&quot;index&quot;:null}" fill="#595959" stroke="#4d4d4d" stroke-width="2.5"/><path d="M267.08,180.53299c-0.921,0 -1.66761,-0.74661 -1.66761,-1.66761c0,-0.921 0.74661,-1.66761 1.66761,-1.66761c0.921,0 1.66761,0.74661 1.66761,1.66761c0,0.921 -0.74661,1.66761 -1.66761,1.66761z" data-paper-data="{&quot;index&quot;:null}" fill="#000000" stroke="none" stroke-width="0.5"/><path d="M259.2347,181.51365c-0.921,0 -1.66761,-0.74661 -1.66761,-1.66761c0,-0.921 0.74661,-1.66761 1.66761,-1.66761c0.921,0 1.66761,0.74661 1.66761,1.66761c0,0.921 -0.74661,1.66761 -1.66761,1.66761z" data-paper-data="{&quot;index&quot;:null}" fill="#000000" stroke="none" stroke-width="0.5"/><path d="M234.40008,172.28591c6.29526,2.23371 10.34639,7.00993 9.04841,10.668c-1.29798,3.65806 -7.45351,4.81273 -13.74877,2.57901c-6.29528,-2.23372 -10.34639,-7.00995 -9.04841,-10.66801c1.29798,-3.65806 7.45351,-4.81272 13.74877,-2.579z" data-paper-data="{&quot;index&quot;:null}" fill="#595959" stroke="#4d4d4d" stroke-width="2.5"/><path d="M234.06431,162.19408l-8.82599,-14.0562l12.49655,1.67424l17.25029,12.38195z" data-paper-data="{&quot;index&quot;:null}" fill="#595959" stroke="#4d4d4d" stroke-width="2.5"/><path d="M193.82078,217.90057v-75.80112h91.83433v75.80112z" fill="none" stroke="none" stroke-width="0"/></g></g></svg>