<svg version="1.1" xmlns="http://www.w3.org/2000/svg" xmlns:xlink="http://www.w3.org/1999/xlink" width="77.35876" height="77.35876" viewBox="0,0,77.35876,77.35876"><defs><linearGradient x1="57.44352" y1="109.51977" x2="57.44352" y2="184.37854" gradientUnits="userSpaceOnUse" id="color-1"><stop offset="0" stop-color="#00ff04"/><stop offset="1" stop-color="#00ab03"/></linearGradient><linearGradient x1="85.13995" y1="162.77406" x2="69.36035" y2="162.77406" gradientUnits="userSpaceOnUse" id="color-2"><stop offset="0" stop-color="#e5876f"/><stop offset="1" stop-color="#b66b4d"/></linearGradient><linearGradient x1="79.23559" y1="136.07965" x2="59.12389" y2="136.07965" gradientUnits="userSpaceOnUse" id="color-3"><stop offset="0" stop-color="#b66b4d"/><stop offset="1" stop-color="#e5876f"/></linearGradient><linearGradient x1="54.78008" y1="138.12052" x2="27.52668" y2="138.12052" gradientUnits="userSpaceOnUse" id="color-4"><stop offset="0" stop-color="#dd8a73"/><stop offset="1" stop-color="#e5876f"/></linearGradient><radialGradient cx="61.64144" cy="151.06754" r="25.09809" gradientUnits="userSpaceOnUse" id="color-5"><stop offset="0" stop-color="#679382"/><stop offset="1" stop-color="#497464"/></radialGradient><linearGradient x1="72.01769" y1="133.82153" x2="49.0317" y2="133.82153" gradientUnits="userSpaceOnUse" id="color-6"><stop offset="0" stop-color="#b66b4d"/><stop offset="1" stop-color="#e5876f"/></linearGradient><linearGradient x1="61.32106" y1="144.77085" x2="41.20936" y2="144.77085" gradientUnits="userSpaceOnUse" id="color-7"><stop offset="0" stop-color="#b66b4d"/><stop offset="1" stop-color="#e5876f"/></linearGradient></defs><g transform="translate(-18.76414,-108.26978)"><g data-paper-data="{&quot;isPaintingLayer&quot;:true}" fill-rule="nonzero" stroke-linecap="butt" stroke-linejoin="miter" stroke-miterlimit="10" stroke-dasharray="" stroke-dashoffset="0" style="mix-blend-mode: normal"><path d="M20.01414,184.37854v-74.85876h74.85876v74.85876z" fill="url(#color-1)" stroke="#000000" stroke-width="2.5"/><path d="M77.13983,159.31708c4.35698,-0.13905 7.9384,1.29596 7.99934,3.20521c0.06093,1.90924 -3.4217,3.56971 -7.77869,3.70876c-4.35698,0.13905 -7.9384,-1.29596 -7.99934,-3.20521c-0.06093,-1.90923 3.4217,-3.56971 7.77869,-3.70876z" data-paper-data="{&quot;index&quot;:null}" fill="url(#color-2)" stroke="#663725" stroke-width="2.5"/><path d="M71.89297,132.5723c5.34625,4.13577 8.46549,9.05877 6.96702,10.99582c-1.49848,1.93705 -7.0472,0.15461 -12.39346,-3.98116c-5.34625,-4.13577 -8.46549,-9.05877 -6.96702,-10.99582c1.49848,-1.93705 7.0472,-0.15461 12.39346,3.98116z" data-paper-data="{&quot;index&quot;:null}" fill="url(#color-3)" stroke="#663725" stroke-width="2.5"/><path d="M53.47191,137.15431c4.25998,4.25998 -2.96368,5.08755 -6.28855,8.41242c-3.32486,3.32486 -9.30352,5.20622 -13.20145,0.61265c-4.96946,-5.85632 -8.98309,-11.1104 -4.53112,-16.74888c5.05689,-6.40464 19.76114,3.46384 24.02112,7.72381z" data-paper-data="{&quot;index&quot;:null}" fill="url(#color-4)" stroke="#924a31" stroke-width="2.5"/><path d="M36.54336,152.66388c0,-9.06126 11.2368,-16.40687 25.09809,-16.40687c13.86129,0 25.09809,7.34561 25.09809,16.40687c0,2.63248 -6.80429,1.68274 -8.70386,2.23884c-12.17336,3.56376 1.06706,10.97534 -8.76724,10.97534c-13.86129,0 -32.72505,-4.15292 -32.72505,-13.21418z" data-paper-data="{&quot;index&quot;:null}" fill="url(#color-5)" stroke="#293a34" stroke-width="2.5"/><path d="M53.57104,141.04605c0,0 -9.7227,-15.71436 -0.70948,-14.3671c2.37323,0.35475 19.15614,14.3671 19.15614,14.3671z" data-paper-data="{&quot;index&quot;:null}" fill="url(#color-6)" stroke="#663725" stroke-width="2.5"/><path d="M53.97844,141.26352c5.34625,4.13577 8.46549,9.05877 6.96702,10.99582c-1.49848,1.93705 -7.0472,0.15461 -12.39346,-3.98116c-5.34625,-4.13577 -8.46549,-9.05877 -6.96702,-10.99582c1.49848,-1.93705 7.0472,-0.15461 12.39346,3.98116z" data-paper-data="{&quot;index&quot;:null}" fill="url(#color-7)" stroke="#663725" stroke-width="2.5"/><path d="M79.55597,150.44675c-1.02858,0 -1.86241,-0.83384 -1.86241,-1.86241c0,-1.02858 0.83384,-1.86241 1.86241,-1.86241c1.02858,0 1.86241,0.83384 1.86241,1.86241c0,1.02858 -0.83384,1.86241 -1.86241,1.86241z" data-paper-data="{&quot;index&quot;:null}" fill="#000000" stroke="none" stroke-width="0"/><path d="M21.31745,173.72565v-54.61392h71.63131v54.61392z" fill="none" stroke="none" stroke-width="0"/></g></g></svg>