<svg version="1.1" xmlns="http://www.w3.org/2000/svg" xmlns:xlink="http://www.w3.org/1999/xlink" width="605.91151" height="449.70178" viewBox="0,0,605.91151,449.70178"><defs><linearGradient x1="-4165.36739" y1="-2094.83338" x2="-2490.60381" y2="5262.83587" gradientUnits="userSpaceOnUse" id="color-1"><stop offset="0" stop-color="#000000" stop-opacity="0"/><stop offset="1" stop-color="#000000"/></linearGradient></defs><g transform="translate(58.35097,29.08511)"><g data-paper-data="{&quot;isPaintingLayer&quot;:true}" fill-rule="nonzero" stroke-linecap="butt" stroke-linejoin="miter" stroke-miterlimit="10" stroke-dasharray="" stroke-dashoffset="0" style="mix-blend-mode: normal"><path d="M-58.35097,420.61667l14.8145,-448.1959l583.38281,-1.50588l7.7142,446.02978z" fill="url(#color-1)" stroke="none" stroke-width="0"/><text transform="translate(16.48751,294.47695) scale(0.78975,0.78975)" font-size="40" xml:space="preserve" fill="#ffffff" fill-rule="nonzero" stroke="none" stroke-width="1" stroke-linecap="butt" stroke-linejoin="miter" stroke-miterlimit="10" stroke-dasharray="" stroke-dashoffset="0" font-family="Handwriting" font-weight="normal" text-anchor="start" style="mix-blend-mode: normal"><tspan x="0" dy="0">Seaweed moves at double the speed</tspan></text><text transform="translate(257.48751,294.47695) scale(0.78975,0.78975)" font-size="40" xml:space="preserve" fill="#ffffff" fill-rule="nonzero" stroke="#ffffff" stroke-width="2" stroke-linecap="butt" stroke-linejoin="miter" stroke-miterlimit="10" stroke-dasharray="" stroke-dashoffset="0" font-family="Handwriting" font-weight="normal" text-anchor="start" style="mix-blend-mode: normal"><tspan x="0" dy="0">double</tspan></text><g data-paper-data="{&quot;index&quot;:null}" fill="#ffffff" stroke="#ffffff" stroke-width="2"><path d="M227.20297,68.39872c0,0 15.09249,-11.94538 14.50037,-18.38968c-0.93454,-10.17111 -18.13548,-21.1732 -18.13548,-21.1732c0,0 10.38811,0.04237 27.46133,10.2426c10.2118,6.10093 18.31684,25.44809 18.31684,25.44809z"/><path d="M211.56977,100.83093c0,0 -11.31595,3.08638 -17.18498,3.42409c-6.89904,0.39698 -21.62106,-1.19111 -21.62106,-1.19111c0,0 17.50313,-13.55239 18.63047,-22.15988c1.16765,-8.91528 -11.74132,-30.44088 -11.74132,-30.44088c0,0 14.79554,6.62909 21.08065,10.71508c5.93515,3.85847 15.6403,13.15743 15.6403,13.15743l-4.80409,26.49526z"/><path d="M251.04098,59.28722c26.38498,0 47.77422,14.2919 47.77422,31.92187c0,17.62995 -21.38925,31.92187 -47.77422,31.92187c-26.38498,0 -47.77422,-14.2919 -47.77422,-31.92187c0,-17.62995 21.38925,-31.92187 47.77422,-31.92187z"/><path d="M224.27606,102.14772c11.63411,-2.1153 21.74231,-0.10718 22.57729,4.48522c0.83498,4.59241 -7.91944,10.03006 -19.55354,12.14537c-11.63411,2.11528 -21.74231,0.10718 -22.57729,-4.48522c-0.83498,-4.59241 7.91943,-10.03008 19.55354,-12.14537z"/><path d="M228.88481,37.74631c-1.78934,0.47032 -10.58622,-1.93184 -11.83908,-2.87504c-1.83179,-1.37902 4.18529,-1.91027 3.49766,-4.52644c-0.60052,-2.28472 -5.60391,-4.94897 -4.4469,-6.80781c1.074,-1.72546 6.00123,1.06927 8.12201,0.51183c1.603,-0.42133 -0.84457,-4.17408 0.69924,-4.06897c2.69908,0.18378 9.11062,4.89035 9.84725,7.69286c1.15797,4.40551 -1.47468,8.91558 -5.88018,10.07355z"/></g></g></g></svg>