<svg version="1.1" xmlns="http://www.w3.org/2000/svg" xmlns:xlink="http://www.w3.org/1999/xlink" width="91.83433" height="88.37985" viewBox="0,0,91.83433,88.37985"><defs><linearGradient x1="211.85541" y1="190.73163" x2="211.85541" y2="217.62788" gradientUnits="userSpaceOnUse" id="color-1"><stop offset="0" stop-color="#e6cb59"/><stop offset="1" stop-color="#c38c35"/></linearGradient><linearGradient x1="223.55053" y1="142.37213" x2="223.55053" y2="161.06441" gradientUnits="userSpaceOnUse" id="color-2"><stop offset="0" stop-color="#e6cb59"/><stop offset="1" stop-color="#c38c35"/></linearGradient><linearGradient x1="243.94507" y1="148.75053" x2="243.94507" y2="208.56186" gradientUnits="userSpaceOnUse" id="color-3"><stop offset="0" stop-color="#e6cb59"/><stop offset="1" stop-color="#c38c35"/></linearGradient><linearGradient x1="239.09674" y1="171.64019" x2="232.33387" y2="185.61318" gradientUnits="userSpaceOnUse" id="color-4"><stop offset="0" stop-color="#e6cb59"/><stop offset="1" stop-color="#c38c35"/></linearGradient></defs><g transform="translate(-193.82078,-135.81009)"><g data-paper-data="{&quot;isPaintingLayer&quot;:true}" fill-rule="nonzero" stroke-linecap="butt" stroke-linejoin="miter" stroke-miterlimit="10" stroke-dasharray="" stroke-dashoffset="0" style="mix-blend-mode: normal"><path d="M212.31292,217.51623c-6.17568,1.21885 -14.45734,-7.79875 -12.8655,-14.50922c1.59184,-6.71047 10.17152,-10.85559 16.3472,-12.07445c6.17567,-1.21885 9.89161,3.233 8.29975,9.94348c-1.59185,6.71047 -5.60579,15.42134 -11.78147,16.6402z" data-paper-data="{&quot;index&quot;:null}" fill="url(#color-1)" stroke="#7e5926" stroke-width="2.5"/><path d="M214.17502,145.61674c2.54454,-3.90988 8.80484,-4.34771 13.98278,-0.97794c5.17794,3.36978 7.31276,9.27111 4.76823,13.18099c-2.54452,3.90988 -8.80483,4.34771 -13.98277,0.97794c-5.17796,-3.36977 -7.31277,-9.27109 -4.76825,-13.18097z" data-paper-data="{&quot;index&quot;:null}" fill="url(#color-2)" stroke="#7e5926" stroke-width="2.5"/><path d="M208.34658,178.65623c0,-16.51645 15.94608,-30.16126 35.61285,-29.90567c21.07926,0.27395 33.52187,21.21604 33.52187,21.21604c0,0 2.9405,7.51816 3.27004,9.14426c0.0684,0.33753 -6.94299,0.89979 -12.91963,0.80102c-6.71984,-0.11106 -13.86314,-5.49773 -13.78993,-4.12502c0.20781,3.89685 6.08158,8.73965 12.03576,10.75756c6.90559,2.34034 14.01388,1.54268 14.01388,1.54268c0,0 -5.16753,20.20084 -36.13199,20.47479c-19.66766,0.174 -35.61285,-13.38924 -35.61285,-29.90567z" data-paper-data="{&quot;index&quot;:null}" fill="url(#color-3)" stroke="#7e5926" stroke-width="2.5"/><path d="M239.09673,171.64017c5.56082,2.69141 8.55485,8.00119 6.68733,11.85973c-1.86752,3.85854 -7.88937,4.80467 -13.45019,2.11326c-5.56082,-2.69141 -8.55485,-8.00119 -6.68733,-11.85973c1.86752,-3.85854 7.88937,-4.80467 13.45019,-2.11326z" data-paper-data="{&quot;index&quot;:null}" fill="url(#color-4)" stroke="#7e5926" stroke-width="2.5"/><path d="M265.38988,168.76679c-0.9456,0 -1.71216,-0.76655 -1.71216,-1.71216c0,-0.9456 0.76655,-1.71216 1.71216,-1.71216c0.9456,0 1.71216,0.76655 1.71216,1.71216c0,0.9456 -0.76655,1.71216 -1.71216,1.71216z" data-paper-data="{&quot;index&quot;:null}" fill="#000000" stroke="none" stroke-width="0.5"/><path d="M255.8018,169.86257c-0.9456,0 -1.71216,-0.76655 -1.71216,-1.71216c0,-0.9456 0.76655,-1.71216 1.71216,-1.71216c0.9456,0 1.71216,0.76655 1.71216,1.71216c0,0.9456 -0.76655,1.71216 -1.71216,1.71216z" data-paper-data="{&quot;index&quot;:null}" fill="#000000" stroke="none" stroke-width="0.5"/><path d="M193.82078,224.18994v-88.37985h91.83433v88.37985z" fill="none" stroke="none" stroke-width="0"/></g></g></svg>