<svg version="1.1" xmlns="http://www.w3.org/2000/svg" xmlns:xlink="http://www.w3.org/1999/xlink" width="756.37111" height="353.43849" viewBox="0,0,756.37111,353.43849"><defs><linearGradient x1="57.83853" y1="261.07021" x2="63.11377" y2="271.69104" gradientUnits="userSpaceOnUse" id="color-1"><stop offset="0" stop-color="#b5f4c4"/><stop offset="1" stop-color="#469a3b"/></linearGradient><linearGradient x1="36.30922" y1="308.64919" x2="44.22209" y2="324.58045" gradientUnits="userSpaceOnUse" id="color-2"><stop offset="0" stop-color="#b5f4c4"/><stop offset="1" stop-color="#469a3b"/></linearGradient><linearGradient x1="76.52672" y1="284.89047" x2="88.39603" y2="308.78736" gradientUnits="userSpaceOnUse" id="color-3"><stop offset="0" stop-color="#b5f4c4"/><stop offset="1" stop-color="#469a3b"/></linearGradient><linearGradient x1="51.99469" y1="295.26698" x2="62.43159" y2="281.92262" gradientUnits="userSpaceOnUse" id="color-4"><stop offset="0" stop-color="#b5f4c4"/><stop offset="1" stop-color="#469a3b"/></linearGradient></defs><g transform="translate(1.56796,-5.05)"><g data-paper-data="{&quot;isPaintingLayer&quot;:true}" fill-rule="nonzero" stroke-linejoin="miter" stroke-miterlimit="10" stroke-dasharray="" stroke-dashoffset="0" style="mix-blend-mode: normal"><path d="M8.5,349.3v-343h344v343z" fill="#bcffcc" stroke="#000000" stroke-width="2.5" stroke-linecap="butt"/><path d="M52.68259,276.87209l-5.27525,-10.62083c0,0 5.45505,-6.52737 17.62694,-5.89217c3.54804,0.18515 8.51066,6.15091 8.51066,6.15091z" data-paper-data="{&quot;index&quot;:null}" fill="url(#color-1)" stroke="#4a7b42" stroke-width="2.5" stroke-linecap="butt"/><path d="M38.12541,338.01223c-5.75082,-2.76198 -2.9882,-12.51162 -5.81799,-17.90162c-3.88861,-7.40676 -12.10054,-10.93921 -10.75885,-16.42519c2.31807,-9.47819 25.00217,-0.12309 25.00217,-0.12309l7.91287,15.93125c0,0 -2.68477,25.07599 -16.33821,18.51863z" data-paper-data="{&quot;index&quot;:null}" fill="url(#color-2)" stroke="#4a7b42" stroke-width="2.5" stroke-linecap="butt"/><path d="M112.22061,283.57227c0,0 -2.86467,5.26506 -6.79123,7.4001c-3.96032,2.15339 -11.44413,4.28491 -10.58482,6.15272c0.98705,2.05619 8.59294,2.6084 12.212,1.65314c4.0787,-1.07656 10.16495,-3.36238 10.16495,-3.36238l-8.51918,19.4659l-30.78143,15.65972l-20.62874,-6.30518l-11.86931,-23.89688l5.4098,-21.67343l29.15816,-14.41179l26.50185,5.75253z" data-paper-data="{&quot;index&quot;:null}" fill="url(#color-3)" stroke="#4a7b42" stroke-width="2.5" stroke-linecap="butt"/><path d="M51.99469,295.26698c-5.71165,-4.4672 -8.0055,-11.07583 -5.12342,-14.76079c2.88207,-3.68495 9.84868,-3.05078 15.56033,1.41643c5.71165,4.4672 8.0055,11.07583 5.12342,14.76079c-2.88207,3.68495 -9.84868,3.05078 -15.56033,-1.41643z" data-paper-data="{&quot;index&quot;:null}" fill="url(#color-4)" stroke="#4a7b42" stroke-width="2.5" stroke-linecap="butt"/><path d="M102.49099,279.08771c-1.04745,0.52026 -2.31832,0.09289 -2.83858,-0.95457c-0.52026,-1.04745 -0.09289,-2.31832 0.95457,-2.83858c1.04745,-0.52026 2.31832,-0.09289 2.83858,0.95457c0.52026,1.04745 0.09289,2.31832 -0.95457,2.83858z" data-paper-data="{&quot;index&quot;:null}" fill="#000000" stroke="none" stroke-width="0.5" stroke-linecap="butt"/><path d="M36.32067,358.48849l-37.88863,-76.28246l100.05164,-49.69451l37.88863,76.28246z" fill="none" stroke="none" stroke-width="0" stroke-linecap="butt"/><path d="M345.35976,295.71937c4.01355,2.18732 1.57257,14.40961 -5.45209,27.29927c-7.02465,12.88966 -15.97288,21.56561 -19.98642,19.37829c-4.01354,-2.18732 -12.10505,-20.69344 -5.0804,-33.5831c7.02465,-12.88966 26.50538,-15.28179 30.51891,-13.09447z" data-paper-data="{&quot;index&quot;:null}" fill="#ff0000" stroke="#b50000" stroke-width="1.5" stroke-linecap="butt"/><path d="M316.70168,261.21015c8.99861,0.98276 15.86914,5.66426 15.34578,10.45642c-0.52337,4.79216 -8.24245,7.88028 -17.24106,6.89752c-8.99861,-0.98276 -15.86914,-5.66426 -15.34578,-10.45642c0.52337,-4.79216 8.24245,-7.88028 17.24106,-6.89752z" data-paper-data="{&quot;index&quot;:null}" fill="#ff0000" stroke="#b50000" stroke-width="1.5" stroke-linecap="butt"/><path d="M322.29742,315.65771c-9.68368,17.76876 -31.93829,24.32301 -49.70705,14.63933c-14.20469,-7.74133 -21.24252,-23.51637 -18.54707,-38.61106c0.43322,-2.4262 3.20965,-9.81507 3.90772,-11.09597c9.68368,-17.76876 31.93829,-24.32301 49.70705,-14.63933c17.76876,9.68368 24.32301,31.93829 14.63933,49.70705z" data-paper-data="{&quot;index&quot;:null}" fill="#ff0000" stroke="#b50000" stroke-width="1.5" stroke-linecap="butt"/><path d="M286.66249,329.70582c-11.54999,-6.29456 -15.81033,-20.76041 -9.5158,-32.31036c6.29456,-11.54999 20.76041,-15.81033 32.31037,-9.5158c11.54999,6.29456 15.81033,20.76041 9.51579,32.31036c-6.29456,11.54999 -20.76041,15.81033 -32.31036,9.5158z" data-paper-data="{&quot;index&quot;:null}" fill="#f40000" stroke="#910000" stroke-width="1.5" stroke-linecap="butt"/><path d="M307.13365,301.52607c8.91432,3.26477 15.18508,8.52095 14.00615,11.74002c-1.17891,3.21907 -9.36114,3.18201 -18.27546,-0.08276c-8.91432,-3.26477 -15.18508,-8.52095 -14.00615,-11.74002c1.17891,-3.21907 9.36114,-3.18201 18.27546,0.08276z" data-paper-data="{&quot;index&quot;:null}" fill="#ff0000" stroke="#b50000" stroke-width="1.5" stroke-linecap="butt"/><path d="M272.55091,280.64591c-1.06129,-0.57839 -1.45274,-1.90758 -0.87436,-2.96886c0.57839,-1.06129 1.90758,-1.45274 2.96886,-0.87437c1.06129,0.57839 1.45273,1.90758 0.87436,2.96886c-0.57839,1.06129 -1.90758,1.45274 -2.96886,0.87437z" data-paper-data="{&quot;index&quot;:null}" fill="#000000" stroke="none" stroke-width="0.5" stroke-linecap="butt"/><path d="M272.57436,292.07977c0,0 -11.92469,1.26309 -17.48038,-2.4684" fill="none" stroke="#b50000" stroke-width="1.5" stroke-linecap="round"/><text transform="translate(27.46602,45.92874) scale(0.79569,0.79569)" font-size="40" xml:space="preserve" fill="#4a7b42" fill-rule="nonzero" stroke="none" stroke-width="1" stroke-linecap="butt" stroke-linejoin="miter" stroke-miterlimit="10" stroke-dasharray="" stroke-dashoffset="0" font-family="Handwriting" font-weight="normal" text-anchor="start" style="mix-blend-mode: normal"><tspan x="0" dy="0">Try out more fun games!</tspan></text><text transform="translate(56.46602,100.17007) scale(0.74188,0.74188)" font-size="40" xml:space="preserve" fill="#4a7b42" fill-rule="nonzero" stroke="none" stroke-width="1" stroke-linecap="butt" stroke-linejoin="miter" stroke-miterlimit="10" stroke-dasharray="" stroke-dashoffset="0" font-family="Handwriting" font-weight="normal" text-anchor="start" style="mix-blend-mode: normal"><tspan x="0" dy="0">Emerald Fish Studios</tspan></text><text transform="translate(13.46602,124.38922) scale(0.49119,0.49119)" font-size="40" xml:space="preserve" fill="#4a7b42" fill-rule="nonzero" stroke="none" stroke-width="1" stroke-linecap="butt" stroke-linejoin="miter" stroke-miterlimit="10" stroke-dasharray="" stroke-dashoffset="0" font-family="Handwriting" font-weight="normal" text-anchor="start" style="mix-blend-mode: normal"><tspan x="0" dy="0">https://scratch.mit.edu/studios/30171240</tspan></text><text transform="translate(36.46602,165.7462) scale(0.5,0.5)" font-size="40" xml:space="preserve" fill="#4a7b42" fill-rule="nonzero" stroke="none" stroke-width="1" stroke-linecap="butt" stroke-linejoin="miter" stroke-miterlimit="10" stroke-dasharray="" stroke-dashoffset="0" font-family="Handwriting" font-weight="normal" text-anchor="start" style="mix-blend-mode: normal"><tspan x="0" dy="0">Only the best Mineral Fish games!</tspan></text><path d="M746.67532,162.28371c-4.21912,-0.05043 -7.97404,-0.90559 -11.88734,-1.92968c-1.67449,-0.3162 -3.31162,-0.74375 -4.77738,-1.19406c-0.04598,-0.04945 -0.09372,-0.09785 -0.14283,-0.14542c-1.97649,-0.66309 -2.47079,-1.20522 -4.43357,0.19704c-0.29912,1.10081 -1.11811,2.6554 -0.76774,3.81543c1.04083,3.44603 5.1699,3.80104 8.05076,3.7995c4.7216,-0.00252 10.6858,-0.55685 13.95811,-4.54282zM750.04458,162.25914c-0.02993,0.46039 -0.26862,0.81842 -0.26862,0.81842l-0.56325,0.83472c-4.39412,5.33289 -12.0702,6.32129 -18.52437,5.91197c-3.49672,-0.22176 -7.83765,-2.12181 -8.89316,-5.92785c-0.6062,-2.18587 0.44941,-4.41859 1.17819,-6.40069c1.0696,-0.90005 2.19938,-2.09551 3.68873,-2.32891c0.35956,-0.05635 0.80983,-0.01156 1.29598,0.0892c0.14847,-2.13252 1.15294,-4.75601 1.61691,-6.32382c2.35721,-7.96534 11.34261,-15.59492 19.39773,-9.02451c2.84701,2.32226 4.33267,6.57292 5.41415,9.93552c0.01726,2.70375 0.73284,5.79199 0.24811,8.47528c-0.55859,3.09221 -2.33068,3.79401 -4.59039,3.94067zM744.48763,159.28178c0.13043,0.00283 0.26098,0.00428 0.39164,0.00428c1.0847,0 5.93159,0.67894 6.57216,-0.35734c1.18521,-1.91739 -0.04109,-6.48764 -0.02583,-8.60499c-1.84464,-5.26839 -6.478,-12.88465 -13.31583,-8.92645c-1.70411,0.98645 -3.3133,3.72864 -4.37269,5.36015c-1.51199,2.32853 -1.9393,5.2426 -2.45454,7.92149c-0.09862,0.51273 -0.21076,1.20146 0.03262,1.64352c0.10523,0.03362 0.20151,0.06234 0.28726,0.08487c0.88377,0.23217 1.76795,0.48806 2.65358,0.74861c0.20139,0.03644 0.40335,0.07163 0.6057,0.10556c-0.02088,-2.99271 -0.01797,-6.94425 2.84771,-8.66019c4.76508,-2.85327 7.53073,5.64641 6.96341,9.12898c-0.07977,0.48966 -0.09081,1.04403 -0.18518,1.55152zM737.86275,157.6721c0.59587,0.06366 1.18784,0.11642 1.77155,0.15829c0.7795,0.05591 1.67215,0.80565 2.31624,0.36305c0.59962,-0.41204 -0.22219,-1.4399 -0.27018,-2.16586c-0.15312,-2.31643 -2.52525,-7.96488 -3.61709,-2.65735c-0.16013,0.77839 -0.1659,1.58175 -0.19897,2.37575c-0.02672,0.64151 -0.00922,1.28392 -0.00154,1.92613z" fill="none" stroke="none" stroke-width="0.5" stroke-linecap="butt"/><text transform="translate(127.71602,331.89758) scale(0.5,0.5)" font-size="40" xml:space="preserve" fill="#4a7b42" fill-rule="nonzero" stroke="none" stroke-width="1" stroke-linecap="butt" stroke-linejoin="miter" stroke-miterlimit="10" stroke-dasharray="" stroke-dashoffset="0" font-family="Handwriting" font-weight="normal" text-anchor="start" style="mix-blend-mode: normal"><tspan x="0" dy="0">Click to close</tspan></text></g></g></svg>