<svg version="1.1" xmlns="http://www.w3.org/2000/svg" xmlns:xlink="http://www.w3.org/1999/xlink" width="77.35876" height="77.35876" viewBox="0,0,77.35876,77.35876"><defs><linearGradient x1="136.53958" y1="189.3221" x2="136.53958" y2="264.18084" gradientUnits="userSpaceOnUse" id="color-1"><stop offset="0" stop-color="#00ff04"/><stop offset="1" stop-color="#00ab03"/></linearGradient><radialGradient cx="112.58679" cy="236.50008" r="12.24547" gradientUnits="userSpaceOnUse" id="color-2"><stop offset="0" stop-color="#333435"/><stop offset="1" stop-color="#2a2a2a"/></radialGradient><radialGradient cx="133.96241" cy="205.13296" r="7.1391" gradientUnits="userSpaceOnUse" id="color-3"><stop offset="0" stop-color="#333435"/><stop offset="1" stop-color="#2a2a2a"/></radialGradient><radialGradient cx="140.76191" cy="226.91225" r="22.27427" gradientUnits="userSpaceOnUse" id="color-4"><stop offset="0" stop-color="#333435"/><stop offset="1" stop-color="#2a2a2a"/></radialGradient><radialGradient cx="133.51506" cy="230.53807" r="8.44046" gradientUnits="userSpaceOnUse" id="color-5"><stop offset="0" stop-color="#333435"/><stop offset="1" stop-color="#2a2a2a"/></radialGradient></defs><g transform="translate(-97.86022,-188.07205)"><g data-paper-data="{&quot;isPaintingLayer&quot;:true}" fill-rule="nonzero" stroke-linecap="butt" stroke-linejoin="miter" stroke-miterlimit="10" stroke-dasharray="" stroke-dashoffset="0" style="mix-blend-mode: normal"><path d="M99.11022,264.1808v-74.85875h74.85876v74.85876z" fill="url(#color-1)" stroke="#000000" stroke-width="2.5"/><path d="M111.13241,227.99586c8.17233,-1.3976 15.44847,1.27687 16.2517,5.97362c0.80324,4.69674 -5.17062,9.6372 -13.34296,11.03481c-8.17234,1.39762 -0.07709,-3.49475 -0.8803,-8.1915c-0.80323,-4.69674 -10.20076,-7.41932 -2.02842,-8.81692z" data-paper-data="{&quot;index&quot;:null}" fill="url(#color-2)" stroke="#212122" stroke-width="2.5"/><path d="M136.36664,201.76672c3.28921,2.34921 4.87925,5.76074 3.55143,7.61987c-1.32782,1.85913 -5.07067,1.46184 -8.35988,-0.88739c-3.28921,-2.34922 -4.87925,-5.76074 -3.55143,-7.61987c1.32782,-1.85913 5.07067,-1.46184 8.35988,0.88739z" data-paper-data="{&quot;index&quot;:null}" fill="url(#color-3)" stroke="#212122" stroke-width="2.5"/><path d="M148.38416,205.98275c3.14246,1.14445 6.87225,4.65664 9.00971,8.086c2.83235,4.54427 2.15689,8.94815 2.57959,13.98211c0.06991,0.83264 -4.45372,1.55867 -7.63284,0.15335c-3.17912,-1.40532 -9.17575,-5.05528 -9.23813,-4.12439c-0.04841,0.72235 2.51657,6.71637 6.57006,8.71518c4.05347,1.9988 9.51526,1.01843 9.37501,1.7926c-2.19271,12.10475 -15.75246,16.95266 -25.90791,13.25417c-10.15544,-3.69848 -14.97547,-16.06715 -10.76581,-27.62621c4.20966,-11.55906 15.85488,-17.93129 26.01032,-14.23281z" data-paper-data="{&quot;index&quot;:null}" fill="url(#color-4)" stroke="#212122" stroke-width="2.5"/><path d="M133.40518,226.24371c4.91908,-0.12587 8.95599,1.69474 9.01668,4.06644c0.06069,2.3717 -3.87783,4.3964 -8.79691,4.52226c-4.91908,0.12587 -8.95599,-1.69473 -9.01667,-4.06643c-0.06069,-2.3717 3.87782,-4.39638 8.7969,-4.52226z" data-paper-data="{&quot;index&quot;:null}" fill="url(#color-5)" stroke="#212122" stroke-width="2.5"/><path d="M153.73315,222.26015c-0.99077,-0.36083 -1.50144,-1.45651 -1.14062,-2.44729c0.36083,-0.99077 1.45651,-1.50144 2.44729,-1.14062c0.99077,0.36083 1.50144,1.45651 1.14062,2.44729c-0.36083,0.99077 -1.45651,1.50144 -2.44729,1.14062z" data-paper-data="{&quot;index&quot;:null}" fill="#000000" stroke="none" stroke-width="0.5"/><path d="M145.46434,219.85833c-0.99077,-0.36083 -1.50144,-1.45651 -1.14062,-2.44729c0.36083,-0.99077 1.45651,-1.50144 2.44729,-1.14062c0.99077,0.36083 1.50144,1.45651 1.14062,2.44729c-0.36083,0.99077 -1.45651,1.50144 -2.44729,1.14062z" data-paper-data="{&quot;index&quot;:null}" fill="#000000" stroke="none" stroke-width="0.5"/><path d="M97.94588,243.55125l19.09508,-52.43208l57.5391,20.955l-19.09508,52.43208z" fill="none" stroke="none" stroke-width="0"/></g></g></svg>