<svg version="1.1" xmlns="http://www.w3.org/2000/svg" xmlns:xlink="http://www.w3.org/1999/xlink" width="94.86461" height="72.32771" viewBox="0,0,94.86461,72.32771"><defs><linearGradient x1="277.09074" y1="201.66018" x2="256.19309" y2="201.66018" gradientUnits="userSpaceOnUse" id="color-1"><stop offset="0" stop-color="#e5876f"/><stop offset="1" stop-color="#b66b4d"/></linearGradient><linearGradient x1="269.27132" y1="166.30755" x2="242.63648" y2="166.30755" gradientUnits="userSpaceOnUse" id="color-2"><stop offset="0" stop-color="#b66b4d"/><stop offset="1" stop-color="#e5876f"/></linearGradient><linearGradient x1="236.88378" y1="169.01036" x2="200.79085" y2="169.01036" gradientUnits="userSpaceOnUse" id="color-3"><stop offset="0" stop-color="#dd8a73"/><stop offset="1" stop-color="#e5876f"/></linearGradient><radialGradient cx="245.97059" cy="186.15669" r="33.23854" gradientUnits="userSpaceOnUse" id="color-4"><stop offset="0" stop-color="#679382"/><stop offset="1" stop-color="#497464"/></radialGradient><linearGradient x1="259.71233" y1="163.31702" x2="229.27093" y2="163.31702" gradientUnits="userSpaceOnUse" id="color-5"><stop offset="0" stop-color="#b66b4d"/><stop offset="1" stop-color="#e5876f"/></linearGradient><linearGradient x1="245.54629" y1="177.8177" x2="218.91145" y2="177.8177" gradientUnits="userSpaceOnUse" id="color-6"><stop offset="0" stop-color="#b66b4d"/><stop offset="1" stop-color="#e5876f"/></linearGradient></defs><g transform="translate(-192.56769,-143.83614)"><g data-paper-data="{&quot;isPaintingLayer&quot;:true}" fill-rule="nonzero" stroke-linecap="butt" stroke-linejoin="miter" stroke-miterlimit="10" stroke-dasharray="" stroke-dashoffset="0" style="mix-blend-mode: normal"><path d="M266.49581,197.08194c5.77015,-0.18415 10.51319,1.7163 10.59389,4.2448c0.08069,2.5285 -4.53151,4.72753 -10.30168,4.91168c-5.77015,0.18415 -10.51319,-1.7163 -10.59389,-4.2448c-0.08069,-2.52848 4.53151,-4.72753 10.30168,-4.91168z" data-paper-data="{&quot;index&quot;:null}" fill="url(#color-1)" stroke="#663725" stroke-width="2.5"/><path d="M259.54715,161.66261c7.08028,5.47719 11.21124,11.99694 9.22674,14.56226c-1.9845,2.56532 -9.33293,0.20476 -16.41322,-5.27243c-7.08028,-5.47719 -11.21124,-11.99694 -9.22674,-14.56226c1.9845,-2.56532 9.33293,-0.20476 16.41322,5.27243z" data-paper-data="{&quot;index&quot;:null}" fill="url(#color-2)" stroke="#663725" stroke-width="2.5"/><path d="M235.15131,167.73077c5.64168,5.64168 -3.92494,6.73768 -8.32821,11.14095c-4.40327,4.40327 -12.32107,6.89484 -17.48328,0.81136c-6.58128,-7.75579 -11.89671,-14.71401 -6.00077,-22.18131c6.69707,-8.48196 26.17058,4.58732 31.81226,10.229z" data-paper-data="{&quot;index&quot;:null}" fill="url(#color-3)" stroke="#924a31" stroke-width="2.5"/><path d="M212.73205,188.2708c0,-12.00024 14.88141,-21.72837 33.23854,-21.72837c18.35714,0 33.23854,9.72813 33.23854,21.72837c0,3.48631 -9.01123,2.22853 -11.52692,2.965c-16.12174,4.71965 1.41316,14.53514 -11.61086,14.53514c-18.35714,0 -43.33928,-5.4999 -43.33928,-17.50014z" data-paper-data="{&quot;index&quot;:null}" fill="url(#color-4)" stroke="#293a34" stroke-width="2.5"/><path d="M235.28259,172.88478c0,0 -12.87622,-20.81125 -0.9396,-19.02701c3.14298,0.46981 25.36935,19.02701 25.36935,19.02701z" data-paper-data="{&quot;index&quot;:null}" fill="url(#color-5)" stroke="#663725" stroke-width="2.5"/><path d="M235.82212,173.17278c7.08028,5.47719 11.21124,11.99694 9.22674,14.56226c-1.9845,2.56532 -9.33293,0.20476 -16.41322,-5.27243c-7.08028,-5.47719 -11.21124,-11.99694 -9.22674,-14.56226c1.9845,-2.56532 9.33293,-0.20476 16.41322,5.27243z" data-paper-data="{&quot;index&quot;:null}" fill="url(#color-6)" stroke="#663725" stroke-width="2.5"/><path d="M269.69561,185.33455c-1.3622,0 -2.46647,-1.10429 -2.46647,-2.46647c0,-1.3622 1.10429,-2.46647 2.46647,-2.46647c1.3622,0 2.46647,1.10429 2.46647,2.46647c0,1.3622 -1.10429,2.46647 -2.46647,2.46647z" data-paper-data="{&quot;index&quot;:null}" fill="#000000" stroke="none" stroke-width="0"/><path d="M192.56769,216.16386v-72.32771h94.86461v72.32771z" fill="none" stroke="none" stroke-width="0"/></g></g></svg>