<svg version="1.1" xmlns="http://www.w3.org/2000/svg" xmlns:xlink="http://www.w3.org/1999/xlink" width="117.02064" height="102.89778" viewBox="0,0,117.02064,102.89778"><defs><linearGradient x1="221.49032" y1="181.1585" x2="189.08265" y2="182.75157" gradientUnits="userSpaceOnUse" id="color-1"><stop offset="0" stop-color="#de5656"/><stop offset="1" stop-color="#d72727"/></linearGradient><linearGradient x1="291.30426" y1="175.63995" x2="222.75912" y2="168.53098" gradientUnits="userSpaceOnUse" id="color-2"><stop offset="0" stop-color="#de5656"/><stop offset="1" stop-color="#d72727"/></linearGradient><linearGradient x1="256.87305" y1="172.07948" x2="231.13071" y2="161.9677" gradientUnits="userSpaceOnUse" id="color-3"><stop offset="0" stop-color="#de5656"/><stop offset="1" stop-color="#d72727"/></linearGradient></defs><g transform="translate(-188.69654,-111.21415)"><g data-paper-data="{&quot;isPaintingLayer&quot;:true}" fill-rule="nonzero" stroke-linecap="butt" stroke-linejoin="miter" stroke-miterlimit="10" stroke-dasharray="" stroke-dashoffset="0" style="mix-blend-mode: normal"><path d="M254.00589,150.93255c0,0 1.26395,-9.82411 0.47486,-14.51671c-0.77417,-4.60387 -5.16551,-13.37782 -5.16551,-13.37782l7.9612,-1.42204c0,0 5.38233,8.23847 6.95758,12.96027c1.53547,4.60261 2.37761,15.0221 2.37761,15.0221z" data-paper-data="{&quot;index&quot;:null}" fill="#5a2300" stroke="#3d2300" stroke-width="2.5"/><path d="M230.12274,180.73416c0.50842,10.34322 -14.96653,19.50902 -23.91565,19.94894c-8.94913,0.43991 4.13634,-7.87934 3.27818,-18.6951c-0.81908,-10.32327 -14.06852,-18.3211 -5.1194,-18.761c8.94912,-0.4399 25.24843,7.16395 25.75687,17.50717z" data-paper-data="{&quot;index&quot;:null}" fill="url(#color-1)" stroke="#b90000" stroke-width="2.5"/><path d="M222.75912,168.53096c0.99955,-9.63774 8.95673,-24.12608 22.03702,-26.61625c9.26526,-1.76386 10.23666,7.06426 14.5852,7.51526c6.45531,0.66949 7.31537,-10.21377 21.30875,-5.53073c10.22057,3.42042 8.6037,23.19841 7.74858,31.44349c-0.08662,0.83516 -2.63653,1.92109 -5.53871,1.68518c-4.23916,-0.3446 -9.36465,-2.21012 -9.77601,-1.06071c-4.50883,12.59802 13.34182,10.02774 12.77598,12.66825c-0.57776,2.69607 -8.4809,11.28741 -15.94739,11.25612c-10.48985,-0.04394 -11.23248,-4.73185 -15.2705,-5.15064c-6.64164,-0.68882 -6.39133,9.08121 -22.8805,5.18602c-10.2786,-2.4281 -9.88475,-23.27406 -9.04241,-31.39597z" data-paper-data="{&quot;index&quot;:null}" fill="url(#color-2)" stroke="#b90000" stroke-width="2.5"/><path d="M279.88574,170.49426c-1.6461,-0.17072 -2.84216,-1.64357 -2.67144,-3.28969c0.17072,-1.64612 1.64356,-2.84217 3.28968,-2.67144c1.64612,0.17072 2.84217,1.64356 2.67144,3.28968c-0.17072,1.64612 -1.64356,2.84218 -3.28968,2.67145z" data-paper-data="{&quot;index&quot;:null}" fill="#000000" stroke="none" stroke-width="0"/><path d="M231.13073,161.9677c1.16345,-2.96188 7.86924,-3.09937 14.97779,-0.30711c7.10856,2.79228 11.928,7.45697 10.76455,10.41888c-1.16345,2.96188 -7.86924,3.09937 -14.97779,0.30711c-7.10856,-2.79228 -11.92801,-7.45697 -10.76456,-10.41888z" data-paper-data="{&quot;index&quot;:null}" fill="url(#color-3)" stroke="#b90000" stroke-width="2.5"/><path d="M239.02743,134.3204c-5.87502,-0.37682 -10.51381,-2.61309 -10.36105,-4.99486c0.15277,-2.38175 5.03925,-4.00708 10.91427,-3.63026c5.87502,0.37682 10.36105,4.99486 10.36105,4.99486c0,0 -5.03925,4.00708 -10.91427,3.63026z" data-paper-data="{&quot;index&quot;:null}" fill="#0e8400" stroke="#005604" stroke-width="2.5"/><path d="M188.69654,202.96233l9.51541,-91.74818l107.50523,11.14961l-9.51541,91.74818z" fill="none" stroke="none" stroke-width="0"/></g></g></svg>