<svg version="1.1" xmlns="http://www.w3.org/2000/svg" xmlns:xlink="http://www.w3.org/1999/xlink" width="77.35876" height="77.35876" viewBox="0,0,77.35876,77.35876"><defs><linearGradient x1="57.44353" y1="189.32204" x2="57.44353" y2="264.1808" gradientUnits="userSpaceOnUse" id="color-1"><stop offset="0" stop-color="#00ff04"/><stop offset="1" stop-color="#00ab03"/></linearGradient></defs><g transform="translate(-18.76415,-188.07204)"><g data-paper-data="{&quot;isPaintingLayer&quot;:true}" fill-rule="nonzero" stroke-linecap="butt" stroke-linejoin="miter" stroke-miterlimit="10" stroke-dasharray="" stroke-dashoffset="0" style="mix-blend-mode: normal"><path d="M20.01415,264.1808v-74.85876h74.85876v74.85876z" fill="url(#color-1)" stroke="#000000" stroke-width="2.5"/><path d="M23.16827,243.13716v-35.42983h69.05202v35.42983z" fill="none" stroke="none" stroke-width="0"/><path d="M31.3426,244.04614c0,0 7.74336,-7.07859 7.74336,-10.86571c0,-3.28374 -7.74336,-10.563 -7.74336,-10.563c0,0 22.09835,0.08003 22.09835,9.82148c0,9.74145 -22.09835,11.60722 -22.09835,11.60722z" data-paper-data="{&quot;index&quot;:null}" fill="#595959" stroke="#4d4d4d" stroke-width="2.5"/><path d="M51.12177,231.19558l-6.80019,-7.39152l6.8002,-9.16547h18.33096c0,0 8.63345,4.7017 11.16601,7.94783c2.30234,2.95104 5.25911,9.28357 5.25911,9.28357c0,0 -2.14193,1.34286 -6.32899,1.32408c-4.85544,-0.02178 -7.23304,-2.25877 -7.23304,-2.25877z" data-paper-data="{&quot;index&quot;:null}" fill="#595959" stroke="#4d4d4d" stroke-width="2.5"/><path d="M54.43949,247.82787l-6.80019,-7.39152l6.8002,-9.16547h18.33096c0,0 1.39788,4.43844 4.19314,5.89483c2.79525,1.4564 6.91023,1.06518 6.91023,1.06518l-11.10336,9.59697z" data-paper-data="{&quot;index&quot;:null}" fill="#595959" stroke="#4d4d4d" stroke-width="2.5"/><path d="M77.10181,226.43476c-0.6289,0 -1.13873,-0.50982 -1.13873,-1.13873c0,-0.6289 0.50982,-1.13873 1.13873,-1.13873c0.6289,0 1.13873,0.50982 1.13873,1.13873c0,0.6289 -0.50982,1.13873 -1.13873,1.13873z" data-paper-data="{&quot;index&quot;:null}" fill="#000000" stroke="none" stroke-width="0.5"/><path d="M71.74465,227.1044c-0.6289,0 -1.13873,-0.50982 -1.13873,-1.13873c0,-0.6289 0.50982,-1.13873 1.13873,-1.13873c0.6289,0 1.13873,0.50982 1.13873,1.13873c0,0.6289 -0.50982,1.13873 -1.13873,1.13873z" data-paper-data="{&quot;index&quot;:null}" fill="#000000" stroke="none" stroke-width="0.5"/><path d="M54.78632,220.80324c4.29872,1.52529 7.06503,4.78673 6.17871,7.28465c-0.88633,2.49791 -5.08963,3.28637 -9.38835,1.76108c-4.29873,-1.5253 -7.06503,-4.78675 -6.17871,-7.28465c0.88633,-2.49791 5.08963,-3.28637 9.38835,-1.76107z" data-paper-data="{&quot;index&quot;:null}" fill="#595959" stroke="#4d4d4d" stroke-width="2.5"/><path d="M54.55704,213.91203l-6.02683,-9.59828l8.53327,1.14326l11.77936,8.45502z" data-paper-data="{&quot;index&quot;:null}" fill="#595959" stroke="#4d4d4d" stroke-width="2.5"/><path d="M27.07674,251.95122v-51.76081h62.70909v51.76081z" fill="none" stroke="none" stroke-width="0"/></g></g></svg>