<svg version="1.1" xmlns="http://www.w3.org/2000/svg" xmlns:xlink="http://www.w3.org/1999/xlink" width="77.35876" height="77.35876" viewBox="0,0,77.35876,77.35876"><defs><linearGradient x1="57.44353" y1="109.5198" x2="57.44353" y2="184.37857" gradientUnits="userSpaceOnUse" id="color-1"><stop offset="0" stop-color="#00ff04"/><stop offset="1" stop-color="#00ab03"/></linearGradient></defs><g transform="translate(-18.76414,-108.2698)"><g data-paper-data="{&quot;isPaintingLayer&quot;:true}" fill-rule="nonzero" stroke-linecap="butt" stroke-linejoin="miter" stroke-miterlimit="10" stroke-dasharray="" stroke-dashoffset="0" style="mix-blend-mode: normal"><path d="M20.01415,184.37857v-74.85876h74.85876v74.85876z" fill="url(#color-1)" stroke="#000000" stroke-width="2.5"/><path d="M80.56806,140.89203c-0.27763,-1.57263 -0.76018,-3.76889 -1.91574,-4.97607c-2.59077,-2.70651 -6.25925,-3.21268 -9.67829,-3.99596c-1.03381,-0.23684 -1.98812,-0.75546 -3.01905,-1.00455c-3.71983,-0.8988 -8.22543,-0.87911 -11.763,0.53592c-4.05967,1.07428 -6.22588,4.75326 -9.43275,7.20385c-1.81446,1.38656 -2.56678,2.68535 -5.15378,2.28212c-3.33656,-0.52006 -5.76436,-3.37873 -6.46991,-6.41372c-0.05722,-0.24615 -0.34861,-0.97366 -0.61954,-1.72246c0.16636,3.77573 0.78842,7.51744 1.09803,11.27811c0.33161,4.02782 0.00502,8.22564 0.00502,12.26876c0,1.72482 0.00188,3.44965 0.00002,5.17446c0.56902,-1.18779 1.14057,-2.37586 1.88874,-3.44585c1.96413,-2.80899 5.9537,-3.8417 8.92145,-1.78882c1.36241,0.94242 2.23397,2.88147 3.19229,4.18614c1.18411,1.61207 2.55046,2.73332 4.19522,3.84716c2.23524,0.79504 4.74531,2.26696 7.10406,2.56946c1.87633,0.24063 4.3716,-0.00225 6.21,-0.40863c2.66829,-0.58982 5.37723,-0.81546 7.82913,-2.10243c1.63599,-0.85871 0.52853,-2.90056 -0.86373,-3.35396c-1.03581,-0.33731 -2.17519,-0.12362 -3.26248,-0.19061c-0.59049,-0.65584 -1.40285,-1.16568 -1.77147,-1.9675c-0.2914,-0.63382 -0.07689,-1.3933 -0.09423,-2.09068c-0.03992,-1.6061 -0.02243,-3.47504 0.29855,-5.05221c0.16765,-0.82377 0.10551,-1.8321 0.70502,-2.42142c0.61386,-0.60344 1.63393,-0.56635 2.48234,-0.7118c2.05375,-0.35209 4.69251,-0.09403 6.773,-0.00444c0.86205,0.03712 1.74998,0.5533 2.57212,0.29135c0.54932,-0.17502 0.43328,-1.09018 0.46532,-1.66581c0.08943,-1.60704 -0.00596,-3.25885 -0.00596,-4.86932c0,0 0,-0.5048 0.29534,-0.92373zM83.21194,142.67572c0.06232,2.78049 0.79662,7.3295 -2.11696,8.85211c-0.71912,0.3758 -1.61826,0.14732 -2.42965,0.14844c-2.15663,0.00299 -4.34003,-0.1371 -6.50691,-0.14139c-0.47985,-0.00095 -0.96085,0.02733 -1.43955,-0.00596c-0.22489,-0.01564 -0.51016,-0.30715 -0.66162,-0.14017c-0.16454,0.18141 0.13363,0.47763 0.13339,0.72255c-0.00055,0.5627 -0.24718,2.55841 -0.2746,3.16033c-0.02973,0.65295 -0.28196,2.29507 0.13651,2.87745c3.81923,-0.48334 8.58836,3.01414 6.07127,7.26986c-1.21178,2.04879 -4.75164,2.89899 -6.87603,3.24624c-3.48394,0.56948 -7.14314,1.6208 -10.71843,1.14879c-2.68597,-0.3546 -5.51369,-1.92451 -8.04412,-2.86103c-2.05574,-1.35457 -3.76307,-2.73306 -5.23667,-4.72729c-1.44028,-1.94916 -1.99364,-3.92382 -4.6727,-3.97413c-3.25725,-0.06116 -4.58839,5.41673 -5.95341,7.68227l-0.11429,0.07457l0.03219,0.02817l-0.99486,1.13699c-0.27041,0.31231 -0.6698,0.50989 -1.11534,0.50989c-0.74022,0 -1.35307,-0.54536 -1.45866,-1.2562l-0.28183,-1.69098l0.01326,-0.00221c-0.00999,-0.03935 -0.01944,-0.07888 -0.0283,-0.1186c-0.00599,-0.02683 -0.00502,-4.13712 -0.00502,-4.83758c0,-2.90578 0,-5.81156 0,-8.71735c0,-2.21833 0.19152,-4.52956 0.00502,-6.73792c-0.37947,-4.49321 -1.14677,-8.95217 -1.14677,-13.47886c0.25833,-0.9055 -0.04468,-2.25303 0.775,-2.7165c2.32091,-1.31232 3.93563,0.95233 4.74069,2.42624c0.77479,1.41848 0.66813,3.18802 1.18341,4.66356c0.4217,1.20759 2.72233,2.53592 3.89025,2.8156c1.30749,0.3131 3.13968,-1.81938 4.1352,-2.57674c1.25748,-0.95664 1.91519,-2.08886 2.93173,-3.23122c1.57306,-1.76776 3.84419,-2.94698 6.07058,-3.56986c4.03935,-1.61574 9.13826,-1.60737 13.3887,-0.60734c1.02047,0.24009 1.96035,0.76584 2.98306,0.99615c3.98774,0.89802 8.23222,1.67068 11.18619,4.8643c1.55411,1.68019 2.25188,4.27931 2.65729,6.45652l0.02378,1.40707c0,0 0,0.48929 -0.28183,0.9042z" data-paper-data="{&quot;index&quot;:null}" fill="#040404" stroke="none" stroke-width="0.5"/><path d="M80.58202,141.41092c-0.29534,0.41892 -0.29507,0.92464 -0.29507,0.92464c0,1.61047 0.09632,3.26808 0.00689,4.87512c-0.03203,0.57564 0.08406,1.49286 -0.46526,1.66788c-0.82213,0.26195 -1.76905,-0.25444 -2.6311,-0.29156c-2.08049,-0.08959 -4.66026,-0.34784 -6.71402,0.00425c-0.84841,0.14544 -1.86853,0.11017 -2.48239,0.7136c-0.5995,0.58932 -0.53846,1.60409 -0.70611,2.42786c-0.32098,1.57718 -0.34358,3.45611 -0.30364,5.06221c0.01734,0.69739 -0.19926,1.45928 0.09213,2.09311c0.36862,0.80182 1.13889,1.27034 1.72938,1.92617c1.08729,0.06699 2.22454,-0.14431 3.26034,0.19301c1.39226,0.45339 2.54408,2.53403 0.9081,3.39274c-2.4519,1.28697 -5.16933,1.51877 -7.83763,2.10859c-1.8384,0.40637 -4.34265,0.65192 -6.21898,0.4113c-2.35876,-0.30249 -4.88115,-1.77542 -7.1164,-2.57046c-1.64475,-1.11384 -3.02035,-2.23977 -4.20446,-3.85184c-0.95832,-1.30468 -1.83707,-3.25153 -3.19948,-4.19395c-2.96774,-2.05288 -6.90545,-1.04798 -8.86959,1.76101c-0.74817,1.06999 -1.37235,2.28458 -1.94136,3.47237c0.00186,-1.72481 -0.00226,-3.4547 -0.00226,-5.17951c0,-4.04312 0.32562,-8.25611 -0.00599,-12.28392c-0.30962,-3.76068 -0.92737,-7.51287 -1.09373,-11.28859c0.27093,0.7488 0.6122,1.50778 0.66942,1.75393c0.70555,3.03499 3.08124,5.86622 6.41781,6.38627c2.587,0.40323 3.34367,-0.90241 5.15813,-2.28897c3.20686,-2.45059 5.39158,-6.13971 9.45125,-7.21399c3.53757,-1.41503 8.06099,-1.43155 11.78082,-0.53275c1.03093,0.24909 1.98901,0.77009 3.02282,1.00693c3.41904,0.78328 7.09548,1.2984 9.68625,4.00491c1.15556,1.20719 1.64062,3.4091 1.91825,4.98173z" data-paper-data="{&quot;noHover&quot;:false,&quot;origItem&quot;:[&quot;Path&quot;,{&quot;applyMatrix&quot;:true,&quot;segments&quot;:[[[200.36248,174.39422],[0,0],[0.50066,0.71016]],[[200.86314,175.96013],[0,0],[0,2.73009]],[[200.85304,184.21467],[-0.15161,-2.72427],[0.0543,0.97582]],[[201.64185,187.03857],[-0.93121,-0.29671],[1.39369,0.44406]],[[206.00213,186.54467],[-1.46137,0.06293],[3.52688,-0.15188]],[[217.48383,186.5522],[-3.48155,-0.59686],[1.43824,0.24657]],[[221.69193,187.75885],[-1.04063,-1.02295],[1.01629,0.99902]],[[222.8871,191.86367],[-0.2842,-1.39647],[0.54413,2.67365]],[[223.3932,200.42826],[0.06769,-2.72269],[-0.02939,1.18222]],[[223.23346,203.97242],[0.49398,-1.07448],[-0.6249,1.35925]],[[220.23043,207.30776],[1.00101,-1.11178],[-1.84318,0.11356]],[[214.69984,207.63088],[1.75591,-0.57182],[-2.36017,0.7686]],[[213.23564,213.31656],[-2.77335,-1.45569],[4.1565,2.18169]],[[226.50769,216.88063],[-4.52334,-0.99987],[3.11649,0.68889]],[[237.03496,217.57334],[-3.18078,0.40791],[3.9986,-0.51279]],[[249.07789,213.21756],[-3.78922,1.34777],[2.78822,-1.88819]],[[256.18968,206.69581],[-2.00732,2.73281],[1.62455,-2.2117]],[[261.6013,199.5994],[-2.30958,1.59761],[5.03096,-3.48007]],[[276.72506,202.63184],[-3.32963,-4.76184],[1.26831,1.81386]],[[279.92688,208.4733],[-0.9646,-2.01356],[-0.00315,-2.92393]],[[279.92692,199.70148],[0,2.92393],[0,-6.85396]],[[279.93544,178.90329],[-0.56215,6.82801],[0.52486,-6.37515]],[[281.79684,159.78446],[-0.28202,6.40067],[-0.45929,1.26937]],[[280.74659,162.7044],[0.09701,-0.41727],[-1.19606,5.14496]],[[269.7787,173.57704],[5.6562,-0.88161],[-4.38551,0.68356]],[[261.04195,169.70836],[3.0759,2.35052],[-5.43632,-4.15428]],[[245.05142,157.49629],[6.88201,1.82114],[-5.99693,-2.39877]],[[225.11061,156.58779],[6.30591,-1.52365],[-1.74765,0.42227]],[[219.99267,158.29072],[1.75253,-0.4015],[-5.79601,1.32783]],[[203.58589,165.06472],[4.39191,-4.58812],[-1.95892,2.04644]],[[200.3383,173.50024],[0.47064,-2.66595],[0,0]]],&quot;closed&quot;:true}],&quot;index&quot;:null}" fill="#ffffff" stroke="none" stroke-width="0.5"/><path d="M56.89447,145.39321c1.07357,-0.48493 1.77153,0.56201 1.77153,0.56201l0.75711,1.25171c0.55092,1.84617 1.47119,4.11987 -0.05448,5.86639c-0.77579,0.88809 -2.24871,0.8376 -3.16573,1.57898c-1.79521,1.45136 -3.08161,3.64798 -5.8618,2.6455c-3.97182,-1.43216 -4.53062,-8.40972 -1.61773,-11.03815c1.57922,-1.425 5.00336,-1.2217 6.87292,-1.38431c0,0 0.83192,-0.07235 1.29818,0.51786zM55.85181,147.81373c-0.21989,0.01912 -4.51406,-0.01169 -5.13131,0.61639c-1.3811,1.40535 -1.1667,5.12243 0.66879,6.11074c0.9031,0.48627 2.59076,-1.89758 2.99846,-2.21335c0.81997,-0.6351 1.96539,-0.71607 2.83638,-1.27917c0.4133,-0.26721 -0.56187,-2.78099 -0.62611,-2.99388l-0.2963,-0.3554c-0.2478,0.09708 -0.44992,0.11467 -0.44992,0.11467z" data-paper-data="{&quot;index&quot;:null}" fill="#040404" stroke="none" stroke-width="0.5"/><path d="M55.86842,147.78936c0,0 0.20379,-0.01636 0.45158,-0.11344l0.29862,0.35744c0.06425,0.21288 1.0483,2.74694 0.635,3.01415c-0.87099,0.5631 -2.02912,0.66918 -2.8491,1.30428c-0.4077,0.31577 -2.12812,2.70013 -3.03122,2.21386c-1.83549,-0.98831 -2.05525,-4.75052 -0.67414,-6.15587c0.61725,-0.62808 4.94938,-0.6013 5.16927,-0.62041z" data-paper-data="{&quot;noHover&quot;:false,&quot;origItem&quot;:[&quot;Path&quot;,{&quot;applyMatrix&quot;:true,&quot;segments&quot;:[[[241.47493,185.03959],[0.42006,0.16458],[0,0]],[[240.97265,185.64207],[0,0],[-0.1089,0.36088]],[[239.91126,190.71733],[-0.70064,-0.45297],[1.47651,0.95457]],[[244.71953,192.88579],[-1.39003,-1.07663],[0.69113,0.53531]],[[249.80257,196.6379],[-1.53095,0.82433],[3.11155,-1.6754]],[[250.93632,186.27889],[2.34127,2.38237],[-1.04637,-1.06474]],[[242.23765,185.23397],[0.37275,0.0324],[0,0]]],&quot;closed&quot;:true}],&quot;index&quot;:null}" fill="#ffffff" stroke="none" stroke-width="0.5"/><path d="M73.77012,138.3949c0.43465,0.43695 0.43466,1.09008 0.43466,1.09008l-0.00606,1.41969l-0.14155,1.55701c-0.06037,0.75905 -0.69547,1.3562 -1.47004,1.3562c-0.77458,0 -1.40967,-0.59715 -1.47004,-1.3562l-0.14154,-1.55701l0.03015,-0.00275l-0.03468,-0.06395c-0.00051,-0.59391 -0.00101,-1.18781 -0.00151,-1.78172c0,0 0,-1.47474 1.47474,-1.47474c0.78812,0 1.15506,0.42118 1.3259,0.81337z" data-paper-data="{&quot;index&quot;:null}" fill="#0088ff" stroke="none" stroke-width="0.5"/><path d="M85.42521,131.18527l-0.64675,0.1324c-0.64519,0.38064 -1.58193,1.03078 -2.53075,1.34988c0.15524,0.23354 0.24568,0.51387 0.24568,0.81532c0,0.81448 -0.66026,1.47474 -1.47474,1.47474h-0.03462l0.98975,1.11347c0.12293,0.13702 0.22058,0.29717 0.28563,0.47313l1.28368,1.1003c0.31946,0.27051 0.52227,0.67455 0.52227,1.12595c0,0.31426 -0.0983,0.60556 -0.26582,0.84484c0.19144,0.40865 0.31959,1.07167 -0.37206,1.68647c-1.10223,0.97976 -2.082,-0.12247 -2.082,-0.12247c-1.7117,-1.92572 -3.6597,-4.53537 -6.08243,-5.63963c-1.75039,-0.79781 -4.15782,-0.79502 -6.05067,-1.31148l-1.45976,-0.1327c-0.75905,-0.06037 -1.3562,-0.69547 -1.3562,-1.47004c0,-0.3232 0.10398,-0.62213 0.2803,-0.86514c-3.50433,1.52439 -3.3324,-3.406 -2.99426,-5.19826c0.1866,-0.98905 -0.1886,-2.5251 0.73325,-2.92911c0.61347,-0.26886 1.52227,0.0887 2.45165,0.57501c1.06929,-0.50448 2.38793,-0.54261 3.72648,-0.4027l2.7989,-0.08481c0.0172,-0.00059 0.03446,-0.00089 0.0518,-0.00089c0.44011,0 0.83519,0.19279 1.1054,0.49852c0.16767,-0.16449 0.33316,-0.33989 0.49743,-0.52529l0.63652,-1.27304c0.23647,-0.49883 0.74461,-0.84379 1.33334,-0.84379c0.75543,0 1.37819,0.568 1.46452,1.30023l0.2831,2.12322l-0.03456,0.0046c0.01084,0.06028 0.02024,0.12091 0.02809,0.18192c0.30399,-0.02712 0.64975,-0.03537 1.04242,-0.02208c1.68945,0.05718 2.10339,3.07969 2.08549,4.28207c-0.00304,0.20459 -0.34434,0.45022 -0.18942,0.58388c0.14397,0.1242 0.16599,-0.35741 0.31493,-0.4756c0.38255,-0.30359 0.83276,-0.51041 1.24914,-0.76562l1.35396,-0.43924c0,0 1.418,-0.40514 1.82314,1.01286c0.40514,1.418 -1.01286,1.82314 -1.01286,1.82314zM67.76796,131.02821l-0.01062,-0.00111c-0.00073,0.00253 -0.00148,0.00505 -0.00223,0.00754zM74.46584,128.17138c0.15725,-0.18749 0.33555,-0.35523 0.53541,-0.49788c0.01507,-0.04716 0.03015,-0.09472 0.04526,-0.1426c-0.31701,0.20627 -0.64213,0.38848 -0.97693,0.54482c0.1349,0.02932 0.26695,0.06124 0.39626,0.09567z" data-paper-data="{&quot;index&quot;:null}" fill="#ff9d00" stroke="none" stroke-width="0.5"/><path d="M26.14085,171.93953v-52.3706h63.44786v52.3706z" fill="none" stroke="none" stroke-width="0"/></g></g></svg>