<svg version="1.1" xmlns="http://www.w3.org/2000/svg" xmlns:xlink="http://www.w3.org/1999/xlink" width="90.82097" height="92.32907" viewBox="0,0,90.82097,92.32907"><g transform="translate(-194.8897,-133.91504)"><g data-paper-data="{&quot;isPaintingLayer&quot;:true}" fill-rule="nonzero" stroke-linejoin="miter" stroke-miterlimit="10" stroke-dasharray="" stroke-dashoffset="0" style="mix-blend-mode: normal"><path d="M219.11999,199.23265c-4.00095,-4.26548 -2.82369,-8.01854 0.25892,-10.90999c3.08262,-2.89144 6.75623,-4.97222 10.75719,-0.70672c4.00095,4.26548 6.81418,13.26196 3.73155,16.15341c-3.08262,2.89144 -10.74671,-0.27121 -14.74767,-4.53671z" fill="#faff00" stroke="#000000" stroke-width="2" stroke-linecap="butt"/><g data-paper-data="{&quot;index&quot;:null}"><path d="M210.65178,216.67893l-2.86874,-4.84439l12.17274,-6.98132" fill="none" stroke="#000000" stroke-width="2" stroke-linecap="round"/><path d="M209.60314,215.00619c0.21449,-0.93197 -0.34363,-1.48579 -0.65159,-2.84571c-0.12307,-0.5435 -0.50675,-1.33173 -0.27016,-1.62764c0.28276,-0.35364 0.88227,0.20688 1.32341,0.31033c1.41033,1.57354 4.18201,3.48135 4.57111,6.33929c0.23002,1.68941 -0.65694,2.95254 -1.78549,2.75477c-1.0493,-0.18389 -2.11001,-1.34526 -3.0079,-2.62352c-0.11346,-0.02621 -0.24743,-0.11563 -0.39692,-0.32065c-0.18344,-0.25158 -0.24889,-0.48339 -0.26006,-0.67331c-0.15566,-0.24851 -0.30352,-0.49309 -0.44229,-0.72748c0,0 -0.42628,-0.71994 -0.04345,-1.14208c0.38281,-0.42213 0.80909,0.29781 0.80909,0.29781c0.05149,0.08696 0.10288,0.17304 0.15426,0.2582z" fill="#000000" stroke="none" stroke-width="0.5" stroke-linecap="butt"/></g><g><path d="M220.65856,221.81494l-4.7864,-2.12827l5.49501,-11.22349" fill="none" stroke="#000000" stroke-width="2" stroke-linecap="round"/><path d="M217.54391,220.4787c-0.1709,-0.9473 -0.93768,-1.20541 -1.78957,-2.31162c-0.34046,-0.4421 0.14988,-0.50962 0.25911,-0.88532c0.13053,-0.44898 -0.24298,-0.68557 0.22711,-0.78714c2.00836,0.81138 5.47358,1.32309 7.01344,3.76256c0.91025,1.44204 0.56334,2.99103 -0.6121,3.31197c-1.0929,0.29841 -2.59443,-0.29163 -3.9855,-1.0609c-0.12074,0.0265 -0.2871,0.00432 -0.51554,-0.11664c-0.28031,-0.14843 -0.4381,-0.33122 -0.52617,-0.49986c-0.25211,-0.15796 -0.49503,-0.3158 -0.72502,-0.46836c0,0 -0.70641,-0.46859 -0.50664,-1.02467c0.19976,-0.55607 0.90617,-0.08748 0.90617,-0.08748c0.08532,0.0566 0.1702,0.11245 0.25468,0.16744z" fill="#000000" stroke="none" stroke-width="0.5" stroke-linecap="butt"/></g><path d="M201.88778,205.38798c-5.03069,-3.01191 -4.29821,-8.53944 -1.34461,-14.13065c2.95358,-5.5912 6.67725,-10.50621 11.70795,-7.49428c5.03069,3.01191 9.4634,12.8102 6.50981,18.40141c-2.95358,5.5912 -11.84244,6.23545 -16.87314,3.22353z" fill="#faff00" stroke="#000000" stroke-width="2" stroke-linecap="butt"/><path d="M230.33047,216.70319c-9.0173,0.4001 -16.60378,-5.50776 -16.9449,-13.19559c-0.34111,-7.68783 6.69232,-14.24438 15.70962,-14.64448c9.0173,-0.4001 16.60378,5.50776 16.9449,13.19559c0.34111,7.68783 -6.69232,14.24438 -15.70962,14.64449z" fill="#4dff00" stroke="#000000" stroke-width="2" stroke-linecap="butt"/><path d="M245.38821,200.89348c-1.27136,1.05666 -3.32991,0.67649 -4.5979,-0.84914c-1.26799,-1.52562 -1.26527,-3.61899 0.00609,-4.67565c1.27136,-1.05666 3.32991,-0.67649 4.5979,0.84914c1.26799,1.52562 1.26527,3.61899 -0.00609,4.67565z" fill="#faff00" stroke="#000000" stroke-width="2" stroke-linecap="butt"/><path d="M225.4687,216.08428c-5.72478,1.19534 -8.31624,-1.76367 -9.1801,-5.90092c-0.86386,-4.13723 -0.72789,-8.35702 4.99691,-9.55236c5.72478,-1.19534 14.87052,1.0864 15.73438,5.22364c0.86386,4.13723 -5.8264,9.03429 -11.55119,10.22963z" fill="#faff00" stroke="#000000" stroke-width="2" stroke-linecap="butt"/><path d="M235.05654,190.65321c0.15709,2.6829 -3.1317,2.86635 -6.66594,2.86635c-3.53424,0 -6.3993,0.35441 -6.3993,-2.33308c0,-2.6875 -2.86765,-8.06579 0.66659,-8.06579c3.53424,0 12.13202,2.97856 12.39865,7.53252z" fill="#faff00" stroke="#000000" stroke-width="2" stroke-linecap="butt"/><g><path d="M253.86711,167.08295c-8.59635,0 -15.56507,-6.87938 -15.56507,-15.36552c0,-8.48614 6.96872,-15.36552 15.56507,-15.36552c8.59635,0 15.56507,6.87938 15.56507,15.36552c0,8.48614 -6.96872,15.36552 -15.56507,15.36552z" fill="#00b3ff" stroke="#000000" stroke-width="2" stroke-linecap="butt"/><path d="M280.14431,177.74443c0,13.65497 -11.25716,24.72451 -25.14357,24.72451c-13.88641,0 -25.14357,-11.06954 -25.14357,-24.72451c0,-13.65497 11.25716,-24.72451 25.14357,-24.72451c13.88641,0 25.14357,11.06954 25.14357,24.72451z" fill="#faff00" stroke="#000000" stroke-width="2" stroke-linecap="butt"/><path d="M268.93447,181.4112l0.62859,-14.45755" fill="none" stroke="#000000" stroke-width="2" stroke-linecap="round"/><path d="M256.57222,165.906v15.71473" fill="none" stroke="#000000" stroke-width="2" stroke-linecap="round"/><path d="M250.28632,186.02086l18.22909,0.20953" fill="none" stroke="#000000" stroke-width="2" stroke-linecap="round"/><path d="M267.25823,186.43992c0,-0.83812 0.83812,-0.83812 0.83812,-0.83812h0.62859c4.53057,0 1.47749,2.78188 0.04298,4.69204c-0.55713,0.74184 -1.13382,2.48707 -1.82337,3.08574c-1.6341,1.41874 -4.30478,1.94097 -6.39752,2.46416c-3.3344,0.8336 -6.44554,1.15265 -8.63579,-1.78975c-0.72509,-0.97409 -1.6671,-1.32111 -2.02155,-2.60232c-0.47905,-1.73159 -0.23195,-3.84754 -0.23195,-5.64033c0,0 0,-0.83812 0.83812,-0.83812c0.83812,0 0.83812,0.83812 0.83812,0.83812c0,1.71926 -0.16,3.58087 0.18711,5.25521c0.16457,0.79387 1.32081,1.43909 1.74998,2.00733c1.73028,2.29096 4.21615,1.80698 6.86942,1.14367c1.93798,-0.4845 4.19611,-0.94943 5.7552,-2.1455c0.39554,-0.30344 1.26433,-2.42764 1.5291,-2.78109c0.39004,-0.52067 1.28954,-1.79827 2.04391,-2.25043c-0.22505,0.10112 -0.5683,0.23751 -0.74375,0.23751h-0.62859c0,0 -0.83812,0 -0.83812,-0.83812z" fill="#000000" stroke="none" stroke-width="0.5" stroke-linecap="butt"/><path d="M267.79363,159.4157c-0.71394,0.35697 -1.07091,-0.35697 -1.07091,-0.35697c-1.15897,-2.31796 -1.9571,-5.13721 0.14952,-7.30706c0.60491,-0.62307 1.78582,-0.99525 2.39463,-1.59642c0.48427,-0.47819 1.08439,-0.9657 1.76173,-1.032h0.79821c0,0 0.03329,0 0.08628,0.0068c0.66346,-0.32019 1.36767,-0.58598 2.12495,-0.78366c1.18548,-0.30944 2.44323,-0.15946 3.64747,-0.41015c2.27057,-0.47268 4.09755,-0.91388 4.09755,2.16861c-2.07335,4.36098 -5.69928,6.32143 -10.17197,7.37824c-1.18809,0.28072 -1.87791,1.19731 -3.19283,1.19731l-0.17897,0.09633c-0.00801,0.21665 -0.10473,0.46851 -0.44566,0.63897z" fill="#00b3ff" stroke="#000000" stroke-width="1.5" stroke-linecap="butt"/></g><path d="M194.8897,226.24411v-92.32907h90.82097v92.32907z" fill="none" stroke="none" stroke-width="0" stroke-linecap="butt"/></g></g></svg>