<svg version="1.1" xmlns="http://www.w3.org/2000/svg" xmlns:xlink="http://www.w3.org/1999/xlink" width="133.5" height="599.60829" viewBox="0,0,133.5,599.60829"><g transform="translate(-365.19167,13.97498)"><g data-paper-data="{&quot;isPaintingLayer&quot;:true}" fill-rule="nonzero" stroke-linecap="butt" stroke-linejoin="miter" stroke-miterlimit="10" stroke-dasharray="" stroke-dashoffset="0" style="mix-blend-mode: normal"><path d="M366.44167,367.27502v-380h131v380z" fill="#30d932" stroke="#000000" stroke-width="2.5"/><path d="M453.41352,585.25872c-1.15995,0.95106 -2.11101,-0.2089 -2.11101,-0.2089l-1.84311,-2.77713c-0.00127,-0.27369 0.00725,-5.18613 -0.11056,-5.62409c-0.26283,-0.97707 -1.11739,-1.73415 -1.34932,-2.71902c-0.23567,-1.00075 0.14333,-2.06884 -0.01735,-3.08433c-0.39308,-2.48427 -1.67285,-5.60344 -2.39941,-8.03138c-0.58855,-1.96674 -1.74894,-3.76321 -2.12026,-5.78227c-0.17071,-0.92825 0.14675,-1.92388 -0.12121,-2.82886c-0.86315,-2.91507 -3.00729,-5.02079 -3.78194,-8.16311c-1.39634,-5.79916 -1.91773,-11.78797 -3.70981,-17.49639c-3.44719,-10.98058 -12.95763,-23.47794 -7.25123,-35.20539c0,0 0.67082,-1.34164 2.01246,-0.67082c1.34164,0.67082 0.67082,2.01246 0.67082,2.01246c-1.78635,3.45595 -1.52376,6.89236 -0.79975,10.67669c1.51374,7.91223 5.84038,14.67678 8.22997,22.2885c1.81368,5.77725 2.34813,11.82545 3.764,17.69191c0.73919,3.14894 2.81798,5.02021 3.73663,7.99636c0.31154,1.0093 0.01528,2.12274 0.20176,3.16244c0.49893,2.78173 1.20951,2.68267 2.04228,5.45721c0.75426,2.51296 2.05134,5.79844 2.48029,8.37264c0.15975,0.95869 -0.2408,1.9698 -0.01735,2.91567c0.22719,0.96173 1.08779,1.69102 1.33182,2.64862c0.23503,0.92231 0.20305,5.32874 0.20814,6.36883l1.16306,0.88934c0,0 0.95106,1.15995 -0.2089,2.11101z" fill="none" stroke="none" stroke-width="0.5"/></g></g></svg>