<svg version="1.1" xmlns="http://www.w3.org/2000/svg" xmlns:xlink="http://www.w3.org/1999/xlink" width="77.35876" height="77.35876" viewBox="0,0,77.35876,77.35876"><defs><linearGradient x1="57.44353" y1="109.51979" x2="57.44353" y2="184.37856" gradientUnits="userSpaceOnUse" id="color-1"><stop offset="0" stop-color="#00ff04"/><stop offset="1" stop-color="#00ab03"/></linearGradient><linearGradient x1="39.493" y1="150.74248" x2="35.65985" y2="167.67343" gradientUnits="userSpaceOnUse" id="color-2"><stop offset="0" stop-color="#e6cb59"/><stop offset="1" stop-color="#c38c35"/></linearGradient><linearGradient x1="53.74698" y1="121.96733" x2="51.08303" y2="133.73396" gradientUnits="userSpaceOnUse" id="color-3"><stop offset="0" stop-color="#e6cb59"/><stop offset="1" stop-color="#c38c35"/></linearGradient><linearGradient x1="65.67614" y1="128.88903" x2="57.15207" y2="166.53974" gradientUnits="userSpaceOnUse" id="color-4"><stop offset="0" stop-color="#e6cb59"/><stop offset="1" stop-color="#c38c35"/></linearGradient><linearGradient x1="57.14177" y1="143.2725" x2="54.92942" y2="153.04445" gradientUnits="userSpaceOnUse" id="color-5"><stop offset="0" stop-color="#e6cb59"/><stop offset="1" stop-color="#c38c35"/></linearGradient></defs><g transform="translate(-18.76415,-108.26979)"><g data-paper-data="{&quot;isPaintingLayer&quot;:true}" fill-rule="nonzero" stroke-linecap="butt" stroke-linejoin="miter" stroke-miterlimit="10" stroke-dasharray="" stroke-dashoffset="0" style="mix-blend-mode: normal"><path d="M20.01415,184.37856v-74.85876h74.85876v74.85876z" fill="url(#color-1)" stroke="#000000" stroke-width="2.5"/><path d="M35.96376,167.66835c-4.06124,-0.11288 -7.98932,-6.96965 -6.03092,-10.96697c1.9584,-3.99732 7.94998,-5.38389 12.01122,-5.27102c4.06124,0.11288 5.76593,3.44486 3.80751,7.44218c-1.95841,3.99732 -5.72658,8.90868 -9.78782,8.79582z" data-paper-data="{&quot;index&quot;:null}" fill="url(#color-2)" stroke="#7e5926" stroke-width="2.5"/><path d="M47.38276,122.67362c2.15898,-2.0986 6.16219,-1.48201 8.94141,1.37716c2.77922,2.85919 3.28204,6.87827 1.12306,8.97687c-2.15898,2.0986 -6.16218,1.48202 -8.9414,-1.37716c-2.77923,-2.85918 -3.28204,-6.87825 -1.12307,-8.97686z" data-paper-data="{&quot;index&quot;:null}" fill="url(#color-3)" stroke="#7e5926" stroke-width="2.5"/><path d="M39.00516,142.64105c2.35386,-10.39696 14.33638,-16.71368 26.68001,-13.74996c13.23017,3.17658 18.0781,18.13272 18.0781,18.13272c0,0 0.77956,5.15168 0.75526,6.22227c-0.00505,0.22222 -4.49879,-0.42307 -8.24696,-1.33702c-4.21425,-1.0276 -7.94321,-5.43649 -8.09276,-4.56195c-0.42455,2.48265 2.58276,6.36825 6.04328,8.48708c4.01348,2.45738 8.60176,2.9683 8.60176,2.9683c0,0 -6.13186,11.9798 -25.66276,7.73932c-12.40542,-2.69343 -20.5098,-13.50381 -18.15595,-23.90076z" data-paper-data="{&quot;index&quot;:null}" fill="url(#color-4)" stroke="#7e5926" stroke-width="2.5"/><path d="M57.14176,143.27249c3.88893,0.88045 6.54629,3.78172 5.93536,6.48017c-0.61092,2.69845 -4.25878,4.17223 -8.14772,3.29178c-3.88893,-0.88045 -6.54629,-3.78172 -5.93536,-6.48017c0.61092,-2.69845 4.25878,-4.17223 8.14772,-3.29178z" data-paper-data="{&quot;index&quot;:null}" fill="url(#color-5)" stroke="#7e5926" stroke-width="2.5"/><path d="M76.32282,144.54532c-0.59525,-0.13476 -0.96855,-0.72655 -0.83378,-1.3218c0.13476,-0.59525 0.72655,-0.96855 1.3218,-0.83378c0.59525,0.13476 0.96855,0.72655 0.83378,1.3218c-0.13476,0.59525 -0.72655,0.96855 -1.3218,0.83378z" data-paper-data="{&quot;index&quot;:null}" fill="#000000" stroke="none" stroke-width="0.5"/><path d="M70.13104,143.86864c-0.59525,-0.13476 -0.96855,-0.72655 -0.83378,-1.3218c0.13476,-0.59525 0.72655,-0.96855 1.3218,-0.83378c0.59525,0.13476 0.96855,0.72655 0.83378,1.3218c-0.13476,0.59525 -0.72655,0.96855 -1.3218,0.83378z" data-paper-data="{&quot;index&quot;:null}" fill="#000000" stroke="none" stroke-width="0.5"/><path d="M23.37201,169.23397l12.59554,-55.63435l57.80891,13.08786l-12.59554,55.63435z" fill="none" stroke="none" stroke-width="0"/></g></g></svg>