<svg version="1.1" xmlns="http://www.w3.org/2000/svg" xmlns:xlink="http://www.w3.org/1999/xlink" width="106.50952" height="92.24029" viewBox="0,0,106.50952,92.24029"><g transform="translate(-196.63333,-118.92675)"><g data-paper-data="{&quot;isPaintingLayer&quot;:true}" fill-rule="nonzero" stroke-linejoin="miter" stroke-miterlimit="10" stroke-dasharray="" stroke-dashoffset="0" style="mix-blend-mode: normal"><path d="M252.44958,156.16029c1.28811,4.87243 -4.47491,10.62194 -12.87209,12.84187c-8.39717,2.21994 -16.24863,0.06967 -17.53676,-4.80276c-1.28811,-4.87243 4.47491,-10.62194 12.87209,-12.84187c8.39717,-2.21994 16.24863,-0.06967 17.53676,4.80276z" fill="#f3c5ff" stroke="#b581c5" stroke-width="1.5" stroke-linecap="butt"/><path d="M205.70396,198.30736l2.39834,-23.33569l9.97268,9.2572c0,0 3.90515,3.47643 8.10377,1.90971c4.26812,-1.59264 8.48234,-4.17762 8.48234,-4.17762c0,0 -4.67254,9.85478 -7.77328,11.69024c-3.0494,1.80507 -11.0206,0.3194 -11.0206,0.3194z" fill="#f3c5ff" stroke="#b581c5" stroke-width="1.5" stroke-linecap="butt"/><path d="M248.17811,173.24615c1.28811,4.87243 -4.47491,10.62194 -12.87209,12.84187c-8.39717,2.21994 -16.24863,0.06967 -17.53675,-4.80276c-1.28811,-4.87243 4.47491,-10.62194 12.87209,-12.84187c8.39717,-2.21994 16.24863,-0.06967 17.53676,4.80276z" fill="#f3c5ff" stroke="#b581c5" stroke-width="1.5" stroke-linecap="butt"/><path d="M259.80557,147.16402c-1.52926,4.00811 -6.71492,-5.48975 -14.45655,-9.2388c-7.74164,-3.74904 -15.10765,-0.32957 -13.5784,-4.33769c1.52926,-4.00811 9.62729,-8.29543 17.36892,-4.54639c7.74164,3.74904 12.19529,14.11475 10.66602,18.12287z" fill="#e167ff" stroke="#ac5bc4" stroke-width="1.5" stroke-linecap="butt"/><path d="M273.4186,162.76164c1.28811,4.87243 -4.47491,10.62194 -12.87209,12.84187c-8.39717,2.21994 -16.24863,0.06967 -17.53675,-4.80276c-1.28811,-4.87243 4.47491,-10.62194 12.87209,-12.84187c8.39717,-2.21994 16.24863,-0.06967 17.53675,4.80276z" fill="#f3c5ff" stroke="#b581c5" stroke-width="1.5" stroke-linecap="butt"/><path d="M274.97185,147.61734c1.28811,4.87243 -4.47491,10.62194 -12.87209,12.84189c-8.39717,2.21994 -16.24863,0.06967 -17.53675,-4.80276c-1.28811,-4.87243 4.47491,-10.62194 12.87209,-12.84187c8.39717,-2.21994 16.24863,-0.06967 17.53675,4.80276z" fill="#f3c5ff" stroke="#b581c5" stroke-width="1.5" stroke-linecap="butt"/><path d="M292.44604,156.16029c1.28811,4.87243 -4.47491,10.62194 -12.87209,12.84187c-8.39717,2.21994 -16.24863,0.06967 -17.53675,-4.80276c-1.28811,-4.87243 4.47491,-10.62194 12.87209,-12.84187c8.39717,-2.21994 16.24863,-0.06967 17.53675,4.80276z" fill="#f3c5ff" stroke="#b581c5" stroke-width="1.5" stroke-linecap="butt"/><path d="M268.75882,178.68257c1.28811,4.87243 -4.47491,10.62194 -12.87209,12.84187c-8.39717,2.21994 -16.24863,0.06967 -17.53675,-4.80276c-1.28811,-4.87243 4.47491,-10.62194 12.87209,-12.84187c8.39717,-2.21994 16.24863,-0.06967 17.53675,4.80276z" fill="#f3c5ff" stroke="#b581c5" stroke-width="1.5" stroke-linecap="butt"/><path d="M290.89278,172.46954c1.28811,4.87243 -4.47491,10.62194 -12.87209,12.84187c-8.39717,2.21994 -16.24863,0.06967 -17.53676,-4.80276c-1.28811,-4.87243 4.47491,-10.62194 12.87209,-12.84187c8.39717,-2.21994 16.24863,-0.06967 17.53676,4.80276z" fill="#f3c5ff" stroke="#b581c5" stroke-width="1.5" stroke-linecap="butt"/><path d="M284.29143,185.67223c1.28811,4.87243 -4.47491,10.62194 -12.87209,12.84187c-8.39717,2.21994 -16.24863,0.06967 -17.53676,-4.80276c-1.28811,-4.87243 4.47491,-10.62194 12.87209,-12.84187c8.39717,-2.21994 16.24863,-0.06967 17.53676,4.80276z" fill="#f3c5ff" stroke="#b581c5" stroke-width="1.5" stroke-linecap="butt"/><path d="M257.10936,188.77874c1.28811,4.87243 -4.47491,10.62194 -12.87209,12.84187c-8.39717,2.21994 -16.24863,0.06967 -17.53676,-4.80276c-1.28811,-4.87243 4.47491,-10.62194 12.87209,-12.84187c8.39717,-2.21994 16.24863,-0.06967 17.53676,4.80276z" fill="#f3c5ff" stroke="#b581c5" stroke-width="1.5" stroke-linecap="butt"/><path d="M288.69692,178.27159c0,0 -4.08783,0.22269 -8.24168,-0.15383c-3.65597,-0.33139 -7.48508,-2.95269 -7.48508,-2.95269" fill="none" stroke="#b581c5" stroke-width="1.5" stroke-linecap="round"/><path d="M283.64883,162.35066c0,-0.53615 0.43464,-0.97078 0.97078,-0.97078c0.53615,0 0.97078,0.43464 0.97078,0.97078c0,0.53615 -0.43464,0.97078 -0.97078,0.97078c-0.53615,0 -0.97078,-0.43464 -0.97078,-0.97078z" fill="#000000" stroke="none" stroke-width="0.5" stroke-linecap="butt"/><path d="M274.32926,162.35066c0,-0.53615 0.43464,-0.97078 0.97078,-0.97078c0.53615,0 0.97078,0.43464 0.97078,0.97078c0,0.53615 -0.43464,0.97078 -0.97078,0.97078c-0.53615,0 -0.97078,-0.43464 -0.97078,-0.97078z" fill="#000000" stroke="none" stroke-width="0.5" stroke-linecap="butt"/><path d="M255.14578,173.56944c-1.52926,4.00811 -9.04481,4.21813 -16.78645,0.46909c-7.74164,-3.74904 -12.77775,-10.03745 -11.2485,-14.04557c1.52926,-4.00811 9.04481,-4.21813 16.78645,-0.46909c7.74164,3.74904 12.77775,10.03745 11.2485,14.04557z" fill="#e167ff" stroke="#ac5bc4" stroke-width="1.5" stroke-linecap="butt"/><path d="M196.63333,211.16704v-92.24029h106.50952v92.24029z" fill="none" stroke="none" stroke-width="0" stroke-linecap="butt"/></g></g></svg>