<svg version="1.1" xmlns="http://www.w3.org/2000/svg" xmlns:xlink="http://www.w3.org/1999/xlink" width="77.35876" height="77.35876" viewBox="0,0,77.35876,77.35876"><defs><linearGradient x1="57.44353" y1="189.32204" x2="57.44353" y2="264.1808" gradientUnits="userSpaceOnUse" id="color-1"><stop offset="0" stop-color="#00ff04"/><stop offset="1" stop-color="#00ab03"/></linearGradient><linearGradient x1="39.15824" y1="220.57889" x2="26.00504" y2="234.24839" gradientUnits="userSpaceOnUse" id="color-2"><stop offset="0" stop-color="#a289e3"/><stop offset="1" stop-color="#7f67be"/></linearGradient><linearGradient x1="65.69992" y1="213.55754" x2="57.04586" y2="222.5513" gradientUnits="userSpaceOnUse" id="color-3"><stop offset="0" stop-color="#a289e3"/><stop offset="1" stop-color="#7f67be"/></linearGradient><linearGradient x1="77.03537" y1="213.17081" x2="49.20851" y2="242.08995" gradientUnits="userSpaceOnUse" id="color-4"><stop offset="0" stop-color="#7f67be"/><stop offset="1" stop-color="#d2aed5"/></linearGradient><linearGradient x1="65.4743" y1="225.64141" x2="55.52764" y2="235.97852" gradientUnits="userSpaceOnUse" id="color-5"><stop offset="0" stop-color="#a289e3"/><stop offset="1" stop-color="#7f67be"/></linearGradient></defs><g transform="translate(-18.76415,-188.07204)"><g data-paper-data="{&quot;isPaintingLayer&quot;:true}" fill-rule="nonzero" stroke-linecap="butt" stroke-linejoin="miter" stroke-miterlimit="10" stroke-dasharray="" stroke-dashoffset="0" style="mix-blend-mode: normal"><path d="M20.01415,264.1808v-74.85876h74.85876v74.85876z" fill="url(#color-1)" stroke="#000000" stroke-width="2.5"/><path d="M38.33172,232.5501l-5.48816,4.94837l-7.39363,-3.78422l1.80228,-11.87424l4.60979,-4.33499l9.71389,5.40021z" data-paper-data="{&quot;index&quot;:null}" fill="url(#color-2)" stroke="#503e87" stroke-width="2.5"/><path d="M57.04586,222.5513l-0.21286,-11.05795l10.68855,3.81703l0.58225,7.02808z" data-paper-data="{&quot;index&quot;:null}" fill="url(#color-3)" stroke="#503e87" stroke-width="2.5"/><path d="M46.36219,239.35113l-10.70211,-10.29789l10.29789,-10.70211l36.56035,0.2663l3.03687,3.26997c0,0 -0.48726,1.49631 -1.68808,2.56234c-1.98856,1.76535 -5.07736,3.50239 -4.84563,3.78744c2.4776,3.04774 9.97455,-2.58092 9.97455,-2.58092l0.94259,1.19768l-10.52978,10.96716z" data-paper-data="{&quot;index&quot;:null}" fill="url(#color-4)" stroke="#503e87" stroke-width="2.5"/><path d="M52.94336,233.49185l-0.09761,-5.07094l15.21282,-0.29283l0.0976,5.07095z" data-paper-data="{&quot;index&quot;:null}" fill="url(#color-5)" stroke="#503e87" stroke-width="2.5"/><path d="M80.43219,224.22456c-0.45378,0.47159 -1.20394,0.48603 -1.67554,0.03225c-0.4716,-0.45378 -0.48603,-1.20395 -0.03225,-1.67554c0.45378,-0.47159 1.20394,-0.48603 1.67554,-0.03225c0.4716,0.45378 0.48603,1.20395 0.03225,1.67554z" data-paper-data="{&quot;index&quot;:null}" fill="#000000" stroke="none" stroke-width="0.5"/><path d="M23.16827,243.13716v-35.42983h69.05202l0,35.42983z" fill="none" stroke="none" stroke-width="0"/></g></g></svg>