<svg version="1.1" xmlns="http://www.w3.org/2000/svg" xmlns:xlink="http://www.w3.org/1999/xlink" width="605.91151" height="449.70178" viewBox="0,0,605.91151,449.70178"><defs><linearGradient x1="-4169.97217" y1="-2110.59916" x2="-2495.20859" y2="5247.07009" gradientUnits="userSpaceOnUse" id="color-1"><stop offset="0" stop-color="#000000" stop-opacity="0"/><stop offset="1" stop-color="#000000"/></linearGradient><linearGradient x1="246.92295" y1="36.11956" x2="246.92295" y2="51.4304" gradientUnits="userSpaceOnUse" id="color-2"><stop offset="0" stop-color="#b5f4c4"/><stop offset="1" stop-color="#469a3b"/></linearGradient><linearGradient x1="194.70205" y1="78.77125" x2="194.70205" y2="101.73754" gradientUnits="userSpaceOnUse" id="color-3"><stop offset="0" stop-color="#b5f4c4"/><stop offset="1" stop-color="#469a3b"/></linearGradient><linearGradient x1="254.85184" y1="74.39672" x2="254.85184" y2="108.84609" gradientUnits="userSpaceOnUse" id="color-4"><stop offset="0" stop-color="#b5f4c4"/><stop offset="1" stop-color="#469a3b"/></linearGradient><linearGradient x1="244.02849" y1="79.78412" x2="239.10629" y2="101.09571" gradientUnits="userSpaceOnUse" id="color-5"><stop offset="0" stop-color="#b5f4c4"/><stop offset="1" stop-color="#469a3b"/></linearGradient></defs><g transform="translate(62.95575,44.85089)"><g data-paper-data="{&quot;isPaintingLayer&quot;:true}" fill-rule="nonzero" stroke-linecap="butt" stroke-linejoin="miter" stroke-miterlimit="10" stroke-dasharray="" stroke-dashoffset="0" style="mix-blend-mode: normal"><path d="M-62.95575,404.85089l14.8145,-448.1959l583.38281,-1.50588l7.7142,446.02978z" fill="url(#color-1)" stroke="none" stroke-width="0"/><text transform="translate(31.48751,294.47695) scale(0.78975,0.78975)" font-size="40" xml:space="preserve" fill="#ffffff" fill-rule="nonzero" stroke="none" stroke-width="1" stroke-linecap="butt" stroke-linejoin="miter" stroke-miterlimit="10" stroke-dasharray="" stroke-dashoffset="0" font-family="Handwriting" font-weight="normal" text-anchor="start" style="mix-blend-mode: normal"><tspan x="0" dy="0">Seaweed moves at 0.8x the speed</tspan></text><text transform="translate(271.48751,294.47695) scale(0.78975,0.78975)" font-size="40" xml:space="preserve" fill="#ffffff" fill-rule="nonzero" stroke="#ffffff" stroke-width="1" stroke-linecap="butt" stroke-linejoin="miter" stroke-miterlimit="10" stroke-dasharray="" stroke-dashoffset="0" font-family="Handwriting" font-weight="normal" text-anchor="start" style="mix-blend-mode: normal"><tspan x="0" dy="0">0.8x</tspan></text><g stroke-width="3.5"><path d="M231.88551,51.4304v-15.31084c0,0 10.05667,-4.41474 23.76647,3.31047c3.99633,2.25185 6.30839,12.00037 6.30839,12.00037z" data-paper-data="{&quot;index&quot;:null}" fill="url(#color-2)" stroke="#4a7b42"/><path d="M179.93805,113.76743c-5.06351,-6.49662 3.73051,-16.18368 3.554,-24.04149c-0.24255,-10.79794 -7.70939,-19.59897 -3.00719,-25.17196c8.12407,-9.6285 28.98126,14.21721 28.98126,14.21721v22.96627c0,0 -17.5064,27.45397 -29.52807,12.02995z" data-paper-data="{&quot;index&quot;:null}" fill="url(#color-3)" stroke="#4a7b42"/><path d="M296.88252,93.37256c0,0 -6.33637,4.44284 -12.10296,4.65649c-5.81616,0.21547 -13.4414,-6.86566 -15.00058,-0.89611c-1.55919,5.96955 7.66554,9.88278 12.39897,10.85674c5.3346,1.09767 13.68509,1.95006 13.68509,1.95006l-21.03081,17.61601l-44.58711,0.42893l-20.23219,-19.13856v-34.4494l18.7032,-21.95443l41.99337,0.08179l27.34081,21.87264z" data-paper-data="{&quot;index&quot;:null}" fill="url(#color-4)" stroke="#4a7b42"/><path d="M244.02849,79.78412c9.12179,2.1068 15.41463,8.58547 14.0554,14.47052c-1.35923,5.88505 -9.85581,8.94789 -18.9776,6.84108c-9.12178,-2.1068 -15.41462,-8.58546 -14.05539,-14.47051c1.35923,-5.88505 9.85581,-8.9479 18.97759,-6.84109z" data-paper-data="{&quot;index&quot;:null}" fill="url(#color-5)" stroke="#4a7b42"/><path d="M287.435,84.14411c-1.93668,0 -3.50665,-1.56998 -3.50665,-3.50666c0,-1.93668 1.56997,-3.50665 3.50665,-3.50665c1.93668,0 3.50666,1.56997 3.50666,3.50665c0,1.93668 -1.56997,3.50666 -3.50666,3.50666z" data-paper-data="{&quot;index&quot;:null}" fill="#000000" stroke="none"/><path d="M166.09102,136.40811v-109.96772h144.23303v109.96772z" fill="none" stroke="none"/></g></g></g></svg>